<svg fill="none" xmlns="http://www.w3.org/2000/svg" viewBox="0 0 64 64"><path fill-rule="evenodd" clip-rule="evenodd" d="M31.438 26.122c-1.685-2.298-4.625-3.966-7.875-3.966-5.428 0-9.938 4.416-9.938 9.844 0 5.428 4.51 9.844 9.938 9.844a9.786 9.786 0 008.859-5.626h-7.453v-5.624H39.03V32c0 1.462-.197 2.868-.59 4.219-1.829 6.497-7.79 11.25-14.879 11.25C15.012 47.469 8 40.549 8 32c0-8.55 7.013-15.469 15.563-15.469 4.883 0 9.48 2.463 11.868 5.569l-3.993 4.022zm14.625-1.153h5.624v4.218H56v5.625h-4.313v4.22h-5.624v-4.22h-4.22v-5.624h4.22v-4.22z" fill="#000"/></svg>