<svg fill="none" xmlns="http://www.w3.org/2000/svg" viewBox="0 0 64 64"><path fill-rule="evenodd" clip-rule="evenodd" d="M32 12.324c6.408 0 7.168.024 9.698.14 2.732.124 5.266.672 7.216 2.622 1.95 1.95 2.498 4.484 2.622 7.216.116 2.53.14 3.29.14 9.698s-.024 7.168-.14 9.698c-.124 2.732-.672 5.266-2.622 7.216-1.95 1.95-4.484 2.498-7.216 2.622-2.53.116-3.29.14-9.698.14s-7.168-.024-9.698-.14c-2.732-.124-5.266-.672-7.216-2.622-1.95-1.95-2.498-4.484-2.622-7.216-.116-2.53-.14-3.29-.14-9.698s.024-7.168.14-9.698c.124-2.732.672-5.266 2.622-7.216 1.95-1.95 4.484-2.498 7.216-2.622 2.53-.116 3.29-.14 9.698-.14zM32 8c-6.518 0-7.336.028-9.896.144-3.9.178-7.326 1.134-10.076 3.884-2.75 2.75-3.706 6.176-3.884 10.076C8.028 24.664 8 25.482 8 32c0 6.518.028 7.336.144 9.896.178 3.9 1.134 7.326 3.884 10.076 2.75 2.75 6.176 3.706 10.076 3.884 2.56.116 3.378.144 9.896.144 6.518 0 7.336-.028 9.896-.144 3.9-.178 7.326-1.134 10.076-3.884 2.75-2.75 3.706-6.176 3.884-10.076.116-2.56.144-3.378.144-9.896 0-6.518-.028-7.336-.144-9.896-.178-3.9-1.134-7.326-3.884-10.076-2.75-2.75-6.176-3.706-10.076-3.884C39.336 8.028 38.518 8 32 8zm0 11.676c-6.806 0-12.324 5.518-12.324 12.324S25.194 44.324 32 44.324 44.324 38.806 44.324 32 38.806 19.676 32 19.676zM32 40a8 8 0 110-16 8 8 0 010 16zm12.812-17.932a2.88 2.88 0 100-5.76 2.88 2.88 0 000 5.76z" fill="#000"/></svg>