<svg fill="none" xmlns="http://www.w3.org/2000/svg" viewBox="0 0 64 64"><path fill-rule="evenodd" clip-rule="evenodd" d="M8 31.999C8 45.252 18.734 56 31.98 56c13.243 0 23.98-10.748 23.98-24.001C55.96 18.745 45.223 8 31.98 8 18.734 8 8 18.745 8 31.999zm16.03 20.253C15.947 49.082 10.219 41.212 10.219 32c0-12.015 9.73-21.75 21.732-21.75 12.003 0 21.733 9.735 21.733 21.75 0 12.012-9.73 21.75-21.733 21.75a21.61 21.61 0 01-6.434-.972c.884-1.445 2.209-3.812 2.7-5.702.264-1.018 1.353-5.169 1.353-5.169.71 1.352 2.78 2.498 4.983 2.498 6.553 0 11.276-6.033 11.276-13.528 0-7.185-5.859-12.563-13.398-12.563-9.377 0-14.358 6.303-14.358 13.164 0 3.188 1.696 7.162 4.408 8.427.413.19.634.105.73-.294l.199-.813c.137-.554.306-1.243.404-1.652.051-.22.026-.408-.151-.624-.9-1.09-1.616-3.095-1.616-4.964 0-4.797 3.63-9.44 9.812-9.44 5.34 0 9.077 3.64 9.077 8.849 0 5.884-2.97 9.96-6.832 9.96-2.132 0-3.73-1.763-3.219-3.93.222-.934.519-1.895.807-2.829.51-1.652.994-3.22.994-4.412 0-1.67-.897-3.064-2.748-3.064-2.184 0-3.933 2.257-3.933 5.282 0 1.926.65 3.229.65 3.229s-2.155 9.113-2.548 10.81c-.437 1.88-.267 4.52-.077 6.24z" fill="#000"/></svg>