<svg fill="none" xmlns="http://www.w3.org/2000/svg" viewBox="0 0 64 64"><path fill-rule="evenodd" clip-rule="evenodd" d="M32.462 9H32.342l-.825.009c-1.066 0-3.198.153-5.488 1.184a12.208 12.208 0 00-3.5 2.366c-1.208 1.169-2.193 2.61-2.925 4.284-1.073 2.452-.818 6.581-.613 9.9v.005l.066 1.088c-.157.074-.412.152-.788.152-.605 0-1.325-.198-2.138-.586a1.882 1.882 0 00-.814-.171c-.485 0-.995.145-1.438.41-.557.334-.917.805-1.015 1.328-.064.345-.061 1.029.683 1.721.41.382 1.011.733 1.788 1.046.204.082.445.16.702.243.888.288 2.234.723 2.584 1.564.178.427.102.988-.226 1.667l-.025.056c-.082.195-.847 1.96-2.416 3.823-.891 1.059-1.873 1.944-2.917 2.63a10.607 10.607 0 01-4.095 1.63c-.567.095-.972.61-.94 1.196.01.168.048.336.116.499l.001.003c.23.546.76 1.01 1.625 1.42 1.056.5 2.635.92 4.694 1.25.104.201.212.708.287 1.055.078.369.16.748.276 1.15.125.437.45.958 1.287.958.317 0 .681-.073 1.104-.156.618-.124 1.463-.292 2.518-.292.585 0 1.191.052 1.801.155 1.176.2 2.19.93 3.363 1.775C26.791 53.6 28.735 55 31.704 55c.082 0 .163-.003.243-.008.098.004.22.008.348.008 2.971 0 4.914-1.4 6.63-2.637l.002-.003c1.174-.844 2.186-1.573 3.362-1.773.61-.103 1.216-.156 1.801-.156 1.008 0 1.806.132 2.519.273.465.093.826.138 1.103.138h.056c.611 0 1.06-.341 1.232-.94.114-.394.195-.765.276-1.14.07-.325.181-.846.285-1.05 2.06-.33 3.639-.749 4.695-1.249.862-.407 1.393-.871 1.623-1.415.07-.163.11-.333.12-.505a1.141 1.141 0 00-.941-1.195c-6.417-1.078-9.308-7.798-9.428-8.084a.795.795 0 00-.025-.055c-.328-.679-.404-1.24-.226-1.667.35-.84 1.695-1.276 2.584-1.564.257-.082.5-.16.702-.242.876-.353 1.502-.735 1.915-1.17.493-.517.589-1.013.583-1.338-.015-.785-.604-1.483-1.541-1.825a2.712 2.712 0 00-1.045-.203 2.3 2.3 0 00-.971.201c-.751.359-1.424.554-2 .582a1.782 1.782 0 01-.663-.148l.057-.95.009-.14c.205-3.32.46-7.453-.612-9.906-.736-1.68-1.724-3.126-2.936-4.297a12.24 12.24 0 00-3.514-2.367A13.745 13.745 0 0032.461 9z" fill="#000"/></svg>