<svg fill="none" xmlns="http://www.w3.org/2000/svg" viewBox="0 0 64 64"><path fill-rule="evenodd" clip-rule="evenodd" d="M32 8C18.8 8 8 18.8 8 32s10.8 24 24 24 24-10.8 24-24S45.4 8 32 8zm11 34.6c-.4.8-1.4 1-2 .4-5.6-3.4-12.8-4.2-21.2-2.2-.8.2-1.6-.4-1.8-1-.2-.8.4-1.6 1-1.8 9.2-2 17-1.2 23.2 2.6 1 .4 1.2 1.4.8 2zm3-6.6c-.6.8-1.6 1.2-2.6.6-6.4-4-16.4-5.2-23.8-2.8-1 .2-2-.2-2.2-1.2-.2-1 .2-2 1.2-2.2 8.8-2.6 19.6-1.4 27 3.2.6.4 1 1.6.4 2.4zm.2-6.6c-7.8-4.6-20.6-5-27.8-2.8-1.2.4-2.4-.4-2.8-1.4-.4-1.2.4-2.4 1.4-2.8 8.6-2.6 22.6-2 31.4 3.2 1 .6 1.4 2 .8 3.2-.6.8-2 1.2-3 .6z" fill="#000"/></svg>