<svg fill="none" xmlns="http://www.w3.org/2000/svg" viewBox="0 0 64 64"><path fill-rule="evenodd" clip-rule="evenodd" d="M56 17.505c-1.8.784-3.6 1.371-5.6 1.567 2-1.175 3.6-3.134 4.4-5.288-2 1.175-4 1.958-6.2 2.35A9.774 9.774 0 0041.4 13c-5.4 0-9.8 4.31-9.8 9.598 0 .783 0 1.567.2 2.155-8.4-.392-15.6-4.31-20.4-10.186-1 1.567-1.4 3.134-1.4 4.897 0 3.33 1.8 6.268 4.4 8.03-1.6 0-3.2-.39-4.4-1.174v.195c0 4.701 3.4 8.619 7.8 9.402-.8.196-1.6.392-2.6.392-.6 0-1.2 0-1.8-.196 1.2 3.918 4.8 6.66 9.2 6.66-3.4 2.547-7.6 4.114-12.2 4.114-.8 0-1.6 0-2.4-.196C12.4 49.433 17.6 51 23 51c18.2 0 28-14.69 28-27.423v-1.175c2-1.371 3.6-3.134 5-4.897z" fill="#000"/></svg>