<svg fill="none" xmlns="http://www.w3.org/2000/svg" viewBox="0 0 64 64"><path fill-rule="evenodd" clip-rule="evenodd" d="M32.425 8c3.276 0 6.339.61 9.19 1.828 2.85 1.219 5.346 2.89 7.487 5.016 2.142 2.125 3.827 4.601 5.056 7.43C55.386 25.101 56 28.14 56 31.39c0 3.218-.614 6.25-1.843 9.093-1.228 2.844-2.913 5.32-5.055 7.43-2.141 2.11-4.637 3.781-7.488 5.016-2.85 1.234-5.913 1.851-9.189 1.851-2.047 0-4.031-.258-5.953-.773a25.644 25.644 0 01-5.433-2.133L8 56l4.252-12.563a23.476 23.476 0 01-2.504-5.695 22.518 22.518 0 01-.898-6.351c0-3.25.622-6.29 1.867-9.118 1.244-2.828 2.929-5.304 5.055-7.43 2.126-2.124 4.622-3.796 7.488-5.015C26.126 8.61 29.18 8 32.425 8zm0 42.844c2.709 0 5.252-.508 7.63-1.524 2.378-1.015 4.457-2.406 6.236-4.172 1.78-1.765 3.19-3.828 4.229-6.187 1.039-2.36 1.559-4.883 1.559-7.57 0-2.688-.52-5.211-1.56-7.57-1.039-2.36-2.448-4.423-4.228-6.188-1.78-1.766-3.858-3.156-6.236-4.172-2.378-1.016-4.921-1.524-7.63-1.524-2.708 0-5.252.508-7.63 1.524-2.378 1.015-4.457 2.406-6.236 4.172a19.632 19.632 0 00-4.205 6.187c-1.023 2.36-1.535 4.883-1.535 7.57 0 2.126.33 4.157.992 6.094a19.69 19.69 0 002.74 5.297l-2.457 7.266 7.56-2.438a19.315 19.315 0 0010.772 3.234zM43.48 36.687c.284.157.528.29.733.399.204.11.338.227.401.352.063.124.071.453.024.984-.047.531-.213 1.14-.496 1.828-.284.688-.906 1.297-1.866 1.828-.96.531-1.725.813-2.292.844-.567.031-1.15.078-1.748.14-.598.063-2.41-.562-5.433-1.874a16.509 16.509 0 01-4.015-2.508c-1.197-1.016-2.221-2.016-3.071-3-.85-.985-1.52-1.852-2.008-2.602-.488-.75-.764-1.172-.827-1.266-.126-.218-.543-.953-1.252-2.203a7.46 7.46 0 01-.968-4.078c.063-1.468.393-2.578.992-3.328.598-.75 1.039-1.281 1.323-1.594.283-.28.574-.468.873-.562.3-.094.544-.125.733-.094a7.035 7.035 0 011.181.094c.157 0 .354.023.59.07.237.047.465.367.686.961.251.594.582 1.453.992 2.578.41 1.125.645 1.766.708 1.922.063.156.11.32.142.492.031.172-.016.352-.142.54a5.982 5.982 0 01-.26.538c-.078.141-.196.29-.354.446a8.902 8.902 0 00-.496.539 8.253 8.253 0 01-.449.492 1.673 1.673 0 00-.401.469c-.11.187-.087.422.07.703.19.312.552.898 1.087 1.758.535.859 1.244 1.695 2.126 2.508 1.103 1.062 2.095 1.812 2.976 2.25a57.16 57.16 0 011.748.89c.284.156.528.227.733.211.204-.016.401-.117.59-.305.158-.187.473-.539.945-1.054.473-.516.82-.914 1.04-1.196.189-.312.393-.46.614-.445.22.016.472.07.756.164.252.125.913.469 1.984 1.031 1.07.563 1.748.922 2.031 1.078z" fill="#000"/></svg>