<svg fill="none" xmlns="http://www.w3.org/2000/svg" viewBox="0 0 64 64"><path fill-rule="evenodd" clip-rule="evenodd" d="M37.725 9.305h2.682v11.439c0 .151.012.305.038.453.08.472.42.694.861.536.538-.191.949-.575 1.297-1.026.043-.056.042-.154.04-.24v-.024V9.305h2.702v15h-2.703l.003-1.612c-.095.096-.185.19-.274.282-.19.197-.369.384-.56.557-.497.45-1.06.786-1.718.919-1.01.203-1.871-.126-2.193-1.202a4.068 4.068 0 01-.175-1.12V9.306zm-6.139-.375c2.137 0 3.87 1.782 3.87 3.98v7.788c0 2.198-1.733 3.98-3.87 3.98s-3.87-1.782-3.87-3.98v-7.789c0-2.197 1.733-3.98 3.87-3.98zM21.176 4s1.23 5.369 1.816 7.912h.001C23.58 9.369 24.81 4 24.81 4h3.075s-2.362 8.059-3.42 11.653c-.037.13-.054.271-.054.407v8.241h-2.835l.001-8.24a1.47 1.47 0 00-.055-.408C20.464 12.059 18.1 4 18.1 4h3.076zm10.41 18.003c.616 0 1.117-.515 1.117-1.148v-8.103c0-.633-.501-1.148-1.117-1.148-.615 0-1.116.515-1.116 1.148v8.103c0 .633.5 1.148 1.116 1.148zm17.656 7.415H16.758c-2.857 0-5.172 2.381-5.172 5.319v17.285c0 2.938 2.315 5.319 5.172 5.319h32.484c2.857 0 5.172-2.382 5.172-5.319V34.737c0-2.938-2.315-5.319-5.172-5.319zm-32.484-2.66C12.473 26.759 9 30.332 9 34.738v17.285C9 56.428 12.473 60 16.758 60h32.484C53.527 60 57 56.428 57 52.022V34.737c0-4.407-3.473-7.978-7.758-7.978H16.758zm21.587 11.574c1.013-.26 2.181.062 2.737 1.28.328.72.42 1.487.42 2.269.005 2.823.005 5.647.002 8.471-.002.529-.055 1.05-.218 1.558-.352 1.09-1.128 1.645-2.243 1.633-.907-.008-1.642-.379-2.248-1.055l-.256-.28v1.134H33.9V33.14h2.64v6.65s.149-.306.285-.464c.409-.47.906-.834 1.52-.994zm.39 12.135c.031-.148.05-.3.05-.452v-.67c.003-2.447.006-4.894-.006-7.34a2.447 2.447 0 00-.184-.84c-.136-.348-.427-.52-.792-.557-.428-.044-.77.134-1.081.417-.125.111-.181.277-.181.277l.006 8.97v.222s.075.103.086.116c.252.28.546.504.923.583.62.132 1.059-.134 1.18-.726zm-10.165-.646c.05-.065.05-.182.05-.275V38.43l2.637-.006v14.922h-2.636v-1.642l-.078.086c-.05.054-.086.093-.12.133-.568.658-1.21 1.207-2.032 1.497-.4.142-.813.19-1.235.115-.575-.098-.961-.439-1.194-.977-.216-.497-.271-1.029-.273-1.564-.006-1.862-.004-11.248-.003-12.426v-.121h2.63c.004.091.014 7.606.015 11.27 0 .2.002.404.04.599.098.492.465.703.925.53.53-.2.934-.575 1.274-1.025zm-4.878-16.68h-9.147v2.895h3.082v17.308h2.977V36.03h3.088V33.14zm24.934 16.822v-1.916h2.717s.04 2.262-.304 3.294c-.457 1.378-1.403 2.143-2.79 2.352-.86.13-1.71.111-2.517-.264-1.104-.512-1.73-1.438-1.998-2.616a8.103 8.103 0 01-.192-1.687c-.018-1.911-.014-3.823-.009-5.734l.002-.905c.002-1.156.27-2.223 1.041-3.11.88-1.012 2.004-1.389 3.289-1.304.386.025.78.09 1.148.214 1.249.422 1.916 1.385 2.178 2.661.1.492.137 1.003.145 1.506.022 1.18-.008 3.781-.008 3.781h-5.057v3.728c0 .67.527 1.212 1.179 1.212.65 0 1.176-.542 1.176-1.212zM47.45 40.62c-.652 0-1.179.544-1.179 1.212v2.093h2.355V41.83c0-.668-.527-1.212-1.176-1.212z" fill="#000"/></svg>