<svg fill="none" xmlns="http://www.w3.org/2000/svg" viewBox="0 0 64 64"><path fill-rule="evenodd" clip-rule="evenodd" d="M55.6 22.286s-.4-3.44-2-4.857c-1.8-2.024-3.8-2.024-4.8-2.024C42 15 32 15 32 15s-10 0-16.8.405c-1 .202-3 .202-4.8 2.024-1.4 1.416-2 4.857-2 4.857S8 26.13 8 30.179v3.642c0 3.846.4 7.893.4 7.893s.4 3.44 2 4.857c1.8 2.024 4.2 1.822 5.2 2.024C19.4 49 32 49 32 49s10 0 16.8-.607c1-.203 3-.203 4.8-2.024 1.4-1.417 2-4.857 2-4.857s.4-3.845.4-7.893v-3.643c0-3.845-.4-7.69-.4-7.69zM27 38.274v-13.56l13 6.881-13 6.679z" fill="#000"/></svg>