<svg fill="none" xmlns="http://www.w3.org/2000/svg" viewBox="0 0 64 64"><path fill-rule="evenodd" clip-rule="evenodd" d="M58.727 4H40.908c-.7 0-1.273.57-1.273 1.273 0 .702.573 1.273 1.273 1.273h14.747L34.919 27.282a1.272 1.272 0 101.8 1.799L57.454 8.345v14.747a1.274 1.274 0 002.546 0V5.273C60 4.571 59.43 4 58.727 4zM28.181 34.546c-.35 0-.669.142-.9.373L6.547 55.655V40.908c0-.7-.57-1.273-1.273-1.273-.702 0-1.273.573-1.273 1.273v17.82C4 59.43 4.57 60 5.273 60h17.819c.7 0 1.273-.57 1.273-1.273 0-.702-.573-1.273-1.273-1.273H8.345l20.736-20.736a1.273 1.273 0 00-.9-2.172z" fill="#000"/></svg>