<svg fill="none" xmlns="http://www.w3.org/2000/svg" viewBox="0 0 64 46"><g clip-path="url(#clip0)" fill="#000"><path d="M49.851 45.07C57.653 45.07 64 38.72 64 30.911c0-7.532-5.907-13.71-13.328-14.136-.129-1.389-.032-5.168 3.587-10.425a.997.997 0 00-.116-1.271c-1.481-1.482-2.396-2.415-3.037-3.068-.838-.854-1.22-1.243-1.78-1.752A.993.993 0 0048 .244c-6.306 5.491-13.31 16.837-12.297 30.74.594 8.162 6.544 14.086 14.147 14.086zM48.646 2.36c.271.268.581.584 1.038 1.049a417.34 417.34 0 002.47 2.5c-4.391 6.773-3.562 11.596-3.199 12.288.173.329.526.55.896.55 6.702 0 12.155 5.456 12.155 12.164 0 6.707-5.453 12.164-12.155 12.164-6.529 0-11.642-5.146-12.159-12.236C36.553 15.202 45.84 5.05 48.646 2.361zM.098 30.983v.001C.694 39.146 6.644 45.07 14.245 45.07c7.802 0 14.15-6.35 14.15-14.159 0-7.532-5.908-13.71-13.33-14.136-.128-1.388-.031-5.165 3.588-10.425a.998.998 0 00-.115-1.271c-1.475-1.476-2.388-2.408-3.029-3.06-.842-.859-1.227-1.25-1.79-1.76a.999.999 0 00-1.323-.014C6.09 5.736-.914 17.082.098 30.983zM13.04 2.361c.274.27.586.587 1.047 1.057.555.565 1.313 1.338 2.463 2.492-4.392 6.773-3.563 11.595-3.201 12.287.172.328.526.55.896.55 6.703 0 12.156 5.456 12.156 12.164 0 6.707-5.453 12.164-12.156 12.164-6.527 0-11.64-5.146-12.159-12.237v.001C.948 15.204 10.235 5.05 13.04 2.361z"/></g><defs><clipPath id="clip0"><path fill="#fff" d="M0 0h64v45.07H0z"/></clipPath></defs></svg>