<svg width="796" height="314" viewBox="0 0 796 314" fill="none" xmlns="http://www.w3.org/2000/svg">
<path fill-rule="evenodd" clip-rule="evenodd" d="M282.03 39.8894V0.764648H319.531V39.8894H282.03Z" fill="#19E99E"/>
<path fill-rule="evenodd" clip-rule="evenodd" d="M68.1155 118.95C51.3044 118.95 37.8845 132.458 37.8845 148.866C37.8845 165.273 51.3044 178.782 68.1155 178.782C84.9266 178.782 98.3465 165.273 98.3465 148.866C98.3465 132.458 84.9266 118.95 68.1155 118.95ZM0 148.866C0 111.306 30.6113 81.0654 68.1155 81.0654C105.62 81.0654 136.231 111.306 136.231 148.866C136.231 186.426 105.62 216.666 68.1155 216.666C30.6113 216.666 0 186.426 0 148.866Z" fill="#19E99E"/>
<path fill-rule="evenodd" clip-rule="evenodd" d="M134.754 80.3008H153.26V118.185H135.952V148.244C135.952 185.569 106.297 216.379 71.2196 216.379H41.1409C40.8862 216.544 40.5064 216.838 40.0827 217.307C38.8727 218.647 38.2668 220.291 38.2668 221.651C38.2668 222.046 38.3588 222.696 38.7389 223.579C39.1256 224.476 39.731 225.419 40.4906 226.257C41.0147 226.835 41.4987 227.239 41.859 227.495H92.5881C113.689 227.495 135.952 244.943 135.952 270.271C135.952 300.249 111.137 314 92.5881 314H49.0879V276.115H92.5881C93.8126 276.115 95.4521 275.575 96.5279 274.65C96.9734 274.267 97.2934 273.848 97.5263 273.344C97.751 272.858 98.0671 271.921 98.0671 270.271C98.0671 269.53 97.7549 268.399 96.4297 267.17C94.9734 265.821 93.359 265.38 92.5881 265.38H40.3115C28.4729 265.38 18.5203 258.429 12.4201 251.699C5.87464 244.477 0.382324 233.926 0.382324 221.651C0.382324 209.855 5.21391 199.392 11.9694 191.913C18.512 184.67 28.5307 178.494 40.3115 178.494H71.2196C83.8399 178.494 98.0671 166.213 98.0671 148.244V115.45C98.0671 104.483 101.743 93.7731 111.436 86.8939C119.641 81.0711 129.097 80.4139 134.565 80.3046L134.754 80.3008ZM42.4087 227.827C42.4088 227.828 42.3894 227.82 42.3505 227.801C42.3892 227.816 42.4087 227.826 42.4087 227.827Z" fill="#3CC3DD"/>
<path fill-rule="evenodd" clip-rule="evenodd" d="M409.842 118.95C393.03 118.95 379.611 132.458 379.611 148.866C379.611 165.273 393.03 178.782 409.842 178.782C426.653 178.782 440.073 165.273 440.073 148.866C440.073 132.458 426.653 118.95 409.842 118.95ZM341.726 148.866C341.726 111.306 372.337 81.0654 409.842 81.0654C447.346 81.0654 477.957 111.306 477.957 148.866C477.957 186.426 447.346 216.666 409.842 216.666C372.337 216.666 341.726 186.426 341.726 148.866Z" fill="#19E99E"/>
<path fill-rule="evenodd" clip-rule="evenodd" d="M567.502 118.95C550.691 118.95 537.271 132.458 537.271 148.866C537.271 165.273 550.691 178.782 567.502 178.782C584.313 178.782 597.733 165.273 597.733 148.866C597.733 132.458 584.313 118.95 567.502 118.95ZM499.386 148.866C499.386 111.306 529.998 81.0654 567.502 81.0654C605.006 81.0654 635.617 111.306 635.617 148.866C635.617 186.426 605.006 216.666 567.502 216.666C529.998 216.666 499.386 186.426 499.386 148.866Z" fill="#19E99E"/>
<path fill-rule="evenodd" clip-rule="evenodd" d="M727.84 118.95C711.029 118.95 697.609 132.458 697.609 148.866C697.609 165.273 711.029 178.782 727.84 178.782C744.651 178.782 758.071 165.273 758.071 148.866C758.071 132.458 744.651 118.95 727.84 118.95ZM659.725 148.866C659.725 111.306 690.336 81.0654 727.84 81.0654C765.344 81.0654 795.956 111.306 795.956 148.866C795.956 186.426 765.344 216.666 727.84 216.666C690.336 216.666 659.725 186.426 659.725 148.866Z" fill="#19E99E"/>
<path fill-rule="evenodd" clip-rule="evenodd" d="M212.956 80.7305V217.381H175.837V80.7305H212.956Z" fill="#19E99E"/>
<path fill-rule="evenodd" clip-rule="evenodd" d="M193.389 92.2687C204.848 82.118 218.311 80.3008 226.733 80.3008C243.273 80.3008 256.829 88.9575 262.879 94.9926L236.125 121.815C236.126 121.816 236.124 121.814 236.119 121.81C236.019 121.725 234.796 120.687 232.662 119.687C230.536 118.691 228.464 118.185 226.733 118.185C223.101 118.185 220.301 119.04 218.51 120.627C217.157 121.825 213.148 126.275 213.148 140.849V217.381H175.264V140.849C175.264 119.161 181.492 102.807 193.389 92.2687Z" fill="#3CC3DD"/>
<path fill-rule="evenodd" clip-rule="evenodd" d="M318.765 80.7305V217.381H281.646V80.7305H318.765Z" fill="#3CC3DD"/>
<path fill-rule="evenodd" clip-rule="evenodd" d="M440.838 217.381V0H478.34V217.381H440.838Z" fill="#3CC3DD"/>
<path fill-rule="evenodd" clip-rule="evenodd" d="M599.836 217.381V0H637.338V217.381H599.836Z" fill="#3CC3DD"/>
<path d="M494.94 273.28C497.52 273.28 499.78 271.98 500.96 269.98L498.58 268.6C497.92 269.82 496.54 270.58 494.94 270.58C492.2 270.58 490.4 268.68 490.4 266C490.4 263.3 492.2 261.4 494.94 261.4C496.54 261.4 497.9 262.16 498.58 263.4L500.96 262.02C499.76 260.02 497.5 258.72 494.94 258.72C490.7 258.72 487.66 261.9 487.66 266C487.66 270.08 490.7 273.28 494.94 273.28Z" fill="#19E99E"/>
<path d="M509.539 273.28C513.579 273.28 516.819 270.08 516.819 266C516.819 261.9 513.579 258.72 509.539 258.72C505.499 258.72 502.279 261.9 502.279 266C502.279 270.08 505.499 273.28 509.539 273.28ZM509.539 270.58C506.999 270.58 505.019 268.68 505.019 266C505.019 263.3 506.999 261.4 509.539 261.4C512.079 261.4 514.059 263.3 514.059 266C514.059 268.68 512.079 270.58 509.539 270.58Z" fill="#19E99E"/>
<path d="M532.859 259H530.019L526.019 265.62L521.999 259H519.159V273H521.919V263.94L525.859 270.42H526.179L530.119 263.92V273H532.859V259Z" fill="#19E99E"/>
<path d="M541.087 259H535.867V273H538.627V268.4H541.087C543.787 268.4 545.867 266.32 545.867 263.7C545.867 261.08 543.787 259 541.087 259ZM541.087 265.82H538.627V261.58H541.087C542.267 261.58 543.127 262.48 543.127 263.7C543.127 264.9 542.267 265.82 541.087 265.82Z" fill="#19E99E"/>
<path d="M554.586 273.28C558.626 273.28 561.866 270.08 561.866 266C561.866 261.9 558.626 258.72 554.586 258.72C550.546 258.72 547.326 261.9 547.326 266C547.326 270.08 550.546 273.28 554.586 273.28ZM554.586 270.58C552.046 270.58 550.066 268.68 550.066 266C550.066 263.3 552.046 261.4 554.586 261.4C557.126 261.4 559.106 263.3 559.106 266C559.106 268.68 557.126 270.58 554.586 270.58Z" fill="#19E99E"/>
<path d="M572.306 259V267.54L566.306 259H564.206V273H566.966V264.44L572.966 273H575.066V259H572.306Z" fill="#19E99E"/>
<path d="M580.823 270.36V267.22H586.123V264.62H580.823V261.64H586.623V259H578.063V273H586.723V270.36H580.823Z" fill="#19E99E"/>
<path d="M597.169 259V267.54L591.169 259H589.069V273H591.829V264.44L597.829 273H599.929V259H597.169Z" fill="#19E99E"/>
<path d="M612.186 259H601.886V261.64H605.646V273H608.406V261.64H612.186V259Z" fill="#19E99E"/>
<path d="M622.286 270.36V259H619.526V273H627.626V270.36H622.286Z" fill="#19E99E"/>
<path d="M629.594 259V273H632.354V259H629.594Z" fill="#19E99E"/>
<path d="M643.806 265.74C644.626 265.08 645.126 264.14 645.126 262.94C645.126 260.6 643.226 259 640.866 259H635.346V273H641.286C643.706 273 645.646 271.34 645.646 268.94C645.646 267.48 644.926 266.38 643.806 265.74ZM640.866 261.58C641.746 261.58 642.366 262.24 642.366 263.12C642.366 264 641.726 264.66 640.866 264.66H638.106V261.58H640.866ZM641.286 270.42H638.106V267.12H641.286C642.226 267.12 642.906 267.82 642.906 268.76C642.906 269.72 642.226 270.42 641.286 270.42Z" fill="#19E99E"/>
<path d="M655.535 273H658.515L655.415 267.72C657.015 266.98 658.115 265.4 658.115 263.64C658.115 261.08 656.035 259 653.455 259H647.855V273H650.615V268.14H652.715L655.535 273ZM650.615 261.58H653.455C654.495 261.58 655.355 262.48 655.355 263.64C655.355 264.8 654.495 265.72 653.455 265.72H650.615V261.58Z" fill="#19E99E"/>
<path d="M669.541 273H672.541L667.621 259H664.201L659.301 273H662.281L663.121 270.48H668.701L669.541 273ZM664.001 267.9L665.921 262.18L667.841 267.9H664.001Z" fill="#19E99E"/>
<path d="M681.98 273H684.96L681.86 267.72C683.46 266.98 684.56 265.4 684.56 263.64C684.56 261.08 682.48 259 679.9 259H674.3V273H677.06V268.14H679.16L681.98 273ZM677.06 261.58H679.9C680.94 261.58 681.8 262.48 681.8 263.64C681.8 264.8 680.94 265.72 679.9 265.72H677.06V261.58Z" fill="#19E99E"/>
<path d="M697.674 259H694.554L691.514 264.84L688.474 259H685.354L690.134 267.54V273H692.874V267.54L697.674 259Z" fill="#19E99E"/>
<path d="M709.596 273.28C712.576 273.28 714.676 271.68 714.676 269.06C714.676 266.2 712.316 265.46 710.096 264.76C707.976 264.12 707.436 263.66 707.436 262.8C707.436 262 708.116 261.4 709.276 261.4C710.696 261.4 711.456 262.14 711.956 263.2L714.276 261.86C713.336 259.9 711.576 258.72 709.276 258.72C706.876 258.72 704.676 260.24 704.676 262.88C704.676 265.54 706.756 266.44 708.896 267.06C710.976 267.66 711.916 268.06 711.916 269.1C711.916 269.88 711.336 270.58 709.676 270.58C707.936 270.58 706.956 269.74 706.456 268.44L704.096 269.82C704.856 271.9 706.736 273.28 709.596 273.28Z" fill="#3CC3DD"/>
<path d="M725.629 259H715.329V261.64H719.089V273H721.849V261.64H725.629V259Z" fill="#3CC3DD"/>
<path d="M735.554 273H738.554L733.634 259H730.214L725.314 273H728.294L729.134 270.48H734.714L735.554 273ZM730.014 267.9L731.934 262.18L733.854 267.9H730.014Z" fill="#3CC3DD"/>
<path d="M747.993 273H750.973L747.873 267.72C749.473 266.98 750.573 265.4 750.573 263.64C750.573 261.08 748.493 259 745.913 259H740.313V273H743.073V268.14H745.173L747.993 273ZM743.073 261.58H745.913C746.953 261.58 747.813 262.48 747.813 263.64C747.813 264.8 746.953 265.72 745.913 265.72H743.073V261.58Z" fill="#3CC3DD"/>
<path d="M761.965 259H751.665V261.64H755.425V273H758.185V261.64H761.965V259Z" fill="#3CC3DD"/>
<path d="M766.666 270.36V267.22H771.966V264.62H766.666V261.64H772.466V259H763.906V273H772.566V270.36H766.666Z" fill="#3CC3DD"/>
<path d="M782.592 273H785.572L782.471 267.72C784.071 266.98 785.172 265.4 785.172 263.64C785.172 261.08 783.092 259 780.512 259H774.911V273H777.672V268.14H779.772L782.592 273ZM777.672 261.58H780.512C781.552 261.58 782.411 262.48 782.411 263.64C782.411 264.8 781.552 265.72 780.512 265.72H777.672V261.58Z" fill="#3CC3DD"/>
</svg>
