<svg viewBox="0 0 64 64" fill="none" xmlns="http://www.w3.org/2000/svg"><path d="M54.63 48.365H9.371A1.372 1.372 0 018 46.993V17.005c0-.755.613-1.37 1.372-1.37H54.63c.757 0 1.37.613 1.37 1.37v29.988c0 .757-.613 1.372-1.37 1.372zm-43.887-2.743h42.514V18.38H10.743v27.243z" fill="#00338D"/><path d="M32 33.371c-.265 0-.528-.075-.756-.227L8.614 18.15a1.37 1.37 0 011.516-2.286L32 30.356l21.87-14.493a1.37 1.37 0 011.9.387 1.37 1.37 0 01-.385 1.899L32.758 33.143c-.23.153-.494.228-.759.228z" fill="#00338D"/></svg>