<svg fill="none" xmlns="http://www.w3.org/2000/svg" viewBox="0 0 32 36"><path fill-rule="evenodd" clip-rule="evenodd" d="M0 0h32v2H0V0zm0 8h32v2H0V8zm32 8H0v2h32v-2z" fill="#000"/><path d="M1 28h1.99l2.03 4.1L7.04 28h1.99v7.01H7.41l-.01-4.44-1.79 3.74H4.43l-1.8-3.74v4.44H1V28zM10.395 28h5.53v1.46h-3.7v1.31h3.34v1.45l-3.34.01v1.32h3.8v1.46h-5.63V28zM21.933 28h1.7v7.01h-1.6l-3.18-4.19v4.19h-1.71V28h1.61l3.19 4.22-.01-4.22zM26.714 32.12c0 .44.13.793.39 1.06s.59.4.99.4c.393 0 .71-.13.95-.39.247-.267.37-.623.37-1.07V28h1.83v4.12c0 .607-.13 1.14-.39 1.6-.253.453-.62.803-1.1 1.05-.474.247-1.03.37-1.67.37-.64 0-1.203-.123-1.69-.37a2.704 2.704 0 01-1.12-1.05c-.26-.46-.39-.993-.39-1.6V28h1.83v4.12z" fill="#000"/></svg>