<svg fill="none" xmlns="http://www.w3.org/2000/svg" viewBox="0 0 64 64"><path fill-rule="evenodd" clip-rule="evenodd" d="M32 15h32v2H32v-2zm0 8h32v2H32v-2zm32 8H32v2h32v-2z" fill="#000"/><path d="M33 43h1.99l2.03 4.1 2.02-4.1h1.99v7.01h-1.62l-.01-4.44-1.79 3.74h-1.18l-1.8-3.74v4.44H33V43zM42.395 43h5.53v1.46h-3.7v1.31h3.34v1.45l-3.34.01v1.32h3.8v1.46h-5.63V43zM53.933 43h1.7v7.01h-1.6l-3.18-4.19v4.19h-1.71V43h1.61l3.19 4.22-.01-4.22zM58.714 47.12c0 .44.13.793.39 1.06s.59.4.99.4c.393 0 .71-.13.95-.39.247-.267.37-.623.37-1.07V43h1.83v4.12c0 .607-.13 1.14-.39 1.6-.253.453-.62.803-1.1 1.05-.473.247-1.03.37-1.67.37-.64 0-1.203-.123-1.69-.37a2.704 2.704 0 01-1.12-1.05c-.26-.46-.39-.993-.39-1.6V43h1.83v4.12z" fill="#000"/></svg>