<svg viewBox="0 0 64 64" fill="none" xmlns="http://www.w3.org/2000/svg"><path fill-rule="evenodd" clip-rule="evenodd" d="M32 57.454C17.943 57.454 6.546 46.057 6.546 32 6.546 17.94 17.943 6.546 32 6.546 46.06 6.546 57.454 17.94 57.454 32c0 14.057-11.395 25.454-25.454 25.454zM32 4C16.538 4 4 16.535 4 32s12.538 28 28 28 28-12.535 28-28S47.462 4 32 4zm-5.092 36.006V23.994L40.92 32l-14.013 8.006zm17.33-8.986l.012-.015-.225-.128c-.034-.015-.063-.041-.096-.054l-17.498-10-.013.016a1.25 1.25 0 00-.783-.293c-.7 0-1.27.568-1.27 1.273V42.18c0 .705.57 1.273 1.27 1.273.301 0 .566-.12.783-.293l.013.016 17.498-10c.033-.013.062-.036.096-.054l.225-.127-.013-.016c.29-.233.49-.578.49-.98s-.2-.747-.49-.98z" fill="#00338D"/></svg>