<svg width="64" height="64" viewBox="0 0 64 64" fill="none" xmlns="http://www.w3.org/2000/svg">
<path fill-rule="evenodd" clip-rule="evenodd" d="M60 32C60 47.464 47.464 60 32 60C16.536 60 4 47.464 4 32C4 16.536 16.536 4 32 4C47.464 4 60 16.536 60 32ZM56.2666 32C56.2666 45.4021 45.4021 56.2667 31.9999 56.2667C18.5978 56.2667 7.73328 45.4021 7.73328 32C7.73328 18.5979 18.5978 7.73335 31.9999 7.73335C45.4021 7.73335 56.2666 18.5979 56.2666 32ZM30.3668 19.1667H34.1001V30.3667H45.3V34.1001H34.1001V45.3H30.3668V34.1001H19.1667V30.3667H30.3668V19.1667Z" fill="black"/>
</svg>
