<svg width="64" height="64" viewBox="0 0 64 64" fill="none" xmlns="http://www.w3.org/2000/svg">
<path fill-rule="evenodd" clip-rule="evenodd" d="M44.5997 30.5997H33.4003V19.4003C33.4003 18.6274 32.7758 18 32 18C31.2269 18 30.5997 18.6274 30.5997 19.4003V30.5997H19.4003C18.6276 30.5997 18 31.2271 18 32C18 32.7757 18.6276 33.4003 19.4003 33.4003H30.5997V44.5997C30.5997 45.3754 31.2269 46 32 46C32.7758 46 33.4003 45.3754 33.4003 44.5997V33.4003H44.5997C45.3755 33.4003 46 32.7757 46 32C46 31.2271 45.3755 30.5997 44.5997 30.5997Z" fill="black"/>
</svg>
