<svg width="64" height="64" viewBox="0 0 64 64" fill="none" xmlns="http://www.w3.org/2000/svg">
<path fill-rule="evenodd" clip-rule="evenodd" d="M34.1986 32L59.5438 6.6548C59.8264 6.3748 60 5.986 60 5.5556C60 4.6972 59.3052 4 58.4445 4C58.0167 4 57.6278 4.1736 57.3452 4.4564L32 29.8016L6.65483 4.4564C6.37483 4.1736 5.98585 4 5.55551 4C4.69483 4 4 4.6972 4 5.5556C4 5.986 4.1736 6.3748 4.45618 6.6576L29.8014 32L4.45618 57.3452C4.1736 57.6252 4 58.014 4 58.4444C4 59.3052 4.69483 60 5.55551 60C5.98585 60 6.37483 59.8264 6.65483 59.5436L32 34.1984L57.3452 59.5436C57.6278 59.8264 58.0167 60 58.4445 60C59.3052 60 60 59.3052 60 58.4444C60 58.014 59.8264 57.6252 59.5438 57.3452L34.1986 32Z" fill="black"/>
</svg>
