<svg width="64" height="64" viewBox="0 0 64 64" fill="none" xmlns="http://www.w3.org/2000/svg">
<path fill-rule="evenodd" clip-rule="evenodd" d="M58.7271 37.111H17.9999C17.2973 37.111 16.7271 37.6839 16.7271 38.3891C16.7271 39.0961 17.2973 39.6668 17.9999 39.6668H58.7271C59.4294 39.6668 60 39.0961 60 38.3891C60 37.6839 59.4294 37.111 58.7271 37.111ZM58.7271 24.3334H17.9999C17.2973 24.3334 16.7271 24.9063 16.7271 25.6111C16.7271 26.3185 17.2973 26.8913 17.9999 26.8913H58.7271C59.4294 26.8913 60 26.3185 60 25.6111C60 24.9063 59.4294 24.3334 58.7271 24.3334ZM7.81888 9C5.70833 9 4 10.7186 4 12.8332C4 14.9503 5.70833 16.6668 7.81888 16.6668C9.92678 16.6668 11.6351 14.9503 11.6351 12.8332C11.6351 10.7186 9.92678 9 7.81888 9ZM58.7271 49.889H17.9999C17.2973 49.889 16.7271 50.4618 16.7271 51.1667C16.7271 51.8738 17.2973 52.4445 17.9999 52.4445H58.7271C59.4294 52.4445 60 51.8738 60 51.1667C60 50.4618 59.4294 49.889 58.7271 49.889ZM17.9999 14.111H58.7271C59.4294 14.111 60 13.5402 60 12.8333C60 12.1284 59.4294 11.5555 58.7271 11.5555H17.9999C17.2973 11.5555 16.7271 12.1284 16.7271 12.8333C16.7271 13.5402 17.2973 14.111 17.9999 14.111ZM7.81888 47.3333C5.70833 47.3333 4 49.0498 4 51.1666C4 53.2835 5.70833 55 7.81888 55C9.92678 55 11.6351 53.2835 11.6351 51.1666C11.6351 49.0498 9.92678 47.3333 7.81888 47.3333ZM7.81888 21.7777C5.70833 21.7777 4 23.4964 4 25.6109C4 27.728 5.70833 29.4445 7.81888 29.4445C9.92678 29.4445 11.6351 27.728 11.6351 25.6109C11.6351 23.4964 9.92678 21.7777 7.81888 21.7777ZM7.81888 34.5552C5.70833 34.5552 4 36.2739 4 38.3888C4 40.5055 5.70833 42.222 7.81888 42.222C9.92678 42.222 11.6351 40.5055 11.6351 38.3888C11.6351 36.2739 9.92678 34.5552 7.81888 34.5552Z" fill="black"/>
</svg>
