<svg width="64" height="64" viewBox="0 0 64 64" fill="none" xmlns="http://www.w3.org/2000/svg">
<path fill-rule="evenodd" clip-rule="evenodd" d="M46.6352 57.454C45.0406 57.454 43.4852 57.1014 42.0176 56.4066C41.8804 56.3418 41.7376 56.2926 41.5952 56.2537C27.1258 48.8726 15.1376 36.887 7.75402 22.4203C7.71237 22.2726 7.66057 22.1248 7.59337 21.9822C6.89862 20.5122 6.54582 18.9592 6.54582 17.3648C6.54582 11.1918 11.9516 6.54589 15.454 6.54589C15.9129 6.54589 16.2163 6.77921 16.3535 6.91921C16.3847 6.95291 16.4442 7.01774 16.5275 7.15257C16.5716 7.22514 16.6206 7.29514 16.6724 7.36257L25.0545 18.1374C25.1193 18.2203 25.1893 18.2981 25.2645 18.3733C25.4017 18.5133 25.6352 18.8166 25.6352 19.2729C25.6352 19.4985 25.5729 19.7111 25.4511 19.9055L22.6147 22.7211C22.6017 22.734 22.5888 22.747 22.5758 22.76C21.5493 23.727 20.9634 25.0674 20.9634 26.4726C20.9634 27.787 21.474 29.0392 22.3606 29.9777C22.3917 30.0296 22.4253 30.0789 22.4617 30.1281C25.5886 34.45 29.4334 38.2792 33.8871 41.5122C33.9211 41.5355 33.9575 41.5589 33.9911 41.5822C34.9322 42.4844 36.1947 43.0055 37.517 43.0055C38.8445 43.0055 40.1252 42.474 41.0765 41.5381C41.1258 41.4966 41.1724 41.4526 41.2193 41.4033L44.0711 38.5333C44.2706 38.4063 44.4834 38.344 44.7063 38.344C45.1652 38.344 45.4683 38.5774 45.6058 38.7174C45.6811 38.7926 45.7616 38.8626 45.8445 38.9274L56.6193 47.3066C56.6893 47.3611 56.7617 47.4103 56.8345 47.457C56.9693 47.5426 57.0316 47.597 57.0599 47.6255C57.1999 47.7655 57.4334 48.0663 57.4334 48.5251C57.4334 48.6107 57.4386 48.6963 57.4488 48.7818C57.2493 52.287 52.6734 57.454 46.6352 57.454ZM60 48.5252H59.9794C59.9794 47.4726 59.5517 46.5159 58.8618 45.8263C58.6571 45.6215 58.4288 45.4504 58.1824 45.2974L47.4077 36.9181C46.7154 36.2259 45.7617 35.7981 44.7064 35.7981C43.8429 35.7981 43.0575 36.0963 42.4198 36.5811L39.4123 39.6118L39.4046 39.6041C38.9405 40.1252 38.2688 40.4596 37.517 40.4596C36.6536 40.4596 35.8965 40.0292 35.4352 39.3759C35.4198 39.3992 35.3988 39.4226 35.3806 39.4511C31.2223 36.4333 27.5357 32.7985 24.5229 28.6348C24.5516 28.6167 24.5775 28.5933 24.6087 28.5752C23.9447 28.1085 23.5093 27.3437 23.5093 26.4726C23.5093 25.6922 23.8646 25.0026 24.4113 24.5333L24.4088 24.5282L27.4007 21.5596C27.8854 20.9245 28.1811 20.1363 28.1811 19.273C28.1811 18.2204 27.7535 17.2637 27.0636 16.5741L18.6818 5.79668C18.5288 5.55298 18.3577 5.32223 18.1529 5.12C17.4634 4.42777 16.5093 4 15.4541 4C10.3647 4 4 9.9837 4 17.3648C4 19.4078 4.4746 21.3392 5.2936 23.0711L5.2523 23.1152C12.9082 38.3648 25.6353 51.0918 40.8872 58.7478L40.9288 58.7063C42.6606 59.5281 44.5923 60 46.6353 60C54.0164 60 60 53.6352 60 48.5459C60 48.5382 60 48.533 60 48.5252Z" fill="black"/>
</svg>
