<svg width="64" height="64" viewBox="0 0 64 64" fill="none" xmlns="http://www.w3.org/2000/svg">
<path fill-rule="evenodd" clip-rule="evenodd" d="M27.1241 11.2059L4 8V46.7527L27.1229 49.9012L39.6076 48.2794L38.3846 56L46.6269 51.3627L54.9253 55.9994L53.3233 46.1868L60 39.2818L50.8013 37.839L50.2483 36.7202V8L27.1241 11.2059ZM33.3143 39.2805L33.7155 39.7026L30.8333 40.045L31.0829 42.4086L35.7852 41.8785L39.6798 45.9269L28.235 47.413V13.4171L33.814 12.6833V27.1764L37.7581 25.1014L41.7528 27.1716V11.5608L48.0265 10.7171V31.8797L46.621 28.922L45.2817 31.8186L45.1786 30.8421L30.8331 32.4529L31.083 34.8189L44.5961 33.3016L42.4976 37.8401L33.3143 39.2805ZM6.27495 44.6574V10.7181L26.013 13.4152V47.4085L6.27495 44.6574ZM36.0891 23.3372V12.3482L39.4775 11.897V23.3459L37.7541 22.3939L36.0891 23.3372ZM23.415 17.3305L9.05443 15.7179L8.88764 18.0871L23.1651 19.6967L23.415 17.3305ZM23.4167 24.9199L9.05562 23.3073L8.88654 25.62L23.1634 27.2295L23.4167 24.9199ZM23.415 32.4529L9.05443 30.8404L8.88764 33.2096L23.1651 34.8191L23.415 32.4529ZM44.0234 40.0204L46.6298 34.3325L49.2846 40.0207L55.2142 40.9412L50.9362 45.3913L51.9534 51.6602L46.6254 48.7043L41.3534 51.656L42.3699 45.3913L38.0919 40.9412L44.0234 40.0204ZM23.415 40.0425L9.05443 38.43L8.88764 40.7991L23.1651 42.4087L23.415 40.0425Z" fill="black"/>
</svg>
