<svg width="64" height="64" viewBox="0 0 64 64" fill="none" xmlns="http://www.w3.org/2000/svg">
<path fill-rule="evenodd" clip-rule="evenodd" d="M32 64C49.6731 64 64 49.6731 64 32C64 14.3269 49.6731 0 32 0C14.3269 0 0 14.3269 0 32C0 49.6731 14.3269 64 32 64ZM48.2939 23.9155C48.7774 23.3997 48.7513 22.5897 48.2356 22.1062C47.7199 21.6227 46.9098 21.6488 46.4263 22.1646L28.1567 41.6522L18.8507 31.7988C18.3653 31.2848 17.5552 31.2617 17.0413 31.7471C16.5273 32.2325 16.5042 33.0426 16.9896 33.5565L27.2296 44.3989C27.4719 44.6555 27.8095 44.8007 28.1625 44.8C28.5155 44.7994 28.8525 44.653 29.0939 44.3955L48.2939 23.9155Z" fill="black"/>
</svg>
