<svg width="64" height="64" viewBox="0 0 64 64" fill="none" xmlns="http://www.w3.org/2000/svg">
<path fill-rule="evenodd" clip-rule="evenodd" d="M28.1812 49.8189C16.2318 49.8189 6.5461 40.1303 6.5461 28.1811C6.5461 16.2318 16.2318 6.54589 28.1812 6.54589C40.1306 6.54589 49.8189 16.2318 49.8189 28.1811C49.8189 40.1303 40.1306 49.8189 28.1812 49.8189ZM59.6268 57.8274L46.1374 44.3382C49.9951 40.0552 52.3649 34.4008 52.3649 28.1811C52.3649 14.8267 41.5381 4 28.1811 4C14.8268 4 4 14.8267 4 28.1811C4 41.5381 14.8268 52.3648 28.1811 52.3648C34.4008 52.3648 40.0551 49.9978 44.3381 46.1374L57.8275 59.6267C58.0581 59.86 58.3744 60 58.7272 60C59.4298 60 60 59.4322 60 58.727C60 58.377 59.8574 58.0581 59.6268 57.8274Z" fill="black"/>
</svg>
