<svg width="64" height="64" viewBox="0 0 64 64" fill="none" xmlns="http://www.w3.org/2000/svg">
<path d="M54.4062 51.7063L43.3625 40.6625C46.1 37.325 47.75 33.05 47.75 28.3906C47.75 17.7031 39.0781 9.03125 28.3906 9.03125C17.6938 9.03125 9.03125 17.7031 9.03125 28.3906C9.03125 39.0781 17.6938 47.75 28.3906 47.75C33.05 47.75 37.3156 46.1094 40.6531 43.3719L51.6969 54.4062C52.4469 55.1562 53.6562 55.1562 54.4062 54.4062C55.1562 53.6656 55.1562 52.4469 54.4062 51.7063ZM28.3906 43.8969C19.8312 43.8969 12.875 36.9406 12.875 28.3906C12.875 19.8406 19.8312 12.875 28.3906 12.875C36.9406 12.875 43.9062 19.8406 43.9062 28.3906C43.9062 36.9406 36.9406 43.8969 28.3906 43.8969Z" fill="black"/>
</svg>
