<svg width="64" height="64" viewBox="0 0 64 64" fill="none" xmlns="http://www.w3.org/2000/svg">
<path fill-rule="evenodd" clip-rule="evenodd" d="M58.7272 4H40.9084C40.2084 4 39.6352 4.5705 39.6352 5.27295C39.6352 5.9754 40.2084 6.5459 40.9084 6.5459H55.6548L34.9193 27.2816C34.6887 27.5123 34.5461 27.8312 34.5461 28.1811C34.5461 28.8864 35.1163 29.4541 35.8189 29.4541C36.1691 29.4541 36.488 29.3141 36.7186 29.0806L57.4541 8.34525V23.0918C57.4541 23.7943 58.0246 24.3647 58.7272 24.3647C59.4295 24.3647 60.0001 23.7943 60.0001 23.0918V5.27295C60.0001 4.5705 59.4295 4 58.7272 4ZM28.1811 34.546C27.831 34.546 27.5121 34.6884 27.2815 34.9194L6.54602 55.6548V40.9083C6.54602 40.2083 5.97548 39.6353 5.27285 39.6353C4.57054 39.6353 4 40.2083 4 40.9083V58.7271C4 59.4296 4.57054 60.0001 5.27285 60.0001H23.0917C23.7917 60.0001 24.3649 59.4296 24.3649 58.7271C24.3649 58.0247 23.7917 57.4542 23.0917 57.4542H8.34527L29.0808 36.7184C29.3113 36.4878 29.454 36.1689 29.454 35.8189C29.454 35.1165 28.8838 34.546 28.1811 34.546Z" fill="black"/>
</svg>
