<svg fill="none" xmlns="http://www.w3.org/2000/svg" viewBox="0 0 796 314"><path fill-rule="evenodd" clip-rule="evenodd" d="M282.03 39.89V.764h37.501v39.124H282.03zM68.115 118.95c-16.81 0-30.23 13.508-30.23 29.916 0 16.407 13.42 29.916 30.23 29.916 16.812 0 30.232-13.509 30.232-29.916 0-16.408-13.42-29.916-30.231-29.916zM0 148.866c0-37.56 30.611-67.8 68.115-67.8 37.505 0 68.116 30.24 68.116 67.8s-30.611 67.8-68.115 67.8C30.61 216.666 0 186.426 0 148.866z" fill="#19E99E"/><path fill-rule="evenodd" clip-rule="evenodd" d="M134.754 80.3h18.506v37.885h-17.308v30.059c0 37.325-29.655 68.135-64.732 68.135H41.14a5.489 5.489 0 00-1.057.928c-1.21 1.34-1.816 2.984-1.816 4.344 0 .395.092 1.045.472 1.928.387.897.992 1.84 1.752 2.678a8.666 8.666 0 001.368 1.238h50.73c21.1 0 43.363 17.448 43.363 42.776 0 29.978-24.815 43.729-43.364 43.729h-43.5v-37.885h43.5c1.225 0 2.864-.54 3.94-1.465.445-.383.765-.802.998-1.306.225-.486.541-1.423.541-3.073 0-.741-.312-1.872-1.637-3.101-1.457-1.349-3.071-1.79-3.842-1.79H40.312c-11.84 0-21.792-6.951-27.892-13.681C5.875 244.477.382 233.926.382 221.651c0-11.796 4.832-22.259 11.587-29.738 6.543-7.243 16.562-13.419 28.343-13.419H71.22c12.62 0 26.847-12.281 26.847-30.25V115.45c0-10.967 3.676-21.677 13.369-28.556 8.205-5.823 17.661-6.48 23.129-6.59l.189-.003zM42.409 227.828a.424.424 0 01-.059-.026.347.347 0 01.059.026z" fill="#3CC3DD"/><path fill-rule="evenodd" clip-rule="evenodd" d="M409.842 118.95c-16.812 0-30.231 13.508-30.231 29.916 0 16.407 13.419 29.916 30.231 29.916 16.811 0 30.231-13.509 30.231-29.916 0-16.408-13.42-29.916-30.231-29.916zm-68.116 29.916c0-37.56 30.611-67.8 68.116-67.8 37.504 0 68.115 30.24 68.115 67.8s-30.611 67.8-68.115 67.8c-37.505 0-68.116-30.24-68.116-67.8zM567.502 118.95c-16.811 0-30.231 13.508-30.231 29.916 0 16.407 13.42 29.916 30.231 29.916s30.231-13.509 30.231-29.916c0-16.408-13.42-29.916-30.231-29.916zm-68.116 29.916c0-37.56 30.612-67.8 68.116-67.8 37.504 0 68.115 30.24 68.115 67.8s-30.611 67.8-68.115 67.8c-37.504 0-68.116-30.24-68.116-67.8zM727.84 118.95c-16.811 0-30.231 13.508-30.231 29.916 0 16.407 13.42 29.916 30.231 29.916s30.231-13.509 30.231-29.916c0-16.408-13.42-29.916-30.231-29.916zm-68.115 29.916c0-37.56 30.611-67.8 68.115-67.8 37.504 0 68.116 30.24 68.116 67.8s-30.612 67.8-68.116 67.8c-37.504 0-68.115-30.24-68.115-67.8zM212.956 80.73v136.651h-37.119V80.731h37.119z" fill="#19E99E"/><path fill-rule="evenodd" clip-rule="evenodd" d="M193.389 92.269C204.848 82.118 218.311 80.3 226.733 80.3c16.54 0 30.096 8.656 36.146 14.692l-26.754 26.822-.006-.005c-.1-.085-1.323-1.123-3.457-2.123-2.126-.996-4.198-1.502-5.929-1.502-3.632 0-6.432.855-8.223 2.442-1.353 1.198-5.362 5.648-5.362 20.222v76.532h-37.884v-76.532c0-21.688 6.228-38.042 18.125-48.58zM318.765 80.73v136.651h-37.119V80.731h37.119zM440.838 217.381V0h37.502v217.381h-37.502zM599.836 217.381V0h37.502v217.381h-37.502z" fill="#3CC3DD"/><path d="M494.94 273.28c2.58 0 4.84-1.3 6.02-3.3l-2.38-1.38c-.66 1.22-2.04 1.98-3.64 1.98-2.74 0-4.54-1.9-4.54-4.58 0-2.7 1.8-4.6 4.54-4.6 1.6 0 2.96.76 3.64 2l2.38-1.38c-1.2-2-3.46-3.3-6.02-3.3-4.24 0-7.28 3.18-7.28 7.28 0 4.08 3.04 7.28 7.28 7.28zM509.539 273.28c4.04 0 7.28-3.2 7.28-7.28 0-4.1-3.24-7.28-7.28-7.28s-7.26 3.18-7.26 7.28c0 4.08 3.22 7.28 7.26 7.28zm0-2.7c-2.54 0-4.52-1.9-4.52-4.58 0-2.7 1.98-4.6 4.52-4.6 2.54 0 4.52 1.9 4.52 4.6 0 2.68-1.98 4.58-4.52 4.58zM532.859 259h-2.84l-4 6.62-4.02-6.62h-2.84v14h2.76v-9.06l3.94 6.48h.32l3.94-6.5V273h2.74v-14zM541.087 259h-5.22v14h2.76v-4.6h2.46c2.7 0 4.78-2.08 4.78-4.7s-2.08-4.7-4.78-4.7zm0 6.82h-2.46v-4.24h2.46c1.18 0 2.04.9 2.04 2.12 0 1.2-.86 2.12-2.04 2.12zM554.586 273.28c4.04 0 7.28-3.2 7.28-7.28 0-4.1-3.24-7.28-7.28-7.28s-7.26 3.18-7.26 7.28c0 4.08 3.22 7.28 7.26 7.28zm0-2.7c-2.54 0-4.52-1.9-4.52-4.58 0-2.7 1.98-4.6 4.52-4.6 2.54 0 4.52 1.9 4.52 4.6 0 2.68-1.98 4.58-4.52 4.58zM572.306 259v8.54l-6-8.54h-2.1v14h2.76v-8.56l6 8.56h2.1v-14h-2.76zM580.823 270.36v-3.14h5.3v-2.6h-5.3v-2.98h5.8V259h-8.56v14h8.66v-2.64h-5.9zM597.169 259v8.54l-6-8.54h-2.1v14h2.76v-8.56l6 8.56h2.1v-14h-2.76zM612.186 259h-10.3v2.64h3.76V273h2.76v-11.36h3.78V259zM622.286 270.36V259h-2.76v14h8.1v-2.64h-5.34zM629.594 259v14h2.76v-14h-2.76zM643.806 265.74c.82-.66 1.32-1.6 1.32-2.8 0-2.34-1.9-3.94-4.26-3.94h-5.52v14h5.94c2.42 0 4.36-1.66 4.36-4.06 0-1.46-.72-2.56-1.84-3.2zm-2.94-4.16c.88 0 1.5.66 1.5 1.54s-.64 1.54-1.5 1.54h-2.76v-3.08h2.76zm.42 8.84h-3.18v-3.3h3.18c.94 0 1.62.7 1.62 1.64 0 .96-.68 1.66-1.62 1.66zM655.535 273h2.98l-3.1-5.28c1.6-.74 2.7-2.32 2.7-4.08 0-2.56-2.08-4.64-4.66-4.64h-5.6v14h2.76v-4.86h2.1l2.82 4.86zm-4.92-11.42h2.84c1.04 0 1.9.9 1.9 2.06 0 1.16-.86 2.08-1.9 2.08h-2.84v-4.14zM669.541 273h3l-4.92-14h-3.42l-4.9 14h2.98l.84-2.52h5.58l.84 2.52zm-5.54-5.1l1.92-5.72 1.92 5.72h-3.84zM681.98 273h2.98l-3.1-5.28c1.6-.74 2.7-2.32 2.7-4.08 0-2.56-2.08-4.64-4.66-4.64h-5.6v14h2.76v-4.86h2.1l2.82 4.86zm-4.92-11.42h2.84c1.04 0 1.9.9 1.9 2.06 0 1.16-.86 2.08-1.9 2.08h-2.84v-4.14zM697.674 259h-3.12l-3.04 5.84-3.04-5.84h-3.12l4.78 8.54V273h2.74v-5.46l4.8-8.54z" fill="#19E99E"/><path d="M709.596 273.28c2.98 0 5.08-1.6 5.08-4.22 0-2.86-2.36-3.6-4.58-4.3-2.12-.64-2.66-1.1-2.66-1.96 0-.8.68-1.4 1.84-1.4 1.42 0 2.18.74 2.68 1.8l2.32-1.34c-.94-1.96-2.7-3.14-5-3.14-2.4 0-4.6 1.52-4.6 4.16 0 2.66 2.08 3.56 4.22 4.18 2.08.6 3.02 1 3.02 2.04 0 .78-.58 1.48-2.24 1.48-1.74 0-2.72-.84-3.22-2.14l-2.36 1.38c.76 2.08 2.64 3.46 5.5 3.46zM725.629 259h-10.3v2.64h3.76V273h2.76v-11.36h3.78V259zM735.554 273h3l-4.92-14h-3.42l-4.9 14h2.98l.84-2.52h5.58l.84 2.52zm-5.54-5.1l1.92-5.72 1.92 5.72h-3.84zM747.993 273h2.98l-3.1-5.28c1.6-.74 2.7-2.32 2.7-4.08 0-2.56-2.08-4.64-4.66-4.64h-5.6v14h2.76v-4.86h2.1l2.82 4.86zm-4.92-11.42h2.84c1.04 0 1.9.9 1.9 2.06 0 1.16-.86 2.08-1.9 2.08h-2.84v-4.14zM761.965 259h-10.3v2.64h3.76V273h2.76v-11.36h3.78V259zM766.666 270.36v-3.14h5.3v-2.6h-5.3v-2.98h5.8V259h-8.56v14h8.66v-2.64h-5.9zM782.592 273h2.98l-3.101-5.28c1.6-.74 2.701-2.32 2.701-4.08 0-2.56-2.08-4.64-4.66-4.64h-5.601v14h2.761v-4.86h2.1l2.82 4.86zm-4.92-11.42h2.84c1.04 0 1.899.9 1.899 2.06 0 1.16-.859 2.08-1.899 2.08h-2.84v-4.14z" fill="#3CC3DD"/></svg>