<svg viewBox="0 0 200 200" fill="none" xmlns="http://www.w3.org/2000/svg"><path fill-rule="evenodd" clip-rule="evenodd" d="M95 56.194c-9.353 0-16.865 7.563-16.865 16.806 0 9.243 7.512 16.806 16.865 16.806 9.353 0 16.865-7.563 16.865-16.806 0-9.243-7.512-16.806-16.865-16.806zM57 73c0-21.026 17.052-38 38-38s38 16.974 38 38-17.052 38-38 38-38-16.974-38-38z" fill="#19E99E"/><path fill-rule="evenodd" clip-rule="evenodd" d="M132.59 34H143v21.353h-9.736v17.012c0 21.05-16.658 38.473-36.415 38.473H79.935c-.143.094-.356.26-.593.524-.683.76-1.03 1.698-1.03 2.482 0 .232.053.606.27 1.109a5.657 5.657 0 001.757 2.221h28.531c11.896 0 24.394 9.873 24.394 24.144 0 16.897-13.933 24.682-24.394 24.682H84.399v-21.353h24.471c.681 0 1.6-.303 2.206-.826.251-.217.434-.456.567-.746.129-.281.309-.818.309-1.757 0-.438-.184-1.086-.931-1.781-.821-.765-1.726-1.01-2.151-1.01H79.462c-6.67 0-12.272-3.933-15.7-7.732-3.68-4.079-6.762-10.032-6.762-16.951 0-6.649 2.712-12.552 6.51-16.775 3.676-4.09 9.314-7.584 15.952-7.584h17.387c7.075 0 15.103-6.927 15.103-17.12v-18.53c0-6.181 2.061-12.222 7.51-16.107 4.618-3.292 9.942-3.664 13.021-3.726l.107-.002z" fill="#3CC3DD"/></svg>