<svg width="64" height="64" viewBox="0 0 64 64" fill="none" xmlns="http://www.w3.org/2000/svg">
<path fill-rule="evenodd" clip-rule="evenodd" d="M31.4375 26.1219C29.7526 23.824 26.8126 22.1562 23.5625 22.1562C18.1345 22.1562 13.625 26.572 13.625 32C13.625 37.428 18.1345 41.8438 23.5625 41.8438C27.4718 41.8438 30.875 39.5366 32.4219 36.2177H24.9688V30.5938H39.0312V32C39.0312 33.4623 38.8342 34.8685 38.4406 36.2188C36.6124 42.7157 30.6501 47.4688 23.5625 47.4688C15.0126 47.4688 8 40.5499 8 32C8 23.4501 15.0126 16.5312 23.5625 16.5312C28.4456 16.5312 33.0426 18.994 35.431 22.0999L31.4375 26.1219ZM46.0625 24.9688H51.6875V29.1875H56V34.8125H51.6875V39.0312H46.0625V34.8125H41.8438V29.1875H46.0625V24.9688Z" fill="black"/>
</svg>
