<svg width="64" height="64" viewBox="0 0 64 64" fill="none" xmlns="http://www.w3.org/2000/svg">
<path fill-rule="evenodd" clip-rule="evenodd" d="M32.0001 12.324C38.4082 12.324 39.1682 12.348 41.6982 12.464C44.4302 12.588 46.9642 13.136 48.9143 15.086C50.8643 17.0361 51.4123 19.5701 51.5363 22.3021C51.6523 24.8321 51.6763 25.5921 51.6763 32.0002C51.6763 38.4082 51.6523 39.1682 51.5363 41.6982C51.4123 44.4302 50.8643 46.9643 48.9143 48.9143C46.9642 50.8643 44.4302 51.4123 41.6982 51.5363C39.1682 51.6523 38.4082 51.6763 32.0001 51.6763C25.5921 51.6763 24.8321 51.6523 22.3021 51.5363C19.5701 51.4123 17.036 50.8643 15.086 48.9143C13.136 46.9643 12.588 44.4302 12.464 41.6982C12.348 39.1682 12.324 38.4082 12.324 32.0002C12.324 25.5921 12.348 24.8321 12.464 22.3021C12.588 19.5701 13.136 17.0361 15.086 15.086C17.036 13.136 19.5701 12.588 22.3021 12.464C24.8321 12.348 25.5921 12.324 32.0001 12.324ZM32.0002 8C25.4821 8 24.6641 8.028 22.1041 8.144C18.2041 8.322 14.778 9.27801 12.028 12.028C9.27801 14.778 8.322 18.2041 8.144 22.1041C8.028 24.6641 8 25.4821 8 32.0002C8 38.5182 8.028 39.3362 8.144 41.8962C8.322 45.7963 9.27801 49.2223 12.028 51.9723C14.778 54.7223 18.2041 55.6783 22.1041 55.8563C24.6641 55.9723 25.4821 56.0003 32.0002 56.0003C38.5182 56.0003 39.3362 55.9723 41.8962 55.8563C45.7963 55.6783 49.2223 54.7223 51.9723 51.9723C54.7223 49.2223 55.6783 45.7963 55.8563 41.8962C55.9723 39.3362 56.0003 38.5182 56.0003 32.0002C56.0003 25.4821 55.9723 24.6641 55.8563 22.1041C55.6783 18.2041 54.7223 14.778 51.9723 12.028C49.2223 9.27801 45.7963 8.322 41.8962 8.144C39.3362 8.028 38.5182 8 32.0002 8ZM32 19.676C25.1939 19.676 19.6759 25.1941 19.6759 32.0001C19.6759 38.8061 25.1939 44.3242 32 44.3242C38.806 44.3242 44.324 38.8061 44.324 32.0001C44.324 25.1941 38.806 19.676 32 19.676ZM31.9999 40.0001C27.5819 40.0001 23.9999 36.4181 23.9999 32.0001C23.9999 27.582 27.5819 24 31.9999 24C36.418 24 40 27.582 40 32.0001C40 36.4181 36.418 40.0001 31.9999 40.0001ZM44.8122 22.0681C46.4027 22.0681 47.6922 20.7786 47.6922 19.188C47.6922 17.5975 46.4027 16.308 44.8122 16.308C43.2216 16.308 41.9321 17.5975 41.9321 19.188C41.9321 20.7786 43.2216 22.0681 44.8122 22.0681Z" fill="black"/>
</svg>
