<svg width="64" height="64" viewBox="0 0 64 64" fill="none" xmlns="http://www.w3.org/2000/svg">
<path fill-rule="evenodd" clip-rule="evenodd" d="M21.0178 51.9999H12.9253V25.4104H21.2491V51.9999H21.0178ZM16.8555 21.7109C14.3122 21.7109 12 19.63 12 16.8555C12 14.3121 14.0809 12 16.8555 12C19.3989 12 21.7111 14.0809 21.7111 16.8555C21.7111 19.63 19.6301 21.7109 16.8555 21.7109ZM52.0009 51.9999H43.6771V39.052C43.6771 36.0462 43.6771 32.1156 39.5152 32.1156C35.1221 32.1156 34.6597 35.3526 34.6597 38.8208V51.9999H26.3359V25.4104H34.1973V29.1098C35.3533 27.0289 37.8967 24.948 42.0586 24.948C50.3824 24.948 52.0009 30.4971 52.0009 37.6647V51.9999Z" fill="black"/>
</svg>
