<svg width="64" height="64" viewBox="0 0 64 64" fill="none" xmlns="http://www.w3.org/2000/svg">
<path fill-rule="evenodd" clip-rule="evenodd" d="M54.0003 8H10C8.80001 8 8 8.80001 8 10V54.0003C8 55.2003 8.80001 56.0003 10 56.0003H54.0003C55.2003 56.0003 56.0003 55.2003 56.0003 54.0003V10C56.0003 8.80001 55.2003 8 54.0003 8ZM22.1999 49.0003H15.1998V26.0001H22.3999V49.0003H22.1999ZM18.6 22.8C16.3999 22.8 14.3999 21 14.3999 18.6C14.3999 16.3999 16.1999 14.3999 18.6 14.3999C20.8 14.3999 22.8 16.1999 22.8 18.6C22.8 21 21 22.8 18.6 22.8ZM48.9999 49.0003H41.7999V37.8003C41.7999 35.2003 41.7999 31.8002 38.1998 31.8002C34.3998 31.8002 33.9998 34.6002 33.9998 37.6003V49.0003H26.7997V26.0002H33.5998V29.2002C34.5998 27.4002 36.7998 25.6002 40.3998 25.6002C47.5999 25.6002 48.9999 30.4002 48.9999 36.6003V49.0003Z" fill="black"/>
</svg>
