<svg width="64" height="64" viewBox="0 0 64 64" fill="none" xmlns="http://www.w3.org/2000/svg">
<path fill-rule="evenodd" clip-rule="evenodd" d="M8 31.9987C8 45.2525 18.734 56 31.98 56C45.2234 56 55.96 45.2525 55.96 31.9987C55.96 18.7449 45.2234 8 31.98 8C18.734 8 8 18.7449 8 31.9987ZM24.0298 52.2524C15.9466 49.0829 10.2187 41.2119 10.2187 31.999C10.2187 19.9842 19.9484 10.2496 31.9512 10.2496C43.954 10.2496 53.6837 19.9842 53.6837 31.999C53.6837 44.0112 43.954 53.7485 31.9512 53.7485C29.7089 53.7485 27.5487 53.4092 25.517 52.7768C26.4006 51.3322 27.7259 48.9647 28.2165 47.0753C28.4811 46.0574 29.5702 41.906 29.5702 41.906C30.2791 43.2581 32.3493 44.4045 34.5531 44.4045C41.1055 44.4045 45.8291 38.3714 45.8291 30.8757C45.8291 23.691 39.9702 18.3134 32.4315 18.3134C23.0537 18.3134 18.0733 24.6164 18.0733 31.4772C18.0733 34.6647 19.7686 38.6388 22.481 39.9035C22.8945 40.0937 23.1154 40.0089 23.2104 39.6104C23.2395 39.4887 23.3171 39.174 23.41 38.7969C23.5465 38.2427 23.7162 37.5538 23.814 37.1453C23.8654 36.9242 23.8397 36.7366 23.6625 36.5206C22.7635 35.4307 22.0469 33.4257 22.0469 31.5569C22.0469 26.7602 25.6762 22.1178 31.8587 22.1178C37.1987 22.1178 40.936 25.7577 40.936 30.9657C40.936 36.8497 37.9667 40.9266 34.1036 40.9266C31.9718 40.9266 30.3741 39.1632 30.8853 36.9962C31.107 36.0619 31.4036 35.1011 31.6919 34.167C32.2017 32.5154 32.6858 30.9469 32.6858 29.7549C32.6858 28.0841 31.7894 26.6908 29.9375 26.6908C27.7542 26.6908 26.005 28.9478 26.005 31.9733C26.005 33.8987 26.6549 35.2019 26.6549 35.2019C26.6549 35.2019 24.4998 44.3146 24.1069 46.0111C23.6702 47.8928 23.8397 50.5327 24.0298 52.2524Z" fill="black"/>
</svg>
