<svg width="64" height="64" viewBox="0 0 64 64" fill="none" xmlns="http://www.w3.org/2000/svg">
<path fill-rule="evenodd" clip-rule="evenodd" d="M32.4615 9H32.4594C32.418 9 32.379 9 32.342 9.00051C32.0464 9.00355 31.5605 9.00837 31.5169 9.00888C30.4513 9.00888 28.3193 9.16229 26.0292 10.1926C24.7198 10.7813 23.5421 11.5772 22.5288 12.5585C21.3206 13.7276 20.3364 15.1691 19.604 16.8434C18.5313 19.295 18.786 23.4244 18.9905 26.7429L18.9912 26.7481C19.0131 27.1035 19.0361 27.4746 19.0572 27.8362C18.8998 27.9098 18.6447 27.9876 18.2686 27.9876C17.6636 27.9876 16.9441 27.7904 16.1307 27.4019C15.8913 27.2883 15.6181 27.2309 15.3167 27.2309C14.8325 27.2309 14.322 27.3762 13.8791 27.6416C13.322 27.975 12.962 28.4463 12.8642 28.9688C12.7997 29.3144 12.8029 29.9976 13.5474 30.6903C13.9569 31.0717 14.5584 31.4234 15.3349 31.7362C15.5387 31.818 15.7805 31.8961 16.0366 31.9789C16.9254 32.2668 18.2706 32.7018 18.6214 33.5433C18.7992 33.97 18.7227 34.5314 18.3946 35.21C18.386 35.2285 18.3775 35.2466 18.3696 35.2656C18.2877 35.4608 17.5229 37.2264 15.9541 39.0886C15.0627 40.1475 14.0809 41.0325 13.0375 41.7197C11.7639 42.5587 10.3859 43.1072 8.94203 43.3496C8.37504 43.4444 7.97013 43.9593 8.00173 44.5445C8.01143 44.7131 8.05024 44.8812 8.11754 45.0439C8.11804 45.0449 8.11866 45.0459 8.11916 45.0468C8.34842 45.5934 8.87995 46.0577 9.74412 46.4672C10.8001 46.9671 12.3794 47.3877 14.4378 47.7167C14.5418 47.9183 14.6497 48.425 14.7245 48.7719C14.8027 49.1406 14.8843 49.5197 15.0007 49.9223C15.1262 50.3586 15.4517 50.88 16.288 50.88C16.605 50.88 16.9694 50.8072 17.3915 50.7238C18.0096 50.6002 18.8549 50.4315 19.9099 50.4315C20.4948 50.4315 21.101 50.484 21.7111 50.5874C22.8873 50.7869 23.9012 51.517 25.0744 52.3624C26.7915 53.5996 28.7352 55 31.7048 55C31.7858 55 31.867 54.9973 31.9473 54.9916C32.0454 54.9963 32.1671 55 32.2955 55C35.266 55 37.2092 53.5991 38.9244 52.3629L38.9272 52.3604C40.1006 51.516 41.1134 50.7869 42.2892 50.5874C42.8991 50.4841 43.5051 50.4315 44.0903 50.4315C45.0981 50.4315 45.8961 50.5625 46.6086 50.7041C47.0736 50.7974 47.435 50.8423 47.7123 50.8423L47.7394 50.8428H47.7675C48.3792 50.8428 48.8286 50.5006 49.0001 49.9018C49.1141 49.5076 49.1954 49.1374 49.2757 48.7625C49.3456 48.4374 49.4573 47.9163 49.5613 47.7125C51.621 47.3829 53.1997 46.9632 54.2558 46.4634C55.118 46.0558 55.6489 45.592 55.8795 45.0477C55.9487 44.8845 55.9891 44.7154 55.9982 44.5432C56.0307 43.9591 55.6251 43.4432 55.0578 43.3483C48.6409 42.2704 45.7501 35.55 45.6305 35.2645C45.6228 35.2457 45.6141 35.2271 45.605 35.209C45.277 34.5301 45.2012 33.9694 45.3791 33.5419C45.7292 32.7012 47.0735 32.2662 47.9629 31.9784C48.2204 31.8957 48.4631 31.8171 48.6653 31.7357C49.5409 31.3832 50.1667 31.0008 50.5796 30.5666C51.0727 30.0489 51.1687 29.5529 51.1627 29.2283C51.1477 28.443 50.5587 27.7451 49.6217 27.4034C49.3053 27.2701 48.9444 27.1997 48.5769 27.1997C48.3268 27.1997 47.9563 27.2347 47.6057 27.4015C46.8549 27.7596 46.1825 27.9554 45.6052 27.9833C45.2982 27.9674 45.0828 27.8996 44.9434 27.8348C44.9609 27.5285 44.9803 27.2138 45.0004 26.8856L45.0087 26.7452C45.2143 23.4246 45.4698 19.292 44.3967 16.8386C43.6611 15.1583 42.6734 13.7131 41.4605 12.5415C40.4432 11.5596 39.2614 10.7638 37.9473 10.1755C35.6604 9.15278 33.5286 9 32.4615 9Z" fill="black"/>
</svg>
