<svg width="64" height="64" viewBox="0 0 64 64" fill="none" xmlns="http://www.w3.org/2000/svg">
<path fill-rule="evenodd" clip-rule="evenodd" d="M32 8C18.8 8 8 18.8 8 32C8 45.2 18.8 56 32 56C45.2 56 56 45.2 56 32C56 18.8 45.4 8 32 8ZM43.0001 42.5999C42.6001 43.3999 41.6001 43.5999 41.0001 42.9999C35.4001 39.5999 28.2001 38.7999 19.8001 40.7999C19.0001 40.9999 18.2001 40.3999 18.0001 39.7999C17.8001 38.9999 18.4001 38.1999 19.0001 37.9999C28.2001 35.9999 36.0001 36.7999 42.2001 40.5999C43.2001 40.9999 43.4001 41.9999 43.0001 42.5999ZM45.9998 35.9999C45.3998 36.7999 44.3998 37.1999 43.3998 36.5999C36.9998 32.5999 26.9998 31.3999 19.5998 33.7999C18.5998 33.9999 17.5998 33.5999 17.3998 32.5999C17.1998 31.5999 17.5998 30.5999 18.5998 30.3999C27.3998 27.7999 38.1998 28.9999 45.5998 33.5999C46.1998 33.9999 46.5998 35.1999 45.9998 35.9999ZM46.1998 29.4C38.3998 24.8 25.5998 24.4 18.3998 26.6C17.1998 27 15.9998 26.2 15.5998 25.2C15.1998 24 15.9998 22.8 16.9998 22.4C25.5998 19.8 39.5998 20.4 48.3998 25.6C49.3998 26.2 49.7998 27.6 49.1998 28.8C48.5998 29.6 47.1998 30 46.1998 29.4Z" fill="black"/>
</svg>
