<svg width="64" height="64" viewBox="0 0 64 64" fill="none" xmlns="http://www.w3.org/2000/svg">
<path d="M52.9769 20.2546C50.1794 20.2546 47.5983 19.3278 45.5256 17.7644C43.1484 15.9722 41.4404 13.3432 40.8372 10.3131C40.6879 9.56437 40.6075 8.79176 40.5998 8H32.6085V29.8361L32.5989 41.7968C32.5989 44.9944 30.5166 47.7058 27.6301 48.6593C26.7923 48.936 25.8876 49.0672 24.9455 49.0155C23.7431 48.9494 22.6162 48.5866 21.6368 48.0006C19.5526 46.7541 18.1395 44.4928 18.1012 41.9059C18.0408 37.8629 21.3094 34.5666 25.3496 34.5666C26.1471 34.5666 26.913 34.6968 27.6301 34.9332V28.9649V26.8194C26.8737 26.7074 26.104 26.649 25.3256 26.649C20.9034 26.649 16.7675 28.4872 13.8111 31.7988C11.5766 34.3014 10.2362 37.4943 10.0294 40.8423C9.75848 45.2405 11.3678 49.4214 14.4889 52.5061C14.9475 52.959 15.4291 53.3793 15.9327 53.767C18.6086 55.8263 21.88 56.9427 25.3256 56.9427C26.104 56.9427 26.8737 56.8852 27.6301 56.7732C30.8488 56.2964 33.8186 54.823 36.1623 52.5061C39.0421 49.6598 40.6333 45.881 40.6505 41.859L40.6094 23.998C41.9832 25.0578 43.4854 25.9348 45.0976 26.6155C47.605 27.6734 50.2637 28.2095 52.9999 28.2086V22.4058V20.2527C53.0018 20.2546 52.9788 20.2546 52.9769 20.2546V20.2546Z" fill="black"/>
</svg>
