<svg width="64" height="64" viewBox="0 0 64 64" fill="none" xmlns="http://www.w3.org/2000/svg">
<path d="M43.5093 46.1721C43.5093 46.1721 42.1256 47.8101 39.4965 47.8101C36.8674 47.8101 35.6913 46.1721 35.6913 43.7509C35.6913 42.778 35.6913 36.8153 35.6913 30.0301H44.1922V21.715H35.6913C35.6913 14.3541 35.6913 8 35.6913 8H29.2899C28.2896 14.1546 24.3472 19.2797 19 21.7952V30.03H25.2442C25.2442 38.0337 25.2442 45.2784 25.2442 45.8304C25.2442 48.0238 27.2506 56 37.4902 56C43.5093 56 46 52.0119 46 52.0119L43.5093 46.1721Z" fill="black"/>
</svg>
