<svg width="64" height="64" viewBox="0 0 64 64" fill="none" xmlns="http://www.w3.org/2000/svg">
<path fill-rule="evenodd" clip-rule="evenodd" d="M56 17.5052C54.2 18.2887 52.4 18.8763 50.4 19.0722C52.4 17.8969 54 15.9381 54.8 13.7835C52.8 14.9588 50.8 15.7423 48.6 16.134C46.8 14.1753 44.2 13 41.4 13C36 13 31.6 17.3093 31.6 22.5979C31.6 23.3814 31.6 24.1649 31.8 24.7526C23.4 24.3608 16.2 20.4433 11.4 14.567C10.4 16.134 10 17.701 10 19.4639C10 22.7938 11.8 25.732 14.4 27.4948C12.8 27.4948 11.2 27.1031 10 26.3196C10 26.3196 10 26.3196 10 26.5155C10 31.2165 13.4 35.134 17.8 35.9175C17 36.1134 16.2 36.3093 15.2 36.3093C14.6 36.3093 14 36.3093 13.4 36.1134C14.6 40.0309 18.2 42.7732 22.6 42.7732C19.2 45.3196 15 46.8866 10.4 46.8866C9.6 46.8866 8.8 46.8866 8 46.6907C12.4 49.433 17.6 51 23 51C41.2 51 51 36.3093 51 23.5773C51 23.1856 51 22.7938 51 22.4021C53 21.0309 54.6 19.268 56 17.5052Z" fill="black"/>
</svg>
