<svg width="64" height="64" viewBox="0 0 64 64" fill="none" xmlns="http://www.w3.org/2000/svg">
<path fill-rule="evenodd" clip-rule="evenodd" d="M32.4252 8C35.7008 8 38.7638 8.60937 41.6142 9.82812C44.4646 11.0469 46.9606 12.7187 49.1024 14.8438C51.2441 16.9688 52.9291 19.4453 54.1575 22.2734C55.3858 25.1016 56 28.1406 56 31.3906C56 34.6094 55.3858 37.6406 54.1575 40.4844C52.9291 43.3281 51.2441 45.8047 49.1024 47.9141C46.9606 50.0234 44.4646 51.6953 41.6142 52.9297C38.7638 54.1641 35.7008 54.7812 32.4252 54.7812C30.3779 54.7812 28.3937 54.5234 26.4724 54.0078C24.5512 53.4922 22.7402 52.7813 21.0394 51.875L8 56L12.252 43.4375C11.1811 41.6875 10.3465 39.7891 9.74803 37.7422C9.1496 35.6953 8.85039 33.5781 8.85039 31.3906C8.85039 28.1406 9.47243 25.1016 10.7165 22.2734C11.9606 19.4453 13.6457 16.9688 15.7717 14.8438C17.8976 12.7187 20.3937 11.0469 23.2598 9.82812C26.126 8.60937 29.1811 8 32.4252 8ZM32.4251 50.8437C35.1338 50.8437 37.6771 50.3359 40.0551 49.3203C42.433 48.3047 44.5117 46.914 46.2913 45.1484C48.0708 43.3828 49.4803 41.3203 50.5196 38.9609C51.559 36.6015 52.0787 34.0781 52.0787 31.3906C52.0787 28.7031 51.559 26.1797 50.5196 23.8203C49.4803 21.4609 48.0708 19.3984 46.2913 17.6328C44.5117 15.8672 42.433 14.4765 40.0551 13.4609C37.6771 12.4453 35.1338 11.9375 32.4251 11.9375C29.7165 11.9375 27.1732 12.4453 24.7952 13.4609C22.4173 14.4765 20.3385 15.8672 18.559 17.6328C16.7795 19.3984 15.3779 21.4609 14.3543 23.8203C13.3307 26.1797 12.8188 28.7031 12.8188 31.3906C12.8188 33.5156 13.1496 35.5468 13.811 37.4844C14.4724 39.4219 15.3858 41.1875 16.5511 42.7812L14.0944 50.0468L21.6535 47.6093C23.1968 48.6406 24.8818 49.4375 26.7086 50C28.5354 50.5625 30.4409 50.8437 32.4251 50.8437ZM43.4804 36.6875C43.7639 36.8437 44.008 36.9765 44.2127 37.0859C44.4174 37.1953 44.5513 37.3125 44.6143 37.4375C44.6773 37.5625 44.6851 37.8906 44.6379 38.4219C44.5907 38.9531 44.4253 39.5625 44.1418 40.25C43.8584 40.9375 43.2363 41.5468 42.2757 42.0781C41.3151 42.6094 40.5513 42.8906 39.9844 42.9219C39.4174 42.9531 38.8348 43 38.2363 43.0625C37.6379 43.125 35.8269 42.5 32.8033 41.1875C31.3229 40.5312 29.9844 39.6953 28.7875 38.6797C27.5907 37.664 26.567 36.664 25.7166 35.6797C24.8662 34.6953 24.197 33.8281 23.7088 33.0781C23.2206 32.3281 22.945 31.9062 22.882 31.8125C22.756 31.5937 22.3387 30.8594 21.63 29.6094C20.9214 28.3593 20.5985 27 20.6615 25.5312C20.7245 24.0625 21.0552 22.9531 21.6536 22.2031C22.2521 21.4531 22.693 20.9219 22.9765 20.6094C23.2599 20.3281 23.5513 20.1406 23.8505 20.0469C24.1497 19.9531 24.3938 19.9219 24.5828 19.9531C24.8033 19.9531 25.008 19.9609 25.197 19.9765C25.3859 19.9922 25.5749 20.0156 25.7639 20.0469C25.9214 20.0469 26.1182 20.0703 26.3544 20.1172C26.5907 20.164 26.819 20.4843 27.0395 21.0781C27.2914 21.6719 27.6222 22.5312 28.0316 23.6562C28.4411 24.7812 28.6773 25.4219 28.7403 25.5781C28.8033 25.7344 28.8505 25.8984 28.882 26.0703C28.9135 26.2422 28.8662 26.4219 28.7403 26.6094C28.6458 26.8281 28.5592 27.0078 28.4804 27.1484C28.4017 27.289 28.2836 27.4375 28.1261 27.5937C27.9686 27.75 27.8033 27.9297 27.63 28.1328C27.4568 28.3359 27.3072 28.5 27.1812 28.625C27.0237 28.75 26.8899 28.9062 26.7796 29.0937C26.6694 29.2812 26.693 29.5156 26.8505 29.7969C27.0395 30.1094 27.4017 30.6953 27.9371 31.5547C28.4725 32.414 29.1812 33.25 30.0631 34.0625C31.1655 35.125 32.1576 35.875 33.0395 36.3125C33.9214 36.75 34.504 37.0469 34.7875 37.2031C35.071 37.3594 35.3151 37.4297 35.5198 37.414C35.7245 37.3984 35.9214 37.2969 36.1103 37.1094C36.2678 36.9219 36.5828 36.5703 37.0552 36.0547C37.5277 35.539 37.8741 35.1406 38.0946 34.8594C38.2836 34.5469 38.4883 34.3984 38.7088 34.414C38.9292 34.4297 39.1812 34.4844 39.4647 34.5781C39.7166 34.7031 40.3781 35.0468 41.4489 35.6094C42.5198 36.1719 43.197 36.5312 43.4804 36.6875Z" fill="black"/>
</svg>
