<svg width="64" height="64" viewBox="0 0 64 64" fill="none" xmlns="http://www.w3.org/2000/svg">
<path fill-rule="evenodd" clip-rule="evenodd" d="M55.6 22.2857C55.6 22.2857 55.2 18.8452 53.6 17.4286C51.8 15.4048 49.8 15.4048 48.8 15.4048C42 15 32 15 32 15C32 15 22 15 15.2 15.4048C14.2 15.6071 12.2 15.6071 10.4 17.4286C9 18.8452 8.4 22.2857 8.4 22.2857C8.4 22.2857 8 26.131 8 30.1786V33.8214C8 37.6667 8.4 41.7143 8.4 41.7143C8.4 41.7143 8.8 45.1548 10.4 46.5714C12.2 48.5952 14.6 48.3929 15.6 48.5952C19.4 49 32 49 32 49C32 49 42 49 48.8 48.3929C49.8 48.1905 51.8 48.1905 53.6 46.369C55 44.9524 55.6 41.5119 55.6 41.5119C55.6 41.5119 56 37.6667 56 33.619V29.9762C56 26.131 55.6 22.2857 55.6 22.2857ZM27.0002 38.2737V24.7142L40.0002 31.5951L27.0002 38.2737Z" fill="black"/>
</svg>
