<svg width="64" height="64" viewBox="0 0 64 64" fill="none" xmlns="http://www.w3.org/2000/svg">
<path fill-rule="evenodd" clip-rule="evenodd" d="M37.7247 9.30531H40.4069V20.7438C40.4069 20.8954 40.4187 21.0486 40.4446 21.1972C40.5258 21.6686 40.8648 21.8905 41.3061 21.7331C41.8442 21.5416 42.2548 21.1585 42.6029 20.7071C42.6459 20.6511 42.6447 20.5529 42.6437 20.4661C42.6436 20.4583 42.6435 20.4507 42.6434 20.4432C42.6434 20.438 42.6433 20.4328 42.6433 20.4277V9.30531H45.3451L45.3443 24.3045H42.6419L42.6451 22.6931C42.5502 22.7893 42.4596 22.8834 42.3713 22.9753C42.1817 23.1725 42.0022 23.3592 41.811 23.5324C41.3142 23.9825 40.7515 24.3181 40.0932 24.4506C39.0826 24.6537 38.2218 24.3252 37.8996 23.2489C37.7923 22.8904 37.7275 22.5039 37.7247 22.1296V9.30531ZM31.5862 8.92985C33.7234 8.92985 35.456 10.7116 35.456 12.9095V20.6978C35.456 22.8957 33.7234 24.6774 31.5862 24.6774C29.449 24.6774 27.7165 22.8957 27.7165 20.6978V12.9095C27.7163 10.7116 29.4488 8.92985 31.5862 8.92985ZM21.1765 4C21.1765 4 22.4056 9.36864 22.9923 11.9118H22.9932C23.5799 9.36864 24.809 4 24.809 4H27.8844C27.8844 4 25.5216 12.0589 24.4649 15.6529C24.4268 15.7827 24.4095 15.924 24.4095 16.0601L24.4108 24.3013H21.5749L21.576 16.0601C21.576 15.924 21.5586 15.7829 21.5206 15.6529C20.4639 12.0589 18.1011 4 18.1011 4H21.1765ZM31.5864 22.0034C32.2022 22.0034 32.703 21.4883 32.703 20.8551V12.7523C32.703 12.1191 32.202 11.604 31.5864 11.604C30.9708 11.604 30.4698 12.1192 30.4698 12.7523V20.8551C30.4697 21.4881 30.9707 22.0034 31.5864 22.0034ZM49.2424 29.418H16.7576C13.9013 29.418 11.5859 31.7992 11.5859 34.7366V52.0221C11.5859 54.9595 13.9013 57.3407 16.7576 57.3407H49.2424C52.0987 57.3407 54.4141 54.9595 54.4141 52.0221V34.7366C54.4141 31.7992 52.0987 29.418 49.2424 29.418ZM16.7576 26.7587C12.4732 26.7587 9 30.3305 9 34.7366V52.0221C9 56.4282 12.4732 60 16.7576 60H49.2424C53.5268 60 57 56.4282 57 52.0221V34.7366C57 30.3305 53.5268 26.7587 49.2424 26.7587H16.7576ZM38.3446 38.3321C39.3579 38.0711 40.5264 38.3936 41.0823 39.6119C41.4104 40.3317 41.5025 41.0994 41.5025 41.8806C41.5074 44.7044 41.5074 47.5283 41.5042 50.3521C41.5025 50.8807 41.4492 51.4026 41.286 51.9095C40.9337 52.9998 40.1579 53.5549 39.0427 53.5433C38.1361 53.535 37.4007 53.1644 36.7947 52.4879C36.7268 52.4131 36.5393 52.2087 36.5393 52.2087V53.3422H33.8985V33.1398H36.5393V39.7897C36.5393 39.7897 36.688 39.4839 36.8238 39.326C37.2326 38.8556 37.7304 38.4916 38.3446 38.3321ZM38.7357 50.467C38.7664 50.3191 38.7842 50.1662 38.7842 50.0149L38.785 49.3452C38.7881 46.8976 38.7912 44.4514 38.7793 42.0054C38.7777 41.7229 38.6969 41.4287 38.5951 41.1644C38.4593 40.817 38.1684 40.6442 37.8031 40.6076C37.3749 40.5644 37.0322 40.7422 36.7219 41.0248C36.5975 41.1362 36.5409 41.3024 36.5409 41.3024L36.5474 50.2725V50.4936C36.5474 50.4936 36.6217 50.5966 36.633 50.6099C36.8852 50.8908 37.1793 51.1135 37.5559 51.1933C38.1765 51.3246 38.6145 51.0587 38.7357 50.467ZM28.5698 49.8205C28.6199 49.7557 28.6199 49.6393 28.6199 49.5463V38.4304L31.2575 38.4237V46.1606V53.3457H28.6215V51.7036L28.5426 51.7899C28.4928 51.8442 28.457 51.8832 28.4227 51.923C27.8554 52.5812 27.2122 53.1297 26.3912 53.4205C25.9904 53.5618 25.5783 53.61 25.1564 53.5352C24.5811 53.4372 24.1948 53.0964 23.9621 52.5579C23.7455 52.061 23.6906 51.5291 23.689 50.9939C23.6829 49.132 23.6854 39.7458 23.6857 38.5678L23.6857 38.447H26.3152C26.3201 38.5384 26.3298 46.0526 26.3314 49.7175C26.3314 49.9169 26.333 50.1213 26.3718 50.3158C26.4688 50.8078 26.8356 51.0189 27.2962 50.846C27.8263 50.6466 28.2304 50.2709 28.5698 49.8205ZM23.6924 33.1412H14.5449V36.0364H17.6269V53.3436H20.6039V36.0297H23.6924V33.1412ZM48.6262 49.9634V48.047H51.343C51.343 48.047 51.3834 50.3091 51.0391 51.3412C50.5817 52.7191 49.6363 53.4836 48.2496 53.693C47.3898 53.8227 46.5381 53.8044 45.7316 53.4288C44.6278 52.9169 44.0024 51.9911 43.7341 50.8127C43.6096 50.2642 43.5482 49.6891 43.5417 49.1257C43.5236 47.2149 43.5284 45.3028 43.5331 43.3917L43.5353 42.4874C43.5369 41.3306 43.8052 40.2636 44.5761 39.3777C45.4553 38.3655 46.5801 37.9882 47.865 38.073C48.2512 38.0979 48.6456 38.1627 49.0125 38.2874C50.2617 38.7095 50.9292 39.6719 51.191 40.9483C51.2912 41.4403 51.3284 41.9506 51.3365 42.4542C51.3575 43.6342 51.3284 46.2354 51.3284 46.2354H46.2714V49.9634C46.2714 50.6332 46.7983 51.175 47.4496 51.175C48.0993 51.175 48.6262 50.6332 48.6262 49.9634ZM47.4496 40.6194C46.7983 40.6194 46.2714 41.1629 46.2714 41.8311V43.9236H48.6262V41.8311C48.6262 41.1629 48.0993 40.6194 47.4496 40.6194Z" fill="black"/>
</svg>
