<svg  viewBox="0 0 64 64" fill="none" xmlns="http://www.w3.org/2000/svg">
<path d="M54.6291 48.3655H9.37223C8.61341 48.3655 7.99987 47.7504 7.99987 46.9932V17.0053C7.99987 16.2496 8.61341 15.6345 9.37223 15.6345H54.6291C55.3863 15.6345 55.9999 16.2481 55.9999 17.0053V46.9932C55.9999 47.7504 55.3863 48.3655 54.6291 48.3655ZM10.743 45.6223H53.2567V18.3792H10.743V45.6223Z" fill="#00338D"/>
<path d="M31.9993 33.3715C31.735 33.3715 31.4723 33.2958 31.2436 33.1444L8.61361 18.1489C7.98307 17.7301 7.80843 16.8801 8.22879 16.2495C8.64761 15.6174 9.49761 15.4444 10.1297 15.8632L31.9993 30.3564L53.8704 15.8632C54.4994 15.4444 55.3525 15.6174 55.7698 16.2495C56.1886 16.8801 56.0155 17.7316 55.385 18.1489L32.7581 33.1428C32.5278 33.2958 32.2636 33.3715 31.9993 33.3715Z" fill="#00338D"/>
</svg>
