<svg width="64" height="64" viewBox="0 0 64 64" fill="none" xmlns="http://www.w3.org/2000/svg">
<path fill-rule="evenodd" clip-rule="evenodd" d="M32 15H64V17H32V15ZM32 23H64V25H32V23ZM64 31H32V33H64V31Z" fill="black"/>
<path d="M33 43H34.99L37.02 47.1L39.04 43H41.03V50.01H39.41L39.4 45.57L37.61 49.31H36.43L34.63 45.57V50.01H33V43Z" fill="black"/>
<path d="M42.3945 43H47.9245V44.46H44.2245V45.77H47.5645V47.22L44.2245 47.23V48.55H48.0245V50.01H42.3945V43Z" fill="black"/>
<path d="M53.9326 43H55.6326V50.01H54.0326L50.8526 45.82V50.01H49.1426V43H50.7526L53.9426 47.22L53.9326 43Z" fill="black"/>
<path d="M58.7139 47.12C58.7139 47.56 58.8439 47.9133 59.1039 48.18C59.3639 48.4467 59.6939 48.58 60.0939 48.58C60.4872 48.58 60.8039 48.45 61.0439 48.19C61.2906 47.9233 61.4139 47.5667 61.4139 47.12V43H63.2439V47.12C63.2439 47.7267 63.1139 48.26 62.8539 48.72C62.6006 49.1733 62.2339 49.5233 61.7539 49.77C61.2806 50.0167 60.7239 50.14 60.0839 50.14C59.4439 50.14 58.8806 50.0167 58.3939 49.77C57.9139 49.5233 57.5406 49.1733 57.2739 48.72C57.0139 48.26 56.8839 47.7267 56.8839 47.12V43H58.7139V47.12Z" fill="black"/>
</svg>
