<svg width="32" height="36" viewBox="0 0 32 36" fill="none" xmlns="http://www.w3.org/2000/svg">
<path fill-rule="evenodd" clip-rule="evenodd" d="M0 0H32V2H0V0ZM0 8H32V10H0V8ZM32 16H0V18H32V16Z" fill="black"/>
<path d="M1 28H2.99L5.02 32.1L7.04 28H9.03V35.01H7.41L7.4 30.57L5.61 34.31H4.43L2.63 30.57V35.01H1V28Z" fill="black"/>
<path d="M10.3945 28H15.9245V29.46H12.2245V30.77H15.5645V32.22L12.2245 32.23V33.55H16.0245V35.01H10.3945V28Z" fill="black"/>
<path d="M21.9326 28H23.6326V35.01H22.0326L18.8526 30.82V35.01H17.1426V28H18.7526L21.9426 32.22L21.9326 28Z" fill="black"/>
<path d="M26.7138 32.12C26.7138 32.56 26.8438 32.9133 27.1038 33.18C27.3638 33.4467 27.6938 33.58 28.0938 33.58C28.4871 33.58 28.8038 33.45 29.0438 33.19C29.2905 32.9233 29.4138 32.5667 29.4138 32.12V28H31.2438V32.12C31.2438 32.7267 31.1138 33.26 30.8538 33.72C30.6005 34.1733 30.2338 34.5233 29.7538 34.77C29.2805 35.0167 28.7238 35.14 28.0838 35.14C27.4438 35.14 26.8805 35.0167 26.3938 34.77C25.9138 34.5233 25.5405 34.1733 25.2738 33.72C25.0138 33.26 24.8838 32.7267 24.8838 32.12V28H26.7138V32.12Z" fill="black"/>
</svg>
