<svg  viewBox="0 0 64 64" fill="none" xmlns="http://www.w3.org/2000/svg">
<path fill-rule="evenodd" clip-rule="evenodd" d="M31.9997 57.4541C17.9427 57.4541 6.54564 46.057 6.54564 32C6.54564 17.9404 17.9427 6.54601 31.9997 6.54601C46.0593 6.54601 57.4538 17.9404 57.4538 32C57.4538 46.057 46.0593 57.4541 31.9997 57.4541ZM32 4C16.5378 4 4 16.5351 4 32C4 47.4648 16.5378 60 32 60C47.4622 60 60 47.4648 60 32C60 16.5351 47.4622 4 32 4ZM26.9077 40.0059V23.9939L40.9207 31.9999L26.9077 40.0059ZM44.2372 31.02L44.2502 31.0045L44.0246 30.8774C43.9909 30.8619 43.9624 30.8358 43.9287 30.823L26.4313 20.8234L26.4183 20.8389C26.2006 20.6653 25.9361 20.546 25.6354 20.546C24.9354 20.546 24.365 21.1136 24.365 21.8189V42.1811C24.365 42.8863 24.9354 43.4541 25.6354 43.4541C25.9361 43.4541 26.2006 43.3348 26.4183 43.1611L26.4313 43.1766L43.9287 33.177C43.9624 33.1641 43.9909 33.1407 44.0246 33.1226L44.2502 32.9955L44.2372 32.98C44.5276 32.7468 44.7272 32.4019 44.7272 32C44.7272 31.5981 44.5276 31.2532 44.2372 31.02Z" fill="#00338D" />
</svg>
