<svg viewBox="0 0 200 200" fill="none" xmlns="http://www.w3.org/2000/svg">
<path fill-rule="evenodd" clip-rule="evenodd" d="M95 56.1944C85.6467 56.1944 78.1348 63.7574 78.1348 73C78.1348 82.2426 85.6467 89.8056 95 89.8056C104.353 89.8056 111.865 82.2426 111.865 73C111.865 63.7574 104.353 56.1944 95 56.1944ZM57 73C57 51.9743 74.0521 35 95 35C115.948 35 133 51.9743 133 73C133 94.0257 115.948 111 95 111C74.0521 111 57 94.0257 57 73Z" fill="#19E99E"/>
<path fill-rule="evenodd" clip-rule="evenodd" d="M132.59 34H143V55.3529H133.264V72.3652C133.264 93.4159 116.606 110.838 96.849 110.838H79.9351C79.7922 110.932 79.5795 111.098 79.3422 111.362C78.659 112.122 78.3116 113.06 78.3116 113.844C78.3116 114.076 78.3653 114.45 78.5811 114.953C78.8005 115.465 79.1432 116 79.5716 116.475C79.8657 116.801 80.1371 117.029 80.3394 117.174H108.87C120.766 117.174 133.264 127.047 133.264 141.318C133.264 158.215 119.331 166 108.87 166H84.399V144.647H108.87C109.551 144.647 110.47 144.344 111.076 143.821C111.327 143.604 111.51 143.365 111.643 143.075C111.772 142.794 111.952 142.257 111.952 141.318C111.952 140.88 111.768 140.232 111.021 139.537C110.2 138.772 109.295 138.527 108.87 138.527H79.4619C72.7915 138.527 67.1905 134.594 63.7628 130.795C60.0823 126.716 57 120.763 57 113.844C57 107.195 59.7115 101.292 63.5093 97.0687C67.1862 92.9799 72.8243 89.4851 79.4619 89.4851H96.849C103.924 89.4851 111.952 82.5585 111.952 72.3652V53.8342C111.952 47.6538 114.013 41.6127 119.462 37.7279C124.08 34.436 129.404 34.064 132.483 34.0021L132.59 34Z" fill="#3CC3DD"/>
</svg>
