<svg width="64" height="46" viewBox="0 0 64 46" fill="none" xmlns="http://www.w3.org/2000/svg">
<g clip-path="url(#clip0)">
<path d="M49.8511 45.0703C57.6533 45.0703 64 38.7191 64 30.9113C64 23.3793 58.0933 17.2015 50.6718 16.7747C50.5433 15.3864 50.6397 11.6072 54.2585 6.35012C54.5321 5.95355 54.4824 5.41871 54.1426 5.07871C52.6618 3.59681 51.7466 2.66351 51.1061 2.01075C50.2677 1.15726 49.8851 0.767576 49.3253 0.258976C49.1355 0.0865839 48.896 -0.000109196 48.6555 -0.000109196C48.4219 -0.000109196 48.1892 0.0816956 48.0013 0.244413C41.6954 5.73536 34.6905 17.0807 35.704 30.9834C36.2979 39.1458 42.2475 45.0703 49.8511 45.0703ZM48.6458 2.36052C48.9174 2.62839 49.227 2.94405 49.6836 3.40885C50.2385 3.97482 50.9999 4.75039 52.1545 5.90975C47.7627 12.6819 48.5923 17.5054 48.9554 18.1972C49.1277 18.5255 49.4812 18.7467 49.8511 18.7467C56.5532 18.7467 62.0061 24.2035 62.0061 30.9113C62.0061 37.6182 56.5532 43.075 49.8511 43.075C43.3223 43.075 38.209 37.929 37.6921 30.8393C36.553 15.2022 45.8399 5.04948 48.6458 2.36052Z" fill="black"/>
<path d="M0.0982425 30.9834V30.9844C0.694075 39.1458 6.64414 45.0703 14.2453 45.0703C22.0471 45.0703 28.3944 38.7191 28.3944 30.9113C28.3944 23.3793 22.4871 17.2015 15.0651 16.7747C14.9366 15.3874 15.034 11.6102 18.6534 6.35012C18.927 5.95355 18.8773 5.41871 18.5376 5.07871C17.0627 3.60269 16.1496 2.67129 15.509 2.01953C14.6669 1.16025 14.2823 0.768578 13.7197 0.258078C13.5299 0.0865845 13.2894 -0.000109196 13.0499 -0.000109196C12.8162 -0.000109196 12.5835 0.0816956 12.3957 0.24541C6.09027 5.73636 -0.914185 17.0816 0.0982425 30.9834ZM13.0402 2.36052C13.3137 2.63039 13.6262 2.94794 14.0867 3.41753C14.6416 3.9827 15.3999 4.75617 16.5497 5.90975C12.1582 12.6829 12.9866 17.5054 13.3487 18.1972C13.5211 18.5245 13.8754 18.7467 14.2453 18.7467C20.948 18.7467 26.4007 24.2035 26.4007 30.9113C26.4007 37.6182 20.948 43.075 14.2453 43.075C7.71798 43.075 2.60409 37.929 2.08621 30.8383V30.8393C0.948181 15.2042 10.2345 5.04948 13.0402 2.36052Z" fill="black"/>
</g>
<defs>
<clipPath id="clip0">
<rect width="64" height="45.0704" fill="white"/>
</clipPath>
</defs>
</svg>
