<svg fill="none" xmlns="http://www.w3.org/2000/svg" viewBox="0 0 64 64"><path fill-rule="evenodd" clip-rule="evenodd" d="M58.727 37.111H18c-.703 0-1.273.573-1.273 1.278 0 .707.57 1.278 1.273 1.278h40.727c.702 0 1.273-.57 1.273-1.278 0-.705-.57-1.278-1.273-1.278zm0-12.778H18c-.703 0-1.273.573-1.273 1.278 0 .707.57 1.28 1.273 1.28h40.727c.702 0 1.273-.572 1.273-1.28 0-.705-.57-1.278-1.273-1.278zM7.82 9A3.827 3.827 0 004 12.833a3.825 3.825 0 003.819 3.834 3.825 3.825 0 003.816-3.834C11.635 10.72 9.927 9 7.82 9zm50.908 40.889H18c-.703 0-1.273.573-1.273 1.278 0 .707.57 1.277 1.273 1.277h40.727c.702 0 1.273-.57 1.273-1.277 0-.705-.57-1.278-1.273-1.278zM18 14.111h40.727c.702 0 1.273-.57 1.273-1.278 0-.705-.57-1.277-1.273-1.277H18c-.703 0-1.273.572-1.273 1.277 0 .707.57 1.278 1.273 1.278zM7.819 47.333A3.825 3.825 0 004 51.167 3.825 3.825 0 007.819 55a3.825 3.825 0 003.816-3.833 3.825 3.825 0 00-3.816-3.834zm0-25.555A3.827 3.827 0 004 25.61a3.825 3.825 0 003.819 3.834 3.825 3.825 0 003.816-3.834c0-2.115-1.708-3.833-3.816-3.833zm0 12.777A3.827 3.827 0 004 38.39a3.825 3.825 0 003.819 3.833 3.825 3.825 0 003.816-3.833c0-2.115-1.708-3.834-3.816-3.834z" fill="#000"/></svg>