<svg fill="none" xmlns="http://www.w3.org/2000/svg" viewBox="0 0 64 64"><path fill-rule="evenodd" clip-rule="evenodd" d="M46.635 57.454c-1.594 0-3.15-.353-4.617-1.047a2.58 2.58 0 00-.423-.153C27.125 48.873 15.138 36.887 7.754 22.42a2.824 2.824 0 00-.16-.438 10.73 10.73 0 01-1.048-4.617c0-6.173 5.406-10.82 8.908-10.82.459 0 .762.234.9.374.03.034.09.099.174.234.044.072.093.142.144.21l8.383 10.774c.064.083.134.161.21.236.137.14.37.444.37.9 0 .226-.062.438-.184.633l-2.836 2.815-.04.039a5.102 5.102 0 00-1.612 3.713 5.11 5.11 0 001.398 3.505c.03.052.064.1.1.15 3.128 4.322 6.972 8.151 11.426 11.384l.104.07a5.105 5.105 0 003.526 1.423 5.088 5.088 0 003.56-1.467c.049-.041.095-.085.142-.135l2.852-2.87c.2-.127.412-.189.635-.189.46 0 .762.233.9.373.075.076.156.146.238.21l10.775 8.38c.07.054.143.103.215.15.135.086.198.14.226.169.14.14.373.44.373.9 0 .085.006.17.016.256-.2 3.505-4.776 8.672-10.814 8.672zM60 48.525h-.02c0-1.052-.428-2.01-1.118-2.699a3.729 3.729 0 00-.68-.529l-10.774-8.379a3.807 3.807 0 00-2.702-1.12 3.76 3.76 0 00-2.286.783l-3.008 3.03-.007-.007a2.523 2.523 0 01-1.888.856c-.863 0-1.62-.43-2.082-1.084-.015.023-.036.047-.054.075-4.159-3.018-7.845-6.653-10.858-10.816.029-.018.055-.042.086-.06a2.564 2.564 0 01-1.1-2.102c0-.78.356-1.47.902-1.94l-.002-.005L27.4 21.56c.484-.636.78-1.424.78-2.287 0-1.053-.428-2.01-1.117-2.699L18.682 5.797a3.718 3.718 0 00-.53-.677A3.796 3.796 0 0015.455 4C10.364 4 4 9.984 4 17.365c0 2.043.475 3.974 1.294 5.706l-.042.044c7.656 15.25 20.383 27.977 35.635 35.633l.042-.042A13.274 13.274 0 0046.635 60C54.016 60 60 53.635 60 48.546v-.02z" fill="#000"/></svg>