<svg fill="none" xmlns="http://www.w3.org/2000/svg" viewBox="0 0 64 64"><path fill-rule="evenodd" clip-rule="evenodd" d="M27.124 11.206L4 8v38.753L27.123 49.9l12.485-1.622L38.385 56l8.242-4.637 8.298 4.636-1.602-9.812L60 39.282l-9.199-1.443-.553-1.119V8l-23.124 3.206zm6.19 28.075l.401.422-2.882.342.25 2.364 4.702-.53 3.895 4.048-11.445 1.486V13.417l5.579-.734v14.493l3.944-2.075 3.995 2.07v-15.61l6.273-.844V31.88l-1.405-2.958-1.34 2.897-.102-.977-14.346 1.61.25 2.367 13.513-1.517-2.098 4.538-9.184 1.44zm-27.04 5.376V10.718l19.739 2.697v33.993l-19.738-2.75zm29.815-21.32V12.348l3.389-.451v11.449l-1.724-.952-1.665.943zm-12.674-6.006l-14.36-1.613-.167 2.37 14.277 1.609.25-2.366zm.002 7.589L9.056 23.307l-.17 2.313 14.277 1.61.254-2.31zm-.002 7.533L9.055 30.84l-.167 2.37 14.277 1.61.25-2.367zm20.608 7.567l2.607-5.688 2.655 5.689 5.93.92-4.279 4.45 1.017 6.27-5.328-2.957-5.272 2.952 1.017-6.265-4.278-4.45 5.931-.92zm-20.608.022L9.055 38.43l-.167 2.37 14.277 1.609.25-2.367z" fill="#000"/></svg>