<svg fill="none" xmlns="http://www.w3.org/2000/svg" viewBox="0 0 64 64"><path fill-rule="evenodd" clip-rule="evenodd" d="M28.181 49.819c-11.95 0-21.635-9.689-21.635-21.638 0-11.95 9.686-21.635 21.635-21.635 11.95 0 21.638 9.686 21.638 21.635 0 11.95-9.688 21.638-21.638 21.638zm31.446 8.008l-13.49-13.489c3.858-4.283 6.228-9.937 6.228-16.157C52.365 14.827 41.538 4 28.18 4 14.827 4 4 14.827 4 28.181c0 13.357 10.827 24.184 24.181 24.184 6.22 0 11.874-2.367 16.157-6.228l13.49 13.49a1.272 1.272 0 101.8-1.8z" fill="#000"/></svg>