<svg fill="none" xmlns="http://www.w3.org/2000/svg" viewBox="0 0 507 174"><path d="M481.045 143.626h-300.1v15.604h300.1v-15.604z" fill="#7AA52B"/><path d="M30.505 7c10.74 0 19.505 8.72 19.505 19.505 0 10.785-8.766 19.55-19.505 19.55C19.72 46.056 11 37.29 11 26.506S19.72 7 30.505 7z" fill="#0097DC"/><path d="M46.108 57.759H14.901V159.23h31.207V57.759zM157.676 108.793v-.551c-.091-29.418-19.78-53.237-51.905-53.237-32.126 0-51.769 23.82-51.907 53.237v.551c0 32.309 25.013 53.145 56.266 53.145 16.247 0 32.723-7.297 42.728-20.01l-21.295-15.604c-5.599 6.563-12.713 11.841-22.901 11.841-12.07 0-21.066-7.71-23.544-19.597h71.687c.596-3.075.871-6.333.871-9.775zm-51.079-13.63H86.541c1.928-7.894 8.353-15.054 20.056-15.054 11.703 0 18.128 7.16 20.055 15.053h-20.055z" fill="#00338D"/><path d="M185.213 59.548s2.524 2.479 5.828 2.479c1.79 0 3.397-.918 3.397-2.846 0-4.176-11.061-3.442-11.061-10.647 0-3.901 3.35-6.792 7.848-6.792 4.635 0 6.976 2.524 6.976 2.524l-1.836 3.442s-2.249-2.065-5.186-2.065c-1.973 0-3.534 1.147-3.534 2.8 0 4.176 11.015 3.12 11.015 10.6 0 3.718-2.846 6.839-7.71 6.839-5.232 0-8.078-3.213-8.078-3.213l2.341-3.12zM213.897 41.742c5.69 0 8.628 3.212 8.628 3.212l-2.066 3.167s-2.661-2.478-6.379-2.478c-4.956 0-7.848 3.671-7.848 8.031 0 4.452 2.983 8.399 7.894 8.399 4.039 0 6.792-2.983 6.792-2.983l2.249 3.074s-3.212 3.81-9.179 3.81c-7.159 0-12.116-5.324-12.116-12.208-.046-6.792 5.095-12.024 12.025-12.024zM227.573 42.155h4.268v9.913h10.739v-9.913h4.268V65.56h-4.268v-9.822h-10.739v9.822h-4.268V42.155zM263.691 41.742c6.885 0 12.116 5.232 12.116 11.932 0 6.884-5.231 12.254-12.116 12.254-6.884 0-12.116-5.37-12.116-12.254.046-6.654 5.232-11.932 12.116-11.932zm0 20.33c4.269 0 7.711-3.579 7.711-8.398 0-4.635-3.442-8.031-7.711-8.031-4.268 0-7.71 3.442-7.71 8.031 0 4.819 3.442 8.399 7.71 8.399zM291.09 41.742c6.884 0 12.116 5.232 12.116 11.932 0 6.884-5.232 12.254-12.116 12.254-6.884 0-12.116-5.37-12.116-12.254.046-6.654 5.232-11.932 12.116-11.932zm0 20.33c4.268 0 7.71-3.579 7.71-8.398 0-4.635-3.442-8.031-7.71-8.031s-7.71 3.442-7.71 8.031c0 4.819 3.442 8.399 7.71 8.399zM308.025 42.155h4.268v19.734h10.143v3.672h-14.365l-.046-23.406zM345.291 41.742c6.884 0 12.116 5.232 12.116 11.932 0 6.884-5.232 12.254-12.116 12.254-6.885 0-12.116-5.37-12.116-12.254 0-6.654 5.231-11.932 12.116-11.932zm0 20.33c4.268 0 7.71-3.579 7.71-8.398 0-4.635-3.442-8.031-7.71-8.031-4.269 0-7.711 3.442-7.711 8.031 0 4.819 3.397 8.399 7.711 8.399zM362.18 42.155h13.447v3.671h-9.179v6.609h7.756v3.671h-7.756v9.455h-4.268V42.155zM184.708 73.363h4.268v9.913h10.739v-9.913h4.268v23.406h-4.268v-9.822h-10.739v9.822h-4.268V73.363zM210.042 73.363h4.268V88.37c0 3.12 2.065 4.91 5.186 4.91 3.12 0 5.232-1.79 5.232-4.956V73.363h4.268V88.37c0 5.232-3.81 8.811-9.409 8.811-5.69 0-9.454-3.58-9.454-8.811l-.091-15.007zM236.201 73.363h4.543l4.59 11.565a158.784 158.784 0 011.193 3.442h.046s.642-2.065 1.147-3.442l4.59-11.565h4.543l1.882 23.406h-4.223l-1.009-13.08c-.092-1.56-.046-3.626-.046-3.626h-.046s-.688 2.295-1.239 3.626l-3.809 9.087h-3.718l-3.763-9.087c-.551-1.331-1.285-3.672-1.285-3.672h-.046s.046 2.111-.046 3.672l-1.01 13.08h-4.268l1.974-23.406zM276.083 90.802h-8.215l-1.974 6.012h-4.36l8.261-23.406h4.452l8.261 23.406h-4.452l-1.973-6.012zm-4.085-13.355s-.505 2.295-1.01 3.626l-2.065 6.287h6.15l-2.065-6.287c-.413-1.331-.918-3.626-.918-3.626h-.092zM285.95 73.363h4.268l8.858 13.538c.872 1.331 1.927 3.626 1.927 3.626h.046s-.229-2.249-.229-3.626V73.363h4.222v23.406h-4.222l-8.858-13.493c-.872-1.331-1.928-3.626-1.928-3.626h-.045s.229 2.249.229 3.626v13.493h-4.268V73.363zM320.554 90.802s2.524 2.478 5.828 2.478c1.79 0 3.396-.917 3.396-2.845 0-4.176-11.06-3.442-11.06-10.647 0-3.901 3.35-6.793 7.848-6.793 4.635 0 6.976 2.525 6.976 2.525l-1.836 3.442s-2.249-2.066-5.186-2.066c-1.974 0-3.534 1.148-3.534 2.8 0 4.176 11.015 3.12 11.015 10.601 0 3.718-2.846 6.839-7.711 6.839-5.231 0-8.077-3.213-8.077-3.213l2.341-3.12zM349.192 72.995c5.691 0 8.628 3.213 8.628 3.213l-2.065 3.167s-2.662-2.479-6.38-2.479c-4.956 0-7.848 3.672-7.848 8.032 0 4.451 2.984 8.398 7.894 8.398 4.039 0 6.792-2.983 6.792-2.983l2.249 3.075s-3.212 3.81-9.179 3.81c-7.159 0-12.116-5.324-12.116-12.208 0-6.839 5.141-12.025 12.025-12.025zM362.868 73.363h4.268v23.406h-4.268V73.363zM373.561 73.363h13.998v3.671h-9.775v6.15h7.893v3.671h-7.893v6.288h10.28v3.671h-14.549l.046-23.451zM393.02 73.363h4.268l8.858 13.538c.872 1.331 1.927 3.626 1.927 3.626h.046s-.229-2.249-.229-3.626V73.363h4.222v23.406h-4.176l-8.858-13.493c-.872-1.331-1.927-3.626-1.927-3.626h-.046s.229 2.249.229 3.626v13.493h-4.268V73.363h-.046zM429.001 72.995c5.691 0 8.628 3.213 8.628 3.213l-2.065 3.167s-2.662-2.479-6.379-2.479c-4.957 0-7.848 3.672-7.848 8.032 0 4.451 2.983 8.398 7.894 8.398 4.038 0 6.792-2.983 6.792-2.983l2.249 3.075s-3.213 3.81-9.179 3.81c-7.159 0-12.116-5.324-12.116-12.208 0-6.839 5.14-12.025 12.024-12.025zM442.677 73.363h13.998v3.671h-9.729v6.15h7.893v3.671h-7.893v6.288h10.28v3.671h-14.549V73.363zM462.687 90.802s2.524 2.478 5.829 2.478c1.79 0 3.396-.917 3.396-2.845 0-4.176-11.06-3.442-11.06-10.647 0-3.901 3.35-6.793 7.847-6.793 4.636 0 6.976 2.525 6.976 2.525l-1.836 3.442s-2.248-2.066-5.186-2.066c-1.973 0-3.533 1.148-3.533 2.8 0 4.176 11.014 3.12 11.014 10.601 0 3.718-2.845 6.839-7.71 6.839-5.232 0-8.077-3.213-8.077-3.213l2.34-3.12zM187.186 115.539v-.046s-2.983-1.147-2.983-5.094c0-4.176 3.351-6.15 7.389-6.15 1.469 0 3.075.413 3.075.413l-1.01 3.35s-.78-.183-1.56-.183c-1.973 0-3.58 1.101-3.58 3.121 0 1.331.781 3.12 3.58 3.12h3.717v-3.029h4.177v3.029h3.029v3.672h-3.029v2.754c0 4.773-3.121 7.939-8.399 7.939-5.094 0-8.398-3.075-8.398-7.022 0-2.57 1.514-5.002 3.992-5.874zm4.406 8.995c2.616 0 4.222-1.468 4.222-4.268v-2.524h-3.946c-2.616 0-4.269 1.147-4.269 3.442-.045 1.836 1.561 3.35 3.993 3.35zM221.194 108.242h-7.665v-3.672h19.643v3.672h-7.664v19.734h-4.269l-.045-19.734zM236.706 104.616h13.997v3.672h-9.775v6.15h7.894v3.671h-7.894v6.288h10.28v3.671H236.66v-23.452h.046zM266.491 104.203c5.691 0 8.628 3.213 8.628 3.213l-2.065 3.167s-2.662-2.479-6.38-2.479c-4.956 0-7.847 3.672-7.847 8.032 0 4.451 2.983 8.398 7.893 8.398 4.039 0 6.793-2.983 6.793-2.983l2.248 3.075s-3.212 3.809-9.178 3.809c-7.16 0-12.116-5.323-12.116-12.207-.046-6.793 5.094-12.025 12.024-12.025zM280.167 104.616h4.268v9.913h10.74v-9.913h4.268v23.406h-4.268v-9.821h-10.74v9.821h-4.268v-23.406zM305.822 104.616h4.268l8.857 13.539c.872 1.331 1.928 3.626 1.928 3.626h.046s-.23-2.249-.23-3.626v-13.539h4.223v23.406h-4.177l-8.857-13.493c-.872-1.331-1.928-3.625-1.928-3.625h-.046s.23 2.249.23 3.625v13.493h-4.268l-.046-23.406zM341.849 104.203c6.884 0 12.116 5.232 12.116 11.933 0 6.884-5.232 12.253-12.116 12.253-6.884 0-12.116-5.369-12.116-12.253 0-6.701 5.232-11.933 12.116-11.933zm0 20.331c4.268 0 7.71-3.579 7.71-8.398 0-4.636-3.442-8.032-7.71-8.032s-7.711 3.442-7.711 8.032c0 4.819 3.443 8.398 7.711 8.398zM358.783 104.616h4.269v19.735h10.142v3.671h-14.365v-23.406h-.046zM387.146 104.203c6.884 0 12.116 5.232 12.116 11.933 0 6.884-5.232 12.253-12.116 12.253-6.884 0-12.116-5.369-12.116-12.253 0-6.701 5.186-11.933 12.116-11.933zm0 20.331c4.268 0 7.71-3.579 7.71-8.398 0-4.636-3.442-8.032-7.71-8.032s-7.71 3.442-7.71 8.032c-.046 4.819 3.396 8.398 7.71 8.398zM414.544 104.203c5.737 0 8.72 2.983 8.72 2.983l-2.111 3.167s-2.524-2.249-6.241-2.249c-5.232 0-8.032 3.626-8.032 8.032 0 5.094 3.442 8.398 7.848 8.398 3.534 0 5.874-2.432 5.874-2.432v-2.754h-3.579v-3.671h7.435v12.345h-3.626v-1.101c0-.505.046-1.01.046-1.01h-.046s-2.432 2.524-6.792 2.524c-6.15 0-11.474-4.773-11.474-12.116-.092-6.838 5.003-12.116 11.978-12.116zM434.371 118.201l-7.802-13.631h4.819l3.671 6.885c.78 1.468 1.377 3.166 1.423 3.12h.046s.642-1.698 1.423-3.12l3.625-6.885h4.819l-7.802 13.631v9.775h-4.268l.046-9.775z" fill="#000"/></svg>