<svg fill="none" xmlns="http://www.w3.org/2000/svg" viewBox="0 0 507 174"><path d="M407.361 143.598H181.115v15.611h226.246v-15.611z" fill="#E70033"/><path d="M30.515 7c10.752 0 19.514 8.729 19.514 19.5 0 10.773-8.762 19.528-19.515 19.528C19.736 46.028 11 37.273 11 26.501S19.735 7 30.515 7z" fill="#0097DC"/><path d="M46.116 57.736H14.894v101.472h31.222V57.736zM157.706 108.794v-.554c-.107-29.411-19.774-53.214-51.892-53.214S54.03 78.828 53.924 108.24l-.001.554c0 32.302 25.008 53.142 56.268 53.142 16.255 0 32.719-7.294 42.722-20.007l-21.273-15.6c-5.612 6.58-12.696 11.849-22.908 11.849-12.087 0-21.048-7.711-23.55-19.59h71.7a58.49 58.49 0 00.824-9.794zm-51.082-13.659H86.566c1.918-7.91 8.354-15.076 20.058-15.076s18.14 7.166 20.058 15.076h-20.058z" fill="#00338D"/><path d="M185.014 104.574h4.254v19.752h10.124v3.661h-14.377v-23.413h-.001zM215.68 121.985h-8.211l-1.979 6.002h-4.386l8.244-23.414h4.451l8.245 23.414h-4.386l-1.978-6.002zm-4.121-13.355s-.528 2.308-.99 3.626l-2.077 6.266h6.133l-2.077-6.266c-.429-1.318-.924-3.626-.924-3.626h-.065zM243.841 120.765c.362 1.352.396 2.473.429 2.473h.067s.098-1.153.395-2.473l3.858-16.191h4.386l-6.034 23.413h-4.914l-3.595-13.85c-.395-1.517-.593-3.067-.593-3.067h-.066s-.199 1.55-.594 3.067l-3.594 13.85h-4.913l-5.87-23.413h4.386l3.693 16.191c.297 1.32.396 2.473.396 2.473h.067c.032 0 .066-1.12.428-2.473l4.221-16.191h3.694l4.153 16.191zM266.296 121.985s2.539 2.473 5.837 2.473c1.781 0 3.396-.923 3.396-2.836 0-4.188-11.047-3.462-11.047-10.651 0-3.891 3.363-6.793 7.849-6.793 4.617 0 6.991 2.506 6.991 2.506l-1.847 3.463s-2.242-2.045-5.176-2.045c-1.979 0-3.529 1.155-3.529 2.803 0 4.155 11.014 3.132 11.014 10.618 0 3.726-2.836 6.859-7.716 6.859-5.211 0-8.079-3.199-8.079-3.199l2.307-3.198zM294.951 104.179c5.705 0 8.64 3.198 8.64 3.198l-2.045 3.165s-2.67-2.473-6.397-2.473c-4.946 0-7.848 3.694-7.848 8.046 0 4.451 3 8.376 7.881 8.376 4.056 0 6.793-2.968 6.793-2.968l2.243 3.066s-3.232 3.793-9.201 3.793c-7.156 0-12.102-5.308-12.102-12.201 0-6.793 5.144-12.002 12.036-12.002zM308.634 104.574h4.255v9.925h10.717v-9.925h4.255v23.413h-4.255v-9.827h-10.717v9.827h-4.255v-23.413zM344.775 104.179c6.893 0 12.102 5.242 12.102 11.937 0 6.892-5.21 12.267-12.102 12.267s-12.102-5.375-12.102-12.267c-.001-6.695 5.21-11.937 12.102-11.937zm0 20.312c4.287 0 7.716-3.561 7.716-8.375 0-4.618-3.43-8.047-7.716-8.047s-7.716 3.43-7.716 8.047c0 4.814 3.429 8.375 7.716 8.375zM372.176 104.179c6.893 0 12.102 5.242 12.102 11.937 0 6.892-5.21 12.267-12.102 12.267s-12.102-5.375-12.102-12.267c0-6.695 5.21-11.937 12.102-11.937zm0 20.312c4.287 0 7.716-3.561 7.716-8.375 0-4.618-3.43-8.047-7.716-8.047-4.287 0-7.716 3.43-7.716 8.047 0 4.814 3.429 8.375 7.716 8.375zM389.092 104.574h4.254v19.752h10.124v3.661h-14.377l-.001-23.413z" fill="#000"/></svg>