<svg fill="none" xmlns="http://www.w3.org/2000/svg" viewBox="0 0 507 380"><path fill-rule="evenodd" clip-rule="evenodd" d="M113.077 54.92c-27.85 0-50.424 22.585-50.424 50.448v.66c0 29.59 23.944 53.545 53.518 53.545 17.756 0 33.431-8.628 43.17-21.926l-20.747-15.378c-4.211 7.918-12.53 13.349-22.118 13.349-11.769 0-21.61-8.121-24.299-19.033h70.005c.051-.102.051-.152.102-.254.034-.169.073-.339.113-.508.078-.338.157-.676.191-1.014a52.7 52.7 0 00.862-9.441c.051-27.863-22.523-50.448-50.373-50.448zM94.561 93.899c2.385-8.426 10.095-14.618 19.277-14.618s16.893 6.192 19.277 14.618H94.561z" fill="#006"/><path d="M175.313 212.191s3.758 4.19 10.584 4.19c6.394 0 10.109-4.103 10.109-8.985 0-5.62-4.739-7.579-8.785-9.252-3.014-1.246-5.644-2.334-5.644-4.658 0-2.16 2.03-3.672 4.622-3.672 3.845 0 6.783 2.678 6.783 2.678l2.418-4.536s-3.109-3.283-9.158-3.283c-5.874 0-10.281 3.802-10.281 8.9 0 5.34 4.655 7.347 8.684 9.083 3.076 1.326 5.788 2.495 5.788 4.87 0 2.505-2.117 3.715-4.45 3.715-4.32 0-7.646-3.24-7.646-3.24l-3.024 4.19zM18.297 204.847c0 6.869 4.969 11.534 12.399 11.534 7.387 0 12.355-4.665 12.355-11.534v-19.655h-5.573v19.612c0 4.147-2.721 6.48-6.826 6.48-4.103 0-6.782-2.333-6.782-6.437v-19.655h-5.573v19.655zM16.884 270.292c0 5.671 4.07 10.04 9.959 10.04 4.911 0 7.57-3.121 7.57-3.121l-1.844-2.523s-2.253 2.442-5.59 2.442c-4.017 0-6.486-3.229-6.486-6.892 0-3.582 2.388-6.621 6.458-6.621 3.067 0 5.265 2.035 5.265 2.035l1.682-2.605s-2.415-2.633-7.11-2.633c-5.671 0-9.904 4.288-9.904 9.878zM37.638 280.007h11.967v-3.013h-8.467v-5.183h6.486V268.8h-6.486v-5.048h8.032v-3.012H37.638v19.267zM53.246 280.007h3.501v-11.099c0-1.14-.19-2.985-.19-2.985h.054s.869 1.873 1.601 2.985l7.3 11.099h3.474V260.74h-3.474v11.126c0 1.14.19 2.985.19 2.985h-.054s-.869-1.872-1.601-2.985l-7.3-11.126h-3.5v19.267zM77.853 280.007h3.5v-16.255h6.323v-3.012H71.53v3.012h6.323v16.255zM90.214 280.007h11.967v-3.013h-8.467v-5.183h6.486V268.8h-6.486v-5.048h8.033v-3.012H90.214v19.267z" fill="#006"/><path fill-rule="evenodd" clip-rule="evenodd" d="M105.822 280.007h3.501v-7.192h3.365l3.826 7.192h3.908l-3.962-7.192c-.38-.678-.651-.949-.651-.949v-.055c2.035-.814 3.256-2.957 3.256-5.264 0-2.55-1.221-4.396-3.148-5.264-.841-.38-1.791-.543-3.88-.543h-6.215v19.267zm3.501-10.231v-6.024h2.66c2.74 0 3.527 1.14 3.527 2.985 0 1.927-1.167 3.039-3.039 3.039h-3.148z" fill="#006"/><path d="M130.282 280.007h3.501v-7.788h6.376v-3.013h-6.376v-5.454h7.571v-3.012h-11.072v19.267z" fill="#006"/><path fill-rule="evenodd" clip-rule="evenodd" d="M143.315 270.238c0 5.672 4.288 10.094 9.96 10.094 5.671 0 9.958-4.422 9.958-10.094 0-5.509-4.287-9.824-9.958-9.824-5.672 0-9.96 4.315-9.96 9.824zm3.61 0c0-3.799 2.822-6.621 6.35-6.621 3.527 0 6.349 2.822 6.349 6.621 0 3.962-2.822 6.892-6.349 6.892-3.528 0-6.35-2.93-6.35-6.892zM166.799 280.007h3.501v-7.192h3.365l3.826 7.192h3.907l-3.961-7.192c-.38-.678-.652-.949-.652-.949v-.055c2.035-.814 3.256-2.957 3.256-5.264 0-2.55-1.221-4.396-3.147-5.264-.841-.38-1.791-.543-3.88-.543h-6.215v19.267zm3.501-10.231v-6.024h2.659c2.741 0 3.528 1.14 3.528 2.985 0 1.927-1.167 3.039-3.039 3.039H170.3z" fill="#006"/><path d="M16.884 300.22c0 5.671 4.07 10.04 9.959 10.04 4.911 0 7.57-3.12 7.57-3.12l-1.844-2.524s-2.253 2.443-5.59 2.443c-4.017 0-6.486-3.23-6.486-6.893 0-3.582 2.388-6.621 6.458-6.621 3.067 0 5.265 2.035 5.265 2.035l1.682-2.605s-2.415-2.633-7.11-2.633c-5.671 0-9.904 4.288-9.904 9.878z" fill="#006"/><path fill-rule="evenodd" clip-rule="evenodd" d="M36.202 300.166c0 5.672 4.288 10.094 9.96 10.094 5.67 0 9.958-4.422 9.958-10.094 0-5.509-4.287-9.824-9.959-9.824-5.671 0-9.959 4.315-9.959 9.824zm3.61 0c0-3.799 2.821-6.621 6.35-6.621 3.527 0 6.349 2.822 6.349 6.621 0 3.962-2.822 6.893-6.35 6.893-3.528 0-6.35-2.931-6.35-6.893zM59.686 309.935h3.5v-7.192h3.365l3.826 7.192h3.908l-3.962-7.192a6.244 6.244 0 00-.555-.839 1.783 1.783 0 00-.096-.11v-.054c2.035-.815 3.257-2.958 3.257-5.264 0-2.551-1.222-4.396-3.148-5.265-.842-.38-1.791-.543-3.88-.543h-6.215v19.267zm3.5-10.231v-6.024h2.66c2.74 0 3.527 1.14 3.527 2.985 0 1.927-1.166 3.039-3.039 3.039h-3.148zM77.547 309.935h3.5v-6.649h3.935c3.61 0 6.133-2.605 6.133-6.349 0-3.745-2.524-6.269-6.133-6.269h-7.435v19.267zm3.5-9.688v-6.567h3.338c1.981 0 3.175 1.276 3.175 3.257 0 2.008-1.194 3.31-3.229 3.31h-3.284zM92.886 300.166c0 5.672 4.287 10.094 9.958 10.094 5.673 0 9.96-4.422 9.96-10.094 0-5.509-4.287-9.824-9.96-9.824-5.67 0-9.958 4.315-9.958 9.824zm3.609 0c0-3.799 2.822-6.621 6.349-6.621 3.529 0 6.351 2.822 6.351 6.621 0 3.962-2.822 6.893-6.351 6.893-3.527 0-6.35-2.931-6.35-6.893zM116.369 309.935h3.501v-7.192h3.365l3.826 7.192h3.908l-3.962-7.192c-.38-.678-.651-.949-.651-.949v-.054c2.035-.815 3.256-2.958 3.256-5.264 0-2.551-1.221-4.396-3.148-5.265-.841-.38-1.791-.543-3.881-.543h-6.214v19.267zm3.501-10.231v-6.024h2.66c2.74 0 3.527 1.14 3.527 2.985 0 1.927-1.166 3.039-3.039 3.039h-3.148zM145.438 309.935h3.609l-6.784-19.267H138.6l-6.785 19.267h3.61l1.628-4.939h6.757l1.628 4.939zm-4.966-15.929s.407 1.9.76 2.985l1.709 5.156h-5.047l1.71-5.156c.379-1.085.814-2.985.814-2.985h.054z" fill="#006"/><path d="M154.385 309.935h3.5V293.68h6.323v-3.012h-16.146v3.012h6.323v16.255zM166.746 309.935h11.967v-3.012h-8.466v-5.183h6.485v-3.012h-6.485v-5.048h8.032v-3.012h-11.533v19.267zM18.213 339.863h11.831v-3.012h-8.33v-16.255h-3.5v19.267zM32.841 339.863h11.967v-3.012h-8.466v-5.183h6.486v-3.012h-6.486v-5.048h8.032v-3.012H32.841v19.267z" fill="#006"/><path fill-rule="evenodd" clip-rule="evenodd" d="M59.657 339.863h3.609l-6.783-19.267h-3.664l-6.784 19.267h3.609l1.628-4.939h6.757l1.628 4.939zm-4.965-15.929s.406 1.9.76 2.985l1.709 5.156h-5.047l1.709-5.156c.38-1.085.814-2.985.814-2.985h.054zM65.728 339.863h3.5v-7.191h3.365l3.826 7.191h3.908l-3.961-7.191c-.38-.679-.652-.95-.652-.95v-.054c2.035-.815 3.257-2.958 3.257-5.264 0-2.551-1.222-4.396-3.148-5.265-.841-.38-1.791-.543-3.88-.543h-6.215v19.267zm3.5-10.231v-6.024h2.66c2.74 0 3.527 1.14 3.527 2.985 0 1.927-1.166 3.039-3.039 3.039h-3.148z" fill="#006"/><path d="M83.59 339.863h3.5v-11.098c0-1.14-.19-2.986-.19-2.986h.054s.868 1.873 1.601 2.986l7.3 11.098h3.473v-19.267h-3.474v11.126c0 1.14.19 2.985.19 2.985h-.054s-.868-1.872-1.6-2.985l-7.3-11.126h-3.5v19.267zM104.206 339.863h3.501v-19.267h-3.501v19.267zM112.58 339.863h3.501v-11.098c0-1.14-.191-2.986-.191-2.986h.055s.868 1.873 1.601 2.986l7.3 11.098h3.473v-19.267h-3.473v11.126c0 1.14.189 2.985.189 2.985h-.054s-.868-1.872-1.601-2.985l-7.299-11.126h-3.501v19.267zM131.894 330.203c0 6.051 4.369 9.985 9.444 9.985 3.582 0 5.59-2.062 5.59-2.062h.054l-.005.096a11.99 11.99 0 00-.022.718v.923h2.985v-10.149h-6.106v3.012h2.958v2.253s-1.926 2.008-4.83 2.008c-3.609 0-6.458-2.714-6.458-6.893 0-3.637 2.306-6.621 6.621-6.621 3.066 0 5.129 1.845 5.129 1.845l1.736-2.605s-2.442-2.443-7.164-2.443c-5.725 0-9.932 4.343-9.932 9.933z" fill="#006"/><path fill-rule="evenodd" clip-rule="evenodd" d="M171.62 339.863h3.609l-6.784-19.267h-3.664l-6.783 19.267h3.609l1.628-4.939h6.756l1.629 4.939zm-4.966-15.929s.407 1.9.76 2.985l1.71 5.156h-5.048l1.709-5.156c.38-1.085.815-2.985.815-2.985h.054z" fill="#006"/><path d="M177.691 339.863h3.5v-11.098c0-1.14-.19-2.986-.19-2.986h.054s.869 1.873 1.602 2.986l7.299 11.098h3.473v-19.267h-3.473v11.126c0 1.14.19 2.985.19 2.985h-.054s-.868-1.872-1.602-2.985l-7.299-11.126h-3.5v19.267z" fill="#006"/><path fill-rule="evenodd" clip-rule="evenodd" d="M198.308 339.863h6.567c5.943 0 9.823-3.582 9.823-9.66 0-6.079-3.88-9.607-9.823-9.607h-6.567v19.267zm3.5-3.012v-13.243h2.877c3.853 0 6.404 2.307 6.404 6.595 0 4.341-2.497 6.648-6.404 6.648h-2.877z" fill="#006"/><path d="M18.213 369.791h3.501v-8.086h8.82v8.086h3.5v-19.267h-3.5v8.169h-8.82v-8.169h-3.5v19.267zM38.639 362.871c0 4.315 3.12 7.245 7.788 7.245 4.64 0 7.76-2.93 7.76-7.245v-12.347h-3.5v12.321c0 2.604-1.71 4.07-4.287 4.07-2.578 0-4.26-1.466-4.26-4.044v-12.347h-3.502v12.347zM58.214 369.791h3.501l.814-10.773c.081-1.276.027-3.012.027-3.012h.054s.597 1.9 1.059 3.012l3.093 7.462h3.067l3.12-7.462c.462-1.112 1.031-2.985 1.031-2.985h.055s-.055 1.709.027 2.985l.814 10.773h3.474l-1.547-19.267h-3.745l-3.772 9.525c-.434 1.14-.95 2.822-.95 2.822h-.054s-.542-1.682-.977-2.822l-3.772-9.525h-3.745l-1.574 19.267z" fill="#006"/><path fill-rule="evenodd" clip-rule="evenodd" d="M93.842 369.791h3.61l-6.785-19.267h-3.663l-6.784 19.267h3.61l1.627-4.939h6.757l1.628 4.939zm-4.966-15.929s.408 1.9.76 2.985l1.71 5.156h-5.048l1.71-5.156c.38-1.085.814-2.985.814-2.985h.054z" fill="#006"/><path d="M99.913 369.791h3.501v-11.098c0-1.14-.191-2.986-.191-2.986h.055s.868 1.873 1.601 2.986l7.3 11.098h3.473v-19.267h-3.473v11.126c0 1.14.189 2.985.189 2.985h-.054s-.868-1.872-1.6-2.985l-7.3-11.126h-3.501v19.267z" fill="#006"/><path fill-rule="evenodd" clip-rule="evenodd" d="M127.128 369.791h3.501V362.6h3.365l3.826 7.191h3.908l-3.962-7.191a6.778 6.778 0 00-.383-.613 2.84 2.84 0 00-.268-.337v-.054c2.035-.815 3.256-2.958 3.256-5.264 0-2.551-1.221-4.396-3.148-5.265-.841-.38-1.791-.543-3.88-.543h-6.215v19.267zm3.501-10.23v-6.025h2.659c2.741 0 3.528 1.14 3.528 2.986 0 1.926-1.167 3.039-3.039 3.039h-3.148z" fill="#006"/><path d="M144.989 369.791h11.968v-3.012h-8.467v-5.183h6.486v-3.012h-6.486v-5.048h8.032v-3.012h-11.533v19.267zM159.133 367.485s2.36 2.631 6.648 2.631c4.016 0 6.35-2.578 6.35-5.644 0-3.53-2.977-4.76-5.518-5.811-1.894-.783-3.546-1.467-3.546-2.927 0-1.356 1.276-2.306 2.904-2.306 2.415 0 4.261 1.682 4.261 1.682l1.519-2.849s-1.954-2.062-5.753-2.062c-3.69 0-6.458 2.388-6.458 5.59 0 3.355 2.924 4.615 5.455 5.706 1.932.833 3.635 1.567 3.635 3.059 0 1.574-1.329 2.334-2.794 2.334-2.714 0-4.804-2.036-4.804-2.036l-1.899 2.633z" fill="#006"/><path fill-rule="evenodd" clip-rule="evenodd" d="M174.294 360.022c0 5.672 4.288 10.094 9.959 10.094 5.671 0 9.959-4.422 9.959-10.094 0-5.508-4.288-9.823-9.959-9.823-5.671 0-9.959 4.315-9.959 9.823zm3.609 0c0-3.799 2.822-6.621 6.35-6.621 3.527 0 6.349 2.822 6.349 6.621 0 3.962-2.822 6.893-6.349 6.893-3.528 0-6.35-2.931-6.35-6.893z" fill="#006"/><path d="M197.506 362.871c0 4.315 3.121 7.245 7.788 7.245 4.641 0 7.761-2.93 7.761-7.245v-12.347h-3.501v12.321c0 2.604-1.709 4.07-4.287 4.07s-4.26-1.466-4.26-4.044v-12.347h-3.501v12.347z" fill="#006"/><path fill-rule="evenodd" clip-rule="evenodd" d="M217.679 369.791h3.501V362.6h3.365l3.826 7.191h3.908l-3.962-7.191c-.381-.679-.652-.95-.652-.95v-.054c2.036-.815 3.257-2.958 3.257-5.264 0-2.551-1.221-4.396-3.148-5.265-.842-.38-1.791-.543-3.881-.543h-6.214v19.267zm3.501-10.23v-6.025h2.659c2.741 0 3.528 1.14 3.528 2.986 0 1.926-1.167 3.039-3.04 3.039h-3.147z" fill="#006"/><path d="M234.104 360.076c0 5.672 4.071 10.04 9.96 10.04 4.911 0 7.571-3.12 7.571-3.12l-1.846-2.524s-2.252 2.443-5.59 2.443c-4.016 0-6.485-3.23-6.485-6.893 0-3.582 2.388-6.621 6.458-6.621 3.067 0 5.264 2.035 5.264 2.035l1.683-2.605s-2.415-2.632-7.11-2.632c-5.671 0-9.905 4.287-9.905 9.877zM254.859 369.791h11.967v-3.012h-8.466v-5.183h6.485v-3.012h-6.485v-5.048h8.032v-3.012h-11.533v19.267zM269.002 367.485s2.361 2.631 6.649 2.631c4.015 0 6.349-2.578 6.349-5.644 0-3.53-2.976-4.76-5.518-5.811-1.893-.783-3.545-1.467-3.545-2.927 0-1.356 1.275-2.306 2.903-2.306 2.416 0 4.26 1.682 4.26 1.682l1.52-2.849s-1.954-2.062-5.753-2.062c-3.69 0-6.458 2.388-6.458 5.59 0 3.355 2.924 4.615 5.455 5.706 1.932.833 3.636 1.567 3.636 3.059 0 1.574-1.33 2.334-2.796 2.334-2.713 0-4.802-2.036-4.802-2.036l-1.9 2.633zM55.984 215.863h-5.572v-30.671h5.572l11.62 17.711c1.167 1.772 2.55 4.752 2.55 4.752h.086s-.302-2.938-.302-4.752v-17.711h5.529v30.671h-5.53l-11.62-17.669c-1.166-1.771-2.549-4.751-2.549-4.751h-.086s.302 2.937.302 4.751v17.669zM83.233 215.863h5.572v-30.671h-5.572v30.671zM109.35 215.863h-5.529l-11.188-30.671h6.004l6.739 20.001c.415 1.216.79 2.88.998 3.804l.003.011.003.013.002.01.05.221.031.136.029.125.023.091.011.042.008.023.004.011a.019.019 0 00.003.004l.002.001h.086c.014 0 .075-.27.171-.697.208-.925.582-2.583.996-3.795l6.782-20.001h5.961l-11.189 30.671zM124.365 215.863h19.05v-4.795h-13.477v-8.251h10.324v-4.795h-10.324v-8.035h12.786v-4.795h-18.359v30.671z" fill="#006"/><path fill-rule="evenodd" clip-rule="evenodd" d="M154.785 215.863h-5.573v-30.671h9.893c3.326 0 4.838.259 6.177.864 3.067 1.382 5.011 4.32 5.011 8.38 0 3.672-1.944 7.085-5.183 8.381v.086s.432.432 1.036 1.512l6.307 11.448h-6.22l-6.091-11.448h-5.357v11.448zm0-25.876v9.59h5.011c2.981 0 4.838-1.771 4.838-4.839 0-2.937-1.253-4.751-5.615-4.751h-4.234z" fill="#006"/><path d="M207.138 215.863h-5.572v-30.671h5.572v30.671zM221.247 215.863h5.572v-25.876h10.066v-4.795h-25.704v4.795h10.066v25.876zM254.157 215.863h-5.572v-12.83l-10.196-17.841h6.308l4.795 9.028c.641 1.228 1.211 2.599 1.545 3.405.184.442.297.715.313.699h.086s.864-2.203 1.858-4.104l4.751-9.028h6.307l-10.195 17.841v12.83zM18.313 54.92h34.209v104.653H18.313V54.92z" fill="#006"/><path d="M55.932 27.466c0 11.303-9.163 20.466-20.466 20.466S15 38.77 15 27.466 24.163 7 35.466 7s20.466 9.163 20.466 20.466zM17.383 228.398h247.081v14.283H17.384v-14.283z" fill="#46BEFF"/></svg>