<svg fill="none" xmlns="http://www.w3.org/2000/svg" viewBox="0 0 167 174"><path d="M30.505 7c10.74 0 19.505 8.72 19.505 19.505 0 10.785-8.766 19.505-19.505 19.505C19.72 46.01 11 37.29 11 26.505 11 15.72 19.72 7 30.505 7z" fill="#0097DC"/><path fill-rule="evenodd" clip-rule="evenodd" d="M157.723 108.242v.551c0 3.396-.321 6.654-.872 9.775H85.165c2.478 11.887 11.473 19.597 23.543 19.597 10.189 0 17.302-5.278 22.901-11.841l21.295 15.604c-10.005 12.713-26.481 20.01-42.727 20.01-31.254 0-56.266-20.836-56.266-53.145v-.551c.138-29.418 19.78-53.237 51.906-53.237s51.814 23.819 51.906 53.237zM86.587 95.116H126.7c-1.928-7.894-8.353-15.053-20.056-15.053-11.703 0-18.128 7.16-20.056 15.053zM14.901 57.76h31.208V159.23H14.9V57.759z" fill="#00338D"/></svg>