<svg fill="none" xmlns="http://www.w3.org/2000/svg" viewBox="0 0 507 174"><path d="M176.977 130.01h6.08c5.612 0 9.3 3.352 9.3 9.145 0 5.82-3.688 9.198-9.3 9.198h-6.08V130.01zm5.898 16.108c4.131 0 6.833-2.441 6.833-6.963 0-4.494-2.727-6.911-6.833-6.911h-3.325v13.874h3.325zM196.074 135.207h2.441v2.285c0 .546-.051.987-.051.987h.051c.598-1.922 2.131-3.43 4.158-3.43.337 0 .649.052.649.052v2.495s-.338-.078-.727-.078c-1.612 0-3.092 1.143-3.69 3.091-.234.754-.312 1.558-.312 2.364v5.379h-2.519v-13.145zM206.179 130.01h2.547v2.572h-2.547v-2.572zm.027 5.197h2.52v13.146h-2.52v-13.146zM211.271 135.207h2.676l3.196 8.884c.259.727.415 1.793.442 1.793h.051c.027 0 .208-1.066.469-1.793l3.195-8.884h2.65l-4.859 13.146h-2.91l-4.91-13.146zM226.47 130.01h2.546v2.572h-2.546v-2.572zm.027 5.197h2.52v13.146h-2.52v-13.146zM233.355 135.207h2.442v1.741c0 .519-.052.961-.052.961h.052c.519-1.143 2.078-3.014 4.936-3.014 3.092 0 4.521 1.689 4.521 5.04v8.418h-2.52v-7.847c0-1.845-.39-3.299-2.495-3.299-1.999 0-3.611 1.326-4.157 3.222-.155.52-.207 1.117-.207 1.767v6.157h-2.52v-13.146zM254.191 151.626c2.285 0 4.157-1.013 4.157-3.689v-.961c0-.416.027-.832.027-.832h-.052c-.78 1.299-2.001 2.053-3.897 2.053-3.663 0-5.872-2.936-5.872-6.729 0-3.768 2.104-6.573 5.742-6.573 3.169 0 4.131 1.948 4.131 1.948h.052s-.026-.181-.026-.415v-1.221h2.416v12.601c0 4.338-3.299 6-6.625 6-1.585 0-3.223-.441-4.495-1.091l.831-1.975c-.001 0 1.637.884 3.611.884zm4.208-10.132c0-3.431-1.662-4.417-3.715-4.417-2.286 0-3.586 1.663-3.586 4.338 0 2.728 1.455 4.599 3.819 4.599 1.82 0 3.482-1.09 3.482-4.52zM272.792 130.01h2.572v18.343h-2.572V130.01zM280.222 135.207h2.442v1.741c0 .519-.051.961-.051.961h.051c.52-1.143 2.079-3.014 4.937-3.014 3.091 0 4.52 1.689 4.52 5.04v8.418h-2.519v-7.847c0-1.845-.39-3.299-2.495-3.299-2 0-3.611 1.326-4.157 3.222-.156.52-.208 1.117-.208 1.767v6.157h-2.52v-13.146zM296.278 135.207h2.442v1.741c0 .519-.052.961-.052.961h.052c.52-1.143 2.078-3.014 4.936-3.014 3.091 0 4.521 1.689 4.521 5.04v8.418h-2.52v-7.847c0-1.845-.39-3.299-2.494-3.299-2 0-3.611 1.326-4.158 3.222-.155.52-.207 1.117-.207 1.767v6.157h-2.52v-13.146zM318.465 134.895c3.924 0 7.093 2.883 7.093 6.859 0 4-3.169 6.911-7.093 6.911-3.923 0-7.092-2.911-7.092-6.911 0-3.976 3.169-6.859 7.092-6.859zm0 11.587c2.495 0 4.522-1.975 4.522-4.728 0-2.728-2.027-4.677-4.522-4.677-2.468 0-4.52 1.948-4.52 4.677 0 2.753 2.052 4.728 4.52 4.728zM327.143 135.207h2.676l3.195 8.884c.26.727.416 1.793.442 1.793h.052c.026 0 .208-1.066.468-1.793l3.196-8.884h2.649l-4.858 13.146h-2.91l-4.91-13.146zM349.226 140.143h.572v-.234c0-2.156-1.221-2.883-2.884-2.883-2.026 0-3.663 1.271-3.663 1.271l-1.039-1.845s1.896-1.558 4.91-1.558c3.325 0 5.195 1.82 5.195 5.144v8.314h-2.338v-1.247c0-.598.052-1.039.052-1.039h-.052s-1.065 2.597-4.209 2.597c-2.261 0-4.468-1.377-4.468-4.001 0-4.337 5.716-4.519 7.924-4.519zm-2.909 6.495c2.13 0 3.507-2.235 3.507-4.183v-.415h-.649c-1.897 0-5.326.129-5.326 2.494 0 1.064.83 2.104 2.468 2.104zM356.942 137.414h-1.714v-2.025h1.792v-3.794h2.442v3.794h3.17v2.025h-3.17v5.846c0 2.624 1.846 2.962 2.806 2.962.364 0 .598-.052.598-.052v2.235s-.364.051-.884.051c-1.689 0-5.04-.521-5.04-4.91v-6.132zM366.061 130.01h2.546v2.572h-2.546v-2.572zm.027 5.197h2.519v13.146h-2.519v-13.146zM379.077 134.895c3.924 0 7.093 2.883 7.093 6.859 0 4-3.169 6.911-7.093 6.911-3.923 0-7.092-2.911-7.092-6.911 0-3.976 3.17-6.859 7.092-6.859zm0 11.587c2.495 0 4.521-1.975 4.521-4.728 0-2.728-2.026-4.677-4.521-4.677-2.468 0-4.521 1.948-4.521 4.677.001 2.753 2.053 4.728 4.521 4.728zM389.547 135.207h2.442v1.741c0 .519-.051.961-.051.961h.051c.52-1.143 2.078-3.014 4.937-3.014 3.091 0 4.521 1.689 4.521 5.04v8.418h-2.52v-7.847c0-1.845-.39-3.299-2.495-3.299-2 0-3.611 1.326-4.157 3.222-.156.52-.208 1.117-.208 1.767v6.157h-2.52v-13.146z" fill="#000"/><path d="M176.929 94.886h4.964v17.509c0 3.655 2.385 5.734 6.041 5.734 3.656 0 6.08-2.079 6.08-5.773v-17.47h4.964v17.509c0 6.119-4.427 10.274-11.006 10.274-6.618 0-11.043-4.155-11.043-10.274V94.886zM206.097 94.886h4.964l10.352 15.777c1.039 1.579 2.27 4.234 2.27 4.234h.077s-.269-2.616-.269-4.234V94.886h4.925v27.322h-4.925l-10.352-15.739c-1.039-1.578-2.27-4.233-2.27-4.233h-.077s.269 2.616.269 4.233v15.739h-4.964V94.886zM235.921 94.886h4.964v27.322h-4.964V94.886zM244.886 94.886h5.349l6.003 17.817c.539 1.578 1.001 4.002 1.039 4.002h.077c.039 0 .501-2.424 1.04-4.002l6.041-17.817h5.31l-9.966 27.322h-4.925l-9.968-27.322zM273.749 94.886h16.355v4.273h-11.391v7.157h9.197v4.272h-9.197v7.35h12.006v4.271h-16.97V94.886zM296.452 94.886h8.812c2.963 0 4.31.232 5.503.77 2.732 1.232 4.464 3.849 4.464 7.467 0 3.27-1.731 6.31-4.618 7.465v.077s.385.384.924 1.347l5.618 10.197h-5.541l-5.426-10.197h-4.771v10.197h-4.964l-.001-27.323zm9.428 12.815c2.655 0 4.31-1.578 4.31-4.31 0-2.617-1.116-4.234-5.002-4.234h-3.771v8.543h4.463v.001zM322.967 115.205s2.963 2.886 6.811 2.886c2.078 0 3.964-1.079 3.964-3.31 0-4.886-12.891-4.041-12.891-12.429 0-4.541 3.925-7.927 9.158-7.927 5.387 0 8.158 2.925 8.158 2.925l-2.155 4.04s-2.617-2.385-6.041-2.385c-2.309 0-4.118 1.347-4.118 3.271 0 4.848 12.853 3.655 12.853 12.391 0 4.349-3.31 8.003-9.005 8.003-6.08 0-9.428-3.732-9.428-3.732l2.694-3.733zM344.246 94.886h4.964v27.322h-4.964V94.886zM362.371 99.158h-8.966v-4.272h22.896v4.272h-8.965v23.05h-4.965v-23.05zM387.307 110.779l-9.081-15.893h5.617l4.272 8.042c.886 1.693 1.616 3.695 1.655 3.657h.076s.77-1.963 1.654-3.657l4.234-8.042h5.618l-9.082 15.893v11.429h-4.963v-11.429z" fill="#00338D"/><path d="M30.216 7.065c10.753 0 19.515 8.73 19.515 19.501 0 10.772-8.762 19.527-19.515 19.527-10.779 0-19.514-8.755-19.514-19.527s8.735-19.5 19.514-19.5z" fill="#0097DC"/><path d="M45.819 57.801H14.597v101.473h31.222V57.801zM157.408 108.859v-.555c-.107-29.411-19.773-53.213-51.891-53.213-32.119 0-51.785 23.802-51.892 53.213v.555c0 32.303 25.008 53.142 56.268 53.142 16.256 0 32.719-7.294 42.722-20.007l-21.274-15.6c-5.612 6.58-12.696 11.85-22.907 11.85-12.087 0-21.049-7.712-23.55-19.591h71.7c.532-3.133.824-6.396.824-9.794zm-51.081-13.66H86.269c1.918-7.909 8.353-15.075 20.058-15.075s18.14 7.166 20.058 15.075h-20.058z" fill="#00338D"/></svg>