<svg fill="none" xmlns="http://www.w3.org/2000/svg" viewBox="0 0 507 174"><path d="M442.444 116.111H171.193v15.364h271.251v-15.364zM189.881 58.782l-18.756-30.931h17.131l6.704 12.657c2.031 3.858 3.792 7.919 3.792 7.919h.203s1.625-3.926 3.792-7.92l6.771-12.656h17.131l-18.824 30.931 18.756 30.526h-16.792l-7.11-12.928a90.637 90.637 0 01-3.792-7.648h-.203s-1.625 3.79-3.792 7.648l-7.042 12.928h-16.657l18.688-30.526zM236.399 27.783h15.032V76.38h25.121v12.928h-40.153V27.783z" fill="#00338D"/><path d="M30.76 8.697c10.563 0 19.162 8.595 19.162 19.154S41.323 47.073 30.76 47.073c-10.63 0-19.23-8.596-19.23-19.222 0-10.626 8.6-19.154 19.23-19.154z" fill="#0097DC"/><path d="M46.13 58.58H15.39v99.765h30.74V58.579zM155.823 108.801v-.542c-.136-28.9-19.433-52.32-51.054-52.32-31.622 0-50.92 23.42-51.055 52.32v.542c0 31.744 24.58 52.252 55.32 52.252 15.98 0 32.163-7.175 42.049-19.696l-20.923-15.364c-5.552 6.497-12.459 11.641-22.548 11.641-11.917 0-20.72-7.58-23.157-19.29h70.555c.542-3.045.813-6.227.813-9.543zm-50.242-13.47H85.877c1.896-7.783 8.193-14.822 19.704-14.822 11.511 0 17.876 7.04 19.704 14.823h-19.704z" fill="#00338D"/><path d="M174.985 142.981h9.209v2.369h-6.365v3.994h5.146v2.369h-5.146v4.128h6.771v2.369h-9.547v-15.229h-.068zM190.965 150.494l-4.604-7.58h3.182l2.099 3.79c.474.88.948 1.895.948 1.895h.068s.406-.947.948-1.895l2.166-3.79h3.183l-4.605 7.58 4.808 7.784h-3.115l-2.37-4.129c-.474-.88-.948-1.827-.948-1.827h-.067s-.407.947-.948 1.827l-2.37 4.129h-3.115l4.74-7.784zM201.731 142.981h5.891c2.844 0 4.875 2.031 4.875 5.009s-2.031 5.076-4.875 5.076h-3.115v5.28h-2.776v-15.365zm5.417 7.581c1.625 0 2.573-1.015 2.573-2.64 0-1.556-.948-2.572-2.505-2.572h-2.641v5.212h2.573zM222.18 142.711c4.536 0 7.922 3.452 7.922 7.783 0 4.535-3.386 8.055-7.922 8.055-4.537 0-7.922-3.52-7.922-8.055 0-4.331 3.453-7.783 7.922-7.783zm0 13.333c2.776 0 5.078-2.301 5.078-5.482 0-3.046-2.234-5.279-5.078-5.279-2.844 0-5.079 2.233-5.079 5.279.068 3.114 2.303 5.482 5.079 5.482zM233.284 142.981h2.777l5.823 8.867c.609.88 1.286 2.369 1.286 2.369h.068s-.135-1.489-.135-2.369v-8.867h2.776v15.365h-2.776l-5.824-8.799c-.609-.88-1.286-2.369-1.286-2.369h-.068s.136 1.489.136 2.369v8.799h-2.777v-15.365zM250.009 142.981h9.209v2.369h-6.433v3.994h5.146v2.369h-5.146v4.128h6.771v2.369h-9.547v-15.229zM262.807 142.981h2.776l5.823 8.867c.609.88 1.286 2.369 1.286 2.369h.068s-.135-1.489-.135-2.369v-8.867h2.776v15.365h-2.776l-5.823-8.799c-.61-.88-1.287-2.369-1.287-2.369h-.068s.136 1.489.136 2.369v8.799h-2.776v-15.365zM282.714 145.35h-5.011v-2.369h12.865v2.369h-5.011v12.928h-2.776l-.067-12.928zM292.87 142.981h2.776v15.365h-2.776v-15.365zM307.496 154.352h-5.349l-1.287 3.926h-2.844l5.417-15.364h2.912l5.417 15.364h-2.844l-1.422-3.926zm-2.709-8.731s-.338 1.489-.677 2.369l-1.354 4.129h3.995l-1.354-4.129c-.271-.88-.542-2.369-.61-2.369zM313.928 142.981h2.777v12.928h6.635v2.369h-9.412v-15.297zM331.466 142.981h2.776v12.928h6.635v2.369h-9.411v-15.297zM343.45 142.981h9.209v2.369h-6.433v3.994h5.146v2.369h-5.146v4.128h6.771v2.369h-9.547v-15.229zM363.831 154.352h-5.416l-1.287 3.926h-2.844l5.417-15.364h2.912l5.417 15.364h-2.844l-1.355-3.926zm-2.708-8.731s-.339 1.489-.677 2.369l-1.354 4.129h3.995l-1.355-4.129c-.27-.88-.541-2.369-.609-2.369zM370.264 142.981h4.943c1.693 0 2.437.136 3.115.407 1.557.676 2.505 2.165 2.505 4.196 0 1.827-.948 3.519-2.573 4.196v.068s.203.203.542.745l3.182 5.753h-3.115l-3.047-5.753h-2.708v5.753h-2.776v-15.365h-.068zm5.281 7.175c1.49 0 2.438-.88 2.438-2.437 0-1.489-.609-2.369-2.776-2.369h-2.099v4.806h2.437zM384.822 142.981h2.776l5.823 8.867c.61.88 1.287 2.369 1.287 2.369h.068s-.136-1.489-.136-2.369v-8.867h2.776v15.365h-2.776l-5.823-8.799c-.609-.88-1.287-2.369-1.287-2.369h-.067s.135 1.489.135 2.369v8.799h-2.776v-15.365zM401.547 142.981h2.776v15.365h-2.776v-15.365zM408.521 142.981h2.776l5.823 8.867c.61.88 1.287 2.369 1.287 2.369h.068s-.136-1.489-.136-2.369v-8.867h2.776v15.365h-2.776l-5.823-8.799c-.609-.88-1.287-2.369-1.287-2.369h-.067s.135 1.489.135 2.369v8.799h-2.776v-15.365zM432.152 142.711c3.792 0 5.688 1.963 5.688 1.963l-1.354 2.098s-1.625-1.489-4.063-1.489c-3.453 0-5.281 2.369-5.281 5.279 0 3.317 2.234 5.482 5.146 5.482 2.302 0 3.859-1.624 3.859-1.624v-1.76h-2.37v-2.369h4.875v8.055h-2.369v-.745-.677h-.068s-1.625 1.625-4.469 1.625c-4.063 0-7.516-3.114-7.516-7.919 0-4.467 3.386-7.919 7.922-7.919z" fill="#000"/></svg>