<svg fill="none" xmlns="http://www.w3.org/2000/svg" viewBox="0 0 507 174"><path d="M177 58v101h8V58h-8zM30.505 7c10.74 0 19.505 8.72 19.505 19.505 0 10.785-8.766 19.55-19.505 19.55C19.72 46.056 11 37.29 11 26.506S19.72 7 30.505 7z" fill="#0097DC"/><path d="M46.108 57.759H14.901V159.23h31.207V57.759zM157.676 108.793v-.551c-.091-29.418-19.78-53.237-51.905-53.237-32.126 0-51.769 23.82-51.907 53.237v.551c0 32.309 25.013 53.145 56.266 53.145 16.247 0 32.723-7.297 42.728-20.01l-21.295-15.604c-5.599 6.563-12.713 11.841-22.901 11.841-12.07 0-21.066-7.71-23.544-19.597h71.687c.596-3.075.871-6.333.871-9.775zm-51.079-13.63H86.541c1.928-7.894 8.353-15.054 20.056-15.054 11.703 0 18.128 7.16 20.055 15.053h-20.055z" fill="#00338D"/><path d="M210.14 94.24c1.533 0 2.787-.607 3.76-1.82l2 2.06c-1.587 1.787-3.46 2.68-5.62 2.68-2.147 0-3.92-.68-5.32-2.04-1.387-1.36-2.08-3.073-2.08-5.14 0-2.08.707-3.813 2.12-5.2 1.427-1.387 3.167-2.08 5.22-2.08 2.293 0 4.213.873 5.76 2.62l-1.94 2.2c-.987-1.227-2.213-1.84-3.68-1.84-1.173 0-2.18.387-3.02 1.16-.827.76-1.24 1.793-1.24 3.1 0 1.293.393 2.333 1.18 3.12.787.787 1.74 1.18 2.86 1.18zM228.448 83.02v2.78h-6.96v2.88h6.26v2.66h-6.26v2.9h7.18V97h-10.3V83.02h10.08zM241.234 83.02h3.12V97h-3.12l-6.66-8.76V97h-3.12V83.02h2.92l6.86 9v-9zM253.722 85.72V97h-3.12V85.72h-3.96v-2.7h11.04v2.7h-3.96zM270.05 83.02v2.78h-6.96v2.88h6.26v2.66h-6.26v2.9h7.18V97h-10.3V83.02h10.08zM284.396 87.66c0 2.24-.887 3.687-2.66 4.34l3.54 5h-3.84l-3.1-4.46h-2.16V97h-3.12V83.02h5.3c2.173 0 3.72.367 4.64 1.1.933.733 1.4 1.913 1.4 3.54zm-5.94 2.18c1.066 0 1.793-.173 2.18-.52.386-.347.58-.893.58-1.64 0-.76-.2-1.28-.6-1.56-.4-.28-1.1-.42-2.1-.42h-2.34v4.14h2.28zM302.461 83.02v2.74h-6.48v3.02h6.16v2.74h-6.16V97h-3.12V83.02h9.6zM315.807 89.94c0-1.253-.4-2.32-1.2-3.2-.8-.88-1.787-1.32-2.96-1.32-1.16 0-2.14.44-2.94 1.32-.8.88-1.2 1.947-1.2 3.2 0 1.24.4 2.3 1.2 3.18.8.867 1.78 1.3 2.94 1.3 1.173 0 2.16-.433 2.96-1.3.8-.88 1.2-1.94 1.2-3.18zm1.06 5.14c-1.414 1.373-3.154 2.06-5.22 2.06-2.067 0-3.807-.687-5.22-2.06-1.414-1.387-2.12-3.107-2.12-5.16s.706-3.767 2.12-5.14c1.413-1.387 3.153-2.08 5.22-2.08 2.066 0 3.806.693 5.22 2.08 1.413 1.373 2.12 3.087 2.12 5.14 0 2.053-.707 3.773-2.12 5.16zM332.97 87.66c0 2.24-.887 3.687-2.66 4.34l3.54 5h-3.84l-3.1-4.46h-2.16V97h-3.12V83.02h5.3c2.173 0 3.72.367 4.64 1.1.933.733 1.4 1.913 1.4 3.54zm-5.94 2.18c1.067 0 1.793-.173 2.18-.52.387-.347.58-.893.58-1.64 0-.76-.2-1.28-.6-1.56-.4-.28-1.1-.42-2.1-.42h-2.34v4.14h2.28zM210.14 116.24c1.533 0 2.787-.607 3.76-1.82l2 2.06c-1.587 1.787-3.46 2.68-5.62 2.68-2.147 0-3.92-.68-5.32-2.04-1.387-1.36-2.08-3.073-2.08-5.14 0-2.08.707-3.813 2.12-5.2 1.427-1.387 3.167-2.08 5.22-2.08 2.293 0 4.213.873 5.76 2.62l-1.94 2.2c-.987-1.227-2.213-1.84-3.68-1.84-1.173 0-2.18.387-3.02 1.16-.827.76-1.24 1.793-1.24 3.1 0 1.293.393 2.333 1.18 3.12.787.787 1.74 1.18 2.86 1.18zM228.775 111.94c0-1.253-.4-2.32-1.2-3.2-.8-.88-1.786-1.32-2.96-1.32-1.16 0-2.14.44-2.94 1.32-.8.88-1.2 1.947-1.2 3.2 0 1.24.4 2.3 1.2 3.18.8.867 1.78 1.3 2.94 1.3 1.174 0 2.16-.433 2.96-1.3.8-.88 1.2-1.94 1.2-3.18zm1.06 5.14c-1.413 1.373-3.153 2.06-5.22 2.06-2.066 0-3.806-.687-5.22-2.06-1.413-1.387-2.12-3.107-2.12-5.16s.707-3.767 2.12-5.14c1.414-1.387 3.154-2.08 5.22-2.08 2.067 0 3.807.693 5.22 2.08 1.414 1.373 2.12 3.087 2.12 5.14 0 2.053-.706 3.773-2.12 5.16zM245.939 109.66c0 2.24-.887 3.687-2.66 4.34l3.54 5h-3.84l-3.1-4.46h-2.16V119h-3.12v-13.98h5.3c2.173 0 3.72.367 4.64 1.1.933.733 1.4 1.913 1.4 3.54zm-5.94 2.18c1.066 0 1.793-.173 2.18-.52.386-.347.58-.893.58-1.64 0-.76-.2-1.28-.6-1.56-.4-.28-1.1-.42-2.1-.42h-2.34v4.14h2.28zM254.07 105.02c2.147 0 3.707.42 4.68 1.26.987.827 1.48 2.107 1.48 3.84 0 1.72-.507 2.98-1.52 3.78-1 .8-2.533 1.2-4.6 1.2h-1.86v3.9h-3.12v-13.98h4.94zm.28 7.38c1.04 0 1.747-.207 2.12-.62.373-.427.56-1.04.56-1.84 0-.813-.247-1.387-.74-1.72-.48-.347-1.233-.52-2.26-.52h-1.78v4.7h2.1zM273.365 111.94c0-1.253-.4-2.32-1.2-3.2-.8-.88-1.786-1.32-2.96-1.32-1.16 0-2.14.44-2.94 1.32-.8.88-1.2 1.947-1.2 3.2 0 1.24.4 2.3 1.2 3.18.8.867 1.78 1.3 2.94 1.3 1.174 0 2.16-.433 2.96-1.3.8-.88 1.2-1.94 1.2-3.18zm1.06 5.14c-1.413 1.373-3.153 2.06-5.22 2.06-2.066 0-3.806-.687-5.22-2.06-1.413-1.387-2.12-3.107-2.12-5.16s.707-3.767 2.12-5.14c1.414-1.387 3.154-2.08 5.22-2.08 2.067 0 3.807.693 5.22 2.08 1.414 1.373 2.12 3.087 2.12 5.14 0 2.053-.706 3.773-2.12 5.16zM290.529 109.66c0 2.24-.887 3.687-2.66 4.34l3.54 5h-3.84l-3.1-4.46h-2.16V119h-3.12v-13.98h5.3c2.173 0 3.72.367 4.64 1.1.933.733 1.4 1.913 1.4 3.54zm-5.94 2.18c1.066 0 1.793-.173 2.18-.52.386-.347.58-.893.58-1.64 0-.76-.2-1.28-.6-1.56-.4-.28-1.1-.42-2.1-.42h-2.34v4.14h2.28zM303.68 119l-1.3-3.02h-5.86l-1.3 3.02h-3.32l6.04-13.98h3.02L307 119h-3.32zm-4.22-9.82l-1.76 4.06h3.5l-1.74-4.06zM313.527 107.72V119h-3.12v-11.28h-3.96v-2.7h11.04v2.7h-3.96zM329.855 105.02v2.78h-6.96v2.88h6.26v2.66h-6.26v2.9h7.18V119h-10.3v-13.98h10.08zM338.134 119v-13.98h3.12v11.2h5.96V119h-9.08zM359.581 105.02v2.78h-6.96v2.88h6.26v2.66h-6.26v2.9h7.18V119h-10.3v-13.98h10.08zM372.547 119l-1.3-3.02h-5.86l-1.3 3.02h-3.32l6.04-13.98h3.02l6.04 13.98h-3.32zm-4.22-9.82l-1.76 4.06h3.5l-1.74-4.06zM388.829 109.66c0 2.24-.886 3.687-2.66 4.34l3.54 5h-3.84l-3.1-4.46h-2.16V119h-3.12v-13.98h5.3c2.174 0 3.72.367 4.64 1.1.934.733 1.4 1.913 1.4 3.54zm-5.94 2.18c1.067 0 1.794-.173 2.18-.52.387-.347.58-.893.58-1.64 0-.76-.2-1.28-.6-1.56-.4-.28-1.1-.42-2.1-.42h-2.34v4.14h2.28zM401.801 105.02h3.12V119h-3.12l-6.66-8.76V119h-3.12v-13.98h2.92l6.86 9v-9zM408.368 105.02h3.12V119h-3.12v-13.98zM424.711 105.02h3.12V119h-3.12l-6.66-8.76V119h-3.12v-13.98h2.92l6.86 9v-9zM440.358 111.88h3.14v4.96c-1.386 1.547-3.306 2.32-5.76 2.32-2.053 0-3.78-.68-5.18-2.04-1.386-1.36-2.08-3.073-2.08-5.14 0-2.08.707-3.813 2.12-5.2 1.427-1.387 3.14-2.08 5.14-2.08 2.014 0 3.76.66 5.24 1.98l-1.62 2.34c-.626-.547-1.206-.92-1.74-1.12a4.44 4.44 0 00-1.7-.32c-1.186 0-2.186.407-3 1.22-.813.8-1.22 1.86-1.22 3.18s.387 2.38 1.16 3.18c.787.787 1.72 1.18 2.8 1.18 1.08 0 1.98-.207 2.7-.62v-3.84zM203.72 127.02h3.12V141h-3.12v-13.98zM220.062 127.02h3.12V141h-3.12l-6.66-8.76V141h-3.12v-13.98h2.92l6.86 9v-9zM236.41 127.02h3.12V141h-3.12l-6.66-8.76V141h-3.12v-13.98h2.92l6.86 9v-9zM253.678 133.94c0-1.253-.4-2.32-1.2-3.2-.8-.88-1.787-1.32-2.96-1.32-1.16 0-2.14.44-2.94 1.32-.8.88-1.2 1.947-1.2 3.2 0 1.24.4 2.3 1.2 3.18.8.867 1.78 1.3 2.94 1.3 1.173 0 2.16-.433 2.96-1.3.8-.88 1.2-1.94 1.2-3.18zm1.06 5.14c-1.414 1.373-3.154 2.06-5.22 2.06-2.067 0-3.807-.687-5.22-2.06-1.414-1.387-2.12-3.107-2.12-5.16s.706-3.767 2.12-5.14c1.413-1.387 3.153-2.08 5.22-2.08 2.066 0 3.806.693 5.22 2.08 1.413 1.373 2.12 3.087 2.12 5.14 0 2.053-.707 3.773-2.12 5.16zM264.349 135.92l3.56-8.9h3.38l-5.62 13.98h-2.64l-5.62-13.98h3.38l3.56 8.9zM282.059 141l-1.3-3.02h-5.86l-1.3 3.02h-3.32l6.04-13.98h3.02l6.04 13.98h-3.32zm-4.22-9.82l-1.76 4.06h3.5l-1.74-4.06zM291.906 129.72V141h-3.12v-11.28h-3.96v-2.7h11.04v2.7h-3.96zM298.153 127.02h3.12V141h-3.12v-13.98zM315.416 133.94c0-1.253-.4-2.32-1.2-3.2-.8-.88-1.787-1.32-2.96-1.32-1.16 0-2.14.44-2.94 1.32-.8.88-1.2 1.947-1.2 3.2 0 1.24.4 2.3 1.2 3.18.8.867 1.78 1.3 2.94 1.3 1.173 0 2.16-.433 2.96-1.3.8-.88 1.2-1.94 1.2-3.18zm1.06 5.14c-1.413 1.373-3.153 2.06-5.22 2.06-2.067 0-3.807-.687-5.22-2.06-1.413-1.387-2.12-3.107-2.12-5.16s.707-3.767 2.12-5.14c1.413-1.387 3.153-2.08 5.22-2.08 2.067 0 3.807.693 5.22 2.08 1.413 1.373 2.12 3.087 2.12 5.14 0 2.053-.707 3.773-2.12 5.16zM331.019 127.02h3.12V141h-3.12l-6.66-8.76V141h-3.12v-13.98h2.92l6.86 9v-9z" fill="#000"/></svg>