<svg fill="none" xmlns="http://www.w3.org/2000/svg" viewBox="0 0 507 174"><path fill-rule="evenodd" clip-rule="evenodd" d="M185.386 115.554c2.276 0 3.694-1.352 3.694-3.693 0-2.243-.957-3.627-4.287-3.627h-3.232v7.32h3.825zm-8.079-10.981h7.552c2.539 0 3.693.198 4.715.66 2.342 1.055 3.825 3.297 3.825 6.397 0 2.803-1.483 5.408-3.957 6.397v.067s.33.329.792 1.154l4.814 8.739H190.3l-4.65-8.739h-4.089v8.739h-4.254v-23.414zM209.26 117.5c-.065-2.275-1.483-3.495-3.33-3.495-2.144 0-3.628 1.319-4.023 3.495h7.353zm-3.232-6.727c4.848 0 7.453 3.528 7.453 7.98 0 .495-.099 1.616-.099 1.616h-11.607c.263 2.935 2.539 4.451 5.045 4.451 2.704 0 4.847-1.846 4.847-1.846l1.617 3.001s-2.573 2.407-6.761 2.407c-5.573 0-9.035-4.023-9.035-8.804 0-5.178 3.528-8.805 8.54-8.805zM217.437 111.169h4.188v16.817h-4.188v-16.817zm0-6.595h4.155v3.726h-4.155v-3.726zM226.735 111.169h4.024v1.945c0 .626-.066 1.155-.066 1.155h.066c.725-1.418 2.572-3.496 5.969-3.496 3.726 0 5.836 1.945 5.836 6.397v10.816h-4.155v-9.959c0-2.044-.527-3.429-2.671-3.429-2.242 0-3.891 1.418-4.518 3.429-.231.693-.297 1.452-.297 2.243v7.716h-4.188v-16.817zM245.135 111.169h4.419l3.496 10.42c.33.989.561 2.539.593 2.539h.066c.033 0 .264-1.55.594-2.539l3.496-10.42h4.418l-6.034 16.817h-4.947l-6.101-16.817zM275.638 117.5c-.066-2.275-1.484-3.495-3.331-3.495-2.143 0-3.627 1.319-4.023 3.495h7.354zm-3.232-6.727c4.847 0 7.453 3.528 7.453 7.98 0 .495-.099 1.616-.099 1.616h-11.608c.264 2.935 2.539 4.451 5.046 4.451 2.704 0 4.847-1.846 4.847-1.846l1.616 3.001s-2.573 2.407-6.761 2.407c-5.572 0-9.034-4.023-9.034-8.804 0-5.178 3.528-8.805 8.54-8.805zM283.814 111.169h4.024v1.945c0 .626-.066 1.155-.066 1.155h.066c.726-1.418 2.572-3.496 5.968-3.496 3.727 0 5.837 1.945 5.837 6.397v10.816h-4.155v-9.959c0-2.044-.527-3.429-2.671-3.429-2.242 0-3.891 1.418-4.518 3.429-.231.693-.296 1.452-.296 2.243v7.716h-4.189v-16.817zM305.248 114.763h-2.176v-3.331h2.275v-4.847h4.089v4.847h3.825v3.331h-3.825v6.53c0 2.769 2.176 3.165 3.331 3.165.461 0 .758-.066.758-.066v3.66s-.495.099-1.286.099c-2.341 0-6.991-.692-6.991-6.331v-7.057zM317.448 111.169h4.189v16.817h-4.189v-16.817zm0-6.595h4.155v3.726h-4.155v-3.726zM326.747 111.169h4.024v1.945c0 .626-.066 1.155-.066 1.155h.066c.725-1.418 2.572-3.496 5.968-3.496 3.727 0 5.837 1.945 5.837 6.397v10.816h-4.155v-9.959c0-2.044-.527-3.429-2.671-3.429-2.243 0-3.891 1.418-4.518 3.429-.231.693-.296 1.452-.296 2.243v7.716h-4.189v-16.817zM358.667 119.182c0-3.825-1.88-4.848-4.155-4.848-2.539 0-3.957 1.847-3.957 4.683 0 2.935 1.517 5.111 4.221 5.111 2.012 0 3.891-1.154 3.891-4.946zm-4.847 12.168c2.572 0 4.748-1.088 4.748-4.089v-.989c0-.396.066-.891.066-.891h-.066c-.989 1.484-2.44 2.276-4.682 2.276-4.815 0-7.552-3.892-7.552-8.508 0-4.617 2.605-8.376 7.452-8.376 3.661 0 4.98 2.144 4.98 2.144h.1s-.034-.199-.034-.462v-1.286h3.924v15.795c0 5.771-4.484 7.947-8.87 7.947-2.111 0-4.353-.593-5.969-1.451l1.253-3.198s2.111 1.088 4.65 1.088zM177.307 135.793h4.254v9.926h10.718v-9.926h4.254v23.413h-4.254v-9.827h-10.718v9.827h-4.254v-23.413zM202.301 142.388h4.189v16.818h-4.189v-16.818zm0-6.595h4.155v3.726h-4.155v-3.726zM222.813 150.402c0-3.826-1.88-4.848-4.156-4.848-2.539 0-3.957 1.847-3.957 4.683 0 2.934 1.517 5.11 4.222 5.11 2.011 0 3.891-1.153 3.891-4.945zm-4.848 12.168c2.572 0 4.748-1.088 4.748-4.089v-.99c0-.395.067-.89.067-.89h-.067c-.989 1.484-2.439 2.275-4.682 2.275-4.814 0-7.552-3.891-7.552-8.508 0-4.616 2.605-8.376 7.453-8.376 3.661 0 4.98 2.144 4.98 2.144h.098s-.033-.198-.033-.462v-1.286h3.925v15.796c0 5.77-4.485 7.947-8.871 7.947-2.111 0-4.353-.594-5.969-1.451l1.254-3.198s2.11 1.088 4.649 1.088zM232.011 135.793h4.189v8.112c0 .824-.067 1.418-.067 1.418h.067c.824-1.616 2.868-3.331 5.803-3.331 3.727 0 5.837 1.946 5.837 6.398v10.816h-4.155v-9.959c0-2.044-.528-3.429-2.671-3.429-2.209 0-3.925 1.451-4.551 3.495-.197.659-.263 1.385-.263 2.177v7.716h-4.189v-23.413zM263.305 148.719c-.066-2.275-1.484-3.495-3.331-3.495-2.144 0-3.627 1.319-4.023 3.495h7.354zm-3.232-6.727c4.848 0 7.453 3.529 7.453 7.98 0 .496-.1 1.616-.1 1.616h-11.607c.264 2.936 2.539 4.452 5.046 4.452 2.704 0 4.847-1.846 4.847-1.846l1.616 3.001s-2.573 2.407-6.76 2.407c-5.573 0-9.036-4.024-9.036-8.805 0-5.177 3.529-8.805 8.541-8.805zM271.481 142.388h4.024v2.902c0 .627-.066 1.187-.066 1.187h.066c.758-2.407 2.77-4.32 5.342-4.32.395 0 .758.066.758.066v4.122s-.429-.066-.989-.066c-1.781 0-3.792 1.022-4.584 3.529-.263.824-.363 1.748-.363 2.737v6.661h-4.188v-16.818zM294.102 135.793h14.015v3.661h-9.761v6.133h7.881v3.66h-7.881v6.299h10.288v3.66h-14.542v-23.413zM320.152 156.073c2.177 0 4.221-1.583 4.221-5.309 0-2.605-1.385-5.178-4.188-5.178-2.308 0-4.221 1.88-4.221 5.211 0 3.199 1.715 5.276 4.188 5.276zm-.791-14.081c3.693 0 4.847 2.144 4.847 2.144h.066s-.033-.429-.033-.957v-7.386h4.188v23.413h-3.957v-1.385c0-.627.066-1.088.066-1.088h-.066s-1.418 2.869-5.276 2.869c-4.551 0-7.453-3.594-7.453-8.805 0-5.342 3.166-8.805 7.618-8.805zM333.308 142.388h4.188v9.959c0 2.045.528 3.43 2.606 3.43 3.033 0 4.715-2.671 4.715-5.672v-7.717h4.188v16.818h-4.023v-1.913c0-.659.066-1.186.066-1.186h-.066c-.824 1.747-2.968 3.495-5.837 3.495-3.594 0-5.837-1.814-5.837-6.398v-10.816zM362.03 141.992c4.386 0 6.463 2.507 6.463 2.507l-1.847 2.868s-1.747-1.813-4.386-1.813c-3.099 0-5.111 2.341-5.111 5.21 0 2.836 2.044 5.276 5.244 5.276 2.835 0 4.946-2.143 4.946-2.143l1.616 2.968s-2.408 2.737-6.925 2.737c-5.573 0-9.135-3.925-9.135-8.805 0-4.781 3.562-8.805 9.135-8.805zM377.924 156.337c2.209 0 3.792-2.374 3.792-4.419v-.396h-.725c-2.144 0-5.606.297-5.606 2.639 0 1.121.824 2.176 2.539 2.176zm3.198-7.683h.561v-.231c0-2.21-1.385-2.968-3.232-2.968-2.407 0-4.617 1.616-4.617 1.616l-1.582-3.001s2.604-2.078 6.595-2.078c4.419 0 6.991 2.441 6.991 6.695v10.519h-3.858v-1.385c0-.66.065-1.187.065-1.187h-.065c.033 0-1.286 2.968-5.112 2.968-3.001 0-5.704-1.88-5.704-5.243 0-5.343 7.221-5.705 9.958-5.705zM391.311 145.982h-2.176v-3.33h2.275v-4.847h4.089v4.847h3.825v3.33h-3.825v6.53c0 2.77 2.177 3.165 3.331 3.165.461 0 .758-.065.758-.065v3.66s-.494.099-1.286.099c-2.341 0-6.991-.693-6.991-6.332v-7.057zM403.511 142.388h4.188v16.818h-4.188v-16.818zm0-6.595h4.155v3.726h-4.155v-3.726zM420.824 156.04c2.704 0 4.979-2.11 4.979-5.243 0-3.1-2.275-5.243-4.979-5.243-2.737 0-5.013 2.143-5.013 5.243 0 3.133 2.276 5.243 5.013 5.243zm-.033-14.048c5.144 0 9.266 3.66 9.266 8.805 0 5.177-4.122 8.805-9.233 8.805-5.144 0-9.267-3.628-9.267-8.805 0-5.145 4.123-8.805 9.234-8.805zM433.914 142.388h4.024v1.945c0 .627-.067 1.155-.067 1.155h.067c.725-1.418 2.571-3.496 5.968-3.496 3.727 0 5.837 1.946 5.837 6.398v10.816h-4.155v-9.959c0-2.044-.528-3.429-2.671-3.429-2.243 0-3.891 1.418-4.518 3.429-.231.693-.297 1.451-.297 2.243v7.716h-4.188v-16.818z" fill="#000"/><path fill-rule="evenodd" clip-rule="evenodd" d="M30.514 7c10.753 0 19.514 8.729 19.514 19.5 0 10.773-8.761 19.528-19.514 19.528C19.735 46.028 11 37.273 11 26.5S19.735 7 30.514 7z" fill="#0098E0"/><path fill-rule="evenodd" clip-rule="evenodd" d="M14.894 159.209h31.222V57.736H14.894V159.21zM106.624 95.135H86.567c1.917-7.91 8.353-15.076 20.057-15.076 11.705 0 18.14 7.166 20.058 15.076h-20.058zm51.082 13.659l-.001-.554c-.107-29.412-19.773-53.214-51.891-53.214-32.118 0-51.784 23.802-51.891 53.214l-.001.554c0 32.302 25.008 53.141 56.268 53.141 16.256 0 32.719-7.293 42.723-20.006l-21.274-15.6c-5.612 6.579-12.696 11.849-22.908 11.849-12.087 0-21.048-7.711-23.549-19.589h71.7c.531-3.134.824-6.397.824-9.795z" fill="#002F91"/></svg>