<svg fill="none" xmlns="http://www.w3.org/2000/svg" viewBox="0 0 507 174"><g clip-path="url(#clip0)"><path d="M29.152 5c10.563 0 19.151 8.588 19.151 19.152 0 10.563-8.587 19.151-19.151 19.151S10 34.716 10 24.152 18.588 5 29.152 5z" fill="#5597DC"/><path fill-rule="evenodd" clip-rule="evenodd" d="M153.867 104.331v.532c0 3.344-.304 6.536-.988 9.652h-70.3c2.432 11.628 11.248 19.228 23.104 19.228 10.032 0 17.024-5.168 22.496-11.628l20.9 15.276c-9.804 12.464-25.916 19.608-41.876 19.608-30.628 0-55.176-20.444-55.176-52.136v-.532c.152-28.88 19.456-52.212 50.92-52.212 31.54 0 50.844 23.332 50.92 52.212zM84.099 91.487h39.368c-1.9-7.828-8.208-14.82-19.684-14.82s-17.784 7.068-19.684 14.82zM13.8 54.78h30.629v99.484H13.8V54.779zM374.379 143.092s4.028 3.724 8.588 3.724c1.824 0 3.724-.684 3.724-2.888 0-1.632-2.367-2.615-5.286-3.829-4.697-1.952-10.826-4.499-10.826-11.295 0-6.612 5.548-11.02 12.692-11.02 7.752 0 11.552 4.028 11.552 4.028l-3.724 7.144s-3.648-3.192-7.904-3.192c-1.824 0-3.8.836-3.8 2.812 0 1.732 2.415 2.681 5.379 3.847 4.711 1.852 10.809 4.25 10.809 11.201 0 6.003-4.56 11.171-12.616 11.171-8.436 0-13.072-5.092-13.072-5.092l4.484-6.611zm-144.4-24.624h-8.816v35.871h8.74V137.62c0-2.28-.38-6.156-.38-6.156h.076s1.672 3.8 3.04 6.156l9.956 16.719h8.815v-35.871h-8.739v16.72c0 2.28.38 6.156.38 6.156h-.076s-1.672-3.8-3.04-6.156l-9.956-16.72zm-37.62 0h-8.74l-.076 22.648c0 8.056 5.928 13.755 15.048 13.755 9.044 0 14.972-5.699 14.972-13.755v-22.648h-8.74v22.648c0 3.8-2.508 5.776-6.232 5.776-3.8 0-6.232-2.052-6.232-5.776v-22.648zm66.956 0h8.74v35.871h-8.74v-35.871zm21.736 0h-9.5l12.692 35.871h9.12l12.616-35.871h-9.424l-6.384 20.444c-.684 2.28-1.368 5.776-1.368 5.776h-.076s-.684-3.496-1.368-5.776l-6.308-20.444zm28.424 0h22.496v7.524h-13.68v6.536h10.944v7.524h-10.944v6.763h14.364v7.524h-23.18v-35.871zm41.8 0h-12.463v35.795h8.739V142.18h4.104l6.384 12.083h9.804l-6.992-12.539c-.836-1.444-1.368-2.128-1.368-2.128v-.076c3.572-1.824 5.396-6.004 5.396-9.804 0-5.168-2.584-8.892-6.612-10.412-1.596-.608-3.344-.836-6.992-.836zm4.712 11.78c0 2.888-1.748 4.408-4.56 4.408h-3.8v-8.74h2.964c4.408 0 5.396 1.596 5.396 4.332zm53.96-11.78h-8.74v35.871h8.74v-35.871zm14.592 7.524h-10.867v-7.524h30.551v7.524h-10.868v28.347h-8.816v-28.347zm21.432-7.524l11.856 21.128h-.152v14.667h8.74v-14.667l11.856-21.128h-9.956l-4.028 8.664c-1.14 2.432-2.128 5.168-2.128 5.168h-.076s-.988-2.736-2.128-5.168l-4.028-8.664h-9.956z" fill="#1D338D"/></g><defs><clipPath id="clip0"><path fill="#fff" transform="translate(10 5)" d="M0 0h468v152H0z"/></clipPath></defs></svg>