<svg fill="none" xmlns="http://www.w3.org/2000/svg" viewBox="0 0 507 174"><path fill-rule="evenodd" clip-rule="evenodd" d="M58.486 28.247c-12.348 0-22.357 10.014-22.357 22.368v.293c0 13.119 10.616 23.74 23.729 23.74 7.872 0 14.822-3.825 19.14-9.721L69.8 58.108c-1.866 3.511-5.555 5.919-9.806 5.919-5.218 0-9.582-3.6-10.774-8.439h31.04c.022-.045.022-.067.044-.112.015-.075.033-.15.05-.226.035-.15.07-.3.085-.45.248-1.35.382-2.767.382-4.185.023-12.354-9.986-22.368-22.334-22.368zm-8.21 17.282c1.058-3.735 4.476-6.48 8.547-6.48 4.072 0 7.49 2.745 8.547 6.48H50.276z" fill="#006"/><path d="M86.08 97.979s1.667 1.857 4.693 1.857c2.835 0 4.482-1.82 4.482-3.984 0-2.491-2.1-3.36-3.895-4.102-1.336-.552-2.502-1.035-2.502-2.065 0-.958.9-1.628 2.05-1.628 1.704 0 3.006 1.187 3.006 1.187l1.073-2.01s-1.38-1.457-4.06-1.457c-2.606 0-4.56 1.686-4.56 3.946 0 2.368 2.064 3.258 3.851 4.028 1.364.588 2.566 1.106 2.566 2.159 0 1.11-.938 1.647-1.973 1.647-1.915 0-3.39-1.436-3.39-1.436l-1.34 1.858zM16.462 94.722c0 3.046 2.203 5.114 5.497 5.114 3.276 0 5.478-2.068 5.478-5.114v-8.715h-2.47v8.696c0 1.839-1.207 2.873-3.027 2.873s-3.007-1.034-3.007-2.854v-8.715h-2.47v8.715zM15.835 123.739c0 2.515 1.805 4.452 4.416 4.452 2.178 0 3.357-1.384 3.357-1.384l-.818-1.118s-1 1.083-2.479 1.083c-1.78 0-2.876-1.432-2.876-3.057 0-1.588 1.06-2.935 2.864-2.935 1.36 0 2.334.902 2.334.902l.746-1.155s-1.07-1.167-3.152-1.167c-2.515 0-4.392 1.901-4.392 4.379zM25.037 128.047h5.306v-1.336H26.59v-2.298h2.876v-1.335h-2.876v-2.238h3.562v-1.336h-5.114v8.543zM31.958 128.047h1.552v-4.921c0-.505-.084-1.324-.084-1.324h.024s.385.831.71 1.324l3.236 4.921h1.54v-8.543h-1.54v4.933c0 .506.084 1.324.084 1.324h-.023s-.386-.83-.71-1.324l-3.237-4.933h-1.552v8.543zM42.868 128.047h1.552v-7.207h2.803v-1.336h-7.159v1.336h2.804v7.207zM48.349 128.047h5.306v-1.336H49.9v-2.298h2.875v-1.335h-2.875v-2.238h3.561v-1.336H48.35v8.543z" fill="#006"/><path fill-rule="evenodd" clip-rule="evenodd" d="M55.27 128.047h1.551v-3.189h1.492l1.697 3.189h1.732l-1.756-3.189c-.169-.3-.289-.421-.289-.421v-.024c.902-.361 1.444-1.311 1.444-2.334 0-1.131-.542-1.949-1.396-2.334-.373-.169-.794-.241-1.72-.241h-2.756v8.543zm1.551-4.536v-2.671h1.18c1.215 0 1.564.505 1.564 1.323 0 .855-.518 1.348-1.348 1.348h-1.395z" fill="#006"/><path d="M66.115 128.047h1.551v-3.453h2.828v-1.336h-2.828v-2.418h3.357v-1.336h-4.908v8.543z" fill="#006"/><path fill-rule="evenodd" clip-rule="evenodd" d="M71.893 123.715c0 2.515 1.901 4.476 4.416 4.476 2.514 0 4.415-1.961 4.415-4.476 0-2.442-1.9-4.355-4.415-4.355s-4.416 1.913-4.416 4.355zm1.6 0c0-1.684 1.252-2.935 2.816-2.935 1.564 0 2.815 1.251 2.815 2.935 0 1.757-1.251 3.057-2.815 3.057s-2.816-1.3-2.816-3.057zM82.305 128.047h1.552v-3.189h1.492l1.697 3.189h1.732l-1.756-3.189c-.169-.3-.289-.421-.289-.421v-.024c.902-.361 1.444-1.311 1.444-2.334 0-1.131-.542-1.949-1.396-2.334-.373-.169-.794-.241-1.72-.241h-2.756v8.543zm1.552-4.536v-2.671h1.18c1.215 0 1.564.505 1.564 1.323 0 .855-.518 1.348-1.348 1.348h-1.395z" fill="#006"/><path d="M15.835 137.009c0 2.515 1.805 4.452 4.416 4.452 2.178 0 3.357-1.384 3.357-1.384l-.818-1.119s-1 1.083-2.479 1.083c-1.78 0-2.876-1.432-2.876-3.056 0-1.588 1.06-2.936 2.864-2.936 1.36 0 2.334.903 2.334.903l.746-1.155s-1.07-1.167-3.152-1.167c-2.515 0-4.392 1.901-4.392 4.379z" fill="#006"/><path fill-rule="evenodd" clip-rule="evenodd" d="M24.4 136.985c0 2.515 1.902 4.476 4.417 4.476 2.514 0 4.415-1.961 4.415-4.476 0-2.442-1.9-4.355-4.415-4.355s-4.416 1.913-4.416 4.355zm1.601 0c0-1.684 1.251-2.936 2.816-2.936 1.564 0 2.815 1.252 2.815 2.936 0 1.757-1.252 3.056-2.816 3.056-1.564 0-2.815-1.299-2.815-3.056zM34.813 141.317h1.552v-3.189h1.492l1.697 3.189h1.732l-1.756-3.189a3.275 3.275 0 00-.187-.294c-.023-.033-.043-.058-.06-.078-.027-.034-.042-.049-.042-.049v-.024c.902-.361 1.444-1.311 1.444-2.334 0-1.131-.542-1.949-1.396-2.334-.373-.169-.794-.241-1.72-.241h-2.756v8.543zm1.552-4.537v-2.671h1.18c1.214 0 1.563.506 1.563 1.324 0 .854-.517 1.347-1.347 1.347h-1.396zM42.733 141.317h1.551v-2.948h1.745c1.6 0 2.72-1.155 2.72-2.816 0-1.66-1.12-2.779-2.72-2.779h-3.297v8.543zm1.551-4.296v-2.912h1.48c.879 0 1.408.566 1.408 1.444 0 .891-.53 1.468-1.432 1.468h-1.456zM49.533 136.985c0 2.515 1.901 4.476 4.416 4.476 2.515 0 4.416-1.961 4.416-4.476 0-2.442-1.901-4.355-4.416-4.355-2.515 0-4.416 1.913-4.416 4.355zm1.6 0c0-1.684 1.252-2.936 2.816-2.936 1.564 0 2.816 1.252 2.816 2.936 0 1.757-1.252 3.056-2.816 3.056-1.564 0-2.815-1.299-2.815-3.056zM59.946 141.317h1.552v-3.189h1.492l1.696 3.189h1.733l-1.757-3.189c-.168-.301-.289-.421-.289-.421v-.024c.903-.361 1.444-1.311 1.444-2.334 0-1.131-.541-1.949-1.396-2.334-.372-.169-.794-.241-1.72-.241h-2.755v8.543zm1.552-4.537v-2.671h1.179c1.215 0 1.564.506 1.564 1.324 0 .854-.517 1.347-1.347 1.347h-1.396zM72.834 141.317h1.6l-3.007-8.543h-1.625l-3.008 8.543h1.6l.722-2.19h2.996l.722 2.19zm-2.202-7.063s.18.842.337 1.323l.758 2.286H69.49l.758-2.286c.169-.481.361-1.323.361-1.323h.024z" fill="#006"/><path d="M76.801 141.317h1.552v-7.208h2.803v-1.335h-7.159v1.335h2.804v7.208zM82.282 141.317h5.306v-1.336h-3.754v-2.298h2.876v-1.336h-2.876v-2.238h3.561v-1.335h-5.113v8.543zM16.425 154.586h5.246v-1.335h-3.694v-7.207h-1.552v8.542zM22.91 154.586h5.307v-1.335h-3.754v-2.299h2.875v-1.335h-2.875v-2.238h3.561v-1.335h-5.113v8.542z" fill="#006"/><path fill-rule="evenodd" clip-rule="evenodd" d="M34.8 154.586h1.6l-3.007-8.542h-1.625l-3.008 8.542h1.6l.723-2.19h2.995l.722 2.19zm-2.201-7.063s.18.843.337 1.324l.757 2.286h-2.237l.758-2.286c.168-.481.36-1.324.36-1.324h.025zM37.492 154.586h1.552v-3.188h1.492l1.696 3.188h1.733l-1.756-3.188c-.169-.301-.29-.421-.29-.421v-.025c.903-.361 1.445-1.311 1.445-2.334 0-1.13-.542-1.949-1.396-2.334-.373-.168-.794-.24-1.72-.24h-2.756v8.542zm1.552-4.536v-2.671h1.18c1.214 0 1.563.505 1.563 1.324 0 .854-.517 1.347-1.347 1.347h-1.396z" fill="#006"/><path d="M45.411 154.586h1.552v-4.921c0-.505-.084-1.323-.084-1.323h.024s.385.83.71 1.323l3.237 4.921h1.54v-8.542h-1.54v4.933c0 .505.084 1.323.084 1.323h-.024s-.385-.83-.71-1.323l-3.237-4.933h-1.552v8.542zM54.553 154.586h1.552v-8.542h-1.552v8.542zM58.265 154.586h1.553v-4.921c0-.505-.085-1.323-.085-1.323h.024s.386.83.71 1.323l3.237 4.921h1.54v-8.542h-1.54v4.933c0 .505.084 1.323.084 1.323h-.024s-.385-.83-.71-1.323l-3.236-4.933h-1.553v8.542zM66.83 150.303c0 2.683 1.936 4.427 4.186 4.427 1.588 0 2.479-.914 2.479-.914h.024l-.003.043a8.052 8.052 0 00-.01.318v.409h1.324v-4.5h-2.707v1.336h1.312v.999s-.855.89-2.142.89c-1.6 0-2.864-1.203-2.864-3.056 0-1.613 1.023-2.936 2.936-2.936a3.68 3.68 0 012.274.818l.77-1.155s-1.083-1.083-3.176-1.083c-2.539 0-4.404 1.925-4.404 4.404z" fill="#006"/><path fill-rule="evenodd" clip-rule="evenodd" d="M84.443 154.586h1.6l-3.008-8.542h-1.624l-3.008 8.542h1.6l.722-2.19h2.996l.722 2.19zm-2.202-7.063s.18.843.337 1.324l.758 2.286h-2.238l.758-2.286c.168-.481.36-1.324.36-1.324h.025z" fill="#006"/><path d="M87.135 154.586h1.552v-4.921c0-.505-.085-1.323-.085-1.323h.024s.385.83.71 1.323l3.237 4.921h1.54v-8.542h-1.54v4.933c0 .505.084 1.323.084 1.323h-.024s-.385-.83-.71-1.323l-3.236-4.933h-1.552v8.542z" fill="#006"/><path fill-rule="evenodd" clip-rule="evenodd" d="M96.276 154.586h2.912c2.634 0 4.355-1.588 4.355-4.283 0-2.695-1.721-4.259-4.356-4.259h-2.911v8.542zm1.552-1.335v-5.872h1.275c1.709 0 2.84 1.023 2.84 2.924 0 1.925-1.107 2.948-2.84 2.948h-1.275z" fill="#006"/><path d="M16.425 167.856h1.552v-3.586h3.91v3.586h1.552v-8.543h-1.552v3.622h-3.91v-3.622h-1.552v8.543zM25.481 164.788c0 1.913 1.384 3.212 3.453 3.212 2.058 0 3.441-1.299 3.441-3.212v-5.475h-1.552v5.463c0 1.155-.758 1.804-1.9 1.804-1.144 0-1.89-.649-1.89-1.792v-5.475h-1.552v5.475zM34.16 167.856h1.553l.36-4.777c.037-.565.013-1.335.013-1.335h.024s.264.842.469 1.335l1.372 3.309h1.36l1.383-3.309c.204-.493.457-1.323.457-1.323h.024s-.024.758.012 1.323l.361 4.777h1.54l-.685-8.543h-1.661l-1.672 4.223a24.784 24.784 0 00-.422 1.252h-.024s-.24-.746-.433-1.252l-1.672-4.223h-1.66l-.699 8.543z" fill="#006"/><path fill-rule="evenodd" clip-rule="evenodd" d="M49.958 167.856h1.6l-3.008-8.543h-1.625l-3.007 8.543h1.6l.721-2.19h2.997l.722 2.19zm-2.202-7.063s.18.842.337 1.324l.758 2.286h-2.238l.758-2.286c.168-.482.36-1.324.36-1.324h.025z" fill="#006"/><path d="M52.65 167.856H54.2v-4.921c0-.506-.084-1.324-.084-1.324h.024s.385.831.71 1.324l3.236 4.921h1.54v-8.543h-1.54v4.933c0 .506.085 1.324.085 1.324h-.024s-.385-.83-.71-1.324l-3.237-4.933H52.65v8.543z" fill="#006"/><path fill-rule="evenodd" clip-rule="evenodd" d="M64.716 167.856h1.552v-3.189h1.492l1.697 3.189h1.732l-1.756-3.189a3.18 3.18 0 00-.17-.272 1.247 1.247 0 00-.12-.149v-.024c.903-.361 1.445-1.311 1.445-2.334 0-1.131-.542-1.949-1.396-2.334-.373-.169-.794-.241-1.72-.241h-2.756v8.543zm1.552-4.536v-2.671h1.18c1.215 0 1.563.505 1.563 1.323 0 .855-.517 1.348-1.347 1.348h-1.396z" fill="#006"/><path d="M72.635 167.856h5.306v-1.336h-3.754v-2.298h2.876v-1.335h-2.876v-2.238h3.562v-1.336h-5.114v8.543zM78.906 166.833S79.953 168 81.854 168c1.78 0 2.815-1.143 2.815-2.503 0-1.565-1.32-2.11-2.446-2.576-.84-.347-1.572-.65-1.572-1.298 0-.601.565-1.022 1.287-1.022 1.071 0 1.89.745 1.89.745l.673-1.263s-.866-.914-2.55-.914c-1.637 0-2.864 1.059-2.864 2.478 0 1.488 1.296 2.047 2.418 2.53.857.37 1.612.695 1.612 1.357 0 .698-.59 1.034-1.239 1.034-1.203 0-2.13-.902-2.13-.902l-.842 1.167z" fill="#006"/><path fill-rule="evenodd" clip-rule="evenodd" d="M85.628 163.524c0 2.515 1.901 4.476 4.416 4.476 2.515 0 4.416-1.961 4.416-4.476 0-2.442-1.901-4.355-4.416-4.355-2.514 0-4.416 1.913-4.416 4.355zm1.6 0c0-1.684 1.252-2.935 2.816-2.935 1.564 0 2.815 1.251 2.815 2.935 0 1.757-1.25 3.056-2.815 3.056-1.564 0-2.816-1.299-2.816-3.056z" fill="#006"/><path d="M95.92 164.788c0 1.913 1.384 3.212 3.454 3.212 2.057 0 3.441-1.299 3.441-3.212v-5.475h-1.553v5.463c0 1.155-.757 1.804-1.9 1.804-1.143 0-1.89-.649-1.89-1.792v-5.475h-1.551v5.475z" fill="#006"/><path fill-rule="evenodd" clip-rule="evenodd" d="M104.865 167.856h1.552v-3.189h1.492l1.696 3.189h1.733l-1.757-3.189a2.086 2.086 0 00-.289-.421v-.024c.903-.361 1.444-1.311 1.444-2.334 0-1.131-.541-1.949-1.395-2.334-.373-.169-.794-.241-1.721-.241h-2.755v8.543zm1.552-4.536v-2.671h1.179c1.215 0 1.564.505 1.564 1.323 0 .855-.517 1.348-1.348 1.348h-1.395z" fill="#006"/><path d="M112.147 163.548c0 2.515 1.805 4.452 4.416 4.452 2.178 0 3.357-1.384 3.357-1.384l-.818-1.119s-.999 1.083-2.479 1.083c-1.78 0-2.875-1.431-2.875-3.056 0-1.588 1.058-2.935 2.863-2.935 1.36 0 2.334.902 2.334.902l.747-1.155s-1.071-1.167-3.153-1.167c-2.515 0-4.392 1.901-4.392 4.379zM121.35 167.856h5.306v-1.336h-3.754v-2.298h2.875v-1.335h-2.875v-2.238h3.561v-1.336h-5.113v8.543zM127.62 166.833s1.047 1.167 2.948 1.167c1.781 0 2.816-1.143 2.816-2.503 0-1.565-1.32-2.11-2.447-2.576-.839-.347-1.572-.65-1.572-1.298 0-.601.566-1.022 1.288-1.022 1.07 0 1.888.745 1.888.745l.674-1.263s-.866-.914-2.55-.914c-1.637 0-2.864 1.059-2.864 2.478 0 1.488 1.296 2.047 2.419 2.53.856.37 1.612.695 1.612 1.357 0 .698-.59 1.034-1.24 1.034-1.203 0-2.129-.902-2.129-.902l-.843 1.167zM33.172 99.606h-2.47V86.007h2.47l5.152 7.853c.517.786 1.13 2.107 1.13 2.107h.038s-.133-1.302-.133-2.106v-7.854h2.451v13.6H39.36l-5.153-7.834c-.517-.786-1.13-2.107-1.13-2.107h-.038s.134 1.302.134 2.107v7.834zM45.253 99.606h2.471V86.007h-2.47v13.6zM56.834 99.606h-2.452l-4.96-13.599h2.662l2.987 8.869c.184.539.35 1.277.443 1.686l.001.005.001.006.001.005.022.097.014.06.013.056.01.04a.767.767 0 00.009.029l.002.005v.002h.04c.006 0 .033-.12.076-.309.092-.41.258-1.145.441-1.682l3.007-8.869h2.644l-4.962 13.6zM63.49 99.606h8.447v-2.125h-5.975v-3.659h4.577v-2.126h-4.578v-3.563h5.67v-2.126h-8.14v13.6z" fill="#006"/><path fill-rule="evenodd" clip-rule="evenodd" d="M76.979 99.606h-2.471V86.007h4.386c1.475 0 2.145.115 2.739.383 1.36.613 2.222 1.916 2.222 3.716 0 1.628-.862 3.142-2.299 3.716v.038s.192.192.46.67l2.796 5.076h-2.758l-2.7-5.075h-2.375v5.075zm0-11.473v4.253H79.2c1.322 0 2.146-.786 2.146-2.146 0-1.302-.556-2.107-2.49-2.107h-1.877z" fill="#006"/><path d="M100.191 99.606h-2.47V86.007h2.47v13.6zM106.447 99.606h2.47V88.133h4.463v-2.126h-11.396v2.126h4.463v11.474zM121.039 99.606h-2.471v-5.688l-4.521-7.91h2.797l2.126 4.002c.284.545.537 1.153.685 1.51.082.196.132.317.139.31h.038s.383-.977.824-1.82l2.106-4.003h2.797l-4.52 7.911v5.688zM16.47 28.247h15.167v46.401H16.469V28.247z" fill="#006"/><path d="M33.149 16.074a9.074 9.074 0 11-18.149 0 9.074 9.074 0 1118.149 0zM16.057 105.164h109.551v6.333H16.057v-6.333z" fill="#46BEFF"/></svg>