<svg fill="none" xmlns="http://www.w3.org/2000/svg" viewBox="0 0 393 270"><path d="M25.2 0c13.9 0 25.2 11.3 25.2 25.2 0 13.9-11.3 25.2-25.2 25.2C11.3 50.4 0 39.1 0 25.2 0 11.3 11.3 0 25.2 0z" fill="#5597DC"/><path fill-rule="evenodd" clip-rule="evenodd" d="M189.3 130.7v.7c0 4.4-.4 8.6-1.3 12.7H95.5c3.2 15.3 14.8 25.3 30.4 25.3 13.2 0 22.4-6.8 29.6-15.3l27.5 20.1c-12.9 16.4-34.1 25.8-55.1 25.8-40.3 0-72.6-26.9-72.6-68.6v-.7c.2-38 25.6-68.7 67-68.7 41.5 0 66.9 30.7 67 68.7zm-91.8-16.9h51.8c-2.5-10.3-10.8-19.5-25.9-19.5-15.1 0-23.4 9.3-25.9 19.5z" fill="#1D338D"/><path d="M5 65.5h40.3v130.9H5V65.5zM16.4 221.5v29.9c0 4.9 3.2 7.6 8.2 7.6 4.9 0 8.2-2.6 8.2-7.6v-29.8h11.5v29.8c0 10.6-7.8 18.1-19.7 18.1-12 0-19.8-7.5-19.8-18.1v-29.9h11.6zM66 221.5H54.3v47.2h11.5v-22c0-3-.5-8.1-.5-8.1h.1s2.2 5 4 8.1l13.1 22h11.7v-47.2H82.7v22c0 3 .5 8.1.5 8.1h-.1s-2.2-5-4-8.1l-13.1-22zM104.5 221.5H116v47.2h-11.5v-47.2zM133.1 221.5h-12.5l16.6 47.2h12l16.6-47.2h-12.3l-8.4 26.9c-.9 3-1.8 7.6-1.8 7.6h-.1s-.9-4.6-1.8-7.6l-8.3-26.9zM170.5 221.5h29.6v9.9h-18v8.6h14.4v9.9h-14.4v8.9H201v9.9h-30.5v-47.2z" fill="#1D338D"/><path fill-rule="evenodd" clip-rule="evenodd" d="M225.6 221.5h-16.4v47.1h11.5v-15.9h5.4l8.4 15.9h12.9l-9.2-16.5c-1.1-1.9-1.8-2.8-1.8-2.8v-.1c4.7-2.4 7.1-7.9 7.1-12.9 0-6.8-3.4-11.7-8.7-13.7-2.1-.8-4.4-1.1-9.2-1.1zm6.1 15.6c0 3.8-2.3 5.8-6 5.8h-5v-11.5h3.9c5.8 0 7.1 2.1 7.1 5.7z" fill="#1D338D"/><path d="M255.9 254s5.3 4.9 11.3 4.9c2.4 0 4.9-.9 4.9-3.8 0-2.146-3.114-3.44-6.956-5.037-6.181-2.569-14.244-5.92-14.244-14.863 0-8.7 7.3-14.5 16.7-14.5 10.2 0 15.2 5.3 15.2 5.3l-4.9 9.4s-4.8-4.2-10.4-4.2c-2.4 0-5 1.1-5 3.7 0 2.279 3.177 3.528 7.077 5.062 6.199 2.438 14.223 5.593 14.223 14.738 0 7.9-6 14.7-16.6 14.7-11.1 0-17.2-6.7-17.2-6.7l5.9-8.7zM302.7 221.5h-11.5v47.2h11.5v-47.2zM307.6 231.4v-9.9h40.2v9.9h-14.3v37.3H322v-37.3h-14.4zM350.1 221.6l15.6 27.8v19.3h11.5v-19.3l15.4-27.8h-13.1l-5.3 11.4c-1.5 3.2-2.8 6.8-2.8 6.8h-.1s-1.3-3.6-2.8-6.8l-5.3-11.4h-13.1z" fill="#1D338D"/></svg>