<svg fill="none" xmlns="http://www.w3.org/2000/svg" viewBox="0 0 507 174"><path d="M439.741 143.58H181.083v15.604h258.658V143.58z" fill="#8F2B8B"/><path d="M30.505 7c10.74 0 19.505 8.72 19.505 19.505 0 10.785-8.766 19.505-19.505 19.505C19.72 46.01 11 37.244 11 26.505 11 15.765 19.72 7 30.505 7z" fill="#0097DC"/><path d="M46.063 57.759H14.855V159.23h31.208V57.759zM157.677 108.793v-.551c-.092-29.418-19.78-53.237-51.906-53.237s-51.768 23.82-51.906 53.237v.551c0 32.309 25.012 53.145 56.266 53.145 16.246 0 32.722-7.297 42.727-20.01l-21.295-15.604c-5.599 6.563-12.712 11.841-22.901 11.841-12.07 0-21.065-7.71-23.543-19.597h71.732c.551-3.121.826-6.379.826-9.775zm-51.08-13.677H86.541c1.928-7.893 8.353-15.053 20.056-15.053 11.703 0 18.128 7.16 20.056 15.053h-20.056z" fill="#00338D"/><path d="M186.82 59.548s2.524 2.479 5.828 2.479c1.79 0 3.397-.918 3.397-2.846 0-4.176-11.061-3.442-11.061-10.647 0-3.901 3.35-6.792 7.848-6.792 4.635 0 6.976 2.524 6.976 2.524l-1.836 3.442s-2.249-2.065-5.186-2.065c-1.973 0-3.534 1.147-3.534 2.8 0 4.175 11.015 3.12 11.015 10.6 0 3.718-2.846 6.839-7.71 6.839-5.232 0-8.078-3.213-8.078-3.213l2.341-3.12zM215.458 41.742c5.69 0 8.628 3.212 8.628 3.212l-2.066 3.167s-2.661-2.478-6.379-2.478c-4.956 0-7.848 3.671-7.848 8.031 0 4.452 2.983 8.399 7.894 8.399 4.039 0 6.792-2.983 6.792-2.983l2.249 3.074s-3.212 3.81-9.179 3.81c-7.159 0-12.116-5.324-12.116-12.208 0-6.838 5.14-12.024 12.025-12.024zM229.134 42.109h4.268v9.913h10.739v-9.913h4.268v23.406h-4.268v-9.822h-10.739v9.822h-4.268V42.109zM265.298 41.742c6.884 0 12.116 5.232 12.116 11.932 0 6.884-5.232 12.254-12.116 12.254-6.884 0-12.116-5.37-12.116-12.254 0-6.7 5.232-11.932 12.116-11.932zm0 20.285c4.268 0 7.711-3.58 7.711-8.399 0-4.635-3.443-8.031-7.711-8.031-4.268 0-7.71 3.442-7.71 8.031 0 4.865 3.396 8.399 7.71 8.399zM292.697 41.742c6.884 0 12.116 5.232 12.116 11.932 0 6.884-5.232 12.254-12.116 12.254-6.884 0-12.116-5.37-12.116-12.254 0-6.7 5.232-11.932 12.116-11.932zm0 20.285c4.268 0 7.71-3.58 7.71-8.399 0-4.635-3.442-8.031-7.71-8.031s-7.71 3.442-7.71 8.031c0 4.865 3.396 8.399 7.71 8.399zM309.586 42.109h4.268v19.734h10.143v3.672h-14.365V42.109h-.046zM346.852 41.742c6.884 0 12.116 5.232 12.116 11.932 0 6.884-5.232 12.254-12.116 12.254-6.884 0-12.116-5.37-12.116-12.254.045-6.7 5.232-11.932 12.116-11.932zm0 20.285c4.268 0 7.71-3.58 7.71-8.399 0-4.635-3.442-8.031-7.71-8.031-4.269 0-7.711 3.442-7.711 8.031 0 4.865 3.442 8.399 7.711 8.399zM363.787 42.109h13.446v3.671h-9.178v6.609h7.756v3.671h-7.756v9.455h-4.268V42.109zM197.926 90.756h-8.215l-1.973 6.012h-4.406l8.261-23.406h4.451l8.261 23.406h-4.406l-1.973-6.012zm-4.13-13.355s-.551 2.295-1.01 3.626l-2.065 6.287h6.149l-2.065-6.287c-.413-1.331-.918-3.626-.918-3.626h-.091zM207.793 73.362h7.573c2.524 0 3.671.184 4.727.643 2.34 1.056 3.809 3.304 3.809 6.38 0 2.799-1.469 5.415-3.947 6.378v.046s.321.322.78 1.148l4.819 8.72h-4.727l-4.635-8.72h-4.085v8.72h-4.314V73.362zm8.078 10.97c2.294 0 3.671-1.332 3.671-3.672 0-2.25-.964-3.626-4.268-3.626h-3.213v7.343h3.81v-.046zM240.24 72.95c5.691 0 8.628 3.212 8.628 3.212l-2.065 3.167s-2.662-2.479-6.379-2.479c-4.957 0-7.848 3.672-7.848 8.032 0 4.452 2.983 8.398 7.894 8.398 4.038 0 6.792-2.983 6.792-2.983l2.249 3.075s-3.213 3.81-9.179 3.81c-7.159 0-12.116-5.324-12.116-12.208 0-6.793 5.14-12.025 12.024-12.025zM253.962 73.362h4.269v9.914h10.739v-9.913h4.268v23.405h-4.268v-9.82h-10.739v9.82h-4.269V73.362zM279.617 73.362h4.268v23.406h-4.268V73.362zM295.129 77.034h-7.664v-3.672h19.643v3.672h-7.665v19.734h-4.268l-.046-19.734zM310.642 73.362h13.997v3.672h-9.775v6.15h7.894v3.671h-7.894v6.288h10.28v3.671h-14.548V73.363h.046zM340.381 72.95c5.69 0 8.628 3.212 8.628 3.212l-2.066 3.167s-2.661-2.479-6.379-2.479c-4.956 0-7.848 3.672-7.848 8.032 0 4.452 2.983 8.398 7.894 8.398 4.039 0 6.792-2.983 6.792-2.983l2.249 3.075s-3.212 3.81-9.179 3.81c-7.159 0-12.116-5.324-12.116-12.208 0-6.793 5.141-12.025 12.025-12.025zM358.922 77.034h-7.664v-3.672H370.9v3.672h-7.664v19.734h-4.268V77.034h-.046zM374.113 73.362h4.268V88.37c0 3.12 2.065 4.91 5.186 4.91s5.232-1.79 5.232-4.956V73.362h4.268V88.37c0 5.232-3.809 8.811-9.454 8.811-5.691 0-9.454-3.58-9.454-8.811l-.046-15.008zM399.125 73.362h7.572c2.524 0 3.672.184 4.727.643 2.341 1.056 3.81 3.304 3.81 6.38 0 2.799-1.469 5.415-3.947 6.378v.046s.321.322.78 1.148l4.819 8.72h-4.727l-4.636-8.72h-4.084v8.72h-4.268l-.046-23.315zm8.077 10.97c2.295 0 3.672-1.332 3.672-3.672 0-2.25-.964-3.626-4.269-3.626h-3.212v7.343h3.809v-.046zM421.337 73.362h13.998v3.672h-9.775v6.15h7.893v3.671h-7.893v6.288h10.28v3.671h-14.548l.045-23.451zM188.793 115.539v-.046s-2.983-1.147-2.983-5.094c0-4.176 3.35-6.15 7.389-6.15 1.468 0 3.075.413 3.075.413l-1.01 3.35s-.78-.183-1.56-.183c-1.974 0-3.58 1.101-3.58 3.121 0 1.331.78 3.12 3.58 3.12h3.717v-3.029h4.176v3.029h3.029v3.672h-3.029v2.754c0 4.772-3.12 7.939-8.398 7.939-5.094 0-8.399-3.075-8.399-7.022 0-2.57 1.515-5.002 3.993-5.874zm4.36 8.949c2.616 0 4.222-1.468 4.222-4.268v-2.524h-3.947c-2.616 0-4.268 1.147-4.268 3.442 0 1.836 1.606 3.35 3.993 3.35zM217.936 104.57h7.985c7.206 0 11.933 4.268 11.933 11.657s-4.727 11.749-11.933 11.749h-7.985V104.57zm7.756 19.781c4.727 0 7.802-2.8 7.802-8.078 0-5.232-3.121-8.031-7.802-8.031h-3.488v16.109h3.488zM242.81 104.57h13.998v3.672h-9.775v6.15h7.893v3.671h-7.893v6.288h10.326v3.671H242.81V104.57zM262.774 122.01s2.524 2.478 5.829 2.478c1.79 0 3.396-.918 3.396-2.845 0-4.176-11.061-3.442-11.061-10.647 0-3.901 3.351-6.793 7.848-6.793 4.636 0 6.976 2.524 6.976 2.524l-1.836 3.442s-2.248-2.065-5.186-2.065c-1.973 0-3.533 1.148-3.533 2.8 0 4.176 11.014 3.12 11.014 10.601 0 3.718-2.845 6.838-7.71 6.838-5.232 0-8.077-3.212-8.077-3.212l2.34-3.121zM280.994 104.57h4.268v23.406h-4.268V104.57zM302.197 104.203c5.737 0 8.72 2.983 8.72 2.983l-2.111 3.167s-2.525-2.249-6.242-2.249c-5.232 0-8.031 3.626-8.031 8.032 0 5.094 3.442 8.398 7.847 8.398 3.534 0 5.875-2.432 5.875-2.432v-2.754h-3.626v-3.671h7.435v12.345h-3.626v-1.101c0-.505.046-1.01.046-1.01h-.046s-2.432 2.524-6.792 2.524c-6.15 0-11.473-4.773-11.473-12.116-.046-6.838 5.048-12.116 12.024-12.116zM317.25 104.57h4.268l8.858 13.539c.872 1.331 1.927 3.626 1.927 3.626h.046s-.229-2.249-.229-3.626V104.57h4.222v23.406h-4.222l-8.858-13.493c-.872-1.33-1.927-3.625-1.927-3.625h-.046s.229 2.249.229 3.625v13.493h-4.268V104.57z" fill="#000"/></svg>