<svg fill="none" xmlns="http://www.w3.org/2000/svg" viewBox="0 0 507 174"><g clip-path="url(#clip0)"><path d="M493.437 143.58H181.129v15.604h312.308V143.58zM30.505 7c10.74 0 19.505 8.72 19.505 19.505 0 10.785-8.766 19.505-19.505 19.505C19.72 46.01 11 37.29 11 26.505 11 15.72 19.72 7 30.505 7z" fill="#0097DC"/><path d="M46.109 57.759H14.9V159.23h31.208V57.759zM157.723 108.793v-.551c-.092-29.418-19.781-53.237-51.906-53.237-32.126 0-51.769 23.819-51.906 53.237v.551c0 32.309 25.012 53.145 56.266 53.145 16.246 0 32.722-7.297 42.727-20.01l-21.295-15.604c-5.599 6.563-12.713 11.841-22.901 11.841-12.07 0-21.065-7.71-23.544-19.597h71.687a56.19 56.19 0 00.872-9.775zm-51.08-13.677H86.587c1.928-7.894 8.353-15.053 20.056-15.053 11.703 0 18.128 7.16 20.055 15.053h-20.055z" fill="#00338D"/><path d="M185.03 104.57h8.398c4.222 0 7.205 2.157 7.205 6.013 0 2.157-1.055 4.038-2.845 5.002v.046c2.57.78 3.809 3.121 3.809 5.507 0 4.681-3.763 6.792-8.077 6.792h-8.49v-23.36zm8.352 9.546c1.836 0 2.892-1.331 2.892-2.983 0-1.698-1.01-2.891-2.984-2.891h-4.038v5.92h4.13v-.046zm.413 10.189c2.157 0 3.396-1.423 3.396-3.396 0-1.928-1.239-3.351-3.396-3.351h-4.543v6.747h4.543zM206.37 104.57h4.268v15.008c0 3.121 2.065 4.91 5.186 4.91s5.232-1.789 5.232-4.956V104.57h4.268v15.008c0 5.232-3.809 8.811-9.454 8.811-5.691 0-9.454-3.579-9.454-8.811l-.046-15.008zM231.887 121.964s2.524 2.478 5.829 2.478c1.79 0 3.396-.917 3.396-2.845 0-4.176-11.061-3.442-11.061-10.647 0-3.901 3.351-6.793 7.848-6.793 4.636 0 6.976 2.525 6.976 2.525l-1.836 3.442s-2.248-2.066-5.186-2.066c-1.973 0-3.533 1.148-3.533 2.8 0 4.176 11.014 3.121 11.014 10.601 0 3.718-2.845 6.839-7.71 6.839-5.232 0-8.077-3.213-8.077-3.213l2.34-3.121zM250.107 104.57h4.268v23.406h-4.268V104.57zM260.8 104.57h4.268l8.858 13.539c.872 1.331 1.927 3.626 1.927 3.626h.046s-.229-2.249-.229-3.626V104.57h4.222v23.406h-4.222l-8.858-13.492c-.872-1.331-1.927-3.626-1.927-3.626h-.092s.23 2.249.23 3.626v13.492h-4.269V104.57h.046zM286.363 104.57h13.998v3.672h-9.775v6.15h7.893v3.671h-7.893v6.288h10.28v3.671h-14.503V104.57zM306.327 121.964s2.524 2.478 5.828 2.478c1.79 0 3.397-.917 3.397-2.845 0-4.176-11.061-3.442-11.061-10.647 0-3.901 3.35-6.793 7.848-6.793 4.635 0 6.976 2.525 6.976 2.525l-1.836 3.442s-2.249-2.066-5.186-2.066c-1.973 0-3.534 1.148-3.534 2.8 0 4.176 11.015 3.121 11.015 10.601 0 3.718-2.846 6.839-7.71 6.839-5.232 0-8.078-3.213-8.078-3.213l2.341-3.121zM325.098 121.964s2.524 2.478 5.828 2.478c1.79 0 3.396-.917 3.396-2.845 0-4.176-11.06-3.442-11.06-10.647 0-3.901 3.35-6.793 7.848-6.793 4.635 0 6.976 2.525 6.976 2.525l-1.836 3.442s-2.249-2.066-5.186-2.066c-1.974 0-3.534 1.148-3.534 2.8 0 4.176 11.015 3.121 11.015 10.601 0 3.718-2.846 6.839-7.711 6.839-5.231 0-8.077-3.213-8.077-3.213l2.341-3.121zM352.359 121.964s2.524 2.478 5.828 2.478c1.79 0 3.396-.917 3.396-2.845 0-4.176-11.06-3.442-11.06-10.647 0-3.901 3.35-6.793 7.848-6.793 4.635 0 6.976 2.525 6.976 2.525l-1.836 3.442s-2.249-2.066-5.186-2.066c-1.974 0-3.534 1.148-3.534 2.8 0 4.176 11.015 3.121 11.015 10.601 0 3.718-2.846 6.839-7.711 6.839-5.232 0-8.077-3.213-8.077-3.213l2.341-3.121zM380.997 104.157c5.69 0 8.628 3.213 8.628 3.213l-2.066 3.167s-2.661-2.479-6.379-2.479c-4.956 0-7.848 3.672-7.848 8.032 0 4.451 2.983 8.398 7.894 8.398 4.039 0 6.792-2.983 6.792-2.983l2.249 3.075s-3.212 3.809-9.179 3.809c-7.159 0-12.116-5.323-12.116-12.207 0-6.793 5.141-12.025 12.025-12.025zM394.719 104.57h4.268v9.914h10.739v-9.914h4.268v23.406h-4.268v-9.821h-10.739v9.821h-4.268V104.57zM430.837 104.157c6.884 0 12.116 5.232 12.116 11.933 0 6.884-5.232 12.253-12.116 12.253-6.884 0-12.116-5.369-12.116-12.253 0-6.655 5.232-11.933 12.116-11.933zm0 20.331c4.268 0 7.71-3.579 7.71-8.398 0-4.636-3.442-8.032-7.71-8.032s-7.71 3.442-7.71 8.032c0 4.819 3.442 8.398 7.71 8.398zM458.236 104.157c6.884 0 12.116 5.232 12.116 11.933 0 6.884-5.232 12.253-12.116 12.253-6.884 0-12.116-5.369-12.116-12.253 0-6.655 5.232-11.933 12.116-11.933zm0 20.331c4.268 0 7.71-3.579 7.71-8.398 0-4.636-3.442-8.032-7.71-8.032s-7.71 3.442-7.71 8.032c0 4.819 3.442 8.398 7.71 8.398zM475.171 104.57h4.268v19.735h10.142v3.671h-14.364l-.046-23.406z" fill="#000"/></g><defs><clipPath id="clip0"><path d="M11 7h482.437v154.938H11V7z" fill="#fff"/></clipPath></defs></svg>