<svg fill="none" xmlns="http://www.w3.org/2000/svg" viewBox="0 0 507 174"><g clip-path="url(#clip0)"><path d="M30.607 7.387A19.505 19.505 0 1111.102 26.89 19.519 19.519 0 0130.607 7.387z" fill="#0097DC"/><path d="M46.21 58.145H15.002v101.472H46.21V58.145zM157.824 109.179v-.551c-.137-29.418-19.78-53.19-51.906-53.19s-51.768 23.818-51.906 53.19v.551c0 32.31 25.012 53.145 56.266 53.145 16.247 0 32.722-7.297 42.727-20.009l-21.294-15.604c-5.599 6.563-12.713 11.84-22.901 11.84-12.07 0-21.066-7.71-23.544-19.596h71.686c.578-3.227.87-6.498.872-9.776zm-51.08-13.63H86.689c1.927-7.894 8.352-15.053 20.055-15.053s18.128 7.159 20.056 15.053h-20.056z" fill="#00338D"/><path d="M443.055 144.013H181.184v15.604h261.871v-15.604z" fill="#0097A9"/><path d="M185.039 104.865h9.041c4.406 0 7.435 3.075 7.435 7.618 0 4.544-3.075 7.711-7.435 7.711h-4.773v8.077h-4.268v-23.406zm8.261 11.611c2.478 0 3.947-1.56 3.947-4.038 0-2.387-1.469-3.947-3.855-3.947h-4.039v7.985h3.947zM205.462 104.865h4.268v15.007c0 3.121 2.066 4.911 5.186 4.911 3.121 0 5.232-1.79 5.232-4.957v-14.961h4.268v15.007c0 5.232-3.809 8.812-9.408 8.812-5.691 0-9.454-3.58-9.454-8.812v-15.007h-.092zM230.428 104.865h8.353c4.222 0 7.205 2.157 7.205 6.012a5.544 5.544 0 01-2.845 5.003v.045c2.57.781 3.809 3.121 3.809 5.508 0 4.681-3.763 6.792-8.077 6.792h-8.491v-23.36h.046zm8.399 9.546c1.836 0 2.891-1.331 2.891-2.983 0-1.652-1.01-2.891-2.983-2.891h-4.039v5.92h4.131v-.046zm.413 10.188c2.157 0 3.396-1.422 3.396-3.396 0-1.973-1.239-3.35-3.396-3.35h-4.544v6.746h4.544zM252.09 104.865h4.268v19.734h10.143v3.672h-14.365v-23.406h-.046zM270.356 104.865h4.268v23.406h-4.268v-23.406zM291.467 104.452c5.691 0 8.628 3.213 8.628 3.213l-2.065 3.166a10.266 10.266 0 00-6.379-2.478c-4.957 0-7.848 3.672-7.848 8.032 0 4.451 2.983 8.352 7.894 8.352 4.038 0 6.792-2.983 6.792-2.983l2.249 3.075a12.513 12.513 0 01-9.179 3.809c-7.16 0-12.116-5.324-12.116-12.208 0-6.746 5.14-11.978 12.024-11.978zM325.291 122.259h-8.215l-1.973 6.012h-4.406l8.261-23.406h4.451l8.261 23.406h-4.406l-1.973-6.012zm-4.085-13.355a33.45 33.45 0 01-1.009 3.625l-2.065 6.288h6.149l-2.065-6.288c-.413-1.331-.918-3.625-.918-3.625h-.092zM335.158 104.865h13.447v3.672h-9.179v6.608h7.756v3.672h-7.756v9.454h-4.268v-23.406zM353.103 104.865h13.447v3.672h-9.179v6.608h7.756v3.672h-7.756v9.454h-4.268v-23.406zM381.924 122.259h-8.215l-1.973 6.012h-4.406l8.261-23.406h4.451l8.261 23.406h-4.405l-1.974-6.012zm-4.13-13.355a33.683 33.683 0 01-1.01 3.625l-2.065 6.288h6.15l-2.066-6.288c-.413-1.331-.918-3.625-.918-3.625h-.091zM391.792 104.865h4.268v23.406h-4.268v-23.406zM402.484 104.865h7.573c2.524 0 3.671.184 4.727.643 2.341 1.055 3.809 3.304 3.809 6.379 0 2.799-1.468 5.415-3.947 6.379v.046c.307.349.569.734.78 1.147l4.819 8.72h-4.727l-4.635-8.72h-4.085v8.72h-4.268v-23.314h-.046zm8.078 10.969c2.294 0 3.671-1.331 3.671-3.672 0-2.249-.964-3.625-4.268-3.625h-3.212v7.297h3.809zM425.202 122.259s2.524 2.478 5.828 2.478c1.79 0 3.397-.918 3.397-2.845 0-4.177-11.061-3.442-11.061-10.648 0-3.901 3.35-6.792 7.848-6.792 4.635 0 6.976 2.524 6.976 2.524l-1.836 3.442s-2.249-2.065-5.186-2.065c-1.973 0-3.534 1.147-3.534 2.8 0 4.176 11.015 3.12 11.015 10.601 0 3.718-2.846 6.838-7.71 6.838a11.247 11.247 0 01-8.078-3.212l2.341-3.121zM195.503 73.198c5.737 0 8.72 2.983 8.72 2.983l-2.111 3.167a10.144 10.144 0 00-6.242-2.249c-5.231 0-8.031 3.626-8.031 8.032 0 5.094 3.442 8.352 7.848 8.352a8.825 8.825 0 005.874-2.432v-2.754h-3.579v-3.671h7.434V96.97h-3.625V95.87c0-.505.046-1.01.046-1.01h-.046a9.868 9.868 0 01-6.793 2.524c-6.149 0-11.473-4.773-11.473-12.116-.046-6.792 5.048-12.07 11.978-12.07zM210.602 73.611h4.268v19.735h10.143v3.671h-14.365V73.611h-.046zM238.965 73.198c6.884 0 12.116 5.232 12.116 11.933 0 6.884-5.232 12.253-12.116 12.253-6.884 0-12.116-5.37-12.116-12.253 0-6.655 5.232-11.933 12.116-11.933zm0 20.331c4.268 0 7.71-3.58 7.71-8.352 0-4.636-3.442-8.032-7.71-8.032-4.269 0-7.711 3.442-7.711 8.032 0 4.772 3.397 8.352 7.711 8.352zM255.854 73.611h8.398c4.222 0 7.205 2.157 7.205 6.013a5.544 5.544 0 01-2.845 5.002v.046c2.57.78 3.809 3.12 3.809 5.507 0 4.681-3.763 6.792-8.077 6.792h-8.49v-23.36zm8.398 9.546c1.836 0 2.891-1.33 2.891-2.983 0-1.652-1.009-2.891-2.983-2.891h-4.038v5.92h4.13v-.046zm.413 10.189c2.157 0 3.396-1.423 3.396-3.396 0-1.974-1.239-3.35-3.396-3.35h-4.543v6.746h4.543zM289.173 91.005h-8.215l-1.974 6.012h-4.406l8.261-23.406h4.452l8.261 23.406h-4.406l-1.973-6.012zm-4.131-13.355a33.485 33.485 0 01-1.01 3.626l-2.065 6.287h6.15l-2.065-6.287c-.413-1.331-.918-3.626-.918-3.626h-.092zM299.04 73.611h4.268v19.735h10.142v3.671h-14.364V73.611h-.046zM328.32 84.58v-.046s-2.983-1.147-2.983-5.094c0-4.177 3.35-6.15 7.389-6.15 1.037.027 2.068.165 3.075.413l-1.01 3.35a7.8 7.8 0 00-1.56-.183c-1.974 0-3.58 1.101-3.58 3.12 0 1.332.78 3.121 3.58 3.121h3.717v-3.029h4.177v3.03h3.029v3.67h-3.029v2.755c0 4.772-3.121 7.94-8.399 7.94-5.094 0-8.353-3.076-8.353-7.023a5.963 5.963 0 013.947-5.874zm4.36 8.95c2.616 0 4.222-1.47 4.222-4.269v-2.57h-3.947c-2.616 0-4.268 1.147-4.268 3.442 0 1.882 1.607 3.396 3.993 3.396zM185.59 59.797s2.524 2.479 5.829 2.479c1.789 0 3.396-.918 3.396-2.846 0-4.176-11.061-3.442-11.061-10.647 0-3.901 3.351-6.793 7.848-6.793 4.635 0 6.976 2.525 6.976 2.525l-1.836 3.442s-2.248-2.066-5.186-2.066c-1.973 0-3.534 1.148-3.534 2.8 0 4.176 11.015 3.12 11.015 10.601 0 3.718-2.845 6.839-7.71 6.839a11.248 11.248 0 01-8.077-3.213l2.34-3.12zM214.228 41.99c5.691 0 8.628 3.213 8.628 3.213l-2.065 3.167a10.264 10.264 0 00-6.38-2.479c-4.956 0-7.847 3.672-7.847 8.032 0 4.451 2.983 8.352 7.893 8.352 4.039 0 6.793-2.983 6.793-2.983l2.248 3.075a12.506 12.506 0 01-9.178 3.81c-7.16 0-12.116-5.324-12.116-12.208 0-6.747 5.14-11.979 12.024-11.979zM227.904 42.404h4.268v9.913h10.74v-9.913h4.268v23.405h-4.268v-9.82h-10.74v9.82h-4.268V42.404zM264.069 41.99c6.884 0 12.116 5.232 12.116 11.933 0 6.884-5.232 12.254-12.116 12.254-6.884 0-12.116-5.37-12.116-12.254 0-6.7 5.186-11.933 12.116-11.933zm0 20.331c4.268 0 7.71-3.58 7.71-8.352 0-4.636-3.442-8.032-7.71-8.032-4.269 0-7.711 3.442-7.711 8.032-.045 4.773 3.397 8.352 7.711 8.352zM291.467 41.99c6.884 0 12.116 5.232 12.116 11.933 0 6.884-5.232 12.254-12.116 12.254-6.884 0-12.116-5.37-12.116-12.254 0-6.7 5.186-11.933 12.116-11.933zm0 20.331c4.268 0 7.71-3.58 7.71-8.352 0-4.636-3.442-8.032-7.71-8.032s-7.71 3.442-7.71 8.032c-.046 4.773 3.396 8.352 7.71 8.352zM308.356 42.404h4.268v19.734h10.143v3.671h-14.365V42.404h-.046zM345.622 41.99c6.884 0 12.116 5.232 12.116 11.933 0 6.884-5.232 12.254-12.116 12.254-6.884 0-12.116-5.37-12.116-12.254 0-6.7 5.232-11.933 12.116-11.933zm0 20.331c4.268 0 7.71-3.58 7.71-8.352 0-4.636-3.442-8.032-7.71-8.032s-7.71 3.442-7.71 8.032c0 4.773 3.442 8.352 7.71 8.352zM362.557 42.404h13.447v3.671h-9.179v6.609h7.756v3.671h-7.756v9.454h-4.268V42.404z" fill="#222221"/></g><defs><clipPath id="clip0"><path d="M10 5h435.992v157.875H10V5z" fill="#fff"/></clipPath></defs></svg>