<svg width="507" height="174" viewBox="0 0 507 174" fill="none" xmlns="http://www.w3.org/2000/svg">
<path d="M481.045 143.626H180.945V159.23H481.045V143.626Z" fill="#7AA52B"/>
<path d="M30.5049 7C41.2441 7 50.0098 15.7198 50.0098 26.5049C50.0098 37.29 41.2441 46.0557 30.5049 46.0557C19.7198 46.0557 11 37.29 11 26.5049C11 15.7198 19.7198 7 30.5049 7Z" fill="#0097DC"/>
<path d="M46.1085 57.7588H14.9006V159.23H46.1085V57.7588Z" fill="#00338D"/>
<path d="M157.676 108.793V108.242C157.585 78.8241 137.896 55.0051 105.771 55.0051C73.6448 55.0051 54.0022 78.8241 53.8645 108.242V108.793C53.8645 141.102 78.8767 161.938 110.13 161.938C126.377 161.938 142.853 154.641 152.858 141.928L131.563 126.324C125.964 132.887 118.85 138.165 108.662 138.165C96.5917 138.165 87.5965 130.455 85.1182 118.568H156.805C157.401 115.493 157.676 112.235 157.676 108.793ZM106.597 95.1623H86.541C88.4685 87.2685 94.8936 80.1091 106.597 80.1091C118.3 80.1091 124.725 87.2685 126.652 95.1623H106.597Z" fill="#00338D"/>
<path d="M185.213 59.5485C185.213 59.5485 187.737 62.0268 191.041 62.0268C192.831 62.0268 194.438 61.1089 194.438 59.1814C194.438 55.005 183.377 55.7393 183.377 48.534C183.377 44.633 186.727 41.7417 191.225 41.7417C195.86 41.7417 198.201 44.2659 198.201 44.2659L196.365 47.7079C196.365 47.7079 194.116 45.6427 191.179 45.6427C189.206 45.6427 187.645 46.79 187.645 48.4422C187.645 52.6186 198.66 51.563 198.66 59.0437C198.66 62.7611 195.814 65.8819 190.95 65.8819C185.718 65.8819 182.872 62.6693 182.872 62.6693L185.213 59.5485Z" fill="black"/>
<path d="M213.897 41.7417C219.587 41.7417 222.525 44.9543 222.525 44.9543L220.459 48.121C220.459 48.121 217.798 45.6427 214.08 45.6427C209.124 45.6427 206.232 49.3142 206.232 53.6741C206.232 58.1258 209.215 62.0727 214.126 62.0727C218.165 62.0727 220.918 59.0896 220.918 59.0896L223.167 62.1645C223.167 62.1645 219.955 65.9737 213.988 65.9737C206.829 65.9737 201.872 60.65 201.872 53.7659C201.826 46.9736 206.967 41.7417 213.897 41.7417Z" fill="black"/>
<path d="M227.573 42.1547H231.841V52.0678H242.58V42.1547H246.848V65.5606H242.58V55.7393H231.841V65.5606H227.573V42.1547Z" fill="black"/>
<path d="M263.691 41.7417C270.576 41.7417 275.807 46.9736 275.807 53.6741C275.807 60.5582 270.576 65.9278 263.691 65.9278C256.807 65.9278 251.575 60.5582 251.575 53.6741C251.621 47.0195 256.807 41.7417 263.691 41.7417ZM263.691 62.0727C267.96 62.0727 271.402 58.493 271.402 53.6741C271.402 49.0388 267.96 45.6427 263.691 45.6427C259.423 45.6427 255.981 49.0847 255.981 53.6741C255.981 58.493 259.423 62.0727 263.691 62.0727Z" fill="black"/>
<path d="M291.09 41.7417C297.974 41.7417 303.206 46.9736 303.206 53.6741C303.206 60.5582 297.974 65.9278 291.09 65.9278C284.206 65.9278 278.974 60.5582 278.974 53.6741C279.02 47.0195 284.206 41.7417 291.09 41.7417ZM291.09 62.0727C295.358 62.0727 298.8 58.493 298.8 53.6741C298.8 49.0388 295.358 45.6427 291.09 45.6427C286.822 45.6427 283.38 49.0847 283.38 53.6741C283.38 58.493 286.822 62.0727 291.09 62.0727Z" fill="black"/>
<path d="M308.025 42.1547H312.293V61.8891H322.436V65.5606H308.071L308.025 42.1547Z" fill="black"/>
<path d="M345.291 41.7417C352.175 41.7417 357.407 46.9736 357.407 53.6741C357.407 60.5582 352.175 65.9278 345.291 65.9278C338.406 65.9278 333.175 60.5582 333.175 53.6741C333.175 47.0195 338.406 41.7417 345.291 41.7417ZM345.291 62.0727C349.559 62.0727 353.001 58.493 353.001 53.6741C353.001 49.0388 349.559 45.6427 345.291 45.6427C341.022 45.6427 337.58 49.0847 337.58 53.6741C337.58 58.493 340.977 62.0727 345.291 62.0727Z" fill="black"/>
<path d="M362.18 42.1547H375.627V45.8262H366.448V52.435H374.204V56.1065H366.448V65.5606H362.18V42.1547Z" fill="black"/>
<path d="M184.708 73.3626H188.976V83.2757H199.715V73.3626H203.983V96.7685H199.715V86.9472H188.976V96.7685H184.708V73.3626Z" fill="black"/>
<path d="M210.042 73.3626H214.31V88.3699C214.31 91.4907 216.375 93.2806 219.496 93.2806C222.616 93.2806 224.728 91.4907 224.728 88.324V73.3626H228.996V88.3699C228.996 93.6018 225.186 97.1815 219.587 97.1815C213.897 97.1815 210.133 93.6018 210.133 88.3699L210.042 73.3626Z" fill="black"/>
<path d="M236.201 73.3626H240.744L245.334 84.9279C245.838 86.3047 246.527 88.3699 246.527 88.3699H246.573C246.573 88.3699 247.215 86.3047 247.72 84.9279L252.31 73.3626H256.853L258.735 96.7685H254.512L253.503 83.6887C253.411 82.1283 253.457 80.0631 253.457 80.0631H253.411C253.411 80.0631 252.723 82.3578 252.172 83.6887L248.363 92.7757H244.645L240.882 83.6887C240.331 82.3578 239.597 80.0172 239.597 80.0172H239.551C239.551 80.0172 239.597 82.1283 239.505 83.6887L238.495 96.7685H234.227L236.201 73.3626Z" fill="black"/>
<path d="M276.083 90.8022H267.868L265.894 96.8143H261.534L269.795 73.4084H274.247L282.508 96.8143H278.056L276.083 90.8022ZM271.998 77.4471C271.998 77.4471 271.493 79.7418 270.988 81.0727L268.923 87.3602H275.073L273.008 81.0727C272.595 79.7418 272.09 77.4471 272.09 77.4471H271.998Z" fill="black"/>
<path d="M285.95 73.3626H290.218L299.076 86.9013C299.948 88.2322 301.003 90.5269 301.003 90.5269H301.049C301.049 90.5269 300.82 88.2781 300.82 86.9013V73.3626H305.042V96.7685H300.82L291.962 83.2757C291.09 81.9448 290.034 79.6501 290.034 79.6501H289.989C289.989 79.6501 290.218 81.8989 290.218 83.2757V96.7685H285.95V73.3626Z" fill="black"/>
<path d="M320.554 90.8023C320.554 90.8023 323.078 93.2805 326.382 93.2805C328.172 93.2805 329.778 92.3626 329.778 90.4351C329.778 86.2588 318.718 86.9931 318.718 79.7877C318.718 75.8867 322.068 72.9954 326.566 72.9954C331.201 72.9954 333.542 75.5196 333.542 75.5196L331.706 78.9616C331.706 78.9616 329.457 76.8964 326.52 76.8964C324.546 76.8964 322.986 78.0438 322.986 79.6959C322.986 83.8723 334.001 82.8167 334.001 90.2974C334.001 94.0148 331.155 97.1356 326.29 97.1356C321.059 97.1356 318.213 93.923 318.213 93.923L320.554 90.8023Z" fill="black"/>
<path d="M349.192 72.9954C354.883 72.9954 357.82 76.208 357.82 76.208L355.755 79.3747C355.755 79.3747 353.093 76.8964 349.375 76.8964C344.419 76.8964 341.527 80.5679 341.527 84.9278C341.527 89.3795 344.511 93.3264 349.421 93.3264C353.46 93.3264 356.213 90.3433 356.213 90.3433L358.462 93.4182C358.462 93.4182 355.25 97.2274 349.283 97.2274C342.124 97.2274 337.167 91.9037 337.167 85.0196C337.167 78.1814 342.308 72.9954 349.192 72.9954Z" fill="black"/>
<path d="M362.868 73.3626H367.136V96.7685H362.868V73.3626Z" fill="black"/>
<path d="M373.561 73.3626H387.559V77.0341H377.784V83.1839H385.677V86.8554H377.784V93.1429H388.064V96.8144H373.515L373.561 73.3626Z" fill="black"/>
<path d="M393.02 73.3626H397.288L406.146 86.9013C407.018 88.2322 408.073 90.5269 408.073 90.5269H408.119C408.119 90.5269 407.89 88.2781 407.89 86.9013V73.3626H412.112V96.7685H407.936L399.078 83.2757C398.206 81.9448 397.151 79.6501 397.151 79.6501H397.105C397.105 79.6501 397.334 81.8989 397.334 83.2757V96.7685H393.066V73.3626H393.02Z" fill="black"/>
<path d="M429.001 72.9954C434.692 72.9954 437.629 76.208 437.629 76.208L435.564 79.3747C435.564 79.3747 432.902 76.8964 429.185 76.8964C424.228 76.8964 421.337 80.5679 421.337 84.9278C421.337 89.3795 424.32 93.3264 429.231 93.3264C433.269 93.3264 436.023 90.3433 436.023 90.3433L438.272 93.4182C438.272 93.4182 435.059 97.2274 429.093 97.2274C421.934 97.2274 416.977 91.9037 416.977 85.0196C416.977 78.1814 422.117 72.9954 429.001 72.9954Z" fill="black"/>
<path d="M442.677 73.3626H456.675V77.0341H446.946V83.1839H454.839V86.8554H446.946V93.1429H457.226V96.8144H442.677V73.3626Z" fill="black"/>
<path d="M462.687 90.8023C462.687 90.8023 465.211 93.2805 468.516 93.2805C470.306 93.2805 471.912 92.3626 471.912 90.4351C471.912 86.2588 460.852 86.9931 460.852 79.7877C460.852 75.8867 464.202 72.9954 468.699 72.9954C473.335 72.9954 475.675 75.5196 475.675 75.5196L473.839 78.9616C473.839 78.9616 471.591 76.8964 468.653 76.8964C466.68 76.8964 465.12 78.0438 465.12 79.6959C465.12 83.8723 476.134 82.8167 476.134 90.2974C476.134 94.0148 473.289 97.1356 468.424 97.1356C463.192 97.1356 460.347 93.923 460.347 93.923L462.687 90.8023Z" fill="black"/>
<path d="M187.186 115.539V115.493C187.186 115.493 184.203 114.346 184.203 110.399C184.203 106.223 187.554 104.249 191.592 104.249C193.061 104.249 194.667 104.662 194.667 104.662L193.657 108.012C193.657 108.012 192.877 107.829 192.097 107.829C190.124 107.829 188.517 108.93 188.517 110.95C188.517 112.281 189.298 114.07 192.097 114.07H195.814V111.041H199.991V114.07H203.02V117.742H199.991V120.496C199.991 125.269 196.87 128.435 191.592 128.435C186.498 128.435 183.194 125.36 183.194 121.413C183.194 118.843 184.708 116.411 187.186 115.539ZM191.592 124.534C194.208 124.534 195.814 123.066 195.814 120.266V117.742H191.868C189.252 117.742 187.599 118.889 187.599 121.184C187.554 123.02 189.16 124.534 191.592 124.534Z" fill="black"/>
<path d="M221.194 108.242H213.529V104.57H233.172V108.242H225.508V127.976H221.239L221.194 108.242Z" fill="black"/>
<path d="M236.706 104.616H250.703V108.288H240.928V114.438H248.822V118.109H240.928V124.397H251.208V128.068H236.66V104.616H236.706Z" fill="black"/>
<path d="M266.491 104.203C272.182 104.203 275.119 107.416 275.119 107.416L273.054 110.583C273.054 110.583 270.392 108.104 266.674 108.104C261.718 108.104 258.827 111.776 258.827 116.136C258.827 120.587 261.81 124.534 266.72 124.534C270.759 124.534 273.513 121.551 273.513 121.551L275.761 124.626C275.761 124.626 272.549 128.435 266.583 128.435C259.423 128.435 254.467 123.112 254.467 116.228C254.421 109.435 259.561 104.203 266.491 104.203Z" fill="black"/>
<path d="M280.167 104.616H284.435V114.529H295.175V104.616H299.443V128.022H295.175V118.201H284.435V128.022H280.167V104.616Z" fill="black"/>
<path d="M305.822 104.616H310.09L318.947 118.155C319.819 119.486 320.875 121.781 320.875 121.781H320.921C320.921 121.781 320.691 119.532 320.691 118.155V104.616H324.914V128.022H320.737L311.88 114.529C311.008 113.198 309.952 110.904 309.952 110.904H309.906C309.906 110.904 310.136 113.153 310.136 114.529V128.022H305.868L305.822 104.616Z" fill="black"/>
<path d="M341.849 104.203C348.733 104.203 353.965 109.435 353.965 116.136C353.965 123.02 348.733 128.389 341.849 128.389C334.965 128.389 329.733 123.02 329.733 116.136C329.733 109.435 334.965 104.203 341.849 104.203ZM341.849 124.534C346.117 124.534 349.559 120.955 349.559 116.136C349.559 111.5 346.117 108.104 341.849 108.104C337.581 108.104 334.138 111.546 334.138 116.136C334.138 120.955 337.581 124.534 341.849 124.534Z" fill="black"/>
<path d="M358.783 104.616H363.052V124.351H373.194V128.022H358.829V104.616H358.783Z" fill="black"/>
<path d="M387.146 104.203C394.03 104.203 399.262 109.435 399.262 116.136C399.262 123.02 394.03 128.389 387.146 128.389C380.262 128.389 375.03 123.02 375.03 116.136C375.03 109.435 380.216 104.203 387.146 104.203ZM387.146 124.534C391.414 124.534 394.856 120.955 394.856 116.136C394.856 111.5 391.414 108.104 387.146 108.104C382.878 108.104 379.436 111.546 379.436 116.136C379.39 120.955 382.832 124.534 387.146 124.534Z" fill="black"/>
<path d="M414.544 104.203C420.281 104.203 423.264 107.186 423.264 107.186L421.153 110.353C421.153 110.353 418.629 108.104 414.912 108.104C409.68 108.104 406.88 111.73 406.88 116.136C406.88 121.23 410.322 124.534 414.728 124.534C418.262 124.534 420.602 122.102 420.602 122.102V119.348H417.023V115.677H424.458V128.022H420.832V126.921C420.832 126.416 420.878 125.911 420.878 125.911H420.832C420.832 125.911 418.4 128.435 414.04 128.435C407.89 128.435 402.566 123.662 402.566 116.319C402.474 109.481 407.569 104.203 414.544 104.203Z" fill="black"/>
<path d="M434.371 118.201L426.569 104.57H431.388L435.059 111.455C435.839 112.923 436.436 114.621 436.482 114.575H436.528C436.528 114.575 437.17 112.877 437.951 111.455L441.576 104.57H446.395L438.593 118.201V127.976H434.325L434.371 118.201Z" fill="black"/>
</svg>
