<svg width="507" height="174" viewBox="0 0 507 174" fill="none" xmlns="http://www.w3.org/2000/svg">
<path fill-rule="evenodd" clip-rule="evenodd" d="M58.4859 28.2469C46.1379 28.2469 36.1287 38.261 36.1287 50.615V50.9076C36.1287 64.027 46.745 74.6484 59.8579 74.6484C67.7303 74.6484 74.6803 70.8229 78.9986 64.9269L69.7995 58.1084C67.9327 61.6192 64.2441 64.027 59.9929 64.027C54.7746 64.027 50.4113 60.4264 49.2192 55.5881H80.2584C80.2807 55.5432 80.2807 55.5209 80.3033 55.4756C80.3184 55.4006 80.3359 55.3255 80.3534 55.2504C80.3883 55.1005 80.4233 54.9506 80.4382 54.8007C80.6857 53.4505 80.8205 52.0328 80.8205 50.615C80.8432 38.261 70.8342 28.2469 58.4859 28.2469ZM50.2763 45.5295C51.3336 41.7937 54.7523 39.0484 58.8234 39.0484C62.8945 39.0484 66.3132 41.7937 67.3703 45.5295H50.2763Z" fill="#000066"/>
<path d="M86.0804 97.9786C86.0804 97.9786 87.7466 99.8363 90.773 99.8363C93.6079 99.8363 95.2551 98.0169 95.2551 95.8524C95.2551 93.3608 93.1542 92.492 91.3603 91.7502C90.0238 91.1976 88.8577 90.7154 88.8577 89.6851C88.8577 88.7272 89.7579 88.0568 90.9072 88.0568C92.6118 88.0568 93.9143 89.2444 93.9143 89.2444L94.9867 87.2332C94.9867 87.2332 93.6079 85.7774 90.9262 85.7774C88.3214 85.7774 86.3678 87.463 86.3678 89.7233C86.3678 92.0913 88.4315 92.9809 90.2182 93.751C91.5819 94.3388 92.7843 94.857 92.7843 95.91C92.7843 97.0207 91.8457 97.5573 90.8113 97.5573C88.8959 97.5573 87.4212 96.1205 87.4212 96.1205L86.0804 97.9786Z" fill="#000066"/>
<path d="M16.4622 94.7224C16.4622 97.7677 18.6649 99.8363 21.9594 99.8363C25.2346 99.8363 27.4374 97.7677 27.4374 94.7224V86.0075H24.9665V94.7031C24.9665 96.5418 23.7598 97.5762 21.9401 97.5762C20.1207 97.5762 18.9331 96.5418 18.9331 94.7224V86.0075H16.4622V94.7224Z" fill="#000066"/>
<path d="M15.8352 123.739C15.8352 126.254 17.6402 128.191 20.251 128.191C22.4287 128.191 23.6079 126.807 23.6079 126.807L22.7897 125.689C22.7897 125.689 21.7909 126.772 20.311 126.772C18.5305 126.772 17.4354 125.34 17.4354 123.715C17.4354 122.127 18.4942 120.78 20.2989 120.78C21.6588 120.78 22.6332 121.682 22.6332 121.682L23.3793 120.527C23.3793 120.527 22.3084 119.36 20.2269 119.36C17.7122 119.36 15.8352 121.261 15.8352 123.739Z" fill="#000066"/>
<path d="M25.0374 128.047H30.3434V126.711H26.5893V124.413H29.465V123.078H26.5893V120.84H30.1507V119.504H25.0374V128.047Z" fill="#000066"/>
<path d="M31.9578 128.047H33.51V123.126C33.51 122.621 33.426 121.802 33.426 121.802H33.4497C33.4497 121.802 33.8349 122.633 34.1597 123.126L37.3962 128.047H38.9365V119.504H37.3962V124.437C37.3962 124.943 37.4804 125.761 37.4804 125.761H37.4565C37.4565 125.761 37.0714 124.931 36.7467 124.437L33.51 119.504H31.9578V128.047Z" fill="#000066"/>
<path d="M42.8679 128.047H44.4198V120.84H47.2234V119.504H40.0644V120.84H42.8679V128.047Z" fill="#000066"/>
<path d="M48.3488 128.047H53.6549V126.711H49.9008V124.413H52.7763V123.078H49.9008V120.84H53.4621V119.504H48.3488V128.047Z" fill="#000066"/>
<path fill-rule="evenodd" clip-rule="evenodd" d="M55.2693 128.047H56.8215V124.858H58.3134L60.0098 128.047H61.7424L59.9857 124.858C59.8174 124.558 59.6971 124.437 59.6971 124.437V124.413C60.5994 124.052 61.1408 123.102 61.1408 122.079C61.1408 120.948 60.5994 120.13 59.745 119.745C59.3723 119.576 58.951 119.504 58.0245 119.504H55.2693V128.047ZM56.8215 123.511V120.84H58.0007C59.2158 120.84 59.5647 121.345 59.5647 122.163C59.5647 123.018 59.0471 123.511 58.2172 123.511H56.8215Z" fill="#000066"/>
<path d="M66.1145 128.047H67.6664V124.594H70.4937V123.258H67.6664V120.84H71.0233V119.504H66.1145V128.047Z" fill="#000066"/>
<path fill-rule="evenodd" clip-rule="evenodd" d="M71.893 123.715C71.893 126.23 73.794 128.191 76.3088 128.191C78.8235 128.191 80.7243 126.23 80.7243 123.715C80.7243 121.273 78.8235 119.36 76.3088 119.36C73.794 119.36 71.893 121.273 71.893 123.715ZM73.4933 123.715C73.4933 122.031 74.7445 120.78 76.3088 120.78C77.8729 120.78 79.1241 122.031 79.1241 123.715C79.1241 125.472 77.8729 126.772 76.3088 126.772C74.7445 126.772 73.4933 125.472 73.4933 123.715Z" fill="#000066"/>
<path fill-rule="evenodd" clip-rule="evenodd" d="M82.3055 128.047H83.8575V124.858H85.3494L87.0458 128.047H88.7784L87.0219 124.858C86.8534 124.558 86.733 124.437 86.733 124.437V124.413C87.6353 124.052 88.1767 123.102 88.1767 122.079C88.1767 120.948 87.6353 120.13 86.7813 119.745C86.4083 119.576 85.9872 119.504 85.0608 119.504H82.3055V128.047ZM83.8575 123.511V120.84H85.0366C86.2517 120.84 86.6006 121.345 86.6006 122.163C86.6006 123.018 86.0834 123.511 85.2532 123.511H83.8575Z" fill="#000066"/>
<path d="M15.8352 137.009C15.8352 139.524 17.6402 141.461 20.251 141.461C22.4287 141.461 23.6079 140.077 23.6079 140.077L22.7897 138.958C22.7897 138.958 21.7909 140.041 20.311 140.041C18.5305 140.041 17.4354 138.609 17.4354 136.985C17.4354 135.397 18.4942 134.049 20.2989 134.049C21.6588 134.049 22.6332 134.952 22.6332 134.952L23.3793 133.797C23.3793 133.797 22.3084 132.63 20.2269 132.63C17.7122 132.63 15.8352 134.531 15.8352 137.009Z" fill="#000066"/>
<path fill-rule="evenodd" clip-rule="evenodd" d="M24.4008 136.985C24.4008 139.5 26.3019 141.461 28.8165 141.461C31.3311 141.461 33.232 139.5 33.232 136.985C33.232 134.543 31.3311 132.63 28.8165 132.63C26.3019 132.63 24.4008 134.543 24.4008 136.985ZM26.001 136.985C26.001 135.301 27.2522 134.049 28.8165 134.049C30.3805 134.049 31.6318 135.301 31.6318 136.985C31.6318 138.742 30.3805 140.041 28.8165 140.041C27.2522 140.041 26.001 138.742 26.001 136.985Z" fill="#000066"/>
<path fill-rule="evenodd" clip-rule="evenodd" d="M34.8132 141.317H36.3651V138.128H37.8571L39.5535 141.317H41.2861L39.5296 138.128C39.4872 138.052 39.4478 137.988 39.4126 137.934C39.3872 137.895 39.364 137.862 39.3435 137.834C39.3198 137.801 39.2997 137.776 39.2837 137.756C39.2562 137.722 39.2407 137.707 39.2407 137.707V137.683C40.1431 137.322 40.6847 136.372 40.6847 135.349C40.6847 134.218 40.1431 133.4 39.289 133.015C38.9159 132.846 38.4949 132.774 37.5684 132.774H34.8132V141.317ZM36.3651 136.78V134.109H37.5443C38.7594 134.109 39.1083 134.615 39.1083 135.433C39.1083 136.287 38.5911 136.78 37.7608 136.78H36.3651Z" fill="#000066"/>
<path fill-rule="evenodd" clip-rule="evenodd" d="M42.7325 141.317H44.2844V138.369H46.029C47.6293 138.369 48.7481 137.214 48.7481 135.553C48.7481 133.893 47.6293 132.774 46.029 132.774H42.7325V141.317ZM44.2844 137.021V134.109H45.7643C46.6428 134.109 47.172 134.675 47.172 135.553C47.172 136.444 46.6428 137.021 45.7404 137.021H44.2844Z" fill="#000066"/>
<path fill-rule="evenodd" clip-rule="evenodd" d="M49.5335 136.985C49.5335 139.5 51.4343 141.461 53.9489 141.461C56.4638 141.461 58.3647 139.5 58.3647 136.985C58.3647 134.543 56.4638 132.63 53.9489 132.63C51.4343 132.63 49.5335 134.543 49.5335 136.985ZM51.1336 136.985C51.1336 135.301 52.3849 134.049 53.9489 134.049C55.5132 134.049 56.7645 135.301 56.7645 136.985C56.7645 138.742 55.5132 140.041 53.9489 140.041C52.3849 140.041 51.1336 138.742 51.1336 136.985Z" fill="#000066"/>
<path fill-rule="evenodd" clip-rule="evenodd" d="M59.9456 141.317H61.4978V138.128H62.9897L64.6861 141.317H66.4188L64.6621 138.128C64.4937 137.827 64.3734 137.707 64.3734 137.707V137.683C65.2758 137.322 65.8171 136.372 65.8171 135.349C65.8171 134.218 65.2758 133.4 64.4214 133.015C64.0486 132.846 63.6273 132.774 62.7008 132.774H59.9456V141.317ZM61.4978 136.78V134.109H62.677C63.892 134.109 64.241 134.615 64.241 135.433C64.241 136.287 63.7238 136.78 62.8936 136.78H61.4978Z" fill="#000066"/>
<path fill-rule="evenodd" clip-rule="evenodd" d="M72.834 141.317H74.4342L71.4265 132.774H69.8022L66.7942 141.317H68.3944L69.1164 139.127H72.1123L72.834 141.317ZM70.6322 134.254C70.6322 134.254 70.8128 135.096 70.9693 135.577L71.7272 137.863H69.4891L70.2474 135.577C70.4156 135.096 70.6083 134.254 70.6083 134.254H70.6322Z" fill="#000066"/>
<path d="M76.8011 141.317H78.353V134.109H81.1565V132.774H73.9975V134.109H76.8011V141.317Z" fill="#000066"/>
<path d="M82.282 141.317H87.5877V139.981H83.8339V137.683H86.7095V136.347H83.8339V134.109H87.3953V132.774H82.282V141.317Z" fill="#000066"/>
<path d="M16.4248 154.586H21.6706V153.251H17.9771V146.044H16.4248V154.586Z" fill="#000066"/>
<path d="M22.9106 154.586H28.2167V153.251H24.4629V150.952H27.3385V149.617H24.4629V147.379H28.0243V146.044H22.9106V154.586Z" fill="#000066"/>
<path fill-rule="evenodd" clip-rule="evenodd" d="M34.8002 154.586H36.4004L33.3927 146.044H31.7684L28.7604 154.586H30.3606L31.0826 152.396H34.0785L34.8002 154.586ZM32.5987 147.523C32.5987 147.523 32.7791 148.366 32.9355 148.847L33.6934 151.133H31.4557L32.2136 148.847C32.3818 148.366 32.5745 147.523 32.5745 147.523H32.5987Z" fill="#000066"/>
<path fill-rule="evenodd" clip-rule="evenodd" d="M37.4922 154.586H39.0441V151.398H40.536L42.2324 154.586H43.965L42.2086 151.398C42.0401 151.097 41.9197 150.977 41.9197 150.977V150.952C42.822 150.591 43.3637 149.641 43.3637 148.618C43.3637 147.488 42.822 146.669 41.968 146.284C41.5949 146.116 41.1739 146.044 40.2474 146.044H37.4922V154.586ZM39.0441 150.05V147.379H40.2233C41.4384 147.379 41.7873 147.884 41.7873 148.703C41.7873 149.557 41.27 150.05 40.4398 150.05H39.0441Z" fill="#000066"/>
<path d="M45.4114 154.586H46.9634V149.665C46.9634 149.16 46.8792 148.342 46.8792 148.342H46.9034C46.9034 148.342 47.2881 149.172 47.6133 149.665L50.8496 154.586H52.3897V146.044H50.8496V150.977C50.8496 151.482 50.934 152.3 50.934 152.3H50.9099C50.9099 152.3 50.5247 151.47 50.1999 150.977L46.9634 146.044H45.4114V154.586Z" fill="#000066"/>
<path d="M54.5527 154.586H56.1047V146.044H54.5527V154.586Z" fill="#000066"/>
<path d="M58.2654 154.586H59.8177V149.665C59.8177 149.16 59.7333 148.342 59.7333 148.342H59.7574C59.7574 148.342 60.1425 149.172 60.4673 149.665L63.7039 154.586H65.2438V146.044H63.7039V150.977C63.7039 151.482 63.788 152.3 63.788 152.3H63.7639C63.7639 152.3 63.3791 151.47 63.054 150.977L59.8177 146.044H58.2654V154.586Z" fill="#000066"/>
<path d="M66.8292 150.303C66.8292 152.986 68.7663 154.73 71.0163 154.73C72.6045 154.73 73.4948 153.816 73.4948 153.816H73.5189L73.5164 153.859C73.5153 153.879 73.5139 153.906 73.5125 153.937C73.5096 154.004 73.5068 154.09 73.5068 154.177V154.586H74.8302V150.086H72.1232V151.422H73.4348V152.421C73.4348 152.421 72.5804 153.311 71.2929 153.311C69.6927 153.311 68.4294 152.108 68.4294 150.255C68.4294 148.642 69.452 147.319 71.3653 147.319C72.7248 147.319 73.6392 148.137 73.6392 148.137L74.4092 146.982C74.4092 146.982 73.3265 145.899 71.2329 145.899C68.6942 145.899 66.8292 147.824 66.8292 150.303Z" fill="#000066"/>
<path fill-rule="evenodd" clip-rule="evenodd" d="M84.4428 154.586H86.0431L83.035 146.044H81.4107L78.4031 154.586H80.0032L80.7249 152.396H83.7208L84.4428 154.586ZM82.2409 147.523C82.2409 147.523 82.4216 148.366 82.5779 148.847L83.336 151.133H81.0979L81.8559 148.847C82.0244 148.366 82.2169 147.523 82.2169 147.523H82.2409Z" fill="#000066"/>
<path d="M87.1345 154.586H88.6867V149.665C88.6867 149.16 88.6022 148.342 88.6022 148.342H88.6264C88.6264 148.342 89.0115 149.172 89.3363 149.665L92.5729 154.586H94.1127V146.044H92.5729V150.977C92.5729 151.482 92.657 152.3 92.657 152.3H92.6329C92.6329 152.3 92.2481 151.47 91.923 150.977L88.6867 146.044H87.1345V154.586Z" fill="#000066"/>
<path fill-rule="evenodd" clip-rule="evenodd" d="M96.2757 154.586H99.1875C101.822 154.586 103.543 152.998 103.543 150.303C103.543 147.608 101.822 146.044 99.1875 146.044H96.2757V154.586ZM97.828 153.251V147.379H99.1034C100.812 147.379 101.943 148.402 101.943 150.303C101.943 152.228 100.836 153.251 99.1034 153.251H97.828Z" fill="#000066"/>
<path d="M16.4248 167.856H17.9771V164.27H21.8873V167.856H23.4393V159.313H21.8873V162.935H17.9771V159.313H16.4248V167.856Z" fill="#000066"/>
<path d="M25.481 164.788C25.481 166.701 26.8647 168 28.9342 168C30.9916 168 32.3752 166.701 32.3752 164.788V159.313H30.8233V164.776C30.8233 165.931 30.0651 166.58 28.9221 166.58C27.7791 166.58 27.0333 165.931 27.0333 164.788V159.313H25.481V164.788Z" fill="#000066"/>
<path d="M34.1605 167.856H35.7128L36.0738 163.079C36.1097 162.514 36.0859 161.744 36.0859 161.744H36.1097C36.1097 161.744 36.3745 162.586 36.5789 163.079L37.9506 166.388H39.3104L40.6938 163.079C40.8985 162.586 41.1509 161.756 41.1509 161.756H41.1751C41.1751 161.756 41.151 162.514 41.1871 163.079L41.5481 167.856H43.0883L42.4025 159.313H40.742L39.0697 163.536C38.877 164.042 38.6484 164.788 38.6484 164.788H38.6243C38.6243 164.788 38.384 164.042 38.1912 163.536L36.5189 159.313H34.8585L34.1605 167.856Z" fill="#000066"/>
<path fill-rule="evenodd" clip-rule="evenodd" d="M49.9575 167.856H51.5576L48.5497 159.313H46.9254L43.9177 167.856H45.5179L46.2395 165.666H49.2355L49.9575 167.856ZM47.7556 160.793C47.7556 160.793 47.9362 161.635 48.0925 162.117L48.8507 164.403H46.6126L47.3705 162.117C47.5391 161.635 47.7315 160.793 47.7315 160.793H47.7556Z" fill="#000066"/>
<path d="M52.6491 167.856H54.2014V162.935C54.2014 162.429 54.1169 161.611 54.1169 161.611H54.1411C54.1411 161.611 54.5261 162.442 54.851 162.935L58.0875 167.856H59.6274V159.313H58.0875V164.246C58.0875 164.752 58.1717 165.57 58.1717 165.57H58.1475C58.1475 165.57 57.7627 164.74 57.4379 164.246L54.2014 159.313H52.6491V167.856Z" fill="#000066"/>
<path fill-rule="evenodd" clip-rule="evenodd" d="M64.716 167.856H66.2683V164.667H67.7602L69.4566 167.856H71.1892L69.4325 164.667C69.3672 164.551 69.3092 164.461 69.2626 164.395C69.189 164.291 69.1438 164.246 69.1438 164.246V164.222C70.0461 163.861 70.5875 162.911 70.5875 161.888C70.5875 160.757 70.0462 159.939 69.1918 159.554C68.8191 159.385 68.3977 159.313 67.4713 159.313H64.716V167.856ZM66.2683 163.32V160.649H67.4471C68.6625 160.649 69.0114 161.154 69.0114 161.972C69.0114 162.827 68.4939 163.32 67.664 163.32H66.2683Z" fill="#000066"/>
<path d="M72.6353 167.856H77.9413V166.52H74.1875V164.222H77.0631V162.887H74.1875V160.649H77.7489V159.313H72.6353V167.856Z" fill="#000066"/>
<path d="M78.9064 166.833C78.9064 166.833 79.9529 168 81.854 168C83.6346 168 84.6693 166.857 84.6693 165.497C84.6693 163.932 83.3496 163.387 82.2228 162.921C81.3833 162.574 80.6507 162.271 80.6507 161.623C80.6507 161.022 81.2162 160.601 81.9382 160.601C83.0091 160.601 83.8273 161.346 83.8273 161.346L84.5011 160.083C84.5011 160.083 83.6346 159.169 81.9503 159.169C80.3139 159.169 79.0867 160.228 79.0867 161.647C79.0867 163.135 80.3831 163.694 81.5054 164.177C82.3621 164.547 83.1173 164.872 83.1173 165.534C83.1173 166.232 82.5278 166.568 81.8782 166.568C80.6749 166.568 79.7484 165.666 79.7484 165.666L78.9064 166.833Z" fill="#000066"/>
<path fill-rule="evenodd" clip-rule="evenodd" d="M85.6284 163.524C85.6284 166.039 87.5295 168 90.0441 168C92.5587 168 94.4596 166.039 94.4596 163.524C94.4596 161.082 92.5587 159.169 90.0441 159.169C87.5295 159.169 85.6284 161.082 85.6284 163.524ZM87.2285 163.524C87.2285 161.84 88.4801 160.589 90.0441 160.589C91.6081 160.589 92.8594 161.84 92.8594 163.524C92.8594 165.281 91.6081 166.58 90.0441 166.58C88.4801 166.58 87.2285 165.281 87.2285 163.524Z" fill="#000066"/>
<path d="M95.9205 164.788C95.9205 166.701 97.3041 168 99.3736 168C101.431 168 102.815 166.701 102.815 164.788V159.313H101.262V164.776C101.262 165.931 100.505 166.58 99.3615 166.58C98.2185 166.58 97.4727 165.931 97.4727 164.788V159.313H95.9205V164.788Z" fill="#000066"/>
<path fill-rule="evenodd" clip-rule="evenodd" d="M104.865 167.856H106.417V164.667H107.909L109.605 167.856H111.338L109.581 164.667C109.413 164.367 109.292 164.246 109.292 164.246V164.222C110.195 163.861 110.736 162.911 110.736 161.888C110.736 160.757 110.195 159.939 109.341 159.554C108.968 159.385 108.547 159.313 107.62 159.313H104.865V167.856ZM106.417 163.32V160.649H107.596C108.811 160.649 109.16 161.154 109.16 161.972C109.16 162.827 108.643 163.32 107.812 163.32H106.417Z" fill="#000066"/>
<path d="M112.147 163.548C112.147 166.063 113.952 168 116.563 168C118.741 168 119.92 166.616 119.92 166.616L119.102 165.497C119.102 165.497 118.103 166.58 116.623 166.58C114.843 166.58 113.748 165.149 113.748 163.524C113.748 161.936 114.806 160.589 116.611 160.589C117.971 160.589 118.945 161.491 118.945 161.491L119.692 160.336C119.692 160.336 118.621 159.169 116.539 159.169C114.024 159.169 112.147 161.07 112.147 163.548Z" fill="#000066"/>
<path d="M121.35 167.856H126.656V166.52H122.902V164.222H125.777V162.887H122.902V160.649H126.463V159.313H121.35V167.856Z" fill="#000066"/>
<path d="M127.62 166.833C127.62 166.833 128.667 168 130.568 168C132.349 168 133.384 166.857 133.384 165.497C133.384 163.932 132.064 163.387 130.937 162.921C130.098 162.574 129.365 162.271 129.365 161.623C129.365 161.022 129.931 160.601 130.653 160.601C131.723 160.601 132.541 161.346 132.541 161.346L133.215 160.083C133.215 160.083 132.349 159.169 130.665 159.169C129.028 159.169 127.801 160.228 127.801 161.647C127.801 163.135 129.097 163.694 130.22 164.177C131.076 164.547 131.832 164.872 131.832 165.534C131.832 166.232 131.242 166.568 130.592 166.568C129.389 166.568 128.463 165.666 128.463 165.666L127.62 166.833Z" fill="#000066"/>
<path d="M33.1719 99.6065H30.7011V86.0075H33.1719L38.3242 93.8605C38.8414 94.6457 39.4542 95.9673 39.4542 95.9673H39.4925C39.4925 95.9673 39.3586 94.6648 39.3586 93.8605V86.0075H41.8102V99.6065H39.3586L34.2061 91.7726C33.6892 90.9872 33.0761 89.6657 33.0761 89.6657H33.0378C33.0378 89.6657 33.1719 90.9683 33.1719 91.7726V99.6065Z" fill="#000066"/>
<path d="M45.2533 99.6065H47.7242V86.0075H45.2533V99.6065Z" fill="#000066"/>
<path d="M56.8335 99.6065H54.382L49.4212 86.0075H52.0836L55.0714 94.8756C55.2555 95.4148 55.4217 96.1527 55.5139 96.5622L55.515 96.567L55.5163 96.5729L55.5174 96.5775L55.5395 96.6755L55.5532 96.7355L55.5662 96.7908L55.5763 96.8314C55.5782 96.8387 55.5799 96.845 55.5814 96.8502C55.5826 96.8541 55.5837 96.8574 55.5846 96.86L55.5867 96.8653C55.5871 96.866 55.5879 96.867 55.5879 96.867L55.5886 96.8675H55.6269C55.633 96.8675 55.6601 96.7474 55.7026 96.5584C55.795 96.1481 55.9606 95.4131 56.1441 94.8756L59.1512 86.0075H61.7946L56.8335 99.6065Z" fill="#000066"/>
<path d="M63.4906 99.6065H71.9374V97.4806H65.9615V93.8221H70.5392V91.696H65.9615V88.1334H71.6309V86.0075H63.4906V99.6065Z" fill="#000066"/>
<path fill-rule="evenodd" clip-rule="evenodd" d="M76.9786 99.6065H74.5077V86.0075H78.8939C80.3687 86.0075 81.0391 86.1224 81.6329 86.3905C82.9928 87.0034 83.8547 88.3059 83.8547 90.1064C83.8547 91.7343 82.9928 93.2476 81.5564 93.8221V93.8605C81.5564 93.8605 81.7479 94.0519 82.0159 94.5308L84.8122 99.6065H82.0542L79.3535 94.5308H76.9786V99.6065ZM76.9786 88.1334V92.3857H79.2004C80.5219 92.3857 81.3456 91.6004 81.3456 90.2402C81.3456 88.938 80.79 88.1334 78.8557 88.1334H76.9786Z" fill="#000066"/>
<path d="M100.191 99.6065H97.7202V86.0075H100.191V99.6065Z" fill="#000066"/>
<path d="M106.447 99.6065H108.917V88.1334H113.38V86.0075H101.984V88.1334H106.447V99.6065Z" fill="#000066"/>
<path d="M121.039 99.6065H118.568V93.918L114.047 86.0075H116.844L118.97 90.0104C119.254 90.5547 119.507 91.1627 119.655 91.5201C119.737 91.7162 119.787 91.8369 119.794 91.8302H119.832C119.832 91.8302 120.215 90.8534 120.656 90.0104L122.762 86.0075H125.559L121.039 93.918V99.6065Z" fill="#000066"/>
<path d="M16.4691 28.2469H31.6366V74.6484H16.4691V28.2469Z" fill="#000066"/>
<path d="M33.1486 16.0743C33.1486 21.0859 29.086 25.1486 24.0743 25.1486C19.0627 25.1486 15 21.0859 15 16.0743C15 11.0627 19.0627 7 24.0743 7C29.086 7 33.1486 11.0627 33.1486 16.0743Z" fill="#46BEFF"/>
<path d="M16.0567 105.164H125.608V111.497H16.0567V105.164Z" fill="#46BEFF"/>
</svg>
