<svg width="308" height="380" viewBox="0 0 308 380" fill="none" xmlns="http://www.w3.org/2000/svg">
<path fill-rule="evenodd" clip-rule="evenodd" d="M113.077 54.9199C85.2277 54.9199 62.6531 77.5054 62.6531 105.368V106.028C62.6531 135.618 86.5969 159.573 116.171 159.573C133.927 159.573 149.602 150.945 159.341 137.647L138.594 122.269C134.383 130.187 126.064 135.618 116.476 135.618C104.707 135.618 94.8659 127.497 92.1772 116.585H162.182C162.233 116.483 162.233 116.433 162.284 116.331C162.318 116.162 162.357 115.992 162.397 115.823C162.475 115.485 162.554 115.147 162.588 114.809C163.146 111.764 163.45 108.566 163.45 105.368C163.501 77.5054 140.927 54.9199 113.077 54.9199ZM94.5613 93.8986C96.9459 85.4731 104.656 79.2814 113.838 79.2814C123.02 79.2814 130.731 85.4731 133.115 93.8986H94.5613Z" fill="#000066"/>
<path d="M175.313 212.191C175.313 212.191 179.071 216.381 185.897 216.381C192.291 216.381 196.006 212.278 196.006 207.396C196.006 201.776 191.267 199.817 187.221 198.144C184.207 196.898 181.577 195.81 181.577 193.486C181.577 191.326 183.607 189.814 186.199 189.814C190.044 189.814 192.982 192.492 192.982 192.492L195.4 187.956C195.4 187.956 192.291 184.673 186.242 184.673C180.368 184.673 175.961 188.475 175.961 193.573C175.961 198.913 180.616 200.92 184.645 202.656C187.721 203.982 190.433 205.151 190.433 207.526C190.433 210.031 188.316 211.241 185.983 211.241C181.663 211.241 178.337 208.001 178.337 208.001L175.313 212.191Z" fill="#000066"/>
<path d="M18.2975 204.847C18.2975 211.716 23.2656 216.381 30.696 216.381C38.0827 216.381 43.0509 211.716 43.0509 204.847V185.192H37.478V204.804C37.478 208.951 34.7566 211.284 30.6524 211.284C26.5489 211.284 23.8704 208.951 23.8704 204.847V185.192H18.2975V204.847Z" fill="#000066"/>
<path d="M16.8835 270.292C16.8835 275.963 20.9545 280.332 26.8429 280.332C31.7544 280.332 34.4139 277.211 34.4139 277.211L32.5686 274.688C32.5686 274.688 30.3158 277.13 26.9782 277.13C22.9624 277.13 20.4925 273.901 20.4925 270.238C20.4925 266.656 22.8807 263.617 26.951 263.617C30.0179 263.617 32.2156 265.652 32.2156 265.652L33.8983 263.047C33.8983 263.047 31.4831 260.414 26.7884 260.414C21.1169 260.414 16.8835 264.702 16.8835 270.292Z" fill="#000066"/>
<path d="M37.6379 280.007H49.6051V276.994H41.1382V271.811H47.6238V268.8H41.1382V263.752H49.1705V260.74H37.6379V280.007Z" fill="#000066"/>
<path d="M53.2461 280.007H56.747V268.908C56.747 267.768 56.5574 265.923 56.5574 265.923H56.611C56.611 265.923 57.4797 267.796 58.2122 268.908L65.5119 280.007H68.9857V260.74H65.5119V271.866C65.5119 273.006 65.7017 274.851 65.7017 274.851H65.6479C65.6479 274.851 64.7794 272.979 64.0469 271.866L56.747 260.74H53.2461V280.007Z" fill="#000066"/>
<path d="M77.8525 280.007H81.3527V263.752H87.6758V260.74H71.5296V263.752H77.8525V280.007Z" fill="#000066"/>
<path d="M90.2142 280.007H102.181V276.994H93.7144V271.811H100.2V268.8H93.7144V263.752H101.747V260.74H90.2142V280.007Z" fill="#000066"/>
<path fill-rule="evenodd" clip-rule="evenodd" d="M105.822 280.007H109.323V272.815H112.688L116.514 280.007H120.422L116.46 272.815C116.08 272.137 115.809 271.866 115.809 271.866V271.811C117.844 270.997 119.065 268.854 119.065 266.547C119.065 263.997 117.844 262.151 115.917 261.283C115.076 260.903 114.126 260.74 112.037 260.74H105.822V280.007ZM109.323 269.776V263.752H111.983C114.723 263.752 115.51 264.892 115.51 266.737C115.51 268.664 114.343 269.776 112.471 269.776H109.323Z" fill="#000066"/>
<path d="M130.282 280.007H133.783V272.219H140.159V269.206H133.783V263.752H141.354V260.74H130.282V280.007Z" fill="#000066"/>
<path fill-rule="evenodd" clip-rule="evenodd" d="M143.315 270.238C143.315 275.91 147.603 280.332 153.275 280.332C158.946 280.332 163.233 275.91 163.233 270.238C163.233 264.729 158.946 260.414 153.275 260.414C147.603 260.414 143.315 264.729 143.315 270.238ZM146.925 270.238C146.925 266.439 149.747 263.617 153.275 263.617C156.802 263.617 159.624 266.439 159.624 270.238C159.624 274.2 156.802 277.13 153.275 277.13C149.747 277.13 146.925 274.2 146.925 270.238Z" fill="#000066"/>
<path fill-rule="evenodd" clip-rule="evenodd" d="M166.799 280.007H170.3V272.815H173.665L177.491 280.007H181.398L177.437 272.815C177.057 272.137 176.785 271.866 176.785 271.866V271.811C178.82 270.997 180.041 268.854 180.041 266.547C180.041 263.997 178.82 262.151 176.894 261.283C176.053 260.903 175.103 260.74 173.014 260.74H166.799V280.007ZM170.3 269.776V263.752H172.959C175.7 263.752 176.487 264.892 176.487 266.737C176.487 268.664 175.32 269.776 173.448 269.776H170.3Z" fill="#000066"/>
<path d="M16.8835 300.22C16.8835 305.891 20.9545 310.26 26.8429 310.26C31.7544 310.26 34.4139 307.14 34.4139 307.14L32.5686 304.616C32.5686 304.616 30.3158 307.059 26.9782 307.059C22.9624 307.059 20.4925 303.829 20.4925 300.166C20.4925 296.584 22.8807 293.545 26.951 293.545C30.0179 293.545 32.2156 295.58 32.2156 295.58L33.8983 292.975C33.8983 292.975 31.4831 290.342 26.7884 290.342C21.1169 290.342 16.8835 294.63 16.8835 300.22Z" fill="#000066"/>
<path fill-rule="evenodd" clip-rule="evenodd" d="M36.2022 300.166C36.2022 305.838 40.49 310.26 46.1613 310.26C51.8328 310.26 56.12 305.838 56.12 300.166C56.12 294.657 51.8328 290.342 46.1613 290.342C40.49 290.342 36.2022 294.657 36.2022 300.166ZM39.8112 300.166C39.8112 296.367 42.6332 293.545 46.1613 293.545C49.6888 293.545 52.5108 296.367 52.5108 300.166C52.5108 304.128 49.6888 307.059 46.1613 307.059C42.6332 307.059 39.8112 304.128 39.8112 300.166Z" fill="#000066"/>
<path fill-rule="evenodd" clip-rule="evenodd" d="M59.6861 309.935H63.1864V302.743H66.5512L70.3773 309.935H74.285L70.3235 302.743C70.2278 302.573 70.139 302.428 70.0596 302.306C70.0023 302.219 69.95 302.144 69.9037 302.08C69.8504 302.007 69.805 301.949 69.7688 301.904C69.7067 301.829 69.6718 301.794 69.6718 301.794V301.74C71.7071 300.925 72.9286 298.782 72.9286 296.476C72.9286 293.925 71.7071 292.08 69.7808 291.211C68.9394 290.831 67.9898 290.668 65.9003 290.668H59.6861V309.935ZM63.1864 299.704V293.68H65.8458C68.5863 293.68 69.3733 294.82 69.3733 296.665C69.3733 298.592 68.2069 299.704 66.3342 299.704H63.1864Z" fill="#000066"/>
<path fill-rule="evenodd" clip-rule="evenodd" d="M77.5471 309.935H81.0473V303.286H84.9821C88.5913 303.286 91.1147 300.681 91.1147 296.937C91.1147 293.192 88.5913 290.668 84.9821 290.668H77.5471V309.935ZM81.0473 300.247V293.68H84.385C86.3664 293.68 87.56 294.956 87.56 296.937C87.56 298.945 86.3664 300.247 84.3312 300.247H81.0473Z" fill="#000066"/>
<path fill-rule="evenodd" clip-rule="evenodd" d="M92.8859 300.166C92.8859 305.838 97.1731 310.26 102.844 310.26C108.517 310.26 112.804 305.838 112.804 300.166C112.804 294.657 108.517 290.342 102.844 290.342C97.1731 290.342 92.8859 294.657 92.8859 300.166ZM96.4949 300.166C96.4949 296.367 99.3171 293.545 102.844 293.545C106.373 293.545 109.195 296.367 109.195 300.166C109.195 304.128 106.373 307.059 102.844 307.059C99.3171 307.059 96.4949 304.128 96.4949 300.166Z" fill="#000066"/>
<path fill-rule="evenodd" clip-rule="evenodd" d="M116.369 309.935H119.87V302.743H123.235L127.061 309.935H130.969L127.007 302.743C126.627 302.065 126.356 301.794 126.356 301.794V301.74C128.391 300.925 129.612 298.782 129.612 296.476C129.612 293.925 128.391 292.08 126.464 291.211C125.623 290.831 124.673 290.668 122.583 290.668H116.369V309.935ZM119.87 299.704V293.68H122.53C125.27 293.68 126.057 294.82 126.057 296.665C126.057 298.592 124.891 299.704 123.018 299.704H119.87Z" fill="#000066"/>
<path fill-rule="evenodd" clip-rule="evenodd" d="M145.438 309.935H149.047L142.263 290.668H138.6L131.815 309.935H135.425L137.053 304.996H143.81L145.438 309.935ZM140.472 294.006C140.472 294.006 140.879 295.906 141.232 296.991L142.941 302.147H137.894L139.604 296.991C139.983 295.906 140.418 294.006 140.418 294.006H140.472Z" fill="#000066"/>
<path d="M154.385 309.935H157.885V293.68H164.208V290.668H148.062V293.68H154.385V309.935Z" fill="#000066"/>
<path d="M166.746 309.935H178.713V306.923H170.247V301.74H176.732V298.728H170.247V293.68H178.279V290.668H166.746V309.935Z" fill="#000066"/>
<path d="M18.2134 339.863H30.0445V336.851H21.7142V320.596H18.2134V339.863Z" fill="#000066"/>
<path d="M32.8413 339.863H44.8084V336.851H36.3422V331.668H42.8278V328.656H36.3422V323.608H44.3745V320.596H32.8413V339.863Z" fill="#000066"/>
<path fill-rule="evenodd" clip-rule="evenodd" d="M59.6569 339.863H63.2659L56.4825 320.596H52.819L46.0348 339.863H49.644L51.2723 334.924H58.0292L59.6569 339.863ZM54.6915 323.934C54.6915 323.934 55.0984 325.834 55.4513 326.919L57.1607 332.075H52.1136L53.823 326.919C54.2025 325.834 54.6371 323.934 54.6371 323.934H54.6915Z" fill="#000066"/>
<path fill-rule="evenodd" clip-rule="evenodd" d="M65.7282 339.863H69.2285V332.672H72.5933L76.4194 339.863H80.3269L76.3656 332.672C75.9855 331.993 75.714 331.722 75.714 331.722V331.668C77.749 330.853 78.9707 328.71 78.9707 326.404C78.9707 323.853 77.749 322.008 75.8229 321.139C74.9815 320.759 74.0319 320.596 71.9424 320.596H65.7282V339.863ZM69.2285 329.632V323.608H71.8879C74.6284 323.608 75.4154 324.748 75.4154 326.593C75.4154 328.52 74.2488 329.632 72.3763 329.632H69.2285Z" fill="#000066"/>
<path d="M83.5892 339.863H87.0894V328.765C87.0894 327.625 86.8996 325.779 86.8996 325.779H86.9541C86.9541 325.779 87.8219 327.652 88.5552 328.765L95.8543 339.863H99.3279V320.596H95.8543V331.722C95.8543 332.862 96.0447 334.707 96.0447 334.707H95.9903C95.9903 334.707 95.1216 332.835 94.3891 331.722L87.0894 320.596H83.5892V339.863Z" fill="#000066"/>
<path d="M104.206 339.863H107.707V320.596H104.206V339.863Z" fill="#000066"/>
<path d="M112.58 339.863H116.081V328.765C116.081 327.625 115.89 325.779 115.89 325.779H115.945C115.945 325.779 116.813 327.652 117.546 328.765L124.846 339.863H128.319V320.596H124.846V331.722C124.846 332.862 125.035 334.707 125.035 334.707H124.981C124.981 334.707 124.113 332.835 123.38 331.722L116.081 320.596H112.58V339.863Z" fill="#000066"/>
<path d="M131.894 330.203C131.894 336.254 136.263 340.188 141.338 340.188C144.92 340.188 146.928 338.126 146.928 338.126H146.982L146.977 338.222C146.974 338.268 146.971 338.329 146.968 338.4C146.961 338.55 146.955 338.745 146.955 338.94V339.863H149.94V329.714H143.834V332.726H146.792V334.979C146.792 334.979 144.866 336.987 141.962 336.987C138.353 336.987 135.504 334.273 135.504 330.094C135.504 326.457 137.81 323.473 142.125 323.473C145.191 323.473 147.254 325.318 147.254 325.318L148.99 322.713C148.99 322.713 146.548 320.27 141.826 320.27C136.101 320.27 131.894 324.613 131.894 330.203Z" fill="#000066"/>
<path fill-rule="evenodd" clip-rule="evenodd" d="M171.62 339.863H175.229L168.445 320.596H164.781L157.998 339.863H161.607L163.235 334.924H169.991L171.62 339.863ZM166.654 323.934C166.654 323.934 167.061 325.834 167.414 326.919L169.124 332.075H164.076L165.785 326.919C166.165 325.834 166.6 323.934 166.6 323.934H166.654Z" fill="#000066"/>
<path d="M177.691 339.863H181.191V328.765C181.191 327.625 181.001 325.779 181.001 325.779H181.055C181.055 325.779 181.924 327.652 182.657 328.765L189.956 339.863H193.429V320.596H189.956V331.722C189.956 332.862 190.146 334.707 190.146 334.707H190.092C190.092 334.707 189.224 332.835 188.49 331.722L181.191 320.596H177.691V339.863Z" fill="#000066"/>
<path fill-rule="evenodd" clip-rule="evenodd" d="M198.308 339.863H204.875C210.818 339.863 214.698 336.281 214.698 330.203C214.698 324.124 210.818 320.596 204.875 320.596H198.308V339.863ZM201.808 336.851V323.608H204.685C208.538 323.608 211.089 325.915 211.089 330.203C211.089 334.544 208.592 336.851 204.685 336.851H201.808Z" fill="#000066"/>
<path d="M18.2134 369.791H21.7142V361.705H30.5334V369.791H34.0338V350.524H30.5334V358.693H21.7142V350.524H18.2134V369.791Z" fill="#000066"/>
<path d="M38.6385 362.871C38.6385 367.186 41.7592 370.116 46.4267 370.116C51.0669 370.116 54.1875 367.186 54.1875 362.871V350.524H50.6873V362.845C50.6873 365.449 48.9774 366.915 46.3995 366.915C43.8215 366.915 42.1395 365.449 42.1395 362.871V350.524H38.6385V362.871Z" fill="#000066"/>
<path d="M58.2142 369.791H61.7151L62.5293 359.018C62.6103 357.742 62.5565 356.006 62.5565 356.006H62.6103C62.6103 356.006 63.2074 357.906 63.6686 359.018L66.7621 366.48H69.8291L72.949 359.018C73.4109 357.906 73.9801 356.033 73.9801 356.033H74.0346C74.0346 356.033 73.9803 357.742 74.0618 359.018L74.876 369.791H78.3497L76.803 350.524H73.0578L69.2863 360.049C68.8517 361.189 68.3361 362.871 68.3361 362.871H68.2816C68.2816 362.871 67.7396 361.189 67.3048 360.049L63.5333 350.524H59.7883L58.2142 369.791Z" fill="#000066"/>
<path fill-rule="evenodd" clip-rule="evenodd" d="M93.8423 369.791H97.4513L90.6672 350.524H87.0037L80.2202 369.791H83.8293L85.4569 364.852H92.2139L93.8423 369.791ZM88.8762 353.862C88.8762 353.862 89.2836 355.762 89.636 356.847L91.3461 362.003H86.2983L88.0076 356.847C88.3879 355.762 88.8218 353.862 88.8218 353.862H88.8762Z" fill="#000066"/>
<path d="M99.913 369.791H103.414V358.693C103.414 357.553 103.223 355.707 103.223 355.707H103.278C103.278 355.707 104.146 357.58 104.879 358.693L112.179 369.791H115.652V350.524H112.179V361.65C112.179 362.79 112.368 364.635 112.368 364.635H112.314C112.314 364.635 111.446 362.763 110.714 361.65L103.414 350.524H99.913V369.791Z" fill="#000066"/>
<path fill-rule="evenodd" clip-rule="evenodd" d="M127.128 369.791H130.629V362.6H133.994L137.82 369.791H141.728L137.766 362.6C137.619 362.337 137.488 362.135 137.383 361.987C137.217 361.752 137.115 361.65 137.115 361.65V361.596C139.15 360.781 140.371 358.638 140.371 356.332C140.371 353.781 139.15 351.936 137.223 351.067C136.382 350.687 135.432 350.524 133.343 350.524H127.128V369.791ZM130.629 359.561V353.536H133.288C136.029 353.536 136.816 354.676 136.816 356.522C136.816 358.448 135.649 359.561 133.777 359.561H130.629Z" fill="#000066"/>
<path d="M144.989 369.791H156.957V366.779H148.49V361.596H154.976V358.584H148.49V353.536H156.522V350.524H144.989V369.791Z" fill="#000066"/>
<path d="M159.133 367.485C159.133 367.485 161.493 370.116 165.781 370.116C169.797 370.116 172.131 367.538 172.131 364.472C172.131 360.942 169.154 359.712 166.613 358.661C164.719 357.878 163.067 357.194 163.067 355.734C163.067 354.378 164.343 353.428 165.971 353.428C168.386 353.428 170.232 355.11 170.232 355.11L171.751 352.261C171.751 352.261 169.797 350.199 165.998 350.199C162.308 350.199 159.54 352.587 159.54 355.789C159.54 359.144 162.464 360.404 164.995 361.495C166.927 362.328 168.63 363.062 168.63 364.554C168.63 366.128 167.301 366.888 165.836 366.888C163.122 366.888 161.032 364.852 161.032 364.852L159.133 367.485Z" fill="#000066"/>
<path fill-rule="evenodd" clip-rule="evenodd" d="M174.294 360.022C174.294 365.694 178.582 370.116 184.253 370.116C189.924 370.116 194.212 365.694 194.212 360.022C194.212 354.514 189.924 350.199 184.253 350.199C178.582 350.199 174.294 354.514 174.294 360.022ZM177.903 360.022C177.903 356.223 180.725 353.401 184.253 353.401C187.78 353.401 190.602 356.223 190.602 360.022C190.602 363.984 187.78 366.915 184.253 366.915C180.725 366.915 177.903 363.984 177.903 360.022Z" fill="#000066"/>
<path d="M197.506 362.871C197.506 367.186 200.627 370.116 205.294 370.116C209.935 370.116 213.055 367.186 213.055 362.871V350.524H209.554V362.845C209.554 365.449 207.845 366.915 205.267 366.915C202.689 366.915 201.007 365.449 201.007 362.871V350.524H197.506V362.871Z" fill="#000066"/>
<path fill-rule="evenodd" clip-rule="evenodd" d="M217.679 369.791H221.18V362.6H224.545L228.371 369.791H232.279L228.317 362.6C227.936 361.921 227.665 361.65 227.665 361.65V361.596C229.701 360.781 230.922 358.638 230.922 356.332C230.922 353.781 229.701 351.936 227.774 351.067C226.932 350.687 225.983 350.524 223.893 350.524H217.679V369.791ZM221.18 359.561V353.536H223.839C226.58 353.536 227.367 354.676 227.367 356.522C227.367 358.448 226.2 359.561 224.327 359.561H221.18Z" fill="#000066"/>
<path d="M234.104 360.076C234.104 365.748 238.175 370.116 244.064 370.116C248.975 370.116 251.635 366.996 251.635 366.996L249.789 364.472C249.789 364.472 247.537 366.915 244.199 366.915C240.183 366.915 237.714 363.685 237.714 360.022C237.714 356.44 240.102 353.401 244.172 353.401C247.239 353.401 249.436 355.436 249.436 355.436L251.119 352.831C251.119 352.831 248.704 350.199 244.009 350.199C238.338 350.199 234.104 354.486 234.104 360.076Z" fill="#000066"/>
<path d="M254.859 369.791H266.826V366.779H258.36V361.596H264.845V358.584H258.36V353.536H266.392V350.524H254.859V369.791Z" fill="#000066"/>
<path d="M269.002 367.485C269.002 367.485 271.363 370.116 275.651 370.116C279.666 370.116 282 367.538 282 364.472C282 360.942 279.024 359.712 276.482 358.661C274.589 357.878 272.937 357.194 272.937 355.734C272.937 354.378 274.212 353.428 275.84 353.428C278.256 353.428 280.1 355.11 280.1 355.11L281.62 352.261C281.62 352.261 279.666 350.199 275.867 350.199C272.177 350.199 269.409 352.587 269.409 355.789C269.409 359.144 272.333 360.404 274.864 361.495C276.796 362.328 278.5 363.062 278.5 364.554C278.5 366.128 277.17 366.888 275.704 366.888C272.991 366.888 270.902 364.852 270.902 364.852L269.002 367.485Z" fill="#000066"/>
<path d="M55.9845 215.863H50.4118V185.192H55.9845L67.6049 202.903C68.7713 204.675 70.1534 207.655 70.1534 207.655H70.2398C70.2398 207.655 69.9379 204.717 69.9379 202.903V185.192H75.467V215.863H69.9379L58.317 198.194C57.1511 196.423 55.7683 193.443 55.7683 193.443H55.6819C55.6819 193.443 55.9845 196.38 55.9845 198.194V215.863Z" fill="#000066"/>
<path d="M83.2327 215.863H88.8053V185.192H83.2327V215.863Z" fill="#000066"/>
<path d="M109.35 215.863H103.821L92.6329 185.192H98.6374L105.376 205.193C105.791 206.409 106.166 208.073 106.374 208.997L106.377 209.008L106.38 209.021L106.382 209.031L106.432 209.252L106.463 209.388L106.492 209.513L106.515 209.604C106.519 209.621 106.523 209.635 106.526 209.646C106.529 209.655 106.531 209.663 106.534 209.669L106.538 209.68C106.539 209.682 106.541 209.684 106.541 209.684L106.543 209.685H106.629C106.643 209.685 106.704 209.415 106.8 208.988C107.008 208.063 107.382 206.405 107.796 205.193L114.578 185.192H120.539L109.35 215.863Z" fill="#000066"/>
<path d="M124.365 215.863H143.415V211.068H129.938V202.817H140.262V198.022H129.938V189.987H142.724V185.192H124.365V215.863Z" fill="#000066"/>
<path fill-rule="evenodd" clip-rule="evenodd" d="M154.785 215.863H149.212V185.192H159.105C162.431 185.192 163.943 185.451 165.282 186.056C168.349 187.438 170.293 190.376 170.293 194.436C170.293 198.108 168.349 201.521 165.11 202.817V202.903C165.11 202.903 165.542 203.335 166.146 204.415L172.453 215.863H166.233L160.142 204.415H154.785V215.863ZM154.785 189.987V199.577H159.796C162.777 199.577 164.634 197.806 164.634 194.738C164.634 191.801 163.381 189.987 159.019 189.987H154.785Z" fill="#000066"/>
<path d="M207.138 215.863H201.566V185.192H207.138V215.863Z" fill="#000066"/>
<path d="M221.247 215.863H226.819V189.987H236.885V185.192H211.181V189.987H221.247V215.863Z" fill="#000066"/>
<path d="M254.157 215.863H248.585V203.033L238.389 185.192H244.697L249.492 194.22C250.133 195.448 250.703 196.819 251.037 197.625C251.221 198.067 251.334 198.34 251.35 198.324H251.436C251.436 198.324 252.3 196.121 253.294 194.22L258.045 185.192H264.352L254.157 203.033V215.863Z" fill="#000066"/>
<path d="M18.3133 54.9199H52.5218V159.573H18.3133V54.9199Z" fill="#000066"/>
<path d="M55.9321 27.466C55.9321 38.7691 46.7692 47.9321 35.466 47.9321C24.1629 47.9321 15 38.7691 15 27.466C15 16.163 24.1629 7 35.466 7C46.7692 7 55.9321 16.163 55.9321 27.466Z" fill="#46BEFF"/>
<path d="M17.3833 228.398H264.464V242.681H17.3833V228.398Z" fill="#46BEFF"/>
</svg>
