<svg width="393" height="270" viewBox="0 0 393 270" fill="none" xmlns="http://www.w3.org/2000/svg">
<path d="M25.2 0C39.1 0 50.4 11.3 50.4 25.2C50.4 39.1 39.1 50.4 25.2 50.4C11.3 50.4 0 39.1 0 25.2C0 11.3 11.3 0 25.2 0Z" fill="#5597DC"/>
<path fill-rule="evenodd" clip-rule="evenodd" d="M189.3 130.7V131.4C189.3 135.8 188.9 140 188 144.1H95.4998C98.6998 159.4 110.3 169.4 125.9 169.4C139.1 169.4 148.3 162.6 155.5 154.1L183 174.2C170.1 190.6 148.9 200 127.9 200C87.5998 200 55.2998 173.1 55.2998 131.4V130.7C55.4998 92.7 80.8998 62 122.3 62C163.8 62 189.2 92.7 189.3 130.7ZM97.4998 113.8H149.3C146.8 103.5 138.5 94.3 123.4 94.3C108.3 94.3 99.9998 103.6 97.4998 113.8Z" fill="#1D338D"/>
<path d="M5 65.5H45.3V196.4H5V65.5Z" fill="#1D338D"/>
<path d="M16.3998 221.5V251.4C16.3998 256.3 19.5998 259 24.5998 259C29.4998 259 32.7998 256.4 32.7998 251.4V221.6H44.2998V251.4C44.2998 262 36.4998 269.5 24.5998 269.5C12.5998 269.5 4.7998 262 4.7998 251.4V221.5H16.3998Z" fill="#1D338D"/>
<path d="M65.9998 221.5H54.2998V268.7H65.7998V246.7C65.7998 243.7 65.2998 238.6 65.2998 238.6H65.3998C65.3998 238.6 67.5998 243.6 69.3998 246.7L82.4998 268.7H94.1998V221.5H82.6998V243.5C82.6998 246.5 83.1998 251.6 83.1998 251.6H83.0998C83.0998 251.6 80.8998 246.6 79.0998 243.5L65.9998 221.5Z" fill="#1D338D"/>
<path d="M104.5 221.5H116V268.7H104.5V221.5Z" fill="#1D338D"/>
<path d="M133.1 221.5H120.6L137.2 268.7H149.2L165.8 221.5H153.5L145.1 248.4C144.2 251.4 143.3 256 143.3 256H143.2C143.2 256 142.3 251.4 141.4 248.4L133.1 221.5Z" fill="#1D338D"/>
<path d="M170.5 221.5H200.1V231.4H182.1V240H196.5V249.9H182.1V258.8H201V268.7H170.5V221.5Z" fill="#1D338D"/>
<path fill-rule="evenodd" clip-rule="evenodd" d="M225.6 221.5H209.2V268.6H220.7V252.7H226.1L234.5 268.6H247.4L238.2 252.1C237.1 250.2 236.4 249.3 236.4 249.3V249.2C241.1 246.8 243.5 241.3 243.5 236.3C243.5 229.5 240.1 224.6 234.8 222.6C232.7 221.8 230.4 221.5 225.6 221.5ZM231.7 237.1C231.7 240.9 229.4 242.9 225.7 242.9H220.7V231.4H224.6C230.4 231.4 231.7 233.5 231.7 237.1Z" fill="#1D338D"/>
<path d="M255.9 254C255.9 254 261.2 258.9 267.2 258.9C269.6 258.9 272.1 258 272.1 255.1C272.1 252.954 268.986 251.66 265.144 250.063C258.963 247.494 250.9 244.143 250.9 235.2C250.9 226.5 258.2 220.7 267.6 220.7C277.8 220.7 282.8 226 282.8 226L277.9 235.4C277.9 235.4 273.1 231.2 267.5 231.2C265.1 231.2 262.5 232.3 262.5 234.9C262.5 237.179 265.677 238.428 269.577 239.962C275.776 242.4 283.8 245.555 283.8 254.7C283.8 262.6 277.8 269.4 267.2 269.4C256.1 269.4 250 262.7 250 262.7L255.9 254Z" fill="#1D338D"/>
<path d="M302.7 221.5H291.2V268.7H302.7V221.5Z" fill="#1D338D"/>
<path d="M307.6 231.4V221.5H347.8V231.4H333.5V268.7H322V231.4H307.6Z" fill="#1D338D"/>
<path d="M350.1 221.6L365.7 249.4V268.7H377.2V249.4L392.6 221.6H379.5L374.2 233C372.7 236.2 371.4 239.8 371.4 239.8H371.3C371.3 239.8 370 236.2 368.5 233L363.2 221.6H350.1Z" fill="#1D338D"/>
</svg>
