<svg width="507" height="174" viewBox="0 0 507 174" fill="none" xmlns="http://www.w3.org/2000/svg">
<g clip-path="url(#clip0)">
<path d="M493.437 143.58H181.129V159.184H493.437V143.58Z" fill="#0097DC"/>
<path d="M30.5049 7C41.2441 7 50.0098 15.7198 50.0098 26.5049C50.0098 37.29 41.2441 46.0098 30.5049 46.0098C19.7198 46.0098 11 37.29 11 26.5049C11 15.7198 19.7198 7 30.5049 7Z" fill="#0097DC"/>
<path d="M46.1087 57.7587H14.9009V159.23H46.1087V57.7587Z" fill="#00338D"/>
<path d="M157.723 108.793V108.242C157.631 78.8239 137.942 55.005 105.817 55.005C73.6909 55.005 54.0483 78.8239 53.9106 108.242V108.793C53.9106 141.102 78.9228 161.938 110.177 161.938C126.423 161.938 142.899 154.641 152.904 141.928L131.609 126.324C126.01 132.887 118.896 138.165 108.708 138.165C96.6379 138.165 87.6427 130.455 85.1644 118.568H156.851C157.401 115.447 157.723 112.189 157.723 108.793ZM106.643 95.1163H86.5871C88.5146 87.2225 94.9398 80.0631 106.643 80.0631C118.346 80.0631 124.771 87.2225 126.698 95.1163H106.643Z" fill="#00338D"/>
<path d="M185.03 104.57H193.428C197.65 104.57 200.633 106.727 200.633 110.583C200.633 112.74 199.578 114.621 197.788 115.585V115.631C200.358 116.411 201.597 118.752 201.597 121.138C201.597 125.819 197.834 127.93 193.52 127.93H185.03V104.57ZM193.382 114.116C195.218 114.116 196.274 112.785 196.274 111.133C196.274 109.435 195.264 108.242 193.29 108.242H189.252V114.162H193.382V114.116ZM193.795 124.305C195.952 124.305 197.191 122.882 197.191 120.909C197.191 118.981 195.952 117.558 193.795 117.558H189.252V124.305H193.795V124.305Z" fill="black"/>
<path d="M206.37 104.57H210.638V119.578C210.638 122.699 212.703 124.488 215.824 124.488C218.945 124.488 221.056 122.699 221.056 119.532V104.57H225.324V119.578C225.324 124.81 221.515 128.389 215.87 128.389C210.179 128.389 206.416 124.81 206.416 119.578L206.37 104.57Z" fill="black"/>
<path d="M231.887 121.964C231.887 121.964 234.411 124.442 237.716 124.442C239.506 124.442 241.112 123.525 241.112 121.597C241.112 117.421 230.051 118.155 230.051 110.95C230.051 107.049 233.402 104.157 237.899 104.157C242.535 104.157 244.875 106.682 244.875 106.682L243.039 110.124C243.039 110.124 240.791 108.058 237.853 108.058C235.88 108.058 234.32 109.206 234.32 110.858C234.32 115.034 245.334 113.979 245.334 121.459C245.334 125.177 242.489 128.298 237.624 128.298C232.392 128.298 229.547 125.085 229.547 125.085L231.887 121.964Z" fill="black"/>
<path d="M250.107 104.57H254.375V127.976H250.107V104.57Z" fill="black"/>
<path d="M260.8 104.57H265.068L273.926 118.109C274.798 119.44 275.853 121.735 275.853 121.735H275.899C275.899 121.735 275.67 119.486 275.67 118.109V104.57H279.892V127.976H275.67L266.812 114.484C265.94 113.153 264.885 110.858 264.885 110.858H264.793C264.793 110.858 265.023 113.107 265.023 114.484V127.976H260.754V104.57H260.8Z" fill="black"/>
<path d="M286.363 104.57H300.361V108.242H290.586V114.392H298.479V118.063H290.586V124.351H300.866V128.022H286.363V104.57Z" fill="black"/>
<path d="M306.327 121.964C306.327 121.964 308.851 124.442 312.155 124.442C313.945 124.442 315.552 123.525 315.552 121.597C315.552 117.421 304.491 118.155 304.491 110.95C304.491 107.049 307.841 104.157 312.339 104.157C316.974 104.157 319.315 106.682 319.315 106.682L317.479 110.124C317.479 110.124 315.23 108.058 312.293 108.058C310.32 108.058 308.759 109.206 308.759 110.858C308.759 115.034 319.774 113.979 319.774 121.459C319.774 125.177 316.928 128.298 312.064 128.298C306.832 128.298 303.986 125.085 303.986 125.085L306.327 121.964Z" fill="black"/>
<path d="M325.098 121.964C325.098 121.964 327.622 124.442 330.926 124.442C332.716 124.442 334.322 123.525 334.322 121.597C334.322 117.421 323.262 118.155 323.262 110.95C323.262 107.049 326.612 104.157 331.11 104.157C335.745 104.157 338.086 106.682 338.086 106.682L336.25 110.124C336.25 110.124 334.001 108.058 331.064 108.058C329.09 108.058 327.53 109.206 327.53 110.858C327.53 115.034 338.545 113.979 338.545 121.459C338.545 125.177 335.699 128.298 330.834 128.298C325.603 128.298 322.757 125.085 322.757 125.085L325.098 121.964Z" fill="black"/>
<path d="M352.359 121.964C352.359 121.964 354.883 124.442 358.187 124.442C359.977 124.442 361.583 123.525 361.583 121.597C361.583 117.421 350.523 118.155 350.523 110.95C350.523 107.049 353.873 104.157 358.371 104.157C363.006 104.157 365.347 106.682 365.347 106.682L363.511 110.124C363.511 110.124 361.262 108.058 358.325 108.058C356.351 108.058 354.791 109.206 354.791 110.858C354.791 115.034 365.806 113.979 365.806 121.459C365.806 125.177 362.96 128.298 358.095 128.298C352.863 128.298 350.018 125.085 350.018 125.085L352.359 121.964Z" fill="black"/>
<path d="M380.997 104.157C386.687 104.157 389.625 107.37 389.625 107.37L387.559 110.537C387.559 110.537 384.898 108.058 381.18 108.058C376.224 108.058 373.332 111.73 373.332 116.09C373.332 120.541 376.315 124.488 381.226 124.488C385.265 124.488 388.018 121.505 388.018 121.505L390.267 124.58C390.267 124.58 387.055 128.389 381.088 128.389C373.929 128.389 368.972 123.066 368.972 116.182C368.972 109.389 374.113 104.157 380.997 104.157Z" fill="black"/>
<path d="M394.719 104.57H398.987V114.484H409.726V104.57H413.994V127.976H409.726V118.155H398.987V127.976H394.719V104.57Z" fill="black"/>
<path d="M430.837 104.157C437.721 104.157 442.953 109.389 442.953 116.09C442.953 122.974 437.721 128.343 430.837 128.343C423.953 128.343 418.721 122.974 418.721 116.09C418.721 109.435 423.953 104.157 430.837 104.157ZM430.837 124.488C435.105 124.488 438.547 120.909 438.547 116.09C438.547 111.454 435.105 108.058 430.837 108.058C426.569 108.058 423.127 111.5 423.127 116.09C423.127 120.909 426.569 124.488 430.837 124.488Z" fill="black"/>
<path d="M458.236 104.157C465.12 104.157 470.352 109.389 470.352 116.09C470.352 122.974 465.12 128.343 458.236 128.343C451.352 128.343 446.12 122.974 446.12 116.09C446.12 109.435 451.352 104.157 458.236 104.157ZM458.236 124.488C462.504 124.488 465.946 120.909 465.946 116.09C465.946 111.454 462.504 108.058 458.236 108.058C453.968 108.058 450.526 111.5 450.526 116.09C450.526 120.909 453.968 124.488 458.236 124.488Z" fill="black"/>
<path d="M475.171 104.57H479.439V124.305H489.581V127.976H475.217L475.171 104.57Z" fill="black"/>
</g>
<defs>
<clipPath id="clip0">
<path d="M11 7H493.437V161.938H11V7Z" fill="white"/>
</clipPath>
</defs>
</svg>
