<svg width="507" height="174" viewBox="0 0 507 174" fill="none" xmlns="http://www.w3.org/2000/svg">
<path d="M407.361 143.598H181.115V159.209H407.361V143.598Z" fill="#E70033"/>
<path d="M30.5145 7C41.267 7 50.0286 15.729 50.0286 26.5008C50.0286 37.2725 41.2675 46.0282 30.5145 46.0282C19.7355 46.0282 11 37.2725 11 26.5008C11 15.729 19.735 7 30.5145 7Z" fill="#0097DC"/>
<path d="M46.1161 57.7362H14.8936V159.208H46.1161V57.7362Z" fill="#00338D"/>
<path d="M157.706 108.794L157.706 108.24C157.599 78.8286 137.932 55.0257 105.814 55.0257C73.696 55.0257 54.03 78.8276 53.9231 108.24L53.9226 108.794C53.9226 141.096 78.9307 161.936 110.191 161.936C126.446 161.936 142.91 154.642 152.913 141.929L131.64 126.329C126.028 132.909 118.944 138.178 108.732 138.178C96.6452 138.178 87.684 130.467 85.1828 118.588H156.882C157.413 115.455 157.706 112.192 157.706 108.794ZM106.624 95.1351H86.566C88.4844 87.2248 94.9196 80.059 106.624 80.059C118.328 80.059 124.764 87.2248 126.682 95.1351H106.624Z" fill="#00338D"/>
<path d="M185.014 104.574H189.268V124.326H199.392V127.987H185.015V104.574H185.014Z" fill="black"/>
<path d="M215.68 121.985H207.469L205.49 127.987H201.104L209.348 104.573H213.799L222.044 127.987H217.658L215.68 121.985ZM211.559 108.63C211.559 108.63 211.031 110.938 210.569 112.256L208.492 118.522H214.625L212.548 112.256C212.119 110.938 211.624 108.63 211.624 108.63H211.559Z" fill="black"/>
<path d="M243.841 120.765C244.203 122.117 244.237 123.238 244.27 123.238H244.337C244.337 123.238 244.435 122.085 244.732 120.765L248.59 104.574H252.976L246.942 127.987H242.028L238.433 114.137C238.038 112.62 237.84 111.07 237.84 111.07H237.774C237.774 111.07 237.575 112.62 237.18 114.137L233.586 127.987H228.673L222.803 104.574H227.189L230.882 120.765C231.179 122.085 231.278 123.238 231.278 123.238H231.345C231.377 123.238 231.411 122.118 231.773 120.765L235.994 104.574H239.688L243.841 120.765Z" fill="black"/>
<path d="M266.296 121.985C266.296 121.985 268.835 124.458 272.133 124.458C273.914 124.458 275.529 123.535 275.529 121.622C275.529 117.434 264.482 118.16 264.482 110.971C264.482 107.08 267.845 104.178 272.331 104.178C276.948 104.178 279.322 106.684 279.322 106.684L277.475 110.147C277.475 110.147 275.233 108.102 272.299 108.102C270.32 108.102 268.77 109.257 268.77 110.905C268.77 115.06 279.784 114.037 279.784 121.523C279.784 125.249 276.948 128.382 272.068 128.382C266.857 128.382 263.989 125.183 263.989 125.183L266.296 121.985Z" fill="black"/>
<path d="M294.951 104.179C300.656 104.179 303.591 107.377 303.591 107.377L301.546 110.542C301.546 110.542 298.876 108.069 295.149 108.069C290.203 108.069 287.301 111.763 287.301 116.115C287.301 120.566 290.301 124.491 295.182 124.491C299.238 124.491 301.975 121.523 301.975 121.523L304.218 124.589C304.218 124.589 300.986 128.382 295.017 128.382C287.861 128.382 282.915 123.074 282.915 116.181C282.915 109.388 288.059 104.179 294.951 104.179Z" fill="black"/>
<path d="M308.634 104.574H312.889V114.499H323.606V104.574H327.861V127.987H323.606V118.16H312.889V127.987H308.634V104.574Z" fill="black"/>
<path d="M344.775 104.179C351.668 104.179 356.877 109.421 356.877 116.116C356.877 123.008 351.667 128.383 344.775 128.383C337.883 128.383 332.673 123.008 332.673 116.116C332.672 109.421 337.883 104.179 344.775 104.179ZM344.775 124.491C349.062 124.491 352.491 120.93 352.491 116.116C352.491 111.498 349.061 108.069 344.775 108.069C340.489 108.069 337.059 111.499 337.059 116.116C337.059 120.93 340.488 124.491 344.775 124.491Z" fill="black"/>
<path d="M372.176 104.179C379.069 104.179 384.278 109.421 384.278 116.116C384.278 123.008 379.068 128.383 372.176 128.383C365.284 128.383 360.074 123.008 360.074 116.116C360.074 109.421 365.284 104.179 372.176 104.179ZM372.176 124.491C376.463 124.491 379.892 120.93 379.892 116.116C379.892 111.498 376.462 108.069 372.176 108.069C367.889 108.069 364.46 111.499 364.46 116.116C364.46 120.93 367.889 124.491 372.176 124.491Z" fill="black"/>
<path d="M389.092 104.574H393.346V124.326H403.47V127.987H389.093L389.092 104.574Z" fill="black"/>
</svg>
