<svg width="507" height="174" viewBox="0 0 507 174" fill="none" xmlns="http://www.w3.org/2000/svg">
<g clip-path="url(#clip0)">
<path d="M29.1517 5C39.7155 5 48.3033 13.5879 48.3033 24.1517C48.3033 34.7155 39.7155 43.3033 29.1517 43.3033C18.5879 43.3033 10 34.7155 10 24.1517C10 13.5879 18.5879 5 29.1517 5Z" fill="#5597DC"/>
<path fill-rule="evenodd" clip-rule="evenodd" d="M153.867 104.331V104.863C153.867 108.207 153.563 111.399 152.879 114.515H82.5792C85.0112 126.143 93.8272 133.743 105.683 133.743C115.715 133.743 122.707 128.575 128.179 122.115L149.079 137.391C139.275 149.855 123.163 156.999 107.203 156.999C76.5752 156.999 52.0272 136.555 52.0272 104.863V104.331C52.1792 75.4512 71.4832 52.1192 102.947 52.1192C134.487 52.1192 153.791 75.4512 153.867 104.331ZM84.0992 91.4872H103.783H123.467C121.567 83.6592 115.259 76.6672 103.783 76.6672C92.3072 76.6672 85.9992 83.7352 84.0992 91.4872ZM13.7998 54.7792H44.4278V154.263H13.7998V54.7792Z" fill="#1D338D"/>
<path fill-rule="evenodd" clip-rule="evenodd" d="M374.379 143.092C374.379 143.092 378.407 146.816 382.967 146.816C384.791 146.816 386.691 146.132 386.691 143.928C386.691 142.296 384.324 141.313 381.405 140.099C376.708 138.147 370.579 135.6 370.579 128.804C370.579 122.192 376.127 117.784 383.271 117.784C391.023 117.784 394.823 121.812 394.823 121.812L391.099 128.956C391.099 128.956 387.451 125.764 383.195 125.764C381.371 125.764 379.395 126.6 379.395 128.576C379.395 130.308 381.81 131.257 384.774 132.423C389.485 134.275 395.583 136.673 395.583 143.624C395.583 149.627 391.023 154.795 382.967 154.795C374.531 154.795 369.895 149.703 369.895 149.703L374.379 143.092ZM229.979 118.468H221.163V154.339H229.903V137.62C229.903 135.34 229.523 131.464 229.523 131.464H229.599C229.599 131.464 231.271 135.264 232.639 137.62L242.595 154.339H251.41V118.468H242.671V135.188C242.671 137.468 243.051 141.344 243.051 141.344H242.975C242.975 141.344 241.303 137.544 239.935 135.188L229.979 118.468ZM192.359 118.468H183.619L183.543 141.116C183.543 149.172 189.471 154.871 198.591 154.871C207.635 154.871 213.563 149.172 213.563 141.116V118.468H204.823V141.116C204.823 144.916 202.315 146.892 198.591 146.892C194.791 146.892 192.359 144.84 192.359 141.116V118.468ZM259.315 118.468H268.055V154.339H259.315V118.468ZM281.051 118.468H271.551L284.243 154.339H293.363L305.979 118.468H296.555L290.171 138.912C289.487 141.192 288.803 144.688 288.803 144.688H288.727C288.727 144.688 288.043 141.192 287.359 138.912L281.051 118.468ZM309.475 118.468H331.971V125.992H318.291V132.528H329.235V140.052H318.291V146.815H332.655V154.339H309.475V118.468ZM351.275 118.468H338.812V154.263H347.551V142.18H351.655L358.039 154.263H367.843L360.851 141.724C360.015 140.28 359.483 139.596 359.483 139.596V139.52C363.055 137.696 364.879 133.516 364.879 129.716C364.879 124.548 362.295 120.824 358.267 119.304C356.671 118.696 354.923 118.468 351.275 118.468ZM355.987 130.248C355.987 133.136 354.239 134.656 351.427 134.656H347.627V125.916H350.591C354.999 125.916 355.987 127.512 355.987 130.248ZM409.947 118.468H401.207V154.339H409.947V118.468ZM424.539 125.992H413.672V118.468H444.223V125.992H433.355V154.339H424.539V125.992ZM445.971 118.468L457.827 139.596H457.675V154.263H466.415V139.596L478.271 118.468H468.315L464.287 127.132C463.147 129.564 462.159 132.3 462.159 132.3H462.083C462.083 132.3 461.095 129.564 459.955 127.132L455.927 118.468H445.971Z" fill="#1D338D"/>
</g>
<defs>
<clipPath id="clip0">
<rect width="468" height="152" fill="white" transform="translate(10 5)"/>
</clipPath>
</defs>
</svg>
