<svg width="507" height="174" viewBox="0 0 507 174" fill="none" xmlns="http://www.w3.org/2000/svg">
<path d="M442.444 116.111H171.193V131.475H442.444V116.111Z" fill="#00338D"/>
<path d="M189.881 58.7822L171.125 27.8507H188.256L194.96 40.5076C196.991 44.3656 198.752 48.4266 198.752 48.4266H198.955C198.955 48.4266 200.58 44.5009 202.747 40.5076L209.518 27.8507H226.649L207.825 58.7822L226.581 89.3076H209.789L202.679 76.38C200.512 72.522 198.887 68.7317 198.887 68.7317H198.684C198.684 68.7317 197.059 72.522 194.892 76.38L187.85 89.3076H171.193L189.881 58.7822Z" fill="#00338D"/>
<path d="M236.399 27.7834H251.431V76.3804H276.552V89.308H236.399V27.7834Z" fill="#00338D"/>
<path d="M30.7602 8.69659C41.3232 8.69659 49.9225 17.2924 49.9225 27.8511C49.9225 38.4098 41.3232 47.0733 30.7602 47.0733C20.1296 47.0733 11.5303 38.4775 11.5303 27.8511C11.5303 17.2248 20.1296 8.69659 30.7602 8.69659Z" fill="#0097DC"/>
<path d="M46.1308 58.5795H15.3899V158.345H46.1308V58.5795Z" fill="#00338D"/>
<path d="M155.823 108.801V108.259C155.687 79.3585 136.39 55.9399 104.769 55.9399C73.1475 55.9399 53.8498 79.3585 53.7144 108.259V108.801C53.7144 140.545 78.2935 161.053 109.034 161.053C125.014 161.053 141.197 153.878 151.083 141.357L130.16 125.993C124.608 132.49 117.701 137.634 107.612 137.634C95.6953 137.634 86.8928 130.054 84.4552 118.344H155.01C155.552 115.299 155.823 112.117 155.823 108.801ZM105.581 95.3319H85.8772C87.7731 87.5482 94.0702 80.5091 105.581 80.5091C117.092 80.5091 123.457 87.5482 125.285 95.3319H105.581Z" fill="#00338D"/>
<path d="M174.985 142.981H184.194V145.35H177.829V149.344H182.975V151.713H177.829V155.841H184.6V158.21H175.053V142.981H174.985Z" fill="black"/>
<path d="M190.965 150.494L186.361 142.914H189.543L191.642 146.704C192.116 147.584 192.59 148.599 192.59 148.599H192.658C192.658 148.599 193.064 147.652 193.606 146.704L195.772 142.914H198.955L194.35 150.494L199.158 158.278H196.043L193.673 154.149C193.199 153.269 192.725 152.322 192.725 152.322H192.658C192.658 152.322 192.251 153.269 191.71 154.149L189.34 158.278H186.225L190.965 150.494Z" fill="black"/>
<path d="M201.731 142.981H207.622C210.466 142.981 212.497 145.012 212.497 147.99C212.497 150.968 210.466 153.066 207.622 153.066H204.507V158.346H201.731V142.981V142.981ZM207.148 150.562C208.773 150.562 209.721 149.547 209.721 147.922C209.721 146.366 208.773 145.35 207.216 145.35H204.575V150.562H207.148V150.562Z" fill="black"/>
<path d="M222.18 142.711C226.716 142.711 230.102 146.163 230.102 150.494C230.102 155.029 226.716 158.549 222.18 158.549C217.643 158.549 214.258 155.029 214.258 150.494C214.258 146.163 217.711 142.711 222.18 142.711ZM222.18 156.044C224.956 156.044 227.258 153.743 227.258 150.562C227.258 147.516 225.024 145.283 222.18 145.283C219.336 145.283 217.101 147.516 217.101 150.562C217.169 153.676 219.404 156.044 222.18 156.044Z" fill="black"/>
<path d="M233.284 142.981H236.061L241.884 151.848C242.493 152.728 243.17 154.217 243.17 154.217H243.238C243.238 154.217 243.103 152.728 243.103 151.848V142.981H245.879V158.346H243.103L237.279 149.547C236.67 148.667 235.993 147.178 235.993 147.178H235.925C235.925 147.178 236.061 148.667 236.061 149.547V158.346H233.284V142.981Z" fill="black"/>
<path d="M250.009 142.981H259.218V145.35H252.785V149.344H257.931V151.713H252.785V155.841H259.556V158.21H250.009V142.981Z" fill="black"/>
<path d="M262.807 142.981H265.583L271.406 151.848C272.015 152.728 272.692 154.217 272.692 154.217H272.76C272.76 154.217 272.625 152.728 272.625 151.848V142.981H275.401V158.346H272.625L266.802 149.547C266.192 148.667 265.515 147.178 265.515 147.178H265.447C265.447 147.178 265.583 148.667 265.583 149.547V158.346H262.807V142.981Z" fill="black"/>
<path d="M282.714 145.35H277.703V142.981H290.568V145.35H285.557V158.278H282.781L282.714 145.35Z" fill="black"/>
<path d="M292.87 142.981H295.646V158.346H292.87V142.981Z" fill="black"/>
<path d="M307.496 154.352H302.147L300.86 158.278H298.016L303.433 142.914H306.345L311.762 158.278H308.918L307.496 154.352ZM304.787 145.621C304.787 145.621 304.449 147.11 304.11 147.99L302.756 152.119H306.751L305.397 147.99C305.126 147.11 304.855 145.621 304.787 145.621Z" fill="black"/>
<path d="M313.928 142.981H316.705V155.909H323.34V158.278H313.928V142.981V142.981Z" fill="black"/>
<path d="M331.466 142.981H334.242V155.909H340.877V158.278H331.466V142.981V142.981Z" fill="black"/>
<path d="M343.45 142.981H352.659V145.35H346.226V149.344H351.372V151.713H346.226V155.841H352.997V158.21H343.45V142.981Z" fill="black"/>
<path d="M363.831 154.352H358.415L357.128 158.278H354.284L359.701 142.914H362.613L368.03 158.278H365.186L363.831 154.352ZM361.123 145.621C361.123 145.621 360.784 147.11 360.446 147.99L359.092 152.119H363.087L361.732 147.99C361.462 147.11 361.191 145.621 361.123 145.621Z" fill="black"/>
<path d="M370.264 142.981H375.207C376.9 142.981 377.644 143.117 378.322 143.388C379.879 144.064 380.827 145.553 380.827 147.584C380.827 149.411 379.879 151.103 378.254 151.78V151.848C378.254 151.848 378.457 152.051 378.796 152.593L381.978 158.346H378.863L375.816 152.593H373.108V158.346H370.332V142.981H370.264ZM375.545 150.156C377.035 150.156 377.983 149.276 377.983 147.719C377.983 146.23 377.374 145.35 375.207 145.35H373.108V150.156H375.545Z" fill="black"/>
<path d="M384.822 142.981H387.598L393.421 151.848C394.031 152.728 394.708 154.217 394.708 154.217H394.776C394.776 154.217 394.64 152.728 394.64 151.848V142.981H397.416V158.346H394.64L388.817 149.547C388.208 148.667 387.53 147.178 387.53 147.178H387.463C387.463 147.178 387.598 148.667 387.598 149.547V158.346H384.822V142.981Z" fill="black"/>
<path d="M401.547 142.981H404.323V158.346H401.547V142.981Z" fill="black"/>
<path d="M408.521 142.981H411.297L417.12 151.848C417.73 152.728 418.407 154.217 418.407 154.217H418.475C418.475 154.217 418.339 152.728 418.339 151.848V142.981H421.115V158.346H418.339L412.516 149.547C411.907 148.667 411.229 147.178 411.229 147.178H411.162C411.162 147.178 411.297 148.667 411.297 149.547V158.346H408.521V142.981Z" fill="black"/>
<path d="M432.152 142.711C435.944 142.711 437.84 144.674 437.84 144.674L436.486 146.772C436.486 146.772 434.861 145.283 432.423 145.283C428.97 145.283 427.142 147.652 427.142 150.562C427.142 153.879 429.376 156.044 432.288 156.044C434.59 156.044 436.147 154.42 436.147 154.42V152.66H433.777V150.291H438.652V158.346H436.283V157.601C436.283 157.263 436.283 156.924 436.283 156.924H436.215C436.215 156.924 434.59 158.549 431.746 158.549C427.683 158.549 424.23 155.435 424.23 150.63C424.23 146.163 427.616 142.711 432.152 142.711Z" fill="black"/>
</svg>
