<svg width="507" height="174" viewBox="0 0 507 174" fill="none" xmlns="http://www.w3.org/2000/svg">
<path d="M439.741 143.58H181.083V159.184H439.741V143.58Z" fill="#8F2B8B"/>
<path d="M30.5049 7C41.2441 7 50.0098 15.7198 50.0098 26.5049C50.0098 37.29 41.2441 46.0098 30.5049 46.0098C19.7198 46.0098 11 37.2441 11 26.5049C11 15.7657 19.7198 7 30.5049 7Z" fill="#0097DC"/>
<path d="M46.0631 57.7588H14.8552V159.23H46.0631V57.7588Z" fill="#00338D"/>
<path d="M157.677 108.793V108.242C157.585 78.8241 137.897 55.0051 105.771 55.0051C73.6453 55.0051 54.0027 78.8241 53.865 108.242V108.793C53.865 141.102 78.8772 161.938 110.131 161.938C126.377 161.938 142.853 154.641 152.858 141.928L131.563 126.324C125.964 132.887 118.851 138.165 108.662 138.165C96.5922 138.165 87.597 130.455 85.1187 118.568H156.851C157.402 115.447 157.677 112.189 157.677 108.793ZM106.597 95.1164H86.5414C88.469 87.2226 94.8941 80.0632 106.597 80.0632C118.3 80.0632 124.725 87.2226 126.653 95.1164H106.597Z" fill="#00338D"/>
<path d="M186.82 59.5484C186.82 59.5484 189.344 62.0267 192.648 62.0267C194.438 62.0267 196.045 61.1088 196.045 59.1813C196.045 55.0049 184.984 55.7393 184.984 48.5339C184.984 44.6329 188.334 41.7416 192.832 41.7416C197.467 41.7416 199.808 44.2658 199.808 44.2658L197.972 47.7078C197.972 47.7078 195.723 45.6426 192.786 45.6426C190.813 45.6426 189.252 46.7899 189.252 48.4421C189.252 52.6185 200.267 51.5629 200.267 59.0436C200.267 62.761 197.421 65.8818 192.557 65.8818C187.325 65.8818 184.479 62.6692 184.479 62.6692L186.82 59.5484Z" fill="black"/>
<path d="M215.458 41.7416C221.148 41.7416 224.086 44.9542 224.086 44.9542L222.02 48.1209C222.02 48.1209 219.359 45.6426 215.641 45.6426C210.685 45.6426 207.793 49.3141 207.793 53.674C207.793 58.1257 210.776 62.0726 215.687 62.0726C219.726 62.0726 222.479 59.0895 222.479 59.0895L224.728 62.1644C224.728 62.1644 221.516 65.9736 215.549 65.9736C208.39 65.9736 203.433 60.6499 203.433 53.7658C203.433 46.9276 208.573 41.7416 215.458 41.7416Z" fill="black"/>
<path d="M229.134 42.1088H233.402V52.0219H244.141V42.1088H248.409V65.5147H244.141V55.6934H233.402V65.5147H229.134V42.1088Z" fill="black"/>
<path d="M265.298 41.7416C272.182 41.7416 277.414 46.9735 277.414 53.674C277.414 60.5581 272.182 65.9277 265.298 65.9277C258.414 65.9277 253.182 60.5581 253.182 53.674C253.182 46.9735 258.414 41.7416 265.298 41.7416ZM265.298 62.0267C269.566 62.0267 273.009 58.447 273.009 53.6281C273.009 48.9929 269.566 45.5967 265.298 45.5967C261.03 45.5967 257.588 49.0387 257.588 53.6281C257.588 58.4929 260.984 62.0267 265.298 62.0267Z" fill="black"/>
<path d="M292.697 41.7416C299.581 41.7416 304.813 46.9735 304.813 53.674C304.813 60.5581 299.581 65.9277 292.697 65.9277C285.813 65.9277 280.581 60.5581 280.581 53.674C280.581 46.9735 285.813 41.7416 292.697 41.7416ZM292.697 62.0267C296.965 62.0267 300.407 58.447 300.407 53.6281C300.407 48.9929 296.965 45.5967 292.697 45.5967C288.429 45.5967 284.987 49.0387 284.987 53.6281C284.987 58.4929 288.383 62.0267 292.697 62.0267Z" fill="black"/>
<path d="M309.586 42.1088H313.854V61.8432H323.997V65.5147H309.632V42.1088H309.586Z" fill="black"/>
<path d="M346.852 41.7416C353.736 41.7416 358.968 46.9735 358.968 53.674C358.968 60.5581 353.736 65.9277 346.852 65.9277C339.968 65.9277 334.736 60.5581 334.736 53.674C334.781 46.9735 339.968 41.7416 346.852 41.7416ZM346.852 62.0267C351.12 62.0267 354.562 58.447 354.562 53.6281C354.562 48.9929 351.12 45.5967 346.852 45.5967C342.583 45.5967 339.141 49.0387 339.141 53.6281C339.141 58.4929 342.583 62.0267 346.852 62.0267Z" fill="black"/>
<path d="M363.787 42.1088H377.233V45.7803H368.055V52.389H375.811V56.0605H368.055V65.5147H363.787V42.1088Z" fill="black"/>
<path d="M197.926 90.7563H189.711L187.738 96.7684H183.332L191.593 73.3625H196.044L204.305 96.7684H199.899L197.926 90.7563ZM193.796 77.4012C193.796 77.4012 193.245 79.6959 192.786 81.0268L190.721 87.3142H196.87L194.805 81.0268C194.392 79.6959 193.887 77.4012 193.887 77.4012H193.796Z" fill="black"/>
<path d="M207.793 73.3625H215.366C217.89 73.3625 219.037 73.5461 220.093 74.005C222.433 75.0606 223.902 77.3094 223.902 80.3843C223.902 83.1838 222.433 85.7998 219.955 86.7635V86.8094C219.955 86.8094 220.276 87.1307 220.735 87.9568L225.554 96.6766H220.827L216.192 87.9568H212.107V96.6766H207.793V73.3625ZM215.871 84.3311C218.165 84.3311 219.542 83.0002 219.542 80.6596C219.542 78.4108 218.578 77.034 215.274 77.034H212.061V84.3771H215.871V84.3311Z" fill="black"/>
<path d="M240.24 72.9495C245.931 72.9495 248.868 76.162 248.868 76.162L246.803 79.3287C246.803 79.3287 244.141 76.8504 240.424 76.8504C235.467 76.8504 232.576 80.522 232.576 84.8819C232.576 89.3336 235.559 93.2805 240.47 93.2805C244.508 93.2805 247.262 90.2973 247.262 90.2973L249.511 93.3722C249.511 93.3722 246.298 97.1814 240.332 97.1814C233.173 97.1814 228.216 91.8578 228.216 84.9737C228.216 78.1814 233.356 72.9495 240.24 72.9495Z" fill="black"/>
<path d="M253.962 73.3625H258.231V83.2756H268.97V73.3625H273.238V96.7684H268.97V86.9471H258.231V96.7684H253.962V73.3625Z" fill="black"/>
<path d="M279.617 73.3625H283.885V96.7684H279.617V73.3625Z" fill="black"/>
<path d="M295.129 77.034H287.465V73.3625H307.108V77.034H299.443V96.7684H295.175L295.129 77.034Z" fill="black"/>
<path d="M310.642 73.3625H324.639V77.034H314.864V83.1838H322.758V86.8553H314.864V93.1428H325.144V96.8143H310.596V73.3625H310.642Z" fill="black"/>
<path d="M340.381 72.9495C346.071 72.9495 349.009 76.162 349.009 76.162L346.943 79.3287C346.943 79.3287 344.282 76.8504 340.564 76.8504C335.608 76.8504 332.716 80.522 332.716 84.8819C332.716 89.3336 335.699 93.2805 340.61 93.2805C344.649 93.2805 347.402 90.2973 347.402 90.2973L349.651 93.3722C349.651 93.3722 346.439 97.1814 340.472 97.1814C333.313 97.1814 328.356 91.8578 328.356 84.9737C328.356 78.1814 333.497 72.9495 340.381 72.9495Z" fill="black"/>
<path d="M358.922 77.034H351.258V73.3625H370.9V77.034H363.236V96.7684H358.968V77.034H358.922Z" fill="black"/>
<path d="M374.113 73.3625H378.381V88.3698C378.381 91.4906 380.446 93.2805 383.567 93.2805C386.688 93.2805 388.799 91.4906 388.799 88.3239V73.3625H393.067V88.3698C393.067 93.6017 389.258 97.1814 383.613 97.1814C377.922 97.1814 374.159 93.6017 374.159 88.3698L374.113 73.3625Z" fill="black"/>
<path d="M399.125 73.3625H406.697C409.221 73.3625 410.369 73.5461 411.424 74.005C413.765 75.0606 415.234 77.3094 415.234 80.3843C415.234 83.1838 413.765 85.7998 411.287 86.7635V86.8094C411.287 86.8094 411.608 87.1307 412.067 87.9568L416.886 96.6766H412.159L407.523 87.9568H403.439V96.6766H399.171L399.125 73.3625ZM407.202 84.3311C409.497 84.3311 410.874 83.0002 410.874 80.6596C410.874 78.4108 409.91 77.034 406.605 77.034H403.393V84.3771H407.202V84.3311Z" fill="black"/>
<path d="M421.337 73.3625H435.335V77.034H425.56V83.1838H433.453V86.8553H425.56V93.1428H435.84V96.8143H421.292L421.337 73.3625Z" fill="black"/>
<path d="M188.793 115.539V115.493C188.793 115.493 185.81 114.346 185.81 110.399C185.81 106.223 189.16 104.249 193.199 104.249C194.667 104.249 196.274 104.662 196.274 104.662L195.264 108.012C195.264 108.012 194.484 107.829 193.704 107.829C191.73 107.829 190.124 108.93 190.124 110.95C190.124 112.281 190.904 114.07 193.704 114.07H197.421V111.041H201.597V114.07H204.626V117.742H201.597V120.496C201.597 125.268 198.477 128.435 193.199 128.435C188.105 128.435 184.8 125.36 184.8 121.413C184.8 118.843 186.315 116.411 188.793 115.539ZM193.153 124.488C195.769 124.488 197.375 123.02 197.375 120.22V117.696H193.428C190.812 117.696 189.16 118.843 189.16 121.138C189.16 122.974 190.766 124.488 193.153 124.488Z" fill="black"/>
<path d="M217.936 104.57H225.921C233.127 104.57 237.854 108.838 237.854 116.227C237.854 123.616 233.127 127.976 225.921 127.976H217.936V104.57ZM225.692 124.351C230.419 124.351 233.494 121.551 233.494 116.273C233.494 111.041 230.373 108.242 225.692 108.242H222.204V124.351H225.692Z" fill="black"/>
<path d="M242.81 104.57H256.808V108.242H247.033V114.392H254.926V118.063H247.033V124.351H257.359V128.022H242.81V104.57Z" fill="black"/>
<path d="M262.774 122.01C262.774 122.01 265.298 124.488 268.603 124.488C270.393 124.488 271.999 123.57 271.999 121.643C271.999 117.467 260.938 118.201 260.938 110.996C260.938 107.095 264.289 104.203 268.786 104.203C273.422 104.203 275.762 106.727 275.762 106.727L273.926 110.169C273.926 110.169 271.678 108.104 268.74 108.104C266.767 108.104 265.207 109.252 265.207 110.904C265.207 115.08 276.221 114.024 276.221 121.505C276.221 125.223 273.376 128.343 268.511 128.343C263.279 128.343 260.434 125.131 260.434 125.131L262.774 122.01Z" fill="black"/>
<path d="M280.994 104.57H285.262V127.976H280.994V104.57Z" fill="black"/>
<path d="M302.197 104.203C307.934 104.203 310.917 107.186 310.917 107.186L308.806 110.353C308.806 110.353 306.281 108.104 302.564 108.104C297.332 108.104 294.533 111.73 294.533 116.136C294.533 121.23 297.975 124.534 302.38 124.534C305.914 124.534 308.255 122.102 308.255 122.102V119.348H304.629V115.677H312.064V128.022H308.438V126.921C308.438 126.416 308.484 125.911 308.484 125.911H308.438C308.438 125.911 306.006 128.435 301.646 128.435C295.496 128.435 290.173 123.662 290.173 116.319C290.127 109.481 295.221 104.203 302.197 104.203Z" fill="black"/>
<path d="M317.25 104.57H321.518L330.376 118.109C331.248 119.44 332.303 121.735 332.303 121.735H332.349C332.349 121.735 332.12 119.486 332.12 118.109V104.57H336.342V127.976H332.12L323.262 114.483C322.39 113.153 321.335 110.858 321.335 110.858H321.289C321.289 110.858 321.518 113.107 321.518 114.483V127.976H317.25V104.57Z" fill="black"/>
</svg>
