<svg width="507" height="174" viewBox="0 0 507 174" fill="none" xmlns="http://www.w3.org/2000/svg">
<path d="M176.977 130.01H183.057C188.669 130.01 192.357 133.362 192.357 139.155C192.357 144.975 188.669 148.353 183.057 148.353H176.977V130.01ZM182.875 146.118C187.006 146.118 189.708 143.677 189.708 139.155C189.708 134.661 186.981 132.244 182.875 132.244H179.55V146.118H182.875V146.118Z" fill="black"/>
<path d="M196.074 135.207H198.515V137.492C198.515 138.038 198.464 138.479 198.464 138.479H198.515C199.113 136.557 200.646 135.049 202.673 135.049C203.01 135.049 203.322 135.101 203.322 135.101V137.596C203.322 137.596 202.984 137.518 202.595 137.518C200.983 137.518 199.503 138.661 198.905 140.609C198.671 141.363 198.593 142.167 198.593 142.973V148.352H196.074V135.207Z" fill="black"/>
<path d="M206.179 130.01H208.726V132.582H206.179V130.01ZM206.206 135.207H208.726V148.353H206.206V135.207Z" fill="black"/>
<path d="M211.271 135.207H213.947L217.143 144.091C217.402 144.818 217.558 145.884 217.585 145.884H217.636C217.663 145.884 217.844 144.818 218.105 144.091L221.3 135.207H223.95L219.091 148.353H216.181L211.271 135.207Z" fill="black"/>
<path d="M226.47 130.01H229.016V132.582H226.47V130.01ZM226.497 135.207H229.017V148.353H226.497V135.207Z" fill="black"/>
<path d="M233.355 135.207H235.797V136.948C235.797 137.467 235.745 137.909 235.745 137.909H235.797C236.316 136.766 237.875 134.895 240.733 134.895C243.825 134.895 245.254 136.584 245.254 139.935V148.353H242.734V140.506C242.734 138.661 242.344 137.207 240.239 137.207C238.24 137.207 236.628 138.533 236.082 140.429C235.927 140.949 235.875 141.546 235.875 142.196V148.353H233.355V135.207Z" fill="black"/>
<path d="M254.191 151.626C256.476 151.626 258.348 150.613 258.348 147.937V146.976C258.348 146.56 258.375 146.144 258.375 146.144H258.323C257.543 147.443 256.322 148.197 254.426 148.197C250.763 148.197 248.554 145.261 248.554 141.468C248.554 137.7 250.658 134.895 254.296 134.895C257.465 134.895 258.427 136.843 258.427 136.843H258.479C258.479 136.843 258.453 136.662 258.453 136.428V135.207H260.869V147.808C260.869 152.146 257.57 153.808 254.244 153.808C252.659 153.808 251.021 153.367 249.749 152.717L250.58 150.742C250.579 150.742 252.217 151.626 254.191 151.626ZM258.399 141.494C258.399 138.063 256.737 137.077 254.684 137.077C252.398 137.077 251.098 138.74 251.098 141.415C251.098 144.143 252.553 146.014 254.917 146.014C256.737 146.014 258.399 144.924 258.399 141.494Z" fill="black"/>
<path d="M272.792 130.01H275.364V148.353H272.792V130.01Z" fill="black"/>
<path d="M280.222 135.207H282.664V136.948C282.664 137.467 282.613 137.909 282.613 137.909H282.664C283.184 136.766 284.743 134.895 287.601 134.895C290.692 134.895 292.121 136.584 292.121 139.935V148.353H289.602V140.506C289.602 138.661 289.212 137.207 287.107 137.207C285.107 137.207 283.496 138.533 282.95 140.429C282.794 140.949 282.742 141.546 282.742 142.196V148.353H280.222V135.207Z" fill="black"/>
<path d="M296.278 135.207H298.72V136.948C298.72 137.467 298.668 137.909 298.668 137.909H298.72C299.24 136.766 300.798 134.895 303.656 134.895C306.747 134.895 308.177 136.584 308.177 139.935V148.353H305.657V140.506C305.657 138.661 305.267 137.207 303.163 137.207C301.163 137.207 299.552 138.533 299.005 140.429C298.85 140.949 298.798 141.546 298.798 142.196V148.353H296.278V135.207V135.207Z" fill="black"/>
<path d="M318.465 134.895C322.389 134.895 325.558 137.778 325.558 141.754C325.558 145.754 322.389 148.665 318.465 148.665C314.542 148.665 311.373 145.754 311.373 141.754C311.373 137.778 314.542 134.895 318.465 134.895ZM318.465 146.482C320.96 146.482 322.987 144.507 322.987 141.754C322.987 139.026 320.96 137.077 318.465 137.077C315.997 137.077 313.945 139.025 313.945 141.754C313.945 144.507 315.997 146.482 318.465 146.482Z" fill="black"/>
<path d="M327.143 135.207H329.819L333.014 144.091C333.274 144.818 333.43 145.884 333.456 145.884H333.508C333.534 145.884 333.716 144.818 333.976 144.091L337.172 135.207H339.821L334.963 148.353H332.053L327.143 135.207Z" fill="black"/>
<path d="M349.226 140.143H349.798V139.909C349.798 137.753 348.577 137.026 346.914 137.026C344.888 137.026 343.251 138.297 343.251 138.297L342.212 136.452C342.212 136.452 344.108 134.894 347.122 134.894C350.447 134.894 352.317 136.714 352.317 140.038V148.352H349.979V147.105C349.979 146.507 350.031 146.066 350.031 146.066H349.979C349.979 146.066 348.914 148.663 345.77 148.663C343.509 148.663 341.302 147.286 341.302 144.662C341.302 140.325 347.018 140.143 349.226 140.143ZM346.317 146.638C348.447 146.638 349.824 144.403 349.824 142.455V142.04H349.175C347.278 142.04 343.849 142.169 343.849 144.534C343.849 145.598 344.679 146.638 346.317 146.638Z" fill="black"/>
<path d="M356.942 137.414H355.228V135.389H357.02V131.595H359.462V135.389H362.632V137.414H359.462V143.26C359.462 145.884 361.308 146.222 362.268 146.222C362.632 146.222 362.866 146.17 362.866 146.17V148.405C362.866 148.405 362.502 148.456 361.982 148.456C360.293 148.456 356.942 147.935 356.942 143.546V137.414V137.414Z" fill="black"/>
<path d="M366.061 130.01H368.607V132.582H366.061V130.01ZM366.088 135.207H368.607V148.353H366.088V135.207Z" fill="black"/>
<path d="M379.077 134.895C383.001 134.895 386.17 137.778 386.17 141.754C386.17 145.754 383.001 148.665 379.077 148.665C375.154 148.665 371.985 145.754 371.985 141.754C371.985 137.778 375.155 134.895 379.077 134.895ZM379.077 146.482C381.572 146.482 383.598 144.507 383.598 141.754C383.598 139.026 381.572 137.077 379.077 137.077C376.609 137.077 374.556 139.025 374.556 141.754C374.557 144.507 376.609 146.482 379.077 146.482Z" fill="black"/>
<path d="M389.547 135.207H391.989V136.948C391.989 137.467 391.938 137.909 391.938 137.909H391.989C392.509 136.766 394.067 134.895 396.926 134.895C400.017 134.895 401.447 136.584 401.447 139.935V148.353H398.927V140.506C398.927 138.661 398.537 137.207 396.432 137.207C394.432 137.207 392.821 138.533 392.275 140.429C392.119 140.949 392.067 141.546 392.067 142.196V148.353H389.547V135.207Z" fill="black"/>
<path d="M176.929 94.8864H181.893V112.395C181.893 116.05 184.278 118.129 187.934 118.129C191.59 118.129 194.014 116.05 194.014 112.356V94.8864H198.978V112.395C198.978 118.514 194.551 122.669 187.972 122.669C181.354 122.669 176.929 118.514 176.929 112.395V94.8864H176.929Z" fill="#00338D"/>
<path d="M206.097 94.8864H211.061L221.413 110.663C222.452 112.242 223.683 114.897 223.683 114.897H223.76C223.76 114.897 223.491 112.281 223.491 110.663V94.8864H228.416V122.208H223.491L213.139 106.469C212.1 104.891 210.869 102.236 210.869 102.236H210.792C210.792 102.236 211.061 104.852 211.061 106.469V122.208H206.097V94.8864Z" fill="#00338D"/>
<path d="M235.921 94.8864H240.885V122.208H235.921V94.8864Z" fill="#00338D"/>
<path d="M244.886 94.8864H250.235L256.238 112.703C256.777 114.281 257.239 116.705 257.277 116.705H257.354C257.393 116.705 257.855 114.281 258.394 112.703L264.435 94.8864H269.745L259.779 122.208H254.854L244.886 94.8864Z" fill="#00338D"/>
<path d="M273.749 94.8864H290.104V99.1587H278.713V106.316H287.91V110.588H278.713V117.938H290.719V122.209H273.749V94.8864Z" fill="#00338D"/>
<path d="M296.452 94.8864H305.264C308.227 94.8864 309.574 95.1177 310.767 95.6565C313.499 96.8883 315.231 99.5047 315.231 103.123C315.231 106.393 313.5 109.433 310.613 110.588V110.665C310.613 110.665 310.998 111.049 311.537 112.012L317.155 122.209H311.614L306.188 112.012H301.417V122.209H296.453L296.452 94.8864ZM305.88 107.701C308.535 107.701 310.19 106.123 310.19 103.391C310.19 100.774 309.074 99.1573 305.188 99.1573H301.417V107.7H305.88V107.701H305.88Z" fill="#00338D"/>
<path d="M322.967 115.205C322.967 115.205 325.93 118.091 329.778 118.091C331.856 118.091 333.742 117.012 333.742 114.781C333.742 109.895 320.851 110.74 320.851 102.352C320.851 97.8107 324.776 94.4251 330.009 94.4251C335.396 94.4251 338.167 97.35 338.167 97.35L336.012 101.39C336.012 101.39 333.395 99.0049 329.971 99.0049C327.662 99.0049 325.853 100.352 325.853 102.276C325.853 107.124 338.706 105.931 338.706 114.667C338.706 119.016 335.396 122.67 329.701 122.67C323.621 122.67 320.273 118.938 320.273 118.938L322.967 115.205Z" fill="#00338D"/>
<path d="M344.246 94.8864H349.21V122.208H344.246V94.8864Z" fill="#00338D"/>
<path d="M362.371 99.1578H353.405V94.8864H376.301V99.1578H367.336V122.208H362.371V99.1578Z" fill="#00338D"/>
<path d="M387.307 110.779L378.226 94.8864H383.843L388.115 102.928C389.001 104.621 389.731 106.623 389.77 106.585H389.846C389.846 106.585 390.616 104.622 391.5 102.928L395.734 94.8864H401.352L392.27 110.779V122.208H387.307V110.779Z" fill="#00338D"/>
<path d="M30.2165 7.06523C40.969 7.06523 49.731 15.7942 49.731 26.566C49.731 37.3378 40.9694 46.0934 30.2165 46.0934C19.4374 46.0934 10.7024 37.3378 10.7024 26.566C10.7029 15.7942 19.4374 7.06523 30.2165 7.06523Z" fill="#0097DC"/>
<path d="M45.8188 57.8014H14.5967V159.274H45.8188V57.8014Z" fill="#00338D"/>
<path d="M157.408 108.859L157.408 108.304C157.301 78.8928 137.635 55.0909 105.517 55.0909C73.3981 55.0909 53.7322 78.8928 53.6252 108.304L53.6248 108.859C53.6248 141.162 78.6328 162.001 109.893 162.001C126.149 162.001 142.612 154.707 152.615 141.994L131.341 126.394C125.729 132.974 118.645 138.244 108.434 138.244C96.3465 138.244 87.3852 130.532 84.884 118.653H156.584C157.116 115.52 157.408 112.257 157.408 108.859ZM106.327 95.1994H86.2691C88.187 87.29 94.6222 80.1242 106.327 80.1242C118.032 80.1242 124.467 87.2896 126.385 95.1994H106.327Z" fill="#00338D"/>
</svg>
