<svg width="167" height="174" viewBox="0 0 167 174" fill="none" xmlns="http://www.w3.org/2000/svg">
<path d="M30.5049 7C41.2441 7 50.0098 15.7198 50.0098 26.5049C50.0098 37.29 41.2441 46.0098 30.5049 46.0098C19.7198 46.0098 11 37.29 11 26.5049C11 15.7198 19.7198 7 30.5049 7Z" fill="#0097DC"/>
<path fill-rule="evenodd" clip-rule="evenodd" d="M157.723 108.242V108.793C157.723 112.189 157.402 115.447 156.851 118.568H85.1646C87.6429 130.455 96.6381 138.165 108.708 138.165C118.897 138.165 126.01 132.887 131.609 126.324L152.904 141.928C142.899 154.641 126.423 161.938 110.177 161.938C78.9231 161.938 53.9109 141.102 53.9109 108.793V108.242C54.0486 78.8239 73.6912 55.005 105.817 55.005C137.943 55.005 157.631 78.8239 157.723 108.242ZM86.5873 95.1163H106.643H126.699C124.771 87.2225 118.346 80.0631 106.643 80.0631C94.94 80.0631 88.5149 87.2225 86.5873 95.1163ZM14.9009 57.7587H46.1087V159.23H14.9009V57.7587Z" fill="#00338D"/>
</svg>
