<svg width="507" height="174" viewBox="0 0 507 174" fill="none" xmlns="http://www.w3.org/2000/svg">
<path d="M177 58L177 159L185 159L185 58L177 58Z" fill="#0097DC"/>
<path d="M30.5049 7C41.2441 7 50.0098 15.7198 50.0098 26.5049C50.0098 37.29 41.2441 46.0557 30.5049 46.0557C19.7198 46.0557 11 37.29 11 26.5049C11 15.7198 19.7198 7 30.5049 7Z" fill="#0097DC"/>
<path d="M46.1085 57.7588H14.9006V159.23H46.1085V57.7588Z" fill="#00338D"/>
<path d="M157.676 108.793V108.242C157.585 78.8241 137.896 55.0051 105.771 55.0051C73.6448 55.0051 54.0022 78.8241 53.8645 108.242V108.793C53.8645 141.102 78.8767 161.938 110.13 161.938C126.377 161.938 142.853 154.641 152.858 141.928L131.563 126.324C125.964 132.887 118.85 138.165 108.662 138.165C96.5917 138.165 87.5965 130.455 85.1182 118.568H156.805C157.401 115.493 157.676 112.235 157.676 108.793ZM106.597 95.1623H86.541C88.4685 87.2685 94.8936 80.1091 106.597 80.1091C118.3 80.1091 124.725 87.2685 126.652 95.1623H106.597Z" fill="#00338D"/>
<path d="M210.14 94.24C211.673 94.24 212.927 93.6333 213.9 92.42L215.9 94.48C214.313 96.2667 212.44 97.16 210.28 97.16C208.133 97.16 206.36 96.48 204.96 95.12C203.573 93.76 202.88 92.0467 202.88 89.98C202.88 87.9 203.587 86.1667 205 84.78C206.427 83.3933 208.167 82.7 210.22 82.7C212.513 82.7 214.433 83.5733 215.98 85.32L214.04 87.52C213.053 86.2933 211.827 85.68 210.36 85.68C209.187 85.68 208.18 86.0667 207.34 86.84C206.513 87.6 206.1 88.6333 206.1 89.94C206.1 91.2333 206.493 92.2733 207.28 93.06C208.067 93.8467 209.02 94.24 210.14 94.24Z" fill="black"/>
<path d="M228.448 83.02V85.8H221.488V88.68H227.748V91.34H221.488V94.24H228.668V97H218.368V83.02H228.448Z" fill="black"/>
<path d="M241.234 83.02H244.354V97H241.234L234.574 88.24V97H231.454V83.02H234.374L241.234 92.02V83.02Z" fill="black"/>
<path d="M253.722 85.72V97H250.602V85.72H246.642V83.02H257.682V85.72H253.722Z" fill="black"/>
<path d="M270.05 83.02V85.8H263.09V88.68H269.35V91.34H263.09V94.24H270.27V97H259.97V83.02H270.05Z" fill="black"/>
<path d="M284.396 87.66C284.396 89.9 283.509 91.3467 281.736 92L285.276 97H281.436L278.336 92.54H276.176V97H273.056V83.02H278.356C280.529 83.02 282.076 83.3867 282.996 84.12C283.929 84.8533 284.396 86.0333 284.396 87.66ZM278.456 89.84C279.522 89.84 280.249 89.6667 280.636 89.32C281.022 88.9733 281.216 88.4267 281.216 87.68C281.216 86.92 281.016 86.4 280.616 86.12C280.216 85.84 279.516 85.7 278.516 85.7H276.176V89.84H278.456Z" fill="black"/>
<path d="M302.461 83.02V85.76H295.981V88.78H302.141V91.52H295.981V97H292.861V83.02H302.461Z" fill="black"/>
<path d="M315.807 89.94C315.807 88.6867 315.407 87.62 314.607 86.74C313.807 85.86 312.82 85.42 311.647 85.42C310.487 85.42 309.507 85.86 308.707 86.74C307.907 87.62 307.507 88.6867 307.507 89.94C307.507 91.18 307.907 92.24 308.707 93.12C309.507 93.9867 310.487 94.42 311.647 94.42C312.82 94.42 313.807 93.9867 314.607 93.12C315.407 92.24 315.807 91.18 315.807 89.94ZM316.867 95.08C315.453 96.4533 313.713 97.14 311.647 97.14C309.58 97.14 307.84 96.4533 306.427 95.08C305.013 93.6933 304.307 91.9733 304.307 89.92C304.307 87.8667 305.013 86.1533 306.427 84.78C307.84 83.3933 309.58 82.7 311.647 82.7C313.713 82.7 315.453 83.3933 316.867 84.78C318.28 86.1533 318.987 87.8667 318.987 89.92C318.987 91.9733 318.28 93.6933 316.867 95.08Z" fill="black"/>
<path d="M332.97 87.66C332.97 89.9 332.083 91.3467 330.31 92L333.85 97H330.01L326.91 92.54H324.75V97H321.63V83.02H326.93C329.103 83.02 330.65 83.3867 331.57 84.12C332.503 84.8533 332.97 86.0333 332.97 87.66ZM327.03 89.84C328.097 89.84 328.823 89.6667 329.21 89.32C329.597 88.9733 329.79 88.4267 329.79 87.68C329.79 86.92 329.59 86.4 329.19 86.12C328.79 85.84 328.09 85.7 327.09 85.7H324.75V89.84H327.03Z" fill="black"/>
<path d="M210.14 116.24C211.673 116.24 212.927 115.633 213.9 114.42L215.9 116.48C214.313 118.267 212.44 119.16 210.28 119.16C208.133 119.16 206.36 118.48 204.96 117.12C203.573 115.76 202.88 114.047 202.88 111.98C202.88 109.9 203.587 108.167 205 106.78C206.427 105.393 208.167 104.7 210.22 104.7C212.513 104.7 214.433 105.573 215.98 107.32L214.04 109.52C213.053 108.293 211.827 107.68 210.36 107.68C209.187 107.68 208.18 108.067 207.34 108.84C206.513 109.6 206.1 110.633 206.1 111.94C206.1 113.233 206.493 114.273 207.28 115.06C208.067 115.847 209.02 116.24 210.14 116.24Z" fill="black"/>
<path d="M228.775 111.94C228.775 110.687 228.375 109.62 227.575 108.74C226.775 107.86 225.789 107.42 224.615 107.42C223.455 107.42 222.475 107.86 221.675 108.74C220.875 109.62 220.475 110.687 220.475 111.94C220.475 113.18 220.875 114.24 221.675 115.12C222.475 115.987 223.455 116.42 224.615 116.42C225.789 116.42 226.775 115.987 227.575 115.12C228.375 114.24 228.775 113.18 228.775 111.94ZM229.835 117.08C228.422 118.453 226.682 119.14 224.615 119.14C222.549 119.14 220.809 118.453 219.395 117.08C217.982 115.693 217.275 113.973 217.275 111.92C217.275 109.867 217.982 108.153 219.395 106.78C220.809 105.393 222.549 104.7 224.615 104.7C226.682 104.7 228.422 105.393 229.835 106.78C231.249 108.153 231.955 109.867 231.955 111.92C231.955 113.973 231.249 115.693 229.835 117.08Z" fill="black"/>
<path d="M245.939 109.66C245.939 111.9 245.052 113.347 243.279 114L246.819 119H242.979L239.879 114.54H237.719V119H234.599V105.02H239.899C242.072 105.02 243.619 105.387 244.539 106.12C245.472 106.853 245.939 108.033 245.939 109.66ZM239.999 111.84C241.065 111.84 241.792 111.667 242.179 111.32C242.565 110.973 242.759 110.427 242.759 109.68C242.759 108.92 242.559 108.4 242.159 108.12C241.759 107.84 241.059 107.7 240.059 107.7H237.719V111.84H239.999Z" fill="black"/>
<path d="M254.07 105.02C256.217 105.02 257.777 105.44 258.75 106.28C259.737 107.107 260.23 108.387 260.23 110.12C260.23 111.84 259.723 113.1 258.71 113.9C257.71 114.7 256.177 115.1 254.11 115.1H252.25V119H249.13V105.02H254.07ZM254.35 112.4C255.39 112.4 256.097 112.193 256.47 111.78C256.843 111.353 257.03 110.74 257.03 109.94C257.03 109.127 256.783 108.553 256.29 108.22C255.81 107.873 255.057 107.7 254.03 107.7H252.25V112.4H254.35Z" fill="black"/>
<path d="M273.365 111.94C273.365 110.687 272.965 109.62 272.165 108.74C271.365 107.86 270.379 107.42 269.205 107.42C268.045 107.42 267.065 107.86 266.265 108.74C265.465 109.62 265.065 110.687 265.065 111.94C265.065 113.18 265.465 114.24 266.265 115.12C267.065 115.987 268.045 116.42 269.205 116.42C270.379 116.42 271.365 115.987 272.165 115.12C272.965 114.24 273.365 113.18 273.365 111.94ZM274.425 117.08C273.012 118.453 271.272 119.14 269.205 119.14C267.139 119.14 265.399 118.453 263.985 117.08C262.572 115.693 261.865 113.973 261.865 111.92C261.865 109.867 262.572 108.153 263.985 106.78C265.399 105.393 267.139 104.7 269.205 104.7C271.272 104.7 273.012 105.393 274.425 106.78C275.839 108.153 276.545 109.867 276.545 111.92C276.545 113.973 275.839 115.693 274.425 117.08Z" fill="black"/>
<path d="M290.529 109.66C290.529 111.9 289.642 113.347 287.869 114L291.409 119H287.569L284.469 114.54H282.309V119H279.189V105.02H284.489C286.662 105.02 288.209 105.387 289.129 106.12C290.062 106.853 290.529 108.033 290.529 109.66ZM284.589 111.84C285.655 111.84 286.382 111.667 286.769 111.32C287.155 110.973 287.349 110.427 287.349 109.68C287.349 108.92 287.149 108.4 286.749 108.12C286.349 107.84 285.649 107.7 284.649 107.7H282.309V111.84H284.589Z" fill="black"/>
<path d="M303.68 119L302.38 115.98H296.52L295.22 119H291.9L297.94 105.02H300.96L307 119H303.68ZM299.46 109.18L297.7 113.24H301.2L299.46 109.18Z" fill="black"/>
<path d="M313.527 107.72V119H310.407V107.72H306.447V105.02H317.487V107.72H313.527Z" fill="black"/>
<path d="M329.855 105.02V107.8H322.895V110.68H329.155V113.34H322.895V116.24H330.075V119H319.775V105.02H329.855Z" fill="black"/>
<path d="M338.134 119V105.02H341.254V116.22H347.214V119H338.134Z" fill="black"/>
<path d="M359.581 105.02V107.8H352.621V110.68H358.881V113.34H352.621V116.24H359.801V119H349.501V105.02H359.581Z" fill="black"/>
<path d="M372.547 119L371.247 115.98H365.387L364.087 119H360.767L366.807 105.02H369.827L375.867 119H372.547ZM368.327 109.18L366.567 113.24H370.067L368.327 109.18Z" fill="black"/>
<path d="M388.829 109.66C388.829 111.9 387.943 113.347 386.169 114L389.709 119H385.869L382.769 114.54H380.609V119H377.489V105.02H382.789C384.963 105.02 386.509 105.387 387.429 106.12C388.363 106.853 388.829 108.033 388.829 109.66ZM382.889 111.84C383.956 111.84 384.683 111.667 385.069 111.32C385.456 110.973 385.649 110.427 385.649 109.68C385.649 108.92 385.449 108.4 385.049 108.12C384.649 107.84 383.949 107.7 382.949 107.7H380.609V111.84H382.889Z" fill="black"/>
<path d="M401.801 105.02H404.921V119H401.801L395.141 110.24V119H392.021V105.02H394.941L401.801 114.02V105.02Z" fill="black"/>
<path d="M408.368 105.02H411.488V119H408.368V105.02Z" fill="black"/>
<path d="M424.711 105.02H427.831V119H424.711L418.051 110.24V119H414.931V105.02H417.851L424.711 114.02V105.02Z" fill="black"/>
<path d="M440.358 111.88H443.498V116.84C442.112 118.387 440.192 119.16 437.738 119.16C435.685 119.16 433.958 118.48 432.558 117.12C431.172 115.76 430.478 114.047 430.478 111.98C430.478 109.9 431.185 108.167 432.598 106.78C434.025 105.393 435.738 104.7 437.738 104.7C439.752 104.7 441.498 105.36 442.978 106.68L441.358 109.02C440.732 108.473 440.152 108.1 439.618 107.9C439.098 107.687 438.532 107.58 437.918 107.58C436.732 107.58 435.732 107.987 434.918 108.8C434.105 109.6 433.698 110.66 433.698 111.98C433.698 113.3 434.085 114.36 434.858 115.16C435.645 115.947 436.578 116.34 437.658 116.34C438.738 116.34 439.638 116.133 440.358 115.72V111.88Z" fill="black"/>
<path d="M203.72 127.02H206.84V141H203.72V127.02Z" fill="black"/>
<path d="M220.062 127.02H223.182V141H220.062L213.402 132.24V141H210.282V127.02H213.202L220.062 136.02V127.02Z" fill="black"/>
<path d="M236.41 127.02H239.53V141H236.41L229.75 132.24V141H226.63V127.02H229.55L236.41 136.02V127.02Z" fill="black"/>
<path d="M253.678 133.94C253.678 132.687 253.278 131.62 252.478 130.74C251.678 129.86 250.691 129.42 249.518 129.42C248.358 129.42 247.378 129.86 246.578 130.74C245.778 131.62 245.378 132.687 245.378 133.94C245.378 135.18 245.778 136.24 246.578 137.12C247.378 137.987 248.358 138.42 249.518 138.42C250.691 138.42 251.678 137.987 252.478 137.12C253.278 136.24 253.678 135.18 253.678 133.94ZM254.738 139.08C253.324 140.453 251.584 141.14 249.518 141.14C247.451 141.14 245.711 140.453 244.298 139.08C242.884 137.693 242.178 135.973 242.178 133.92C242.178 131.867 242.884 130.153 244.298 128.78C245.711 127.393 247.451 126.7 249.518 126.7C251.584 126.7 253.324 127.393 254.738 128.78C256.151 130.153 256.858 131.867 256.858 133.92C256.858 135.973 256.151 137.693 254.738 139.08Z" fill="black"/>
<path d="M264.349 135.92L267.909 127.02H271.289L265.669 141H263.029L257.409 127.02H260.789L264.349 135.92Z" fill="black"/>
<path d="M282.059 141L280.759 137.98H274.899L273.599 141H270.279L276.319 127.02H279.339L285.379 141H282.059ZM277.839 131.18L276.079 135.24H279.579L277.839 131.18Z" fill="black"/>
<path d="M291.906 129.72V141H288.786V129.72H284.826V127.02H295.866V129.72H291.906Z" fill="black"/>
<path d="M298.153 127.02H301.273V141H298.153V127.02Z" fill="black"/>
<path d="M315.416 133.94C315.416 132.687 315.016 131.62 314.216 130.74C313.416 129.86 312.429 129.42 311.256 129.42C310.096 129.42 309.116 129.86 308.316 130.74C307.516 131.62 307.116 132.687 307.116 133.94C307.116 135.18 307.516 136.24 308.316 137.12C309.116 137.987 310.096 138.42 311.256 138.42C312.429 138.42 313.416 137.987 314.216 137.12C315.016 136.24 315.416 135.18 315.416 133.94ZM316.476 139.08C315.063 140.453 313.323 141.14 311.256 141.14C309.189 141.14 307.449 140.453 306.036 139.08C304.623 137.693 303.916 135.973 303.916 133.92C303.916 131.867 304.623 130.153 306.036 128.78C307.449 127.393 309.189 126.7 311.256 126.7C313.323 126.7 315.063 127.393 316.476 128.78C317.889 130.153 318.596 131.867 318.596 133.92C318.596 135.973 317.889 137.693 316.476 139.08Z" fill="black"/>
<path d="M331.019 127.02H334.139V141H331.019L324.359 132.24V141H321.239V127.02H324.159L331.019 136.02V127.02Z" fill="black"/>
</svg>
