<svg width="507" height="174" viewBox="0 0 507 174" fill="none" xmlns="http://www.w3.org/2000/svg">
<path fill-rule="evenodd" clip-rule="evenodd" d="M185.386 115.554C187.662 115.554 189.08 114.202 189.08 111.861C189.08 109.618 188.123 108.234 184.793 108.234H181.561V115.554H185.386ZM177.307 104.573H184.859C187.398 104.573 188.552 104.771 189.574 105.233C191.916 106.288 193.399 108.53 193.399 111.63C193.399 114.433 191.916 117.038 189.442 118.027V118.094C189.442 118.094 189.772 118.423 190.234 119.248L195.048 127.987H190.3L185.65 119.248H181.561V127.987H177.307V104.573Z" fill="black"/>
<path fill-rule="evenodd" clip-rule="evenodd" d="M209.26 117.5C209.195 115.225 207.777 114.005 205.93 114.005C203.786 114.005 202.302 115.324 201.907 117.5H209.26ZM206.028 110.773C210.876 110.773 213.481 114.301 213.481 118.753C213.481 119.248 213.382 120.369 213.382 120.369H201.775C202.038 123.304 204.314 124.82 206.82 124.82C209.524 124.82 211.667 122.974 211.667 122.974L213.284 125.975C213.284 125.975 210.711 128.382 206.523 128.382C200.95 128.382 197.488 124.359 197.488 119.578C197.488 114.4 201.016 110.773 206.028 110.773Z" fill="black"/>
<path fill-rule="evenodd" clip-rule="evenodd" d="M217.437 111.169H221.625V127.986H217.437V111.169ZM217.437 104.574H221.592V108.3H217.437V104.574Z" fill="black"/>
<path fill-rule="evenodd" clip-rule="evenodd" d="M226.735 111.169H230.759V113.114C230.759 113.74 230.693 114.269 230.693 114.269H230.759C231.484 112.851 233.331 110.773 236.728 110.773C240.454 110.773 242.564 112.718 242.564 117.17V127.986H238.409V118.027C238.409 115.983 237.882 114.598 235.738 114.598C233.496 114.598 231.847 116.016 231.22 118.027C230.989 118.72 230.923 119.479 230.923 120.27V127.986H226.735V111.169Z" fill="black"/>
<path fill-rule="evenodd" clip-rule="evenodd" d="M245.135 111.169H249.554L253.05 121.589C253.38 122.578 253.611 124.128 253.643 124.128H253.709C253.742 124.128 253.973 122.578 254.303 121.589L257.799 111.169H262.217L256.183 127.986H251.236L245.135 111.169Z" fill="black"/>
<path fill-rule="evenodd" clip-rule="evenodd" d="M275.638 117.5C275.572 115.225 274.154 114.005 272.307 114.005C270.164 114.005 268.68 115.324 268.284 117.5H275.638ZM272.406 110.773C277.253 110.773 279.859 114.301 279.859 118.753C279.859 119.248 279.76 120.369 279.76 120.369H268.152C268.416 123.304 270.691 124.82 273.198 124.82C275.902 124.82 278.045 122.974 278.045 122.974L279.661 125.975C279.661 125.975 277.088 128.382 272.9 128.382C267.328 128.382 263.866 124.359 263.866 119.578C263.866 114.4 267.394 110.773 272.406 110.773Z" fill="black"/>
<path fill-rule="evenodd" clip-rule="evenodd" d="M283.814 111.169H287.838V113.114C287.838 113.74 287.772 114.269 287.772 114.269H287.838C288.564 112.851 290.41 110.773 293.806 110.773C297.533 110.773 299.643 112.718 299.643 117.17V127.986H295.488V118.027C295.488 115.983 294.961 114.598 292.817 114.598C290.575 114.598 288.926 116.016 288.299 118.027C288.068 118.72 288.003 119.479 288.003 120.27V127.986H283.814V111.169Z" fill="black"/>
<path fill-rule="evenodd" clip-rule="evenodd" d="M305.248 114.763H303.072V111.432H305.347V106.585H309.436V111.432H313.261V114.763H309.436V121.293C309.436 124.062 311.612 124.458 312.767 124.458C313.228 124.458 313.525 124.392 313.525 124.392V128.052C313.525 128.052 313.03 128.151 312.239 128.151C309.898 128.151 305.248 127.459 305.248 121.82V114.763Z" fill="black"/>
<path fill-rule="evenodd" clip-rule="evenodd" d="M317.448 111.169H321.637V127.986H317.448V111.169ZM317.448 104.574H321.603V108.3H317.448V104.574Z" fill="black"/>
<path fill-rule="evenodd" clip-rule="evenodd" d="M326.747 111.169H330.771V113.114C330.771 113.74 330.705 114.269 330.705 114.269H330.771C331.496 112.851 333.343 110.773 336.739 110.773C340.466 110.773 342.576 112.718 342.576 117.17V127.986H338.421V118.027C338.421 115.983 337.894 114.598 335.75 114.598C333.507 114.598 331.859 116.016 331.232 118.027C331.001 118.72 330.936 119.479 330.936 120.27V127.986H326.747V111.169Z" fill="black"/>
<path fill-rule="evenodd" clip-rule="evenodd" d="M358.667 119.182C358.667 115.357 356.787 114.334 354.512 114.334C351.973 114.334 350.555 116.181 350.555 119.017C350.555 121.952 352.072 124.128 354.776 124.128C356.788 124.128 358.667 122.974 358.667 119.182ZM353.82 131.35C356.392 131.35 358.568 130.262 358.568 127.261V126.272C358.568 125.876 358.634 125.381 358.634 125.381H358.568C357.579 126.865 356.128 127.657 353.886 127.657C349.071 127.657 346.334 123.765 346.334 119.149C346.334 114.532 348.939 110.773 353.786 110.773C357.447 110.773 358.766 112.917 358.766 112.917H358.866C358.866 112.917 358.832 112.718 358.832 112.455V111.169H362.756V126.964C362.756 132.735 358.272 134.911 353.886 134.911C351.775 134.911 349.533 134.318 347.917 133.46L349.17 130.262C349.17 130.262 351.281 131.35 353.82 131.35Z" fill="black"/>
<path fill-rule="evenodd" clip-rule="evenodd" d="M177.307 135.793H181.561V145.719H192.279V135.793H196.533V159.206H192.279V149.379H181.561V159.206H177.307V135.793Z" fill="black"/>
<path fill-rule="evenodd" clip-rule="evenodd" d="M202.301 142.388H206.49V159.206H202.301V142.388ZM202.301 135.793H206.456V139.519H202.301V135.793Z" fill="black"/>
<path fill-rule="evenodd" clip-rule="evenodd" d="M222.813 150.402C222.813 146.576 220.933 145.554 218.657 145.554C216.118 145.554 214.7 147.401 214.7 150.237C214.7 153.171 216.217 155.347 218.922 155.347C220.933 155.347 222.813 154.194 222.813 150.402ZM217.965 162.57C220.537 162.57 222.713 161.482 222.713 158.481V157.491C222.713 157.096 222.78 156.601 222.78 156.601H222.713C221.724 158.085 220.274 158.876 218.031 158.876C213.217 158.876 210.479 154.985 210.479 150.368C210.479 145.752 213.084 141.992 217.932 141.992C221.593 141.992 222.912 144.136 222.912 144.136H223.01C223.01 144.136 222.977 143.938 222.977 143.674V142.388H226.902V158.184C226.902 163.954 222.417 166.131 218.031 166.131C215.92 166.131 213.678 165.537 212.062 164.68L213.316 161.482C213.316 161.482 215.426 162.57 217.965 162.57Z" fill="black"/>
<path fill-rule="evenodd" clip-rule="evenodd" d="M232.011 135.793H236.2V143.905C236.2 144.729 236.133 145.323 236.133 145.323H236.2C237.024 143.707 239.068 141.992 242.003 141.992C245.73 141.992 247.84 143.938 247.84 148.39V159.206H243.685V149.247C243.685 147.203 243.157 145.818 241.014 145.818C238.805 145.818 237.089 147.269 236.463 149.313C236.266 149.972 236.2 150.698 236.2 151.49V159.206H232.011V135.793Z" fill="black"/>
<path fill-rule="evenodd" clip-rule="evenodd" d="M263.305 148.719C263.239 146.444 261.821 145.224 259.974 145.224C257.83 145.224 256.347 146.543 255.951 148.719H263.305ZM260.073 141.992C264.921 141.992 267.526 145.521 267.526 149.972C267.526 150.468 267.426 151.588 267.426 151.588H255.819C256.083 154.524 258.358 156.04 260.865 156.04C263.569 156.04 265.712 154.194 265.712 154.194L267.328 157.195C267.328 157.195 264.755 159.602 260.568 159.602C254.995 159.602 251.532 155.578 251.532 150.797C251.532 145.62 255.061 141.992 260.073 141.992Z" fill="black"/>
<path fill-rule="evenodd" clip-rule="evenodd" d="M271.481 142.388H275.505V145.29C275.505 145.917 275.439 146.477 275.439 146.477H275.505C276.263 144.07 278.275 142.157 280.847 142.157C281.242 142.157 281.605 142.223 281.605 142.223V146.345C281.605 146.345 281.176 146.279 280.616 146.279C278.835 146.279 276.824 147.301 276.032 149.808C275.769 150.632 275.669 151.556 275.669 152.545V159.206H271.481V142.388Z" fill="black"/>
<path fill-rule="evenodd" clip-rule="evenodd" d="M294.102 135.793H308.117V139.454H298.356V145.587H306.237V149.247H298.356V155.546H308.644V159.206H294.102V135.793Z" fill="black"/>
<path fill-rule="evenodd" clip-rule="evenodd" d="M320.152 156.073C322.329 156.073 324.373 154.49 324.373 150.764C324.373 148.159 322.988 145.586 320.185 145.586C317.877 145.586 315.964 147.466 315.964 150.797C315.964 153.996 317.679 156.073 320.152 156.073ZM319.361 141.992C323.054 141.992 324.208 144.136 324.208 144.136H324.274C324.274 144.136 324.241 143.707 324.241 143.179V135.793H328.429V159.206H324.472V157.821C324.472 157.194 324.538 156.733 324.538 156.733H324.472C324.472 156.733 323.054 159.602 319.196 159.602C314.645 159.602 311.743 156.008 311.743 150.797C311.743 145.455 314.909 141.992 319.361 141.992Z" fill="black"/>
<path fill-rule="evenodd" clip-rule="evenodd" d="M333.308 142.388H337.496V152.347C337.496 154.392 338.024 155.777 340.102 155.777C343.135 155.777 344.817 153.106 344.817 150.105V142.388H349.005V159.206H344.982V157.293C344.982 156.634 345.048 156.107 345.048 156.107H344.982C344.158 157.854 342.014 159.602 339.145 159.602C335.551 159.602 333.308 157.788 333.308 153.204V142.388Z" fill="black"/>
<path fill-rule="evenodd" clip-rule="evenodd" d="M362.03 141.992C366.416 141.992 368.493 144.499 368.493 144.499L366.646 147.367C366.646 147.367 364.899 145.554 362.26 145.554C359.161 145.554 357.149 147.895 357.149 150.764C357.149 153.6 359.193 156.04 362.393 156.04C365.228 156.04 367.339 153.897 367.339 153.897L368.955 156.865C368.955 156.865 366.547 159.602 362.03 159.602C356.457 159.602 352.895 155.677 352.895 150.797C352.895 146.016 356.457 141.992 362.03 141.992Z" fill="black"/>
<path fill-rule="evenodd" clip-rule="evenodd" d="M377.924 156.337C380.133 156.337 381.716 153.963 381.716 151.918V151.522H380.991C378.847 151.522 375.385 151.819 375.385 154.161C375.385 155.282 376.209 156.337 377.924 156.337ZM381.122 148.654H381.683V148.423C381.683 146.213 380.298 145.455 378.451 145.455C376.044 145.455 373.834 147.071 373.834 147.071L372.252 144.07C372.252 144.07 374.856 141.992 378.847 141.992C383.266 141.992 385.838 144.433 385.838 148.687V159.206H381.98V157.821C381.98 157.161 382.045 156.634 382.045 156.634H381.98C382.013 156.634 380.694 159.602 376.868 159.602C373.867 159.602 371.164 157.722 371.164 154.359C371.164 149.016 378.385 148.654 381.122 148.654Z" fill="black"/>
<path fill-rule="evenodd" clip-rule="evenodd" d="M391.311 145.982H389.135V142.652H391.41V137.805H395.499V142.652H399.324V145.982H395.499V152.512C395.499 155.282 397.676 155.677 398.83 155.677C399.291 155.677 399.588 155.612 399.588 155.612V159.272C399.588 159.272 399.094 159.371 398.302 159.371C395.961 159.371 391.311 158.678 391.311 153.039V145.982Z" fill="black"/>
<path fill-rule="evenodd" clip-rule="evenodd" d="M403.511 142.388H407.699V159.206H403.511V142.388ZM403.511 135.793H407.666V139.519H403.511V135.793Z" fill="black"/>
<path fill-rule="evenodd" clip-rule="evenodd" d="M420.824 156.04C423.528 156.04 425.803 153.93 425.803 150.797C425.803 147.697 423.528 145.554 420.824 145.554C418.087 145.554 415.811 147.697 415.811 150.797C415.811 153.93 418.087 156.04 420.824 156.04ZM420.791 141.992C425.935 141.992 430.057 145.652 430.057 150.797C430.057 155.974 425.935 159.602 420.824 159.602C415.68 159.602 411.557 155.974 411.557 150.797C411.557 145.652 415.68 141.992 420.791 141.992Z" fill="black"/>
<path fill-rule="evenodd" clip-rule="evenodd" d="M433.914 142.388H437.938V144.333C437.938 144.96 437.871 145.488 437.871 145.488H437.938C438.663 144.07 440.509 141.992 443.906 141.992C447.633 141.992 449.743 143.938 449.743 148.39V159.206H445.588V149.247C445.588 147.203 445.06 145.818 442.917 145.818C440.674 145.818 439.026 147.236 438.399 149.247C438.168 149.94 438.102 150.698 438.102 151.49V159.206H433.914V142.388Z" fill="black"/>
<path fill-rule="evenodd" clip-rule="evenodd" d="M30.5141 7C41.2666 7 50.0282 15.729 50.0282 26.5008C50.0282 37.2725 41.2666 46.0277 30.5141 46.0277C19.735 46.0277 11 37.2725 11 26.5008C11 15.729 19.735 7 30.5141 7Z" fill="#0098E0"/>
<path fill-rule="evenodd" clip-rule="evenodd" d="M14.894 159.209H46.1161V57.7362H14.894V159.209Z" fill="#002F91"/>
<path fill-rule="evenodd" clip-rule="evenodd" d="M106.624 95.1347H86.5665C88.4844 87.2249 94.9201 80.059 106.624 80.059C118.329 80.059 124.764 87.2249 126.682 95.1347H106.624ZM157.706 108.794L157.705 108.24C157.598 78.8276 137.932 55.0257 105.814 55.0257C73.6956 55.0257 54.0295 78.8276 53.9225 108.24L53.9216 108.794C53.9216 141.096 78.9298 161.935 110.19 161.935C126.446 161.935 142.909 154.642 152.913 141.929L131.639 126.329C126.027 132.908 118.943 138.178 108.731 138.178C96.6443 138.178 87.6831 130.467 85.1823 118.589H156.882C157.413 115.455 157.706 112.192 157.706 108.794Z" fill="#002F91"/>
</svg>
