<svg width="507" height="174" viewBox="0 0 507 174" fill="none" xmlns="http://www.w3.org/2000/svg">
<g clip-path="url(#clip0)">
<path d="M30.6065 7.38651C34.4642 7.38651 38.2352 8.53045 41.4428 10.6737C44.6504 12.8169 47.1504 15.8632 48.6266 19.4272C50.1029 22.9913 50.4892 26.913 49.7366 30.6966C48.984 34.4802 47.1263 37.9557 44.3985 40.6835C41.6707 43.4113 38.1953 45.2689 34.4117 46.0215C30.6281 46.7741 26.7063 46.3879 23.1423 44.9116C19.5782 43.4353 16.532 40.9353 14.3887 37.7278C12.2455 34.5202 11.1016 30.7491 11.1016 26.8914C11.1052 21.7195 13.1614 16.7605 16.8184 13.1034C20.4755 9.4463 25.4346 7.39015 30.6065 7.38651V7.38651Z" fill="#0097DC"/>
<path d="M46.2103 58.1451H15.0024V159.617H46.2103V58.1451Z" fill="#00338D"/>
<path d="M157.824 109.179V108.628C157.687 79.2105 138.044 55.4374 105.918 55.4374C73.7925 55.4374 54.1499 79.2564 54.0122 108.628V109.179C54.0122 141.489 79.0244 162.324 110.278 162.324C126.525 162.324 143 155.027 153.005 142.315L131.711 126.711C126.112 133.274 118.998 138.551 108.81 138.551C96.7394 138.551 87.7442 130.841 85.2659 118.955H156.952C157.53 115.728 157.822 112.457 157.824 109.179V109.179ZM106.744 95.5487H86.6887C88.6162 87.655 95.0413 80.4955 106.744 80.4955C118.447 80.4955 124.872 87.655 126.8 95.5487H106.744Z" fill="#00338D"/>
<path d="M443.055 144.013H181.184V159.617H443.055V144.013Z" fill="#0097A9"/>
<path d="M185.039 104.865H194.08C198.486 104.865 201.515 107.94 201.515 112.483C201.515 117.027 198.44 120.194 194.08 120.194H189.307V128.271H185.039V104.865ZM193.3 116.476C195.778 116.476 197.247 114.916 197.247 112.438C197.247 110.051 195.778 108.491 193.392 108.491H189.353V116.476H193.3Z" fill="#222221"/>
<path d="M205.462 104.865H209.73V119.872C209.73 122.993 211.796 124.783 214.916 124.783C218.037 124.783 220.148 122.993 220.148 119.826V104.865H224.416V119.872C224.416 125.104 220.607 128.684 215.008 128.684C209.317 128.684 205.554 125.104 205.554 119.872V104.865H205.462Z" fill="#222221"/>
<path d="M230.428 104.865H238.781C243.003 104.865 245.986 107.022 245.986 110.877C246.015 111.892 245.765 112.894 245.263 113.777C244.762 114.659 244.028 115.386 243.141 115.88V115.925C245.711 116.706 246.95 119.046 246.95 121.433C246.95 126.114 243.187 128.225 238.873 128.225H230.382V104.865H230.428ZM238.827 114.411C240.663 114.411 241.718 113.08 241.718 111.428C241.718 109.776 240.708 108.537 238.735 108.537H234.696V114.457H238.827V114.411ZM239.24 124.599C241.397 124.599 242.636 123.177 242.636 121.203C242.636 119.23 241.397 117.853 239.24 117.853H234.696V124.599H239.24Z" fill="#222221"/>
<path d="M252.09 104.865H256.358V124.599H266.501V128.271H252.136V104.865H252.09Z" fill="#222221"/>
<path d="M270.356 104.865H274.624V128.271H270.356V104.865Z" fill="#222221"/>
<path d="M291.467 104.452C297.158 104.452 300.095 107.665 300.095 107.665L298.03 110.831C296.25 109.3 293.998 108.425 291.651 108.353C286.694 108.353 283.803 112.025 283.803 116.385C283.803 120.836 286.786 124.737 291.697 124.737C295.735 124.737 298.489 121.754 298.489 121.754L300.738 124.829C299.549 126.057 298.122 127.029 296.543 127.684C294.964 128.34 293.268 128.664 291.559 128.638C284.399 128.638 279.443 123.314 279.443 116.43C279.443 109.684 284.583 104.452 291.467 104.452Z" fill="#222221"/>
<path d="M325.291 122.259H317.076L315.103 128.271H310.697L318.958 104.865H323.409L331.67 128.271H327.264L325.291 122.259ZM321.206 108.904C320.938 110.13 320.601 111.341 320.197 112.529L318.132 118.817H324.281L322.216 112.529C321.803 111.198 321.298 108.904 321.298 108.904H321.206Z" fill="#222221"/>
<path d="M335.158 104.865H348.605V108.537H339.426V115.145H347.182V118.817H339.426V128.271H335.158V104.865Z" fill="#222221"/>
<path d="M353.103 104.865H366.55V108.537H357.371V115.145H365.127V118.817H357.371V128.271H353.103V104.865Z" fill="#222221"/>
<path d="M381.924 122.259H373.709L371.736 128.271H367.33L375.591 104.865H380.042L388.303 128.271H383.898L381.924 122.259ZM377.794 108.904C377.525 110.13 377.188 111.341 376.784 112.529L374.719 118.817H380.869L378.803 112.529C378.39 111.198 377.885 108.904 377.885 108.904H377.794Z" fill="#222221"/>
<path d="M391.792 104.865H396.06V128.271H391.792V104.865Z" fill="#222221"/>
<path d="M402.484 104.865H410.057C412.581 104.865 413.728 105.049 414.784 105.508C417.125 106.563 418.593 108.812 418.593 111.887C418.593 114.686 417.125 117.302 414.646 118.266V118.312C414.953 118.661 415.215 119.046 415.426 119.459L420.245 128.179H415.518L410.883 119.459H406.798V128.179H402.53V104.865H402.484ZM410.562 115.834C412.856 115.834 414.233 114.503 414.233 112.162C414.233 109.913 413.269 108.537 409.965 108.537H406.753V115.834H410.562Z" fill="#222221"/>
<path d="M425.202 122.259C425.202 122.259 427.726 124.737 431.03 124.737C432.82 124.737 434.427 123.819 434.427 121.892C434.427 117.715 423.366 118.45 423.366 111.244C423.366 107.343 426.716 104.452 431.214 104.452C435.849 104.452 438.19 106.976 438.19 106.976L436.354 110.418C436.354 110.418 434.105 108.353 431.168 108.353C429.195 108.353 427.634 109.5 427.634 111.153C427.634 115.329 438.649 114.273 438.649 121.754C438.649 125.472 435.803 128.592 430.939 128.592C429.446 128.62 427.964 128.35 426.577 127.798C425.19 127.247 423.927 126.424 422.861 125.38L425.202 122.259Z" fill="#222221"/>
<path d="M195.503 73.1983C201.24 73.1983 204.223 76.1814 204.223 76.1814L202.112 79.3481C200.342 77.92 198.144 77.128 195.87 77.0993C190.639 77.0993 187.839 80.7249 187.839 85.1307C187.839 90.2249 191.281 93.4834 195.687 93.4834C197.879 93.4306 199.973 92.5635 201.561 91.051V88.2974H197.982V84.6259H205.416V96.9713H201.791V95.8699C201.791 95.365 201.837 94.8602 201.837 94.8602H201.791C199.929 96.5326 197.501 97.4348 194.998 97.3844C188.849 97.3844 183.525 92.6114 183.525 85.2684C183.479 78.4761 188.573 73.1983 195.503 73.1983Z" fill="#222221"/>
<path d="M210.602 73.6114H214.87V93.3458H225.013V97.0173H210.648V73.6114H210.602Z" fill="#222221"/>
<path d="M238.965 73.1983C245.849 73.1983 251.081 78.4302 251.081 85.1307C251.081 92.0148 245.849 97.3844 238.965 97.3844C232.081 97.3844 226.849 92.0148 226.849 85.1307C226.849 78.4761 232.081 73.1983 238.965 73.1983ZM238.965 93.5293C243.233 93.5293 246.675 89.9495 246.675 85.1766C246.675 80.5413 243.233 77.1451 238.965 77.1451C234.696 77.1451 231.254 80.5872 231.254 85.1766C231.254 89.9495 234.651 93.5293 238.965 93.5293V93.5293Z" fill="#222221"/>
<path d="M255.854 73.6114H264.252C268.474 73.6114 271.457 75.7684 271.457 79.6235C271.486 80.6379 271.236 81.6407 270.735 82.5228C270.233 83.4049 269.499 84.1324 268.612 84.6259V84.6718C271.182 85.452 272.421 87.7926 272.421 90.1791C272.421 94.8603 268.658 96.9714 264.344 96.9714H255.854V73.6114ZM264.252 83.1573C266.088 83.1573 267.143 81.8264 267.143 80.1742C267.143 78.522 266.134 77.2829 264.16 77.2829H260.122V83.2032H264.252V83.1573ZM264.665 93.3458C266.822 93.3458 268.061 91.923 268.061 89.9496C268.061 87.9762 266.822 86.5994 264.665 86.5994H260.122V93.3458H264.665V93.3458Z" fill="#222221"/>
<path d="M289.173 91.0052H280.958L278.984 97.0173H274.578L282.839 73.6114H287.291L295.552 97.0173H291.146L289.173 91.0052ZM285.042 77.65C284.774 78.8765 284.436 80.0869 284.032 81.2757L281.967 87.5631H288.117L286.052 81.2757C285.639 79.9447 285.134 77.65 285.134 77.65H285.042Z" fill="#222221"/>
<path d="M299.04 73.6114H303.308V93.3458H313.45V97.0173H299.086V73.6114H299.04Z" fill="#222221"/>
<path d="M328.32 84.58V84.5341C328.32 84.5341 325.337 83.3868 325.337 79.4399C325.337 75.2635 328.687 73.2901 332.726 73.2901C333.763 73.3168 334.794 73.4553 335.801 73.7031L334.791 77.0534C334.279 76.9399 333.756 76.8784 333.231 76.8698C331.257 76.8698 329.651 77.9713 329.651 79.9906C329.651 81.3215 330.431 83.1114 333.231 83.1114H336.948V80.0824H341.125V83.1114H344.154V86.7829H341.125V89.5365C341.125 94.3095 338.004 97.4762 332.726 97.4762C327.632 97.4762 324.373 94.4013 324.373 90.4544C324.318 89.1822 324.671 87.9258 325.382 86.8688C326.092 85.8118 327.121 85.0098 328.32 84.58V84.58ZM332.68 93.5293C335.296 93.5293 336.902 92.0607 336.902 89.2612V86.6911H332.955C330.339 86.6911 328.687 87.8385 328.687 90.1332C328.687 92.0148 330.294 93.5293 332.68 93.5293Z" fill="#222221"/>
<path d="M185.59 59.7973C185.59 59.7973 188.114 62.2755 191.419 62.2755C193.208 62.2755 194.815 61.3576 194.815 59.4301C194.815 55.2538 183.754 55.9881 183.754 48.7827C183.754 44.8817 187.105 41.9904 191.602 41.9904C196.237 41.9904 198.578 44.5146 198.578 44.5146L196.742 47.9566C196.742 47.9566 194.494 45.8914 191.556 45.8914C189.583 45.8914 188.022 47.0387 188.022 48.6909C188.022 52.8673 199.037 51.8117 199.037 59.2924C199.037 63.0098 196.192 66.1306 191.327 66.1306C189.835 66.158 188.352 65.888 186.965 65.3365C185.578 64.7849 184.315 63.9628 183.25 62.918L185.59 59.7973Z" fill="#222221"/>
<path d="M214.228 41.9904C219.919 41.9904 222.856 45.203 222.856 45.203L220.791 48.3697C219.01 46.838 216.759 45.9632 214.411 45.8914C209.455 45.8914 206.564 49.5629 206.564 53.9228C206.564 58.3745 209.547 62.2755 214.457 62.2755C218.496 62.2755 221.25 59.2924 221.25 59.2924L223.498 62.3673C222.31 63.5958 220.882 64.5676 219.304 65.2228C217.725 65.8779 216.029 66.2025 214.32 66.1765C207.16 66.1765 202.204 60.8528 202.204 53.9687C202.204 47.2223 207.344 41.9904 214.228 41.9904Z" fill="#222221"/>
<path d="M227.904 42.4035H232.172V52.3166H242.912V42.4035H247.18V65.8094H242.912V55.9881H232.172V65.8094H227.904V42.4035Z" fill="#222221"/>
<path d="M264.069 41.9904C270.953 41.9904 276.185 47.2223 276.185 53.9228C276.185 60.8069 270.953 66.1765 264.069 66.1765C257.185 66.1765 251.953 60.8069 251.953 53.9228C251.953 47.2223 257.139 41.9904 264.069 41.9904ZM264.069 62.3214C268.337 62.3214 271.779 58.7417 271.779 53.9687C271.779 49.3334 268.337 45.9373 264.069 45.9373C259.8 45.9373 256.358 49.3793 256.358 53.9687C256.313 58.7417 259.755 62.3214 264.069 62.3214V62.3214Z" fill="#222221"/>
<path d="M291.467 41.9904C298.351 41.9904 303.583 47.2223 303.583 53.9228C303.583 60.8069 298.351 66.1765 291.467 66.1765C284.583 66.1765 279.351 60.8069 279.351 53.9228C279.351 47.2223 284.537 41.9904 291.467 41.9904ZM291.467 62.3214C295.735 62.3214 299.177 58.7417 299.177 53.9687C299.177 49.3334 295.735 45.9373 291.467 45.9373C287.199 45.9373 283.757 49.3793 283.757 53.9687C283.711 58.7417 287.153 62.3214 291.467 62.3214V62.3214Z" fill="#222221"/>
<path d="M308.356 42.4035H312.624V62.1379H322.767V65.8094H308.402V42.4035H308.356Z" fill="#222221"/>
<path d="M345.622 41.9904C352.506 41.9904 357.738 47.2223 357.738 53.9228C357.738 60.8069 352.506 66.1765 345.622 66.1765C338.738 66.1765 333.506 60.8069 333.506 53.9228C333.506 47.2223 338.738 41.9904 345.622 41.9904ZM345.622 62.3214C349.89 62.3214 353.332 58.7417 353.332 53.9687C353.332 49.3334 349.89 45.9373 345.622 45.9373C341.354 45.9373 337.912 49.3793 337.912 53.9687C337.912 58.7417 341.354 62.3214 345.622 62.3214V62.3214Z" fill="#222221"/>
<path d="M362.557 42.4035H376.004V46.075H366.825V52.6838H374.581V56.3553H366.825V65.8094H362.557V42.4035Z" fill="#222221"/>
</g>
<defs>
<clipPath id="clip0">
<path d="M10 5H445.992V162.875H10V5Z" fill="white"/>
</clipPath>
</defs>
</svg>
